<svg width="219" height="67" viewBox="0 0 219 67" fill="none" xmlns="http://www.w3.org/2000/svg">
<path opacity="0.4" d="M34.3909 33.8929L34.1977 33.8204L34.1288 33.8276L33.8063 33.6295L33.6384 33.5775L33.229 33.4349C33.1831 33.4398 33.1783 33.3939 33.1553 33.3963L33.0152 33.3878L32.7809 33.366L32.5828 33.2476L32.5091 33.2089L32.2168 33.0772L31.5682 32.867L31.2095 32.7654L30.6829 32.612L30.6346 32.5938L30.1816 32.479L29.7105 32.4125L29.4943 32.3424L29.347 32.2651L29.0801 32.1539L28.6223 31.9932L28.551 31.9775L27.9688 31.737C27.8746 31.7237 27.6814 31.6512 27.5848 31.6149L27.0098 31.4433L26.3455 31.3043L25.7222 31.1146L25.4831 31.0469L25.1582 30.8258L24.9577 30.6844L24.5893 30.4911L24.3961 30.4186L23.8852 30.1939L23.6919 30.1214C23.6436 30.1032 23.6182 30.0827 23.5953 30.0851L23.4298 30.0561L23.2112 29.9631L22.96 29.7806L22.937 29.783L22.6834 29.5777L22.524 29.3856L22.4225 29.3034L22.2221 29.1621L22.1436 29.0775L22.0397 28.9724L21.931 28.8214L21.8296 28.7392L21.7897 28.581L21.6883 28.4988L21.6364 28.2258L21.5736 28.07L21.5302 27.6569L21.5459 27.5856L21.5604 27.2825L21.6462 26.995L21.7683 26.6109L21.8637 26.4152L21.9411 26.2679L22.2238 25.8669L22.3651 25.6664L22.6454 25.2425L23.0139 24.9949L23.1395 24.8657L23.6517 24.4406L23.8487 24.3271L23.8897 24.2764L24.5058 23.9564L24.6544 23.8247L25.2427 23.4612L25.5725 23.2874L26.1125 22.9057L26.5244 22.6304L26.5679 22.6026L27.4014 22.1438L27.4908 22.1112L27.6467 22.0484L27.736 22.0158L27.8001 21.9626L28.0888 21.8395L28.2881 21.7489L28.4645 21.6608L29.0491 21.4833L29.3221 21.4314C29.4574 21.394 29.5879 21.3107 29.7232 21.2732C29.8125 21.2406 29.943 21.1573 30.0095 21.1271L30.303 21.0499L30.7548 20.9328L31.1606 20.8205L31.25 20.7879L31.5436 20.7106L31.947 20.5754L32.243 20.5211L32.4495 20.4994L32.615 20.5284L32.8445 20.5043L33.0812 20.549C33.2214 20.5575 33.4557 20.5793 33.6236 20.6312L33.7661 20.6627C33.9642 20.7811 34.19 20.943 34.3337 21.2063L34.3663 21.2957L34.4569 21.495L34.4738 21.6557L34.4568 21.9359L34.4834 22.1884L34.4664 22.4686L34.4905 22.6981L34.1632 22.8949L33.8829 22.878L33.5834 22.6774L33.2972 22.3826L33.2223 22.1121L33.0907 21.9635L32.9615 21.8378C32.9156 21.8427 32.8443 21.8269 32.8213 21.8294L32.6051 21.7593L32.2488 21.6807C32.157 21.6903 32.0374 21.6565 31.9456 21.6661L31.5072 21.689L31.1955 21.8146L30.8126 21.9245L30.4707 21.9836L29.9573 22.1768C29.7303 22.2238 29.4391 22.3241 29.212 22.3711L28.9874 22.4412C28.8291 22.481 28.6987 22.5643 28.5634 22.6017L28.1188 22.7877C27.6743 22.9736 27.3167 23.104 26.813 23.389L26.5315 23.581L26.3878 23.7586L26.2114 23.8467L25.8309 23.9795L24.4827 24.8405L24.2496 25.0507L23.6214 25.6968C23.3978 25.9988 23.1381 26.3973 23.0475 26.6389L22.9435 26.9747L22.7864 27.2464L22.7321 27.3914C22.7369 27.4373 22.7671 27.5037 22.7719 27.5496L22.8504 27.6342L22.9579 27.9941L23.0436 28.1476L23.2054 28.3626C23.2332 28.4061 23.2839 28.4472 23.3322 28.4653L23.5122 28.632L23.5448 28.7214C23.6003 28.8084 23.7018 28.8905 23.7573 28.9775L23.9832 29.1394L24.1535 29.2143L24.3262 29.3122L24.4965 29.3871L24.8697 29.6263L25.2586 29.7943L25.6826 30.0746L25.8275 30.1289C25.8988 30.1447 25.97 30.1604 26.0389 30.1531L26.4072 30.3465L26.8191 30.512C26.865 30.5072 26.9133 30.5253 26.9363 30.5229L27.2974 30.6474L27.7298 30.7876L28.7722 31.2117L28.7951 31.2093L29.3495 31.4063L29.4691 31.4401L29.7384 31.5742L30.5803 31.857L30.863 31.8969L31.1685 31.9344L31.5225 31.99L31.9367 32.1785L32.3462 32.3211L33.0407 32.5266L33.3487 32.587L33.5444 32.6825L33.7883 32.796L34.0577 32.9302L34.5638 33.109L34.9708 33.2287L35.4999 33.4051C35.5482 33.4232 35.6653 33.4341 35.6883 33.4317L35.8634 33.5525L36.0434 33.7192L36.1424 33.7784L36.2414 33.8376L36.4854 33.9512C36.5615 34.0128 36.6557 34.0261 36.704 34.0443C36.8719 34.0962 36.9456 34.1349 37.1183 34.2328L37.192 34.2714L37.5096 34.4237L37.8261 34.7849C37.8538 34.8284 37.9094 34.9153 37.9323 34.9129L38.0736 35.1533L38.3465 35.5423L38.4443 35.8105C38.6508 36.2297 38.6858 36.342 38.7015 36.7116C38.7039 36.7346 38.7317 36.7781 38.7341 36.801L38.7678 37.1223L38.7279 37.405L38.537 37.7963C38.4102 38.1345 38.1975 38.3193 37.9257 38.6031L37.7203 38.8567C37.4485 39.1405 37.2129 39.3277 36.9157 39.591C36.8312 39.6695 36.6874 39.847 36.6463 39.8977L36.4494 40.0113L36.3806 40.0185L34.9962 40.9761L34.9503 40.981L34.2315 41.4278L34.0032 41.6838L33.8932 41.7418L33.2566 42.0871L32.6731 42.4965L32.3385 42.6245L31.6077 42.9566L30.599 43.2946L29.4925 43.8054L28.6699 44.1471L28.4247 44.2425L28.2664 44.2823L28.2024 44.3355L27.6226 44.5588L27.05 44.851L26.7383 44.9766L26.1404 45.2483L25.7297 45.3147L25.1317 45.5864L23.6508 46.0669L21.6661 46.8324L20.5451 47.2054L19.6089 47.3502L18.4384 47.4733C18.1884 47.5227 17.9432 47.6181 17.7161 47.6652L17.0783 47.7786C16.3052 47.9295 15.4379 48.0671 14.66 48.172L14.573 48.2276L14.346 48.2747L13.3385 48.4037L13.2467 48.4134L12.9532 48.4907L11.8697 48.5581L11.3491 48.6825L11.1401 48.6812L10.6002 48.6219C10.4854 48.634 10.3659 48.6002 10.2741 48.6098L9.92257 48.5771L9.73414 48.5505L9.38988 48.5867L9.08912 48.5951L9.01785 48.5794L8.66877 48.5697L8.13608 48.5793L7.8329 48.5647L6.76636 48.352C6.74341 48.3544 6.6951 48.3363 6.6951 48.3363L6.15276 48.254L6.05855 48.2407L5.76384 48.0861C5.2324 47.8867 5.01619 47.8166 4.70702 47.5242L4.40749 47.3237L4.1418 47.0035L3.91478 46.6097L3.88218 46.5203L3.74813 46.3488L3.5537 46.0444L3.43296 45.7786L3.41848 45.6409L3.3557 45.4851L3.34122 45.3474L3.34729 45.1843L3.41014 44.8993C3.40773 44.8763 3.42586 44.828 3.42345 44.8051L3.43434 44.6879L3.50925 44.5176C3.52255 44.4234 3.56122 44.3497 3.66391 44.2229L3.78714 44.0707L3.91278 43.9415L4.13388 43.6166C4.2547 43.4415 4.52169 43.1117 4.66787 42.9572L5.6706 41.9004L5.96778 41.6371L6.13209 41.4342L6.29881 41.2543L6.70351 40.9101L7.11786 40.6577L7.29182 40.5466L7.45006 40.5068L7.77619 40.5189L7.80755 40.8173L7.77612 40.9598L7.61181 41.1627L7.2639 41.3849C7.17692 41.4404 7.18416 41.5093 7.03074 41.595L6.83866 41.7544L6.79517 41.7822L6.67194 41.9344L6.48227 42.1167L6.18991 42.4259L5.97971 42.6336L5.8287 42.7423L5.79004 42.816L5.70547 42.8945L5.52304 43.1457L5.31766 43.3994L4.92502 43.8583C4.74741 44.1554 4.57945 44.5443 4.50088 44.9006L4.43561 45.1628C4.4199 45.234 4.41383 45.3971 4.41866 45.443L4.43795 45.6266L4.51521 45.9201L4.578 46.0759L4.66615 46.2523L4.83039 46.4903L4.90647 46.5519L5.22895 46.7501L5.60457 47.0122L5.83283 47.1971L5.95 47.208C5.9959 47.2031 6.04421 47.2213 6.06716 47.2189L6.2121 47.2732L6.62156 47.4158L6.79668 47.5366L6.81964 47.5342L7.57335 47.6407L7.88135 47.7011L8.09756 47.7712L8.14346 47.7664C8.72928 47.8208 9.33564 47.8499 9.96013 47.8307C9.98308 47.8283 10.0084 47.8488 10.0314 47.8464L10.4699 47.8235L10.6076 47.809C10.6305 47.8066 10.6329 47.8296 10.7247 47.8199L10.9289 47.7753L11.0231 47.7886L11.1354 47.7535L11.4338 47.7222L11.5534 47.756L11.6657 47.721L11.8976 47.7198L12.8386 47.6209L13.1804 47.5618L13.2747 47.5751L14.119 47.44L14.3896 47.3651L14.6783 47.242L14.9791 47.2335L15.188 47.2348L15.8464 47.096L16.007 47.0791L16.3923 46.9922L16.5917 46.9016L17.186 46.816L17.4795 46.7387L18.2731 46.5625L19.0873 46.3609L19.3144 46.3138L19.562 46.2414L20.0899 46.1859L21.5503 45.7307L22.0637 45.5376L22.2219 45.4977L22.5106 45.3746L22.8754 45.313L23.5036 45.1078L23.8357 44.9568L25.0546 44.4111L25.9606 44.1998L26.4051 44.0139L27.2024 43.6516L27.3401 43.6371L28.2086 43.2906L28.4466 43.1264L28.8404 42.8994L28.9733 42.839L29.2233 42.7895L29.9131 42.5082L30.11 42.3947L30.5751 42.1833L30.7237 42.0517L31.26 41.8561L31.5668 41.6846L32.3641 41.3224L33.2363 40.7898L33.3921 40.7271L33.6531 40.5604L34.2365 40.151L34.3694 40.0906L34.6533 39.9216L35.18 39.6342L35.395 39.4724L35.5279 39.412C35.656 39.3057 35.871 39.1439 35.9761 39.04L36.15 38.9289L36.3832 38.7188L36.504 38.5437L36.6865 38.2924L36.9426 38.0799L37.0936 37.9712C37.3992 37.5678 37.485 37.2804 37.4996 36.9772C37.4972 36.9542 37.531 36.8346 37.5286 36.8117L37.4513 36.5182L37.3898 36.1534C37.3644 36.1328 37.3366 36.0893 37.3366 36.0893L37.3065 36.0229L37.0963 35.7897L36.6133 35.1676C36.3874 35.0057 36.0094 34.7206 35.74 34.5865L35.1989 34.2953L35.0516 34.2179L34.49 33.9521L34.3909 33.8929ZM48.2529 24.0593L48.5948 24.0002L48.8979 24.0147L48.9136 23.9434L49.4441 23.0291L49.5033 22.9301L49.7401 22.534L49.9636 22.232L50.0433 22.1076L50.2596 21.7368L50.3212 21.6607C50.3188 21.6378 50.3369 21.5895 50.3369 21.5895L50.4807 21.4119L50.5604 21.2875L50.6221 21.2114L50.7199 21.0387L50.7175 21.0158L50.813 20.8201L51.0413 20.5641L51.2032 20.3382L51.3083 20.2344L51.3904 20.1329L51.591 19.8334L51.8169 19.5544L52.0646 19.482L52.2735 19.4832L52.5525 19.7091L52.6431 19.9084L52.7022 20.2503L52.5838 20.4484L52.3736 20.6561L52.2347 20.8795L52.0522 21.1307L51.9338 21.3288L51.639 21.615L51.4385 21.9146L50.9866 22.4725L50.2388 23.5257L50.0588 23.7999L50.2859 23.7528L50.6507 23.6913L51.3319 23.55L52.1835 23.4837L52.8418 23.3449L53.4845 23.2774L53.6982 23.3245L53.8589 23.3077L54.1645 23.3451C54.2128 23.3633 54.3759 23.3693 54.4218 23.3645L54.6694 23.2921L54.9979 23.3272C55.1127 23.3151 55.2226 23.2571 55.3374 23.2451L55.498 23.2282L55.7529 23.2246L56.0355 23.2645C56.0585 23.2621 56.1298 23.2778 56.1527 23.2754L56.3846 23.2742L57.0212 23.3698C57.0465 23.3903 57.1408 23.4036 57.1637 23.4012L57.5309 23.3626L57.7266 23.458L58.1904 23.4557C58.2363 23.4509 58.2846 23.469 58.3076 23.4666L58.4573 23.5669C58.4573 23.5669 58.4549 23.5439 58.5491 23.5572L59.3632 23.7965C59.3886 23.8171 59.4369 23.8352 59.4599 23.8328L59.9382 23.9681C59.9865 23.9863 59.9865 23.9863 60.0094 23.9838C60.0348 24.0044 60.0601 24.0249 60.0372 24.0273L60.2003 24.0334L60.5385 24.1603L60.6471 24.3113L60.7945 24.3886L60.9552 24.3717L61.1629 24.5819L61.3887 24.7438L61.4648 24.8054C61.5107 24.8006 61.5361 24.8212 61.559 24.8187L61.8754 25.18L61.9008 25.2005L62.0904 25.459L62.2039 25.6559L62.3645 26.0799L62.4551 26.2792L62.484 26.5546L62.3644 26.9617L62.2665 27.1344L62.101 27.1054L61.9718 26.9797L61.8619 26.5968C61.8571 26.5509 61.8269 26.4845 61.8221 26.4386C61.7641 26.3287 61.6506 26.1317 61.5975 26.0677L61.4236 25.7379L61.234 25.4794L61.0263 25.2692L60.8004 25.1073L60.7775 25.1097L60.4067 24.8935C60.3354 24.8777 60.2134 24.8209 60.2134 24.8209C60.1905 24.8234 60.1651 24.8028 60.1651 24.8028L59.9211 24.6892L59.7786 24.6578C59.7327 24.6626 59.5443 24.636 59.438 24.508L59.0793 24.4065C58.9645 24.4185 58.7761 24.3919 58.6613 24.404L58.45 24.3798L58.1601 24.271L57.8062 24.2154C57.5465 24.1731 57.3146 24.1743 57.0343 24.1573C56.8966 24.1718 56.7082 24.1452 56.5935 24.1572L56.1961 24.1294C56.1502 24.1342 56.0789 24.1185 56.0559 24.1209L55.8264 24.145L55.6452 24.1873L55.2249 24.1619C55.156 24.1691 55.0848 24.1534 55.0389 24.1582L54.8323 24.1799L54.5291 24.1654C54.3431 24.1617 54.1595 24.181 53.9989 24.1979L53.9095 24.2305L53.8382 24.2148C53.7694 24.222 53.6981 24.2063 53.6293 24.2135L53.4686 24.2304C52.7342 24.3076 51.9998 24.3848 51.2678 24.485L51.1784 24.5176L51.002 24.6057L50.3389 24.6986L50.0659 24.7505L49.2565 24.998L49.0765 25.2722L48.8192 25.6937L48.7672 25.8616L48.6391 25.9678C48.5183 26.143 48.4362 26.2444 48.3383 26.4171C48.3407 26.4401 48.325 26.5113 48.325 26.5113L48.0012 26.9631L47.71 27.5041L47.5324 27.8013L47.147 28.3291L46.5139 29.3702L46.375 29.5936L45.9968 30.1903L45.9424 30.3352L45.8192 30.4874C45.7781 30.5381 45.7419 30.6347 45.7032 30.7084L45.592 30.9753L45.4712 31.1504L45.3298 31.3509L45.1861 31.5285L45.0471 31.7519L45.0085 31.8256L44.9384 32.0418L44.501 32.7375L44.2388 33.1131L43.7193 33.9102L43.3713 34.5733L43.0185 35.1905C42.9847 35.3101 42.9569 35.2666 42.9001 35.3886L42.5836 35.9091L42.5062 36.0565L42.302 36.542C42.2706 36.6846 42.2114 36.7836 42.18 36.9261L41.9842 37.2715L41.7824 37.78L41.6556 38.1182L41.6676 38.233L41.6616 38.3961L41.5093 38.7137C41.519 38.8055 41.4416 38.9529 41.4513 39.0447L41.45 39.2536L41.473 39.2512L41.8764 39.116L42.0323 39.0532L42.2111 38.988L42.3826 38.854L42.559 38.7658L42.7353 38.6777L42.9069 38.5436L43.0651 38.5038L43.2644 38.4132L43.372 38.3323L43.5097 38.3178L44.075 37.9568L44.4894 37.7044L44.7044 37.5425L44.9061 37.4749L44.9931 37.4194L45.6273 37.0511L45.8858 36.8615L45.9752 36.8289L46.9573 36.2384L47.2159 36.0488L47.3693 35.963L47.6121 35.8447L47.9189 35.6732L47.9987 35.5488L48.3417 35.2807L48.6075 35.16L48.9167 35.0114L49.4797 34.6274L49.5461 34.5972L49.6718 34.468L50.0173 34.2229L50.1272 34.1649L50.1936 34.1347L50.2371 34.1069L50.3881 33.9982L50.6611 33.9463L50.8109 34.0466L50.8555 34.2508L50.8519 34.4368L50.6369 34.5986L50.5064 34.6819L50.4653 34.7327L49.8891 35.2109L49.8685 35.2363L49.6946 35.3474L49.459 35.5346L49.1135 35.7797L48.8731 35.921L48.6714 35.9886L48.367 36.183L48.216 36.2917L48.1749 36.3424L47.8729 36.5598L47.7243 36.6914L47.1746 36.9813L46.9028 37.2651L46.747 37.3279L46.4812 37.4486L46.4583 37.451C46.4148 37.4788 46.3532 37.5549 46.3326 37.5802C46.2916 37.631 46.2251 37.6612 46.2046 37.6865L46.0693 37.7239L45.8929 37.8121L45.783 37.8701L45.6018 37.9123C45.5789 37.9147 45.5148 37.9679 45.5148 37.9679L45.3844 38.0512L44.9519 38.3519L44.7344 38.4908L44.5037 38.7238L44.4348 38.7311L44.2198 38.8929L43.8671 39.0692L43.4829 39.388L43.2582 39.458L42.9103 39.6802L42.3353 39.9495L41.5127 40.2912L41.2167 40.3455L41.0996 40.3346L40.9341 40.3056L40.794 40.2972L40.5065 40.2113L40.3652 39.971L40.2976 39.7692L40.2687 39.4938C40.2638 39.4479 40.2771 39.3537 40.2747 39.3307C40.2808 39.1677 40.3279 38.9539 40.4065 38.5976C40.4017 38.5517 40.4331 38.4091 40.4283 38.3632L40.5262 38.1905L40.5189 38.1217L40.5528 38.0021L40.6917 37.7787L40.7594 37.5395L40.9636 37.054L41.0615 36.8812C41.0566 36.8353 41.0929 36.7387 41.0905 36.7158L41.2113 36.5406L41.3116 36.3909C41.3527 36.3402 41.366 36.2459 41.407 36.1952L41.5049 36.0225L41.6596 35.7278L41.819 35.479L41.9169 35.3063L42.0788 35.0804L42.1561 34.9331L42.3156 34.6843L42.4775 34.4584C42.4727 34.4125 42.4908 34.3642 42.4884 34.3413L42.6116 34.1891L42.6914 34.0647L42.8508 33.8159L42.9668 33.5948L43.101 33.3255L43.217 33.1045L43.3764 32.8557C43.374 32.8327 43.397 32.8303 43.3946 32.8074L43.6724 32.3605L43.786 32.1165L44.0736 31.7614L44.2717 31.4389C44.3901 31.2409 44.5061 31.0198 44.6861 30.7457L44.7429 30.6237L44.9302 30.4184C45.1646 29.9993 45.4147 29.5089 45.6515 29.1127L45.7542 28.9859L46.1118 28.4147C46.2556 28.2371 46.2943 28.1634 46.3716 28.0161L46.4876 27.7951L46.7135 27.5161L46.8017 27.2516L47.0748 26.7588L47.1436 26.7515L47.1799 26.6549L47.3962 26.2841L47.6354 25.9109L47.7973 25.6851L47.8722 25.5148L48.0981 25.2358L48.1114 25.1416L47.9967 25.1536L47.7261 25.2285L47.0424 25.3467L46.3635 25.5109L46.1594 25.5556L46.0011 25.5954L45.4189 25.7958L45.2401 25.861L44.101 26.2824L43.9246 26.3705L43.7688 26.4333L43.5695 26.5239L42.864 26.8765L42.6671 26.99L42.1948 27.1325L41.7769 27.13L41.5377 27.0623L41.3855 26.9391L41.2056 26.7723L41.1513 26.4764L41.1755 26.265C41.2117 26.1684 41.2456 26.0488 41.486 25.9075L41.6394 25.8218C41.9897 25.6225 42.189 25.532 42.549 25.4245L42.8425 25.3473L43.1928 25.148L43.5806 25.0841L43.7231 25.1155L44.6291 24.9043L44.6955 24.8741L45.3285 24.7147L45.8056 24.6182L45.8769 24.6339L46.0351 24.594L46.104 24.5868L46.7092 24.384L46.865 24.3212L47.0027 24.3067L47.388 24.2198L47.4545 24.1896L47.5716 24.2005L47.9546 24.0907L48.2529 24.0593ZM50.3563 35.2314L50.2041 35.5491C50.1811 35.5515 50.1811 35.5515 50.1835 35.5744L50.0023 36.0576C50.0191 36.2182 50.03 36.5419 50.0444 36.6796C50.0287 36.7509 50.0456 36.9115 50.1289 37.042C50.1821 37.106 50.2992 37.1169 50.6507 37.1496L50.9817 37.2076L51.28 37.1763L51.6195 37.0942L53.1874 36.5581L53.5607 36.3565L54.358 35.9942L54.5525 35.8578L54.6877 35.8203L55.9815 35.1043L56.2219 34.963L56.4695 34.8905L57.2209 34.5331L57.2874 34.5029C57.6812 34.2759 58.0061 34.0561 58.313 33.8846L59.1852 33.3521L59.4896 33.1577L59.579 33.1251L59.7964 32.9862L60.1286 32.8353L60.7833 32.4416L60.909 32.3124L61.8972 31.5588L62.3296 31.2581C62.4782 31.1264 62.5012 31.124 62.5882 31.0685C62.6727 30.99 62.7392 30.9598 62.8974 30.92C63.0351 30.9055 63.2187 30.8862 63.3045 31.0396C63.3878 31.1701 63.2537 31.4394 63.1027 31.5481L62.9287 31.6592L62.8006 31.7655L62.35 32.1145L62.0734 32.3524L62.0299 32.3802L61.5769 32.7062L61.4054 32.8403L61.2543 32.949L61.1492 33.0528L61.0164 33.1132L60.9705 33.118L60.4051 33.4791C60.3616 33.5069 60.2771 33.5854 60.2771 33.5854L60.0596 33.7243C60.0161 33.752 59.8627 33.8378 59.7781 33.9163L58.947 34.3981L58.6861 34.5647C58.5121 34.6758 58.3406 34.8099 58.1642 34.898L58.1026 34.9741L57.1 35.59L56.5503 35.8798L56.3486 35.9474L56.1517 36.0609C55.8883 36.2046 55.5791 36.3532 55.2928 36.4993C55.1829 36.5572 55.0778 36.6611 54.9678 36.7191L54.272 37.1635L53.8227 37.3035L53.4675 37.4568L53.0918 37.6356L52.7089 37.7454L52.576 37.8058C52.489 37.8613 52.3308 37.9012 52.1291 37.9688L51.751 38.1245L51.6157 38.162L51.1893 38.2996L50.758 38.3913L50.1746 38.3598L49.5719 38.1447L49.2024 37.7195L49.0563 37.4332L48.9536 37.1191L48.8945 36.7773L48.8982 36.5913L48.8764 36.3847L48.9768 35.7941L49.1061 35.4788C49.1375 35.3363 49.1991 35.2602 49.2306 35.1177L49.4396 34.678L49.7018 34.3024L50.0642 33.777L50.3614 33.5138L50.6103 33.2324L50.7975 33.0271L51.0875 32.6949L51.1286 32.6442C51.1467 32.5959 51.2107 32.5428 51.2288 32.4944L51.3956 32.3145L51.5671 32.1804L51.8921 31.9606L51.9355 31.9329L52.0201 31.8544C52.4659 31.4595 52.9298 31.0162 53.4468 30.637L53.7005 30.4015L54.2659 30.0405L54.4604 29.904L54.5727 29.869L54.8663 29.7917C55.2214 29.6384 55.3724 29.5297 55.5282 29.4669L56.0211 29.2991L56.2506 29.275C56.3194 29.2677 56.3859 29.2375 56.4547 29.2303L56.799 29.1941C56.8908 29.1845 57.0309 29.1929 57.1227 29.1833C57.2652 29.2147 57.3389 29.2534 57.3872 29.2715L57.6542 29.3827C57.8039 29.483 57.9283 29.5627 57.9935 29.7415L58.066 29.9891L58.0986 30.0785L58.1021 30.3334L58.0574 30.5701L57.997 30.8781L57.7348 31.2537L57.4811 31.4892L57.2733 31.7199L57.0172 31.9325L56.3516 32.4433L56.2259 32.5725L56.0906 32.61C55.5784 33.0351 55.1049 33.3865 54.6059 33.7174L54.4984 33.7983L53.8666 34.1895L53.59 34.4275L52.9993 34.768L52.603 34.9721L51.9266 35.1592L51.5388 35.2231L51.3323 35.2448L51.0195 35.1385L50.9724 34.9114L50.976 34.7254C51.2974 34.2507 51.4943 34.1372 51.8471 33.9609C51.87 33.9585 51.9111 33.9078 51.934 33.9054C52.1611 33.8583 52.4522 33.7581 52.6793 33.711L52.9246 33.6156L53.1468 33.5227L53.3667 33.4067L53.8547 33.193L54.3307 32.8645L54.7909 32.6073C55.0084 32.4685 55.308 32.2281 55.5254 32.0893L55.6764 31.9806L55.8866 31.7728L56.7504 30.9395C56.7709 30.9142 56.8531 30.8127 56.8712 30.7644C56.8893 30.7161 56.8893 30.7161 56.8845 30.6702L56.9184 30.5506L56.9993 30.2172C56.974 30.1967 56.951 30.1991 56.9486 30.1762L56.753 30.0807C56.7046 30.0626 56.6793 30.042 56.6563 30.0445L56.4039 30.071L56.2456 30.1108L56.1103 30.1483C55.6175 30.3161 55.1137 30.6011 54.7888 30.8208L54.6354 30.9066L54.3744 31.0732L54.3334 31.124L53.8526 31.4065L53.7656 31.4621L53.379 31.758L53.1072 32.0418L52.7617 32.2869L52.6953 32.3171L52.357 32.6311C52.3159 32.6818 52.27 32.6867 52.2289 32.7374C52.2108 32.7857 52.1492 32.8618 52.1287 32.8871L51.8182 33.2446L51.6744 33.4222L51.4461 33.6782L51.1815 34.0309L50.9785 34.3075L50.8347 34.485C50.7937 34.5357 50.7598 34.6553 50.7188 34.706L50.5822 34.9524L50.3563 35.2314ZM60.8288 33.7826L61.0233 33.6462C61.0619 33.5725 61.1139 33.4046 61.1296 33.3334L61.2202 33.0918L61.2106 33L61.4172 32.5374C61.4124 32.4915 61.4257 32.3973 61.4209 32.3514L61.5139 32.1328L61.5719 31.8018L61.6674 31.6061L61.7737 31.2933C61.7641 31.2015 61.7907 31.0131 61.781 30.9213L61.7895 30.7812L61.8572 30.542C61.8572 30.542 61.8934 30.4454 61.9321 30.3717C61.9527 30.3463 61.9502 30.3234 61.9478 30.3004C61.966 30.2521 61.9998 30.1326 62.1436 29.955L62.1822 29.8813L62.3876 29.6277C62.5181 29.5444 62.6328 29.5323 62.7754 29.5638C63.2416 29.5844 63.4372 30.1207 63.3768 30.4287L63.3006 30.808L63.1012 31.3394C63.106 31.3853 63.0879 31.4336 63.0927 31.4795L62.8946 31.802L62.8765 31.8503L63.0685 31.6909L63.3609 31.3817L63.4044 31.354C63.4249 31.3286 63.4865 31.2525 63.53 31.2247C63.5965 31.1945 63.768 31.0605 63.8115 31.0327L64.0748 30.889L64.2488 30.7779L64.3334 30.6994L64.7501 30.47L65.487 29.9749L65.5692 29.8734L65.7045 29.836C65.8808 29.7478 66.1188 29.5836 66.4849 29.3131L67.2314 28.9098L68.2896 28.3809L68.4382 28.2492L68.6629 28.1792L69.7006 27.6757C69.9458 27.5803 70.2574 27.4547 70.6017 27.4185L70.6681 27.3884L71.0353 27.3498L71.2443 27.351L71.4122 27.403C71.4581 27.3981 71.5753 27.409 71.5982 27.4066L71.7226 27.4864L71.969 27.6229L72.1308 27.8379L72.2093 27.9225L72.3639 28.0687L72.411 28.2958L72.3953 28.367C72.4701 28.6376 72.5087 29.0048 72.4096 29.3865C72.3697 29.6691 72.325 29.9059 72.1316 30.2743L71.9165 30.877L71.7136 31.1535L71.3004 31.6378L71.1518 31.7695L70.9645 31.9748L70.3436 32.6898L69.4315 33.505L68.7997 33.8962L68.3576 34.1051L68.337 34.1305L68.2295 34.2114L67.8792 34.4107L67.5772 34.628L67.3754 34.6956L66.4755 35.1847L66.2145 35.3513L66.0563 35.3912L65.8799 35.4793L65.584 35.5336C65.6504 35.5035 65.2264 35.664 65.0936 35.7244L64.8254 35.8222L64.713 35.8572L64.6671 35.862L64.4449 35.955L64.2685 36.0432L63.9496 36.0999L63.8143 36.1373L63.3094 36.1904L63.2152 36.1771L63.0956 36.1432C62.5883 36.1734 62.046 36.0911 61.616 35.9739C61.5701 35.9787 61.5218 35.9606 61.4251 35.9243L61.4022 35.9268L61.0459 35.8482L60.8658 36.1224L60.809 36.2443L60.8115 36.2673L60.3221 37.1309L60.2931 37.2963L60.2025 37.5379L60.1022 37.6877C60.0454 37.8097 59.9198 37.9389 59.863 38.0609L59.5875 38.5307L59.1284 39.4607L59.0993 39.6262L58.9217 39.9233L58.7948 40.2615L58.6305 40.4644L58.5532 40.6118C58.517 40.7084 58.4348 40.8098 58.3986 40.9065L58.2717 41.2447L58.169 41.3715L58.0916 41.5188L58.0941 41.5418L57.9394 41.8365C57.8258 42.0805 57.6663 42.3293 57.5528 42.5732L57.4368 42.7943L57.3026 43.0636L57.2483 43.2085L56.9571 43.7496L56.8979 43.8487L56.6321 44.4103L56.4363 44.7557L56.2974 44.9792L56.0219 45.449L55.9446 45.5964L55.7694 45.9164L55.7718 45.9394L55.576 46.2848L55.3984 46.5819L55.1073 47.123L55.1097 47.146L55.0299 47.2704L54.9393 47.5119L54.6179 47.9866L54.0174 49.1171L53.7734 49.4444C53.655 49.6425 53.5257 49.9577 53.3867 50.1812L53.2731 50.4251C52.9844 50.9892 52.7367 51.5025 52.4394 52.2067L51.857 53.7297L51.788 54.1778L51.5632 55.1296L51.4955 55.3688L51.4508 55.6055L51.4556 55.6514L51.4472 55.7915L51.3819 56.0537L51.2417 56.4861L51.0182 56.788L50.8624 56.8508L50.75 56.8858L50.5338 56.8157L50.3285 56.6284L50.2078 56.3627L50.1727 56.2504L50.1583 56.1126L50.1499 55.8119L50.1475 55.348L50.1632 55.2768L50.1476 54.9072L50.1645 54.6269L50.2165 54.459C50.2093 54.3902 50.2407 54.2477 50.2335 54.1788L50.3459 53.7029L50.3362 53.6111L50.4293 53.3925C50.4559 53.2041 50.4571 52.9951 50.5043 52.7813L50.8946 51.4177L51.2584 50.2424L51.3079 50.0516L51.4481 49.6192L51.7285 48.7544L51.9085 48.4802L52.1466 47.8751L52.1974 47.4753L52.5115 46.9318L52.6807 46.3339L52.7303 46.143L52.9441 45.7493L53.1809 45.3531L53.3175 45.1067L53.4286 44.8398L53.6244 44.4944L54.104 43.539L54.359 43.0945L54.5294 42.7286C54.6248 42.5329 54.7203 42.3372 54.8411 42.1621C54.8387 42.1392 54.8338 42.0933 54.852 42.045L55.0272 41.7249L55.1939 41.5449L55.2869 41.3263C55.3051 41.278 55.3026 41.2551 55.3002 41.2321L55.4319 40.9398L55.4863 40.7949L55.6736 40.5896L55.8149 40.3891L56.2318 39.7188L56.5942 39.1934L56.6582 39.1402L56.7332 38.9699L56.982 38.6885L57.301 38.1909L57.3674 38.1607L57.7275 37.6124L57.9558 37.3564L57.9969 37.3056C58.015 37.2573 58.0561 37.2066 58.0972 37.1559L58.2542 36.8841L58.3932 36.6607L58.5732 36.3865L58.7605 36.1812L58.9453 35.9529L59.0734 35.8467L59.1531 35.7223L59.2606 35.6414L59.4225 35.4155L59.5735 35.3068L59.6967 35.1546L60 34.7283L60.1691 34.5713L60.4748 34.1679L60.685 33.9602L60.8288 33.7826ZM68.0122 33.4685L68.1427 33.3852L68.5317 33.1123L69.0849 32.6364L69.2819 32.5229L69.364 32.4215L69.4329 32.4142L69.6249 32.2548L69.8738 31.9734L69.8533 31.9988L69.9584 31.8949L70.0405 31.7935L70.0973 31.6715L70.3619 31.3188L70.757 30.8828L71.1062 30.0108L71.1811 29.8405L71.2222 29.7897L71.2669 29.553L71.3684 29.1943C71.366 29.1713 71.3406 29.1508 71.3382 29.1278L71.3491 29.0107L71.3781 28.8452L71.3129 28.6664L71.2598 28.6024L71.2043 28.5154L71.0799 28.4357L70.9808 28.3765L70.8842 28.3402L70.5967 28.2544L70.5508 28.2592L70.4155 28.2967L70.3515 28.3498L70.2621 28.3824L69.9867 28.4113L69.8973 28.4439L69.1846 28.7277L69.0264 28.7675C68.873 28.8533 68.6555 28.9921 68.4332 29.0851C68.3898 29.1129 68.2387 29.2216 68.2158 29.224L67.9041 29.3496L67.6637 29.4908L67.4415 29.5838C67.1781 29.7275 66.8508 29.9243 66.5463 30.1188L65.952 30.6453L65.7961 30.7081L65.691 30.812L65.151 31.1936L64.849 31.411L64.6292 31.5269C64.4806 31.6585 64.2837 31.772 64.1351 31.9037L64.094 31.9544L63.9454 32.086L63.8149 32.1694L63.5794 32.3565L63.2025 32.7442L62.6926 33.1923L62.5875 33.2961L62.2565 33.679L62.1079 33.8106L62.0668 33.8614C62.0282 33.935 61.9231 34.0389 61.8844 34.1126L61.8433 34.1633L61.7479 34.359L61.6391 34.6488L61.6415 34.6718L61.5231 34.8699L61.4277 35.0655L61.3757 35.2334C61.4011 35.254 61.447 35.2491 61.4699 35.2467L61.7574 35.3325L61.918 35.3156L62.1318 35.3628L62.4374 35.4003C62.4857 35.4184 62.58 35.4317 62.6259 35.4269C62.8807 35.4233 63.1356 35.4197 63.3651 35.3956C63.6176 35.3691 63.9594 35.3099 64.2529 35.2327C64.3653 35.1977 64.4957 35.1143 64.6081 35.0793L64.8352 35.0322L64.9729 35.0178C65.5322 34.8198 65.9791 34.6568 66.4188 34.4249L66.6339 34.2631L66.9479 34.1605L67.4263 33.8549L67.7054 33.64L67.8612 33.5772L68.0122 33.4685ZM59.1166 37.5824L59.299 37.3312L59.3763 37.1839L59.4766 37.0341L59.5974 36.859L59.6156 36.8107L59.7424 36.4725L59.5371 36.7261L59.4416 36.9218L59.1335 37.3022L58.9233 37.5099L58.8206 37.6367L58.556 37.9894L58.2939 38.365L58.0728 38.6899L57.952 38.865C57.9362 38.9363 57.9048 39.0788 57.8843 39.1042L57.6898 39.2407L57.6306 39.3397L57.337 39.8578C57.2645 40.0511 57.1231 40.2516 57.0095 40.4956L56.7353 40.7564L56.7172 40.8047C56.7196 40.8277 56.7015 40.876 56.7015 40.876L56.4961 41.1296C56.4574 41.2033 56.4236 41.3229 56.3825 41.3736L56.2182 41.5765L56.1022 41.7975C56.0225 41.9219 55.8787 42.0995 55.8835 42.1454L55.7832 42.2951C55.747 42.3918 55.6672 42.5162 55.5851 42.6176L55.4896 42.8133L55.4606 42.9788L55.3374 43.1309L55.2576 43.2553L55.0945 43.6902L54.8686 43.9691C54.8118 44.0911 54.7188 44.3098 54.639 44.4342L54.5895 44.625L54.4892 44.7748L54.3877 45.1335L54.1122 45.6033L53.8282 46.2133L53.6325 46.5587L53.5213 46.8256L53.4718 47.0165L53.3219 47.3571L53.2035 47.5551C53.1721 47.6977 53.0537 47.8958 53.0585 47.9417C53.038 47.967 53.0223 48.0383 53.0223 48.0383L52.905 48.4683L52.6694 49.0963C52.6331 49.193 52.5353 49.3657 52.5014 49.4853L52.4012 49.635L51.8743 51.2451L51.7461 51.7922L51.7147 51.9348L52.5943 50.1484L52.7877 49.78C52.9604 49.437 53.1562 49.0916 53.3495 48.7232L54.1204 47.2267L54.3004 46.9526L54.6484 46.2895L55.2126 45.2556C55.2078 45.2097 55.2465 45.136 55.2441 45.1131L55.476 44.671L55.464 44.5563L55.6923 44.3002C55.6875 44.2543 55.6984 44.1372 55.7165 44.0889L56.0198 43.6625L55.9992 43.6879L56.6179 42.5091L56.8547 42.1129L56.9997 41.7264L57.2667 41.3967L57.4576 41.0054L57.6195 40.7795L57.8491 40.3145L57.9264 40.1672L58.4351 39.0463L58.5596 38.6852L58.6212 38.6091L58.8532 38.167L58.8918 38.0933L59.0235 37.801L59.1166 37.5824ZM82.5468 27.7177L82.5709 27.9472C82.5528 27.9955 82.5576 28.0415 82.56 28.0644C82.5769 28.2251 82.5914 28.3628 82.4089 28.614C82.3111 28.7867 82.0622 29.0681 81.7494 28.9617L81.4848 28.8735L81.1551 28.6065L81.0923 28.4507L81.0344 28.3408L81.0151 28.1572L81.0465 28.0146L81.0019 27.8105L80.9439 27.7006L80.8702 27.6619L80.7458 27.5822L80.6033 27.5507C80.5115 27.5604 80.4402 27.5447 80.3484 27.5543L79.8206 27.6098C79.7034 27.5989 79.614 27.6315 79.1441 27.7969L78.8119 27.9479L77.6776 28.4151L77.3478 28.589L77.0458 28.8064L76.8695 28.8945L76.6013 28.9923L76.1845 29.2218L76.0746 29.2797L75.5757 29.6106L75.2785 29.8739L75.1963 29.9754L74.8919 30.1698L74.7663 30.299L74.6817 30.3775L74.5537 30.4838L74.492 30.5599L74.335 30.8316L74.1429 30.991L74.0607 31.0925L73.8252 31.2797C73.766 31.3787 73.7092 31.5007 73.7164 31.5695L73.772 31.6565L73.8505 31.7411L74.2055 32.0286L74.3275 32.0854L74.5715 32.199C74.6657 32.2123 74.7877 32.2691 74.8819 32.2824L75.1235 32.373L75.2938 32.4479C75.3421 32.4661 75.4593 32.477 75.5052 32.4721L75.7262 32.5881L76.2528 32.7416C76.3217 32.7344 76.4412 32.7682 76.5101 32.761L76.7674 32.7803L76.9836 32.8504L77.0295 32.8456L77.1285 32.9048L77.5791 32.9967C77.6479 32.9895 77.7192 33.0052 77.788 32.9979L77.91 33.0547C78.0731 33.0608 78.2639 33.1103 78.4499 33.114C78.5417 33.1043 78.7072 33.1334 78.799 33.1237L79.316 33.1854L79.8474 33.3848L80.1131 33.7049L80.1674 34.0009L80.1614 34.1639L80.02 34.3644L79.8327 34.5697L79.4824 34.769L79.3677 34.781L79.2396 34.8873L78.928 35.0129L78.8796 34.9948L78.6574 35.0877L78.0655 35.1964L77.04 35.3738L76.7416 35.4051L75.8284 35.5475L75.553 35.5764L75.2571 35.6308L74.9104 35.644L74.6422 35.7418L74.2521 35.7828L73.6505 35.7996L73.2833 35.8382L73.0562 35.8853L73.0792 35.8829L72.6733 35.9951L72.5585 36.0072L72.2445 36.1098L72.0609 36.1291C71.9256 36.1665 71.7951 36.2499 71.6598 36.2873L71.3687 36.3875L71.0957 36.4394L70.8457 36.4889L70.2864 36.6869L70.174 36.7219L69.8575 36.8016L69.7657 36.8112L69.6788 36.8668L69.5205 36.9066L69.2899 36.6988L69.2271 36.543L69.302 36.3727L69.5013 36.2821L69.7212 36.1662L70.2804 35.9682L70.574 35.8909L70.888 35.7883L71.1586 35.7135L71.7747 35.3935L72.0731 35.3621L72.2518 35.2969L72.5985 35.2837L72.8486 35.2342L73.0273 35.169L73.5045 35.0724L73.8898 34.9855L74.2317 34.9264L74.7088 34.8298L75.0301 34.7961L75.2089 34.7309L75.2801 34.7466L75.4408 34.7297C75.5096 34.7225 75.5072 34.6995 75.5761 34.6923C75.5966 34.6669 75.7295 34.6065 75.773 34.5788L76.3649 34.4701L76.6995 34.3422L77.5028 34.2577L77.6356 34.1974L77.8651 34.1732L77.6743 34.1237L77.4098 34.0355L77.196 33.9883C77.1271 33.9956 77.0305 33.9593 76.9846 33.9641L76.8674 33.9532L76.2394 33.7176C76.1935 33.7224 76.1657 33.6789 76.1428 33.6813L75.9265 33.6112L75.5654 33.4868L75.3263 33.4191C75.255 33.4034 75.2731 33.3551 75.1789 33.3418C75.0364 33.3103 74.9856 33.2693 74.6088 33.2161C74.4433 33.187 74.3467 33.1508 74.1969 33.0505L74.1486 33.0324C74.1027 33.0372 74.0314 33.0215 74.0085 33.0239L73.7947 32.9768C73.7488 32.9816 73.6775 32.9659 73.6546 32.9683L73.4795 32.8475L73.3804 32.7883L73.4058 32.8088L73.1594 32.6723L72.8297 32.4053L72.7319 32.1371L72.7174 31.9994L72.7211 31.8134C72.7319 31.6962 72.7887 31.5742 72.8842 31.3786L72.9229 31.3049C72.9204 31.2819 72.9591 31.2083 72.9567 31.1853L73.1959 30.8121L73.44 30.4848L73.6019 30.259L73.6864 30.1805C73.707 30.1551 73.7638 30.0331 73.7613 30.0102L73.9558 29.8737L74.0175 29.7976L74.2712 29.5621L74.5732 29.3447L74.9187 29.0996L75.0262 29.0187L75.3511 28.7989L75.3717 28.7735L75.5251 28.6878L75.6097 28.6093L75.9781 28.3617L76.1134 28.3243L76.599 28.0876L76.7959 27.9741L76.9747 27.9089L77.5751 27.6602L77.9532 27.5044L78.4388 27.2677L78.5946 27.205L78.7069 27.1699C78.7069 27.1699 78.7299 27.1675 78.7963 27.1373L79.021 27.0673C79.1539 27.007 79.2892 26.9695 79.4245 26.9321L80.0369 26.7981L80.909 26.7065L81.3777 26.75L81.5178 26.7585L81.8258 26.8189L82.1459 26.9941L82.3258 27.1609L82.3814 27.2478L82.4768 27.4931L82.5468 27.7177ZM97.5225 18.8809L97.8644 18.8217L98.1676 18.8363L98.1833 18.765L98.7137 17.8507L98.7729 17.7517L99.0097 17.3555L99.2332 17.0536L99.313 16.9292L99.5292 16.5584L99.5908 16.4823C99.5884 16.4593 99.6066 16.411 99.6066 16.411L99.7503 16.2335L99.8301 16.1091L99.8917 16.033L99.9895 15.8603L99.9871 15.8373L100.083 15.6417L100.311 15.3856L100.473 15.1598L100.578 15.0559L100.66 14.9545L100.861 14.6549L101.087 14.3759L101.334 14.3035L101.543 14.3047L101.822 14.5307L101.913 14.73L101.972 15.0718L101.853 15.2699L101.643 15.4776L101.504 15.7011L101.322 15.9523L101.203 16.1504L100.909 16.4366L100.708 16.7361L100.256 17.2941L99.5084 18.3473L99.3284 18.6214L99.5555 18.5744L99.9203 18.5128L100.602 18.3716L101.453 18.3053L102.111 18.1665L102.754 18.099L102.968 18.1461L103.129 18.1292L103.434 18.1667C103.482 18.1848 103.645 18.1909 103.691 18.1861L103.939 18.1136L104.268 18.1487C104.382 18.1367 104.492 18.0787 104.607 18.0666L104.768 18.0497L105.023 18.0462L105.305 18.0861C105.328 18.0837 105.399 18.0994 105.422 18.097L105.654 18.0958L106.291 18.1913C106.316 18.2118 106.41 18.2251 106.433 18.2227L106.801 18.1841L106.996 18.2796L107.46 18.2773C107.506 18.2724 107.554 18.2906 107.577 18.2881L107.727 18.3884C107.727 18.3884 107.725 18.3655 107.819 18.3788L108.633 18.6181C108.658 18.6386 108.707 18.6567 108.729 18.6543L109.208 18.7897C109.256 18.8078 109.256 18.8078 109.279 18.8054C109.304 18.8259 109.33 18.8465 109.307 18.8489L109.47 18.8549L109.808 18.9818L109.917 19.1328L110.064 19.2102L110.225 19.1933L110.433 19.4035L110.658 19.5654L110.734 19.627C110.78 19.6222 110.806 19.6427 110.829 19.6403L111.145 20.0015L111.17 20.022L111.36 20.2806L111.474 20.4775L111.634 20.9015L111.725 21.1008L111.754 21.3762L111.634 21.7832L111.536 21.956L111.371 21.9269L111.241 21.8013L111.132 21.4184C111.127 21.3725 111.097 21.306 111.092 21.2601C111.034 21.1502 110.92 20.9533 110.867 20.8893L110.693 20.5595L110.504 20.301L110.296 20.0908L110.07 19.9289L110.047 19.9313L109.676 19.715C109.605 19.6993 109.483 19.6425 109.483 19.6425C109.46 19.6449 109.435 19.6244 109.435 19.6244L109.191 19.5108L109.048 19.4794C109.002 19.4842 108.814 19.4576 108.708 19.3295L108.349 19.228C108.234 19.2401 108.046 19.2135 107.931 19.2255L107.72 19.2013L107.43 19.0926L107.076 19.037C106.816 18.9946 106.584 18.9958 106.304 18.9789C106.166 18.9933 105.978 18.9667 105.863 18.9788L105.466 18.951C105.42 18.9558 105.349 18.9401 105.326 18.9425L105.096 18.9666L104.915 19.0088L104.495 18.9834C104.426 18.9906 104.354 18.9749 104.309 18.9798L104.102 19.0015L103.799 18.9869C103.613 18.9833 103.429 19.0026 103.268 19.0195L103.179 19.0521L103.108 19.0363C103.039 19.0436 102.968 19.0279 102.899 19.0351L102.738 19.052C102.004 19.1292 101.269 19.2064 100.537 19.3065L100.448 19.3391L100.272 19.4273L99.6085 19.5202L99.3355 19.5721L98.5262 19.8195L98.3461 20.0937L98.0888 20.5152L98.0368 20.6831L97.9088 20.7894C97.7879 20.9645 97.7058 21.066 97.6079 21.2387C97.6103 21.2616 97.5946 21.3329 97.5946 21.3329L97.2708 21.7846L96.9796 22.3257L96.802 22.6228L96.4166 23.1506L95.7835 24.1917L95.6446 24.4152L95.2664 25.0118L95.212 25.1567L95.0888 25.3089C95.0477 25.3596 95.0115 25.4563 94.9728 25.5299L94.8616 25.7969L94.7408 25.972L94.5995 26.1725L94.4557 26.35L94.3168 26.5735L94.2781 26.6471L94.208 26.8634L93.7706 27.559L93.5085 27.9346L92.9889 28.7318L92.641 29.3949L92.2882 30.012C92.2543 30.1316 92.2265 30.0881 92.1698 30.2101L91.8532 30.7307L91.7759 30.878L91.5717 31.3636C91.5402 31.5061 91.481 31.6051 91.4496 31.7477L91.2539 32.0931L91.0521 32.6016L90.9252 32.9398L90.9372 33.0545L90.9312 33.2176L90.7789 33.5353C90.7886 33.6271 90.7113 33.7744 90.7209 33.8662L90.7197 34.0752L90.7426 34.0728L91.1461 33.9375L91.3019 33.8748L91.4807 33.8096L91.6522 33.6755L91.8286 33.5874L92.005 33.4992L92.1765 33.3652L92.3347 33.3253L92.5341 33.2348L92.6416 33.1539L92.7793 33.1394L93.3446 32.7783L93.759 32.5259L93.974 32.3641L94.1757 32.2965L94.2627 32.2409L94.8969 31.8726L95.1555 31.683L95.2448 31.6504L96.227 31.0599L96.4855 30.8703L96.6389 30.7846L96.8817 30.6662L97.1885 30.4948L97.2683 30.3704L97.6114 30.1023L97.8771 29.9815L98.1864 29.833L98.7493 29.449L98.8157 29.4188L98.9414 29.2896L99.2869 29.0444L99.3968 28.9864L99.4633 28.9563L99.5067 28.9285L99.6578 28.8198L99.9307 28.7679L100.081 28.8682L100.125 29.0723L100.122 29.2583L99.9065 29.4202L99.776 29.5035L99.7349 29.5542L99.1587 30.0325L99.1382 30.0578L98.9642 30.1689L98.7286 30.3561L98.3831 30.6013L98.1427 30.7425L97.941 30.8102L97.6366 31.0046L97.4856 31.1133L97.4445 31.164L97.1425 31.3814L96.9939 31.513L96.4443 31.8028L96.1724 32.0866L96.0166 32.1494L95.7509 32.2702L95.7279 32.2726C95.6844 32.3003 95.6228 32.3764 95.6023 32.4018C95.5612 32.4525 95.4947 32.4827 95.4742 32.5081L95.3389 32.5455L95.1625 32.6336L95.0526 32.6916L94.8714 32.7339C94.8485 32.7363 94.7845 32.7894 94.7845 32.7894L94.654 32.8727L94.2215 33.1734L94.0041 33.3123L93.7733 33.5454L93.7045 33.5526L93.4894 33.7145L93.1367 33.8908L92.7525 34.2096L92.5279 34.2796L92.1799 34.5018L91.6049 34.7711L90.7823 35.1128L90.4864 35.1671L90.3692 35.1562L90.2037 35.1272L90.0636 35.1187L89.7761 35.0329L89.6349 34.7925L89.5672 34.5908L89.5383 34.3154C89.5335 34.2695 89.5468 34.1753 89.5444 34.1523C89.5504 33.9892 89.5976 33.7754 89.6761 33.4191C89.6713 33.3732 89.7027 33.2307 89.6979 33.1848L89.7958 33.0121L89.7885 32.9432L89.8224 32.8237L89.9613 32.6002L90.029 32.3611L90.2332 31.8755L90.3311 31.7028C90.3263 31.6569 90.3625 31.5603 90.3601 31.5373L90.4809 31.3622L90.5812 31.2124C90.6223 31.1617 90.6356 31.0675 90.6767 31.0168L90.7745 30.8441L90.9292 30.5494L91.0887 30.3005L91.1865 30.1278L91.3484 29.902L91.4258 29.7546L91.5852 29.5058L91.7471 29.28C91.7423 29.2341 91.7604 29.1858 91.758 29.1628L91.8813 29.0106L91.961 28.8862L92.1205 28.6374L92.2365 28.4164L92.3706 28.1471L92.4866 27.926L92.6461 27.6772C92.6436 27.6543 92.6666 27.6519 92.6642 27.6289L92.9421 27.182L93.0557 26.9381L93.3432 26.583L93.5413 26.2605C93.6597 26.0624 93.7757 25.8414 93.9558 25.5672L94.0125 25.4452L94.1998 25.2399C94.4342 24.8208 94.6843 24.3305 94.9211 23.9343L95.0238 23.8075L95.3814 23.2362C95.5252 23.0587 95.5639 22.985 95.6412 22.8376L95.7572 22.6166L95.9831 22.3376L96.0713 22.0731L96.3444 21.5803L96.4133 21.5731L96.4495 21.4765L96.6658 21.1057L96.905 20.7325L97.0669 20.5066L97.1418 20.3363L97.3677 20.0573L97.381 19.9631L97.2663 19.9752L96.9957 20.05L96.312 20.1683L95.6331 20.3325L95.429 20.3771L95.2708 20.4169L94.6885 20.6174L94.5097 20.6826L93.3706 21.1039L93.1943 21.1921L93.0384 21.2549L92.8391 21.3454L92.1336 21.698L91.9367 21.8115L91.4644 21.954L91.0465 21.9515L90.8073 21.8838L90.6552 21.7606L90.4752 21.5939L90.4209 21.298L90.4451 21.0866C90.4813 20.9899 90.5152 20.8704 90.7556 20.7291L90.909 20.6433C91.2593 20.4441 91.4586 20.3535 91.8186 20.2461L92.1121 20.1688L92.4625 19.9696L92.8502 19.9056L92.9927 19.9371L93.8987 19.7258L93.9651 19.6956L94.5981 19.5363L95.0752 19.4397L95.1465 19.4554L95.3047 19.4156L95.3736 19.4084L95.9788 19.2055L96.1346 19.1427L96.2723 19.1283L96.6577 19.0414L96.7241 19.0112L96.8413 19.0221L97.2242 18.9122L97.5225 18.8809ZM105.528 27.6691L105.533 27.715C105.52 27.8092 105.527 27.8781 105.389 28.3334C105.373 28.4047 105.344 28.5702 105.308 28.6668L105.112 29.0122L104.879 29.2224L104.694 29.4506L104.512 29.7018L104.302 29.9096C103.95 30.3178 103.479 30.6922 102.985 31.069L102.941 31.0967L102.665 31.3346L102.532 31.395L102.468 31.4482L102.276 31.6076L102.132 31.7851L101.997 31.8225C101.979 31.8708 101.917 31.9469 101.917 31.9469L101.72 32.0604L101.654 32.0906L101.408 32.186L101.253 32.2488L101.163 32.2814C101.143 32.3068 101.102 32.3575 101.079 32.3599L101.012 32.3901C100.616 32.5942 100.376 32.7354 100.151 32.8055L100.089 32.8816L99.954 32.919L99.6375 32.9987L99.4769 33.0155L99.0384 33.0384C98.8318 33.0601 98.6458 33.0565 98.5057 33.048C98.3885 33.0371 98.2484 33.0286 97.9839 32.9404L97.9356 32.9223C97.694 32.8317 97.3691 32.6106 97.3063 32.4547L97.2182 32.2784L97.1735 32.0742L97.2171 31.6056L97.3488 31.3133L97.524 30.9932L98.2634 30.0801L98.5122 29.7987L98.7225 29.591L98.8046 29.4896L99.2709 29.0693L99.2915 29.0439C99.312 29.0186 99.3736 28.9425 99.4171 28.9147L99.6478 28.6816L99.753 28.5778L100.26 28.1068L100.404 27.9292L100.473 27.922L100.686 27.7372L100.921 27.55L101.2 27.3351L101.625 26.9655L101.733 26.8846L101.84 26.8037L101.496 26.8399C101.45 26.8447 101.407 26.8725 101.338 26.8797C101.18 26.9195 100.976 26.9642 100.769 26.9859L100.198 27.0692L99.9151 27.0292L99.7194 26.9338L99.5117 26.7236L99.5057 26.4458L99.6942 26.0315L99.9805 25.8854L100.251 25.8105L100.547 25.7562L100.715 25.8082L101.112 25.836C101.434 25.8023 101.711 25.7963 102.038 25.8084L102.382 25.7722L102.728 25.759L103.157 25.6443L103.251 25.6576L103.568 25.5779C103.611 25.5502 103.701 25.5176 103.721 25.4922L103.978 25.2796L104.151 25.1685L104.174 25.1661L104.348 25.055L104.553 25.0104L104.734 24.9681C104.869 24.9307 105.096 24.8836 105.259 24.8897L105.397 24.8752L105.516 24.9091C105.611 24.9224 105.733 24.9791 105.806 25.0178L106.347 24.8681L106.616 24.7703L106.957 24.7112L107.313 24.5578L107.494 24.5156L107.721 24.4685L108.18 24.4203L108.361 24.378L108.662 24.3696C108.731 24.3624 108.823 24.3527 108.912 24.3201L109.141 24.296C109.21 24.2888 109.277 24.2586 109.346 24.2514L109.478 24.191L109.573 24.2043L109.71 24.1898L109.846 24.1524L110.006 24.1355L110.261 24.1319L110.488 24.0848L110.654 24.1139L110.723 24.1066L110.909 24.1103L111.026 24.1212C111.212 24.1248 111.449 24.1695 111.757 24.23L111.805 24.2481L111.897 24.2385L112.115 24.3315L112.092 24.3339C112.304 24.3581 112.309 24.404 112.359 24.4451C112.408 24.4632 112.431 24.4608 112.453 24.4584L112.783 24.7254L112.894 24.8993L112.946 25.1723L112.924 25.4067L112.834 25.6482L112.661 25.9912C112.586 26.1616 112.545 26.2123 112.483 26.2884L112.36 26.4405L112.092 26.5383L111.952 26.5299L111.9 26.2569L111.911 26.1397L111.94 25.9742L112.012 25.781L112.144 25.4887L112.205 25.1807L112.197 25.1118L112.004 25.0393L111.831 24.9415L111.477 24.8858C110.96 24.8241 110.341 24.8893 109.997 24.9255L109.652 24.9616L109.379 25.0135C109.265 25.0256 109.175 25.0582 109.086 25.0908C109.019 25.121 108.928 25.1306 108.813 25.1427C107.81 25.3177 107.108 25.4843 106.409 25.6738L106.23 25.739L106.146 25.8175L105.707 25.8404L105.255 25.9575L104.622 26.1168L104.469 26.2026L104.593 26.2823L104.642 26.3004L104.837 26.3959L105.246 26.7474L105.359 26.9443L105.503 27.2077L105.528 27.6691ZM104.121 28.6292L104.185 28.576C104.344 28.3272 104.417 28.134 104.489 27.9407L104.475 27.803L104.54 27.5409C104.533 27.4721 104.551 27.4238 104.541 27.332C104.513 27.2885 104.405 27.1375 104.402 27.1145L104.377 27.094L104.204 26.9961L104.009 26.9006L103.866 26.8692L103.724 26.8378L103.431 26.7061C103.431 26.7061 103.385 26.7109 103.36 26.6904L103.211 26.822C102.976 27.0092 102.658 27.2978 101.965 27.7652L101.363 28.2229L101.107 28.4354L101 28.5163C100.849 28.625 100.702 28.7796 100.551 28.8883L100.426 29.0175L100.149 29.2554L99.9207 29.5115L99.6851 29.6987L99.539 29.8533L99.2647 30.1141C99.2236 30.1649 99.1004 30.317 99.0823 30.3653L98.9047 30.6625L98.7428 30.8883C98.6449 31.061 98.5495 31.2567 98.4975 31.4246C98.477 31.4499 98.4818 31.4958 98.4818 31.4958L98.4479 31.6154L98.4443 31.8014L98.4286 31.8727L98.443 32.0104L98.5952 32.1336L98.7172 32.1904L98.7631 32.1856C99.4794 32.1567 99.6328 32.071 100.341 31.7413C100.696 31.588 101.026 31.4141 101.312 31.268L101.355 31.2402L101.747 30.9902L102.147 30.6002L102.307 30.5833L102.904 30.0797L103.009 29.9758C103.178 29.8188 103.343 29.6159 103.509 29.436L103.569 29.3369L103.776 29.1062L103.961 28.878C103.959 28.855 103.977 28.8067 103.977 28.8067L104.121 28.6292ZM140.975 27.3545L141.096 27.1793L141.536 26.5066L141.905 26.0501C141.923 26.0018 141.988 25.9486 142.006 25.9003L142.219 25.5066L142.317 25.3339L142.461 25.1563L142.52 25.0573L142.739 24.7094L142.857 24.5114L143.133 24.0415L143.236 23.9147L143.313 23.7674L143.555 23.4171L143.712 23.1454C143.807 22.9497 143.948 22.7492 144.044 22.5536L144.201 22.2818L144.335 22.0125L144.508 21.6694L144.804 21.1742L144.997 20.8059L145.293 20.3107L145.584 19.7696C145.621 19.673 145.703 19.5715 145.739 19.4749L145.789 19.284L145.943 18.9893C145.998 18.8444 146.114 18.6234 146.17 18.5014C146.17 18.5014 146.173 18.5243 146.191 18.476C146.363 17.9011 146.372 17.9929 146.447 17.8226C146.597 17.482 146.801 16.9964 146.939 16.5411L147.171 15.6581L147.287 15.4371L147.346 15.3381L147.498 15.0204L147.761 14.2039C147.792 14.0614 147.869 13.914 147.903 13.7945L147.966 13.5094L148.129 13.0746L148.376 11.8885C148.389 11.7942 148.398 11.6541 148.398 11.6541C148.388 11.5623 148.401 11.4681 148.415 11.3739C148.41 11.328 148.426 11.2567 148.423 11.2338L148.468 10.5562L148.47 10.5791C148.461 10.4873 148.497 10.3907 148.487 10.2989L148.516 10.1334L148.864 9.47032C148.944 9.34592 149.029 9.26742 149.274 9.17203L149.46 9.17569C149.508 9.19381 149.752 9.30739 149.752 9.30739C149.988 9.56109 150.009 9.76764 149.988 10.002C149.938 10.1928 149.888 10.3837 149.707 10.8668L149.624 11.6181C149.535 11.8826 149.497 11.9563 149.369 12.5034C149.353 12.5747 149.337 12.646 149.342 12.6919L149.148 13.2692L149.098 13.4601L148.76 14.6558L148.645 15.1088L148.443 15.6173C148.218 16.1282 148.223 16.1741 148.223 16.1741L148.128 16.3697L147.962 16.7816L147.699 17.3662L147.371 18.0039C147.351 18.0293 147.355 18.0752 147.355 18.0752L147.183 18.4182L146.919 19.0028L146.742 19.2999L146.646 19.4956L146.337 20.085L145.811 21.0452C145.777 21.1647 145.675 21.2915 145.579 21.4872L145.425 21.7819L145.136 22.346L144.75 22.8738L144.648 23.0006L144.375 23.4933L143.719 24.5369L143.554 24.7398C143.513 24.7905 143.372 24.991 143.372 24.991C143.151 25.3159 142.973 25.613 142.796 25.9101C142.481 26.4536 142.188 26.9718 141.761 27.5503L141.355 28.1034L141.296 28.2025L141.07 28.4815L140.87 28.781L140.577 29.0902L139.378 30.7013L138.265 32.2569C138.224 32.3076 138.119 32.4115 138.08 32.4852L137.895 32.7135L137.367 33.2098L137.283 33.2883L137.118 33.4912L136.634 33.9598L136.483 34.0685L136.355 34.1748L135.396 35.2038C135.06 35.5407 134.719 35.8318 134.379 36.1228L134.086 36.432L133.759 36.6288C133.628 36.7121 133.457 36.8462 133.288 37.0032L132.54 37.6155L132.11 37.9391L131.741 38.1867L131.613 38.293C131.419 38.4294 131.229 38.6118 131.039 38.7942C130.781 38.9838 130.52 39.1504 130.435 39.2289L129.992 39.6468L129.529 39.881L128.726 40.4063L128.396 40.5802L128.376 40.6056L127.693 40.9558L127.583 41.0137L127.56 41.0161C127.537 41.0186 127.499 41.0922 127.499 41.0922L127.368 41.1756L127.192 41.2637L127.02 41.3978L126.938 41.4992L126.741 41.6127L126.494 41.6852L125.109 42.2019L124.836 42.2538C124.341 42.3987 123.834 42.4288 123.395 42.4517C123.095 42.4601 122.819 42.489 122.477 42.5482C122.383 42.5349 122.291 42.5445 122.222 42.5518C122.059 42.5457 121.919 42.5372 121.66 42.4949L121.517 42.4635L121.23 42.3777L121.179 42.3366C121.131 42.3185 121.059 42.3027 121.036 42.3052L120.744 42.1735L120.444 41.9729L120.087 41.6624L119.928 41.4703C119.72 41.2601 119.487 41.0294 119.3 40.7938L119.272 40.7503C119.168 40.6452 119.115 40.5812 118.736 40.0641L118.603 39.6836L118.534 39.25C118.466 39.0483 118.412 38.7523 118.388 38.5228C118.359 38.2474 118.353 37.9696 118.38 37.7812C118.515 37.3028 118.621 36.99 118.717 36.7944L118.784 36.5552L119.091 35.9428C119.248 35.6711 119.367 35.473 119.462 35.2773L119.717 34.8329C120.022 34.1976 120.42 33.5756 120.867 32.9717L120.986 32.7736L121.114 32.6673L121.507 32.2084L121.609 32.0816C122.194 31.4632 122.827 30.863 123.462 30.2857L123.547 30.2072L123.645 30.0345L123.942 29.7712L124.134 29.6118L125.12 28.8353L125.325 28.5817L125.916 28.2411L126.387 27.8667C127.032 27.3813 127.593 26.9743 128.33 26.4792L128.634 26.2848L128.762 26.1785L128.954 26.0191L129.849 25.4841L130.312 25.2498L130.445 25.1895L130.509 25.1363L130.552 25.1086L130.637 25.0301L130.749 24.995L130.772 24.9926C131.406 24.6243 132.135 24.2693 132.82 23.9421L132.881 23.866L133.415 23.6474L133.663 23.575C133.663 23.575 133.686 23.5726 133.773 23.517L133.862 23.4844L134.082 23.3685L134.368 23.2224L134.573 23.1778L134.639 23.1476L135.372 22.8385L135.618 22.7431L136.215 22.4714L136.617 22.3132L136.887 22.2384L136.977 22.2058L137.462 21.9691L138.019 21.7481L138.422 21.6129L139.112 21.3316C139.133 21.3062 139.266 21.2458 139.309 21.2181L139.781 21.0756L139.958 20.9875L141.017 20.6905L141.219 20.6229L141.334 20.6108L141.561 20.5637C141.607 20.5589 141.673 20.5287 141.74 20.4985L141.872 20.4382L142.641 20.2414L142.732 20.2318C142.799 20.2016 142.845 20.1967 142.914 20.1895C143.049 20.1521 143.179 20.0688 143.315 20.0313L143.429 20.0193L143.496 19.9891L143.702 19.9674L144.108 19.8551L144.453 19.8189L144.683 20.0267L144.565 20.2248L144.373 20.3842L144.151 20.4772L143.791 20.5846L143.025 20.8043L142.215 21.0518L141.248 21.3392L140.709 21.5118L140.62 21.5444L140.083 21.74C139.818 21.8608 139.503 21.9634 139.169 22.0914L138.213 22.4934L137.743 22.6589L137.608 22.6963L136.694 23.0476L136.316 23.2034L136.009 23.3749L135.692 23.4545L134.602 23.894L134.423 23.9592L134.267 24.022C134.134 24.0824 133.937 24.1959 133.758 24.2611L133.648 24.3191L133.447 24.3867C132.872 24.656 132.363 24.895 131.885 25.2006L131.69 25.337L131.424 25.4578C130.161 26.2403 128.9 27.0458 127.646 27.9201L127.2 28.315C127.157 28.3428 127.074 28.4442 127.074 28.4442L126.926 28.5759L126.69 28.7631L126.693 28.786L126.194 29.1169L126.058 29.1543L125.935 29.3065L125.823 29.3415L125.375 29.7135L125.221 29.7992L125.175 29.804C124.622 30.2799 124.117 30.7738 123.617 31.3137L123.293 31.7654L122.765 32.2617L122.683 32.3632L122.062 33.0782L121.977 33.1567L121.613 33.6591L121.291 34.1337C121.212 34.2581 121.137 34.4285 121.054 34.5299L120.699 35.1241L120.688 35.2413L120.397 35.7824L120.236 36.2402L120.139 36.4129L120.032 36.7257L119.933 37.1074C119.917 37.1787 119.902 37.2499 119.909 37.3188L119.828 37.6521C119.824 37.8382 119.775 38.029 119.773 38.238L119.827 38.7429L119.886 39.0847L119.926 39.243L119.94 39.3807C119.945 39.4266 119.973 39.47 119.975 39.493L120.005 39.5594C120.151 39.8457 120.274 40.1344 120.535 40.4087C120.915 40.9257 121.41 41.2217 121.985 41.3933L122.387 41.4671C122.667 41.484 122.975 41.5445 123.278 41.559L123.439 41.5421L123.533 41.5554C123.854 41.5217 124.194 41.4396 124.602 41.3503L125.627 40.941L125.67 40.9132L127.268 40.0027L127.852 39.5933L128.535 39.0341L128.732 38.9206L128.97 38.7564L129.71 38.2842L130.488 37.7384L130.792 37.5439L131.327 37.1164L131.485 37.0766L131.895 36.7783L132.046 36.6696L132.671 36.2095L132.842 36.0755L133.052 35.8677L134.123 35.0127C134.953 34.299 134.991 34.2253 135.686 33.549L135.876 33.3666L136.586 32.619L137.223 31.8328L137.392 31.6758L137.702 31.3183L138.056 30.933L138.387 30.5502L138.531 30.3726L138.903 29.9391L139.165 29.5634L139.793 28.9173L140.361 28.1383L140.61 27.8569L140.731 27.6818L140.975 27.3545ZM155.43 6.80793L155.501 6.82364C155.664 6.82971 155.825 6.81282 155.985 6.79594C156.977 6.73811 157.996 6.72378 158.929 6.765L159.841 6.83157C159.887 6.82675 159.935 6.84487 159.981 6.84005L160.305 6.82923L160.569 6.91745C161.109 6.97672 161.728 7.12056 162.44 7.2777L163.804 7.66806L164.404 7.86021L164.738 7.9412C164.783 7.93637 164.878 7.94967 164.901 7.94726L165.114 7.9944L165.335 8.1104L166.241 8.34004L166.29 8.35817C166.361 8.37388 166.589 8.55872 166.612 8.55631L166.682 8.78099L166.605 8.92834L166.309 8.98265L166.143 8.95364L166.021 8.89685L165.998 8.89926L165.856 8.86783L165.568 8.78203C165.545 8.78444 165.518 8.74095 165.495 8.74336L164.635 8.50889L164.355 8.49194C164.286 8.49918 164.169 8.48829 164.1 8.49552L163.805 8.34086L163.637 8.2889C163.472 8.25988 163.278 8.18738 163.11 8.13541C163.042 8.14265 162.901 8.13417 162.856 8.139L162.426 8.02176C162.357 8.029 162.308 8.01087 162.263 8.0157L161.784 7.88034L161.499 7.81748C161.382 7.80659 161.237 7.75221 161.12 7.74132C159.663 7.56957 158.267 7.5307 156.875 7.53773L156.669 7.55944L156.304 7.62098L156.21 7.60768L155.565 7.65227L155.335 7.6764L155.134 7.74401L154.968 7.71499L154.782 7.71134L154.321 7.73663L154.162 7.77647L153.862 7.78487L153.081 7.86689L152.528 7.90183L152.163 7.96338L151.725 7.98626L151.544 8.02851L151.036 8.05863L150.669 8.09722L150.437 8.09839L149.545 8.21542L148.634 8.38076C148.542 8.3904 148.453 8.42301 148.384 8.43024L148.177 8.45195L148.088 8.48455L147.971 8.47366L147.243 8.6197C145.81 8.88642 144.358 9.20146 142.954 9.53462L141.292 10.0574L141.164 10.1637L140.776 10.2276L140.636 10.2191L140.207 10.3338L139.918 10.457L139.155 10.6996L138.619 10.8952L137.531 11.1487L137.437 11.1354C137.396 11.1862 137.355 11.2369 137.312 11.2647L136.86 11.3817L136.551 11.5303L136.268 11.4904L135.974 11.5676L135.846 11.6739L135.622 11.7439L135.287 11.8719L134.83 11.9431L134.721 12.0011C134.721 12.0011 134.698 12.0035 134.567 12.0868L134.391 12.175L133.694 12.3874C133.671 12.3898 133.627 12.4176 133.604 12.42L133.385 12.536L133.093 12.6362L132.961 12.6965L132.759 12.7642C132.715 12.7919 132.631 12.8704 132.608 12.8728L132.026 13.0733L131.803 13.1662L131.604 13.2568L131.352 13.2833L130.518 13.7422C130.298 13.8581 130.03 13.9559 129.81 14.0718L129.508 14.2892L128.908 14.538L128.731 14.6261L127.758 15.0765L127.098 15.4243C127.055 15.452 127.08 15.4726 127.037 15.5004L126.597 15.7322L125.847 16.3215L125.719 16.4278L124.95 17.0655L124.73 17.1814L124.368 17.2659L124.07 17.2972L123.812 17.2779L123.612 17.1365L123.381 16.9287L123.324 16.6098L123.367 16.3501L123.57 16.0736L123.929 15.7342L124.223 15.448L125.183 14.8599L125.716 14.6413L126.319 14.4155L126.564 14.3202L127.142 14.0738L127.589 13.9108L128.115 13.6234L128.695 13.4001L129.307 13.0342L129.776 12.8688L130.045 12.771L130.494 12.6309L130.798 12.4365L131.138 12.3544L131.695 12.1335L131.764 12.1262L131.983 12.0103L132.19 11.9886L133.107 11.6602L133.324 11.5213L133.707 11.4115L133.792 11.3329L134.287 11.1881L134.56 11.1362L134.872 11.0106L135.259 10.9467L135.612 10.7704L135.706 10.7837C136.781 10.4154 138.194 9.94214 139.322 9.63793L139.473 9.52924L139.886 9.48582C140.968 9.18643 142.119 8.8798 143.23 8.6239L144.069 8.44285L144.516 8.27985L145.126 8.12292L145.42 8.04566L145.741 8.01189C145.922 7.96964 146.121 7.87908 146.303 7.83684L146.514 7.86103L146.624 7.80306L147.68 7.6921L149.093 7.45074C149.618 7.37231 150.144 7.29388 150.672 7.2384L150.991 7.18168L151.363 7.18899L152.189 7.10215L152.615 6.96451L152.822 6.9428L152.893 6.95852L153.079 6.96217L153.793 6.91034L154.208 6.88988L154.298 6.85727L154.553 6.85369L154.711 6.81386L155.172 6.78856L155.264 6.77891L155.43 6.80793ZM155.293 22.4386L155.298 22.4845C155.285 22.5787 155.292 22.6476 155.154 23.1029C155.138 23.1742 155.109 23.3397 155.073 23.4363L154.877 23.7817L154.644 23.9919L154.459 24.2201L154.277 24.4713L154.067 24.6791C153.715 25.0873 153.244 25.4617 152.75 25.8384L152.706 25.8662L152.43 26.1041L152.297 26.1645L152.233 26.2176L152.041 26.3771L151.897 26.5546L151.762 26.592C151.744 26.6403 151.682 26.7164 151.682 26.7164L151.485 26.8299L151.419 26.8601L151.173 26.9555L151.018 27.0183L150.928 27.0509C150.908 27.0763 150.867 27.127 150.844 27.1294L150.777 27.1596C150.381 27.3637 150.141 27.5049 149.916 27.575L149.854 27.6511L149.719 27.6885L149.402 27.7681L149.242 27.785L148.803 27.8079C148.597 27.8296 148.411 27.826 148.271 27.8175C148.153 27.8066 148.013 27.7981 147.749 27.7099L147.701 27.6918C147.459 27.6012 147.134 27.3801 147.071 27.2242L146.983 27.0479L146.938 26.8437L146.982 26.3751L147.114 26.0828L147.289 25.7627L148.028 24.8496L148.277 24.5682L148.487 24.3605L148.57 24.2591L149.036 23.8388L149.056 23.8134C149.077 23.7881 149.139 23.712 149.182 23.6842L149.413 23.4511L149.518 23.3472L150.025 22.8762L150.169 22.6987L150.238 22.6915L150.451 22.5067L150.686 22.3195L150.965 22.1045L151.39 21.735L151.498 21.6541L151.605 21.5732L151.261 21.6094C151.215 21.6142 151.172 21.642 151.103 21.6492C150.945 21.689 150.741 21.7337 150.534 21.7554L149.963 21.8386L149.68 21.7987L149.484 21.7033L149.277 21.4931L149.271 21.2153L149.459 20.801L149.745 20.6549L150.016 20.58L150.312 20.5257L150.48 20.5777L150.877 20.6055C151.199 20.5718 151.476 20.5658 151.802 20.5779L152.147 20.5417L152.493 20.5285L152.922 20.4138L153.016 20.4271L153.333 20.3474C153.376 20.3196 153.466 20.287 153.486 20.2617L153.742 20.0491L153.916 19.938L153.939 19.9356L154.113 19.8245L154.317 19.7799L154.499 19.7376C154.634 19.7002 154.861 19.6531 155.024 19.6592L155.162 19.6447L155.281 19.6785C155.376 19.6918 155.498 19.7486 155.571 19.7873L156.112 19.6376L156.381 19.5398L156.722 19.4807L157.078 19.3273L157.259 19.2851L157.486 19.238L157.945 19.1898L158.126 19.1475L158.427 19.1391C158.496 19.1319 158.587 19.1222 158.677 19.0896L158.906 19.0655C158.975 19.0583 159.042 19.0281 159.111 19.0208L159.243 18.9605L159.338 18.9738L159.475 18.9593L159.611 18.9219L159.771 18.905L160.026 18.9014L160.253 18.8543L160.419 18.8833L160.488 18.8761L160.674 18.8798L160.791 18.8907C160.977 18.8943 161.213 18.939 161.521 18.9995L161.57 19.0176L161.662 19.008L161.88 19.101L161.857 19.1034C162.069 19.1276 162.073 19.1735 162.124 19.2146C162.173 19.2327 162.195 19.2303 162.218 19.2279L162.548 19.4949L162.659 19.6688L162.711 19.9418L162.689 20.1762L162.599 20.4177L162.426 20.7607C162.351 20.931 162.31 20.9818 162.248 21.0579L162.125 21.21L161.857 21.3078L161.717 21.2994L161.665 21.0264L161.676 20.9092L161.705 20.7437L161.777 20.5505L161.909 20.2582L161.969 19.9502L161.962 19.8813L161.769 19.8088L161.596 19.7109L161.242 19.6553C160.725 19.5936 160.106 19.6588 159.761 19.695L159.417 19.7311L159.144 19.783C159.029 19.7951 158.94 19.8277 158.851 19.8603C158.784 19.8905 158.692 19.9001 158.578 19.9122C157.575 20.0872 156.873 20.2538 156.174 20.4433L155.995 20.5085L155.911 20.587L155.472 20.6099L155.02 20.727L154.387 20.8863L154.234 20.972L154.358 21.0518L154.407 21.0699L154.602 21.1654L155.011 21.5169L155.124 21.7138L155.268 21.9772L155.293 22.4386ZM153.886 23.3987L153.95 23.3455C154.109 23.0967 154.182 22.9035 154.254 22.7102L154.24 22.5725L154.305 22.3104C154.298 22.2416 154.316 22.1932 154.306 22.1014C154.278 22.058 154.17 21.907 154.167 21.884L154.142 21.8635L153.969 21.7656L153.774 21.6701L153.631 21.6387L153.489 21.6073L153.196 21.4756C153.196 21.4756 153.15 21.4804 153.125 21.4599L152.976 21.5915C152.741 21.7787 152.423 22.0673 151.73 22.5347L151.128 22.9924L150.872 23.2049L150.764 23.2858C150.613 23.3945 150.467 23.5491 150.316 23.6578L150.191 23.787L149.914 24.0249L149.686 24.281L149.45 24.4682L149.304 24.6228L149.03 24.8836C148.989 24.9343 148.865 25.0865 148.847 25.1348L148.67 25.432L148.508 25.6578C148.41 25.8305 148.314 26.0262 148.262 26.1941C148.242 26.2194 148.247 26.2653 148.247 26.2653L148.213 26.3849L148.209 26.5709L148.194 26.6422L148.208 26.7799L148.36 26.9031L148.482 26.9599L148.528 26.9551C149.244 26.9262 149.398 26.8405 150.106 26.5108C150.461 26.3575 150.791 26.1836 151.077 26.0375L151.12 26.0097L151.512 25.7597L151.912 25.3697L152.072 25.3528L152.669 24.8492L152.774 24.7453C152.943 24.5883 153.108 24.3854 153.274 24.2054L153.334 24.1064L153.541 23.8757L153.726 23.6475C153.724 23.6245 153.742 23.5762 153.742 23.5762L153.886 23.3987ZM165.834 24.4401L165.66 24.5512L165.406 24.7867L165.099 24.9581L164.92 25.0233L164.772 25.155L164.708 25.2081C164.618 25.2407 164.511 25.3216 164.422 25.3542L164.206 25.5161L164.097 25.574L163.682 25.8264L163.598 25.9049L163.255 26.173L163.078 26.2612C163.058 26.2865 162.971 26.3421 162.948 26.3445L162.646 26.5619L162.492 26.6476L162.336 26.7104L161.977 26.8178L161.672 27.0123L161.356 27.0919L161.032 27.1027L160.764 27.2005L160.132 27.1509C159.895 27.1062 159.697 26.9878 159.512 26.7752L159.383 26.6495L159.387 26.4635C159.347 26.3053 159.339 26.0045 159.386 25.7907L159.371 25.653L159.484 25.1771L159.619 24.6988C159.617 24.6758 159.655 24.6022 159.65 24.5563L159.8 24.2157L159.942 24.0152C159.939 23.9922 159.957 23.9439 159.957 23.9439L160.145 23.7386L160.24 23.5429C160.276 23.4463 160.358 23.3449 160.395 23.2482L160.447 23.0803L160.522 22.91L160.583 22.8339C160.642 22.7349 160.697 22.59 160.758 22.5139L160.934 22.1938L160.99 22.0718L161.232 21.7216L161.546 21.1781L161.632 20.8906L161.892 20.492L161.99 20.3193L162.062 20.1261L162.167 20.0222L162.417 19.5318L162.613 19.1864L162.841 18.9304C162.965 18.7782 163.29 18.5584 163.634 18.5222C163.799 18.5512 163.985 18.5549 164.193 18.7651L164.21 18.9257L164.198 19.2519L164.015 19.5031L163.771 19.8304L163.477 20.1166L163.164 20.4512L163.112 20.6191L162.721 21.1009L162.526 21.4464L162.389 21.6928L162.245 21.8703C162.23 21.9416 162.235 21.9875 162.237 22.0104L162.022 22.1722C162.024 22.1952 161.986 22.2689 161.968 22.3172L161.664 22.7435L161.382 23.1445L161.245 23.3909L161.15 23.5866L160.943 24.0492L160.84 24.176C160.758 24.2774 160.761 24.3004 160.742 24.3487L160.646 24.7533L160.612 24.8729L160.454 25.3536L160.387 25.8247L160.397 25.9165L160.38 26.1967L160.387 26.2656L160.548 26.2487L160.711 26.2547L160.8 26.2221L160.935 26.1847L161.076 26.1932L161.19 26.1811C161.349 26.1413 161.479 26.058 161.66 26.0157L161.859 25.9252L162.061 25.8576C162.082 25.8322 162.125 25.8044 162.125 25.8044L162.471 25.5593L162.555 25.4808L163.092 25.2852L163.444 25.1089L163.623 25.0437L164.342 24.5969L164.516 24.4858L164.861 24.2406L165.14 24.0257L165.312 23.8916L165.447 23.8542L165.575 23.7479L165.854 23.5329L166.005 23.4243L166.197 23.2648L166.28 23.1634L166.628 22.9412L166.733 22.8373L167.255 22.504L167.449 22.3676L167.492 22.3398L167.641 22.2082L167.687 22.2033L167.79 22.0765L167.943 21.9908L168.025 21.8893L168.263 21.7251L168.414 21.6164L168.501 21.5609L168.632 21.4775C168.783 21.3688 168.908 21.2396 169.103 21.1032L169.228 20.9739L169.483 20.9703L169.684 21.1117L169.728 21.3158L169.505 21.6178L169.372 21.6782L169.246 21.8074L168.899 22.0296L168.233 22.5404L168.041 22.6998L167.769 22.9836L167.613 23.0464L167.503 23.1044C167.119 23.4232 166.737 23.765 166.371 24.0355L166.248 24.1877L166.161 24.2432L165.918 24.3616L165.834 24.4401ZM166.667 12.9362L166.694 12.9796C166.732 13.1149 166.769 13.2502 166.747 13.4846C166.659 13.7491 166.479 14.0232 166.003 14.3517L165.749 14.5872L165.665 14.6657C165.56 14.7696 165.388 14.9036 165.306 15.0051L164.932 15.4157L164.596 15.7527L164.447 15.8843C164.34 15.9652 164.179 15.9821 164.018 15.999L163.941 15.7054L163.954 15.6112L164.196 14.8201L164.271 14.6498L164.542 14.1341L164.699 13.8623L164.778 13.7379L164.961 13.4867L165.11 13.355L165.235 13.2258L165.543 12.8454L165.804 12.6787L165.983 12.6135C166.378 12.6184 166.555 12.7622 166.667 12.9362ZM168.183 22.6384L168.266 22.537C168.266 22.537 168.286 22.5116 168.284 22.4887L168.415 22.1964L168.547 21.9041L168.761 21.5103L169.197 20.5827L169.293 20.3871L169.352 20.288L169.606 19.6117L169.955 18.7396C169.989 18.62 170.049 18.312 170.089 18.0294C170.113 17.818 170.073 17.6598 170.061 17.545C170.042 17.3614 170.03 17.2467 170.061 17.1041C170.109 16.8903 170.385 16.6524 170.638 16.6259C171.234 16.5632 171.502 16.9063 171.402 17.4969C171.344 17.8279 171.233 18.0948 171.124 18.3847L170.787 19.3715L170.594 19.7398L170.505 20.0044L170.415 20.2459L170.137 20.6928L170.108 20.8583L169.985 21.0105C169.866 21.2085 169.714 21.5262 169.619 21.7219L169.307 22.2883C169.273 22.4079 169.228 22.6446 169.19 22.7183L169.035 23.013L169.078 22.9852L169.348 22.6785L169.887 22.0649L169.946 21.9659L169.982 21.8693L170.323 21.5782L170.405 21.4768L170.723 21.1881L170.787 21.135L171.342 20.6821L171.432 20.6495L171.777 20.4044C171.844 20.3742 171.905 20.2981 171.972 20.2679C172.148 20.1798 172.521 19.9781 172.685 19.9842L172.776 19.9745L173.284 19.9444L173.629 20.1401L173.867 20.4168L173.977 20.7997L173.999 21.0063L174 21.2382L173.983 21.5184L173.977 21.6815L174.001 21.911L173.923 22.4992C173.931 22.5681 173.913 22.6164 173.92 22.6852L173.985 22.864L174.02 22.9764C174.05 23.0428 174.111 23.1757 174.136 23.1962L174.171 23.3086L174.28 23.4596C174.305 23.4801 174.282 23.4825 174.305 23.4801L174.521 23.5502C174.799 23.5442 175.095 23.4899 175.478 23.38L175.872 23.153L176.03 23.1132C176.119 23.0806 176.25 22.9972 176.316 22.9671L176.497 22.9248L176.827 22.7509L177.487 22.4031L177.556 22.3959L177.931 22.2172L178.673 21.768L178.95 21.5301L179.062 21.4951L179.54 21.1895L179.689 21.0579L179.856 20.8779L180.05 20.7415L180.661 20.3756L181.394 19.8346L181.522 19.7283L181.801 19.5133L181.911 19.4554L182.187 19.2174L182.44 19.1909L182.589 19.2912L182.67 19.3987L182.651 19.656L182.438 19.8408L182.054 20.1596C181.8 20.3951 181.585 20.5569 181.368 20.6958L181.05 20.9844L180.83 21.1003L180.51 21.366L180.249 21.5327C180.078 21.6667 179.837 21.808 179.533 22.0024L179.188 22.2476L178.231 22.8586L178.185 22.8635C178.1 22.942 177.97 23.0253 177.908 23.1014L177.606 23.3188L177.295 23.4443C177.205 23.4769 177.1 23.5808 177.013 23.6363L176.816 23.7499L176.569 23.8223L176.298 23.8971L176.14 23.937L176.053 23.9925L175.963 24.0251L175.897 24.0553C175.853 24.0831 175.764 24.1157 175.626 24.1302L175.425 24.1978L175.202 24.2907L174.952 24.3402L174.674 24.3462L174.542 24.4066L174.31 24.4078C174.057 24.4343 173.818 24.3666 173.602 24.2965L173.579 24.2989L173.482 24.2627C173.241 24.1721 173.031 23.9389 172.933 23.6707C172.898 23.5584 172.883 23.4207 172.866 23.26L172.837 22.9846L172.9 22.6996L172.987 22.2031L173.132 21.3757C173.128 21.3298 173.141 21.2356 173.136 21.1897C173.135 20.9578 173.07 20.779 172.927 20.7476C172.858 20.7548 172.746 20.7899 172.68 20.82C172.68 20.82 172.661 20.8684 172.595 20.8985L172.444 21.0072L172.227 21.1461L172.03 21.2596L171.732 21.5229L171.623 21.5809L171.417 21.8345L171.209 22.0652L170.953 22.2777C170.871 22.3792 170.709 22.605 170.625 22.6835L170.433 22.8429L170.261 22.977L170.199 23.0531L169.909 23.3852L169.866 23.413L169.694 23.547L169.589 23.6509L169.528 23.727L169.266 24.1026L169.012 24.3381L168.645 24.8176L168.031 25.6014L167.908 25.7536L167.503 26.0978L167.299 26.1424C167.016 26.1025 166.903 25.9056 166.812 25.7063C166.77 25.5251 166.761 25.2243 167.021 24.8258L167.155 24.5564L167.57 23.8631L167.681 23.5962L167.858 23.2991L167.895 23.2025L168.183 22.6384ZM186.462 22.2719L186.288 22.383L186.035 22.6185L185.728 22.79L185.549 22.8552L185.4 22.9868L185.336 23.04C185.247 23.0726 185.139 23.1535 185.05 23.1861L184.835 23.3479L184.725 23.4059L184.311 23.6583L184.226 23.7368L183.883 24.0049L183.707 24.093C183.686 24.1184 183.599 24.1739 183.576 24.1763L183.274 24.3937L183.121 24.4794L182.965 24.5422L182.605 24.6497L182.301 24.8441L181.984 24.9238L181.66 24.9346L181.392 25.0324L180.761 24.9828C180.524 24.938 180.326 24.8196 180.141 24.607L180.012 24.4814L180.015 24.2954C179.976 24.1371 179.967 23.8363 180.014 23.6226L180 23.4849L180.112 23.009L180.248 22.5306C180.245 22.5077 180.284 22.434 180.279 22.3881L180.429 22.0475L180.57 21.847C180.568 21.8241 180.586 21.7758 180.586 21.7758L180.773 21.5704L180.869 21.3748C180.905 21.2782 180.987 21.1767 181.023 21.0801L181.075 20.9122L181.15 20.7419L181.212 20.6658C181.271 20.5668 181.325 20.4218 181.387 20.3457L181.562 20.0257L181.619 19.9037L181.861 19.5534L182.175 19.0099L182.261 18.7225L182.52 18.3239L182.618 18.1512L182.691 17.9579L182.796 17.8541L183.046 17.3637L183.242 17.0183L183.47 16.7622C183.593 16.61 183.918 16.3903 184.262 16.3541C184.428 16.3831 184.614 16.3867 184.822 16.5969L184.839 16.7576L184.826 17.0837L184.644 17.3349L184.4 17.6622L184.105 17.9485L183.792 18.283L183.74 18.4509L183.35 18.9328L183.154 19.2782L183.018 19.5246L182.874 19.7022C182.858 19.7734 182.863 19.8193 182.866 19.8423L182.65 20.0041C182.653 20.027 182.614 20.1007 182.596 20.149L182.293 20.5754L182.01 20.9764L181.874 21.2227L181.778 21.4184L181.572 21.881L181.469 22.0078C181.387 22.1093 181.389 22.1322 181.371 22.1805L181.274 22.5852L181.24 22.7047L181.082 23.1855L181.016 23.6565L181.025 23.7483L181.008 24.0286L181.016 24.0974L181.176 24.0805L181.339 24.0866L181.429 24.054L181.564 24.0166L181.704 24.0251L181.819 24.013C181.977 23.9732 182.108 23.8898 182.289 23.8476L182.488 23.757L182.69 23.6894C182.71 23.664 182.754 23.6363 182.754 23.6363L183.099 23.3911L183.184 23.3126L183.72 23.117L184.073 22.9407L184.252 22.8755L184.97 22.4287L185.144 22.3176L185.49 22.0725L185.769 21.8575L185.941 21.7235L186.076 21.686L186.204 21.5798L186.483 21.3648L186.634 21.2561L186.826 21.0967L186.908 20.9952L187.256 20.773L187.361 20.6692L187.883 20.3359L188.078 20.1994L188.121 20.1716L188.27 20.04L188.316 20.0352L188.418 19.9084L188.572 19.8226L188.654 19.7212L188.892 19.5569L189.043 19.4483L189.13 19.3927L189.26 19.3094C189.411 19.2007 189.537 19.0715 189.731 18.935L189.857 18.8058L190.112 18.8022L190.312 18.9436L190.357 19.1477L190.134 19.4496L190.001 19.51L189.875 19.6392L189.527 19.8614L188.861 20.3723L188.669 20.5317L188.398 20.8155L188.242 20.8783L188.132 20.9362C187.748 21.2551 187.366 21.5969 187 21.8674L186.877 22.0195L186.79 22.0751L186.547 22.1934L186.462 22.2719ZM187.295 10.768L187.323 10.8115C187.36 10.9468 187.398 11.0821 187.376 11.3164C187.288 11.5809 187.108 11.8551 186.632 12.1836L186.378 12.4191L186.293 12.4976C186.188 12.6014 186.017 12.7355 185.935 12.8369L185.56 13.2476L185.224 13.5845L185.076 13.7161C184.968 13.7971 184.808 13.8139 184.647 13.8308L184.57 13.5373L184.583 13.4431L184.825 12.6519L184.9 12.4816L185.17 11.9659L185.327 11.6942L185.407 11.5698L185.589 11.3185L185.738 11.1869L185.864 11.0577L186.172 10.6772L186.433 10.5106L186.611 10.4454C187.006 10.4503 187.184 10.594 187.295 10.768ZM188.812 20.4703L188.894 20.3688C188.894 20.3688 188.915 20.3435 188.912 20.3205L189.044 20.0282L189.176 19.7359L189.39 19.3422L189.826 18.4146L189.921 18.2189L189.98 18.1199L190.234 17.4435L190.583 16.5715C190.617 16.4519 190.678 16.1439 190.718 15.8612C190.742 15.6499 190.702 15.4916 190.69 15.3769C190.671 15.1933 190.659 15.0785 190.69 14.936C190.737 14.7222 191.014 14.4843 191.266 14.4577C191.863 14.395 192.131 14.7381 192.031 15.3288C191.973 15.6597 191.861 15.9266 191.753 16.2165L191.416 17.2033L191.222 17.5717L191.134 17.8362L191.043 18.0778L190.766 18.5247L190.736 18.6901L190.613 18.8423C190.495 19.0404 190.343 19.358 190.247 19.5537L189.935 20.1202C189.902 20.2397 189.857 20.4765 189.818 20.5502L189.664 20.8449L189.707 20.8171L189.976 20.5103L190.515 19.8968L190.574 19.7978L190.611 19.7011L190.951 19.4101L191.034 19.3086L191.351 19.02L191.415 18.9669L191.971 18.514L192.06 18.4814L192.406 18.2362C192.472 18.206 192.534 18.13 192.6 18.0998C192.777 18.0116 193.15 17.81 193.313 17.816L193.405 17.8064L193.912 17.7763L194.258 17.972L194.496 18.2486L194.605 18.6316L194.627 18.8381L194.628 19.07L194.611 19.3503L194.605 19.5133L194.629 19.7428L194.552 20.3311C194.559 20.3999 194.541 20.4482 194.548 20.5171L194.614 20.6959L194.649 20.8082C194.679 20.8746 194.739 21.0075 194.764 21.0281L194.799 21.1404L194.908 21.2914C194.934 21.3119 194.911 21.3144 194.934 21.3119L195.15 21.382C195.428 21.376 195.724 21.3217 196.106 21.2119L196.5 20.9849L196.658 20.945C196.748 20.9124 196.878 20.8291 196.945 20.7989L197.126 20.7567L197.456 20.5828L198.115 20.235L198.184 20.2278L198.56 20.0491L199.302 19.5998L199.578 19.3619L199.691 19.3269L200.169 19.0214L200.318 18.8897L200.484 18.7098L200.679 18.5733L201.29 18.2074L202.022 17.6664L202.15 17.5601L202.429 17.3452L202.539 17.2872L202.816 17.0493L203.068 17.0228L203.218 17.123L203.299 17.2306L203.28 17.4878L203.067 17.6726L202.683 17.9914C202.429 18.2269 202.214 18.3888 201.997 18.5276L201.679 18.8163L201.459 18.9322L201.139 19.1979L200.878 19.3645C200.706 19.4986 200.466 19.6399 200.162 19.8343L199.816 20.0794L198.859 20.6905L198.813 20.6953C198.729 20.7738 198.598 20.8571 198.537 20.9332L198.235 21.1506L197.923 21.2762C197.834 21.3088 197.729 21.4126 197.642 21.4682L197.445 21.5817L197.197 21.6541L196.927 21.729L196.768 21.7688L196.681 21.8244L196.592 21.857L196.525 21.8872C196.482 21.9149 196.393 21.9475 196.255 21.962L196.053 22.0296L195.831 22.1226L195.581 22.1721L195.303 22.1781L195.17 22.2384L194.938 22.2396C194.686 22.2662 194.447 22.1985 194.23 22.1284L194.207 22.1308L194.111 22.0945C193.869 22.0039 193.659 21.7707 193.561 21.5026C193.526 21.3902 193.512 21.2525 193.495 21.0919L193.466 20.8165L193.529 20.5314L193.616 20.035L193.761 19.2076C193.756 19.1617 193.769 19.0675 193.765 19.0216C193.763 18.7897 193.698 18.6109 193.556 18.5795C193.487 18.5867 193.375 18.6217 193.308 18.6519C193.308 18.6519 193.29 18.7002 193.224 18.7304L193.073 18.8391L192.855 18.978L192.658 19.0915L192.361 19.3547L192.251 19.4127L192.046 19.6663L191.838 19.897L191.582 20.1096C191.5 20.211 191.338 20.4369 191.253 20.5154L191.061 20.6748L190.89 20.8088L190.828 20.8849L190.538 21.217L190.495 21.2448L190.323 21.3789L190.218 21.4827L190.156 21.5588L189.894 21.9344L189.64 22.1699L189.273 22.6494L188.659 23.4332L188.536 23.5854L188.131 23.9296L187.927 23.9743C187.645 23.9344 187.531 23.7375 187.441 23.5381C187.398 23.3569 187.39 23.0562 187.65 22.6576L187.784 22.3883L188.198 21.695L188.309 21.4281L188.487 21.131L188.523 21.0343L188.812 20.4703ZM189.279 44.2518L189.336 43.6889C189.324 43.5741 189.35 43.3857 189.341 43.2939L189.401 42.9859L189.506 42.4411L189.657 41.8916L189.746 41.6271L189.766 41.6017C189.764 41.5787 189.8 41.4821 189.821 41.4568C189.958 41.0014 190.173 40.3987 190.357 39.9385C190.378 39.9131 190.375 39.8902 190.373 39.8672L190.508 39.3889L190.735 38.901L190.787 38.7331L190.988 38.4336L191.261 37.9408L191.9 36.7366L192.7 35.5155L192.952 35.0481L193.105 34.7305L193.326 34.4056L193.526 34.1061L193.75 33.8041L194.156 33.251L194.24 33.1725C194.258 33.1241 194.322 33.071 194.341 33.0227L194.487 32.8681L194.733 32.5638L195.057 32.112L195.614 31.4502L195.696 31.3488L195.917 31.0239L196.387 30.4176L196.654 30.0879L196.883 29.8318L197.154 29.548L197.28 29.4188L197.421 29.2183L197.78 28.8789L198.342 28.263L198.547 28.0094C199.027 27.4949 199.484 26.9828 199.904 26.5673L200.086 26.3161L200.327 26.1748L200.475 26.0432C200.816 25.7521 201.152 25.4152 201.493 25.1241L201.682 24.9418L201.918 24.7546L202.203 24.3766L202.786 23.9672C203.276 23.5445 203.85 23.0433 204.362 22.6182L204.551 22.4358L205.793 21.4468L205.942 21.3151L206.068 21.1859L206.372 20.9915L206.393 20.9661L206.623 20.733L206.838 20.5712L206.969 20.4879L207.191 20.3949L207.411 20.279L207.802 19.5881L207.932 19.2729L207.986 19.1279L208.381 18.2511L208.578 17.6967L208.757 17.1906L208.811 17.0456L208.9 16.7811L208.987 16.2847L208.785 16.3523L208.345 16.5841L208.284 16.6602L208.11 16.7713L207.831 16.9863L207.334 17.3401C207.293 17.3909 207.185 17.4718 207.185 17.4718L206.479 18.0333L206.412 18.0635L206.302 18.1215L206.149 18.2072L205.701 18.5792L205.424 18.8171L204.746 19.2132L204.465 19.4052L204.293 19.5392L204.248 19.5441L203.804 19.9619L203.418 20.2578L203.29 20.3641L203.228 20.4402L202.926 20.6575L202.793 20.7179L202.326 20.9063L202.28 20.9111C201.817 21.1454 201.455 21.2299 201.108 21.2431C200.97 21.2576 200.731 21.1899 200.551 21.0232L200.384 20.7622L200.365 20.5786L200.389 20.3673L200.54 19.8177L200.584 19.7899L200.702 19.5918C200.743 19.5411 200.787 19.5133 201.021 19.0942L201.209 18.8889L201.581 18.4553L201.743 18.2295L201.955 18.0447L202.14 17.8164L202.309 17.6594L202.51 17.3599L202.786 17.122L202.891 17.0181L203.017 16.8889L203.317 16.6486L203.427 16.5906L203.703 16.3527L204 16.0894L204.124 15.9373L204.638 15.5351L204.684 15.5303L204.725 15.4796L205.025 15.2392L205.045 15.2139L205.54 14.8371L205.711 14.703L206.487 14.1342C207.052 13.7732 207.818 13.5534 208.139 13.5197C208.162 13.5173 208.187 13.5378 208.21 13.5354C208.305 13.5487 208.35 13.5439 208.617 13.655L208.8 13.8447L208.881 13.9522C208.934 14.0162 209.024 14.2156 209.046 14.4221C209.068 14.6287 209.09 14.8352 209.053 14.9319L209.024 15.0973L209.359 14.9693L209.721 14.8848L209.905 14.8656L210.116 14.8897L210.344 15.0746L210.369 15.3041L210.361 15.6761L210.189 16.0191L210.132 16.1411L210.062 16.3573L209.85 16.774C209.793 16.896 209.677 17.117 209.6 17.2644C209.532 17.5035 209.385 17.8671 209.315 18.0833L209.218 18.4879L209.096 18.872L208.998 19.0447L208.931 19.2839L209.716 18.8069L209.972 18.5944L210.105 18.534L210.552 18.371L211.209 18.0003C211.513 17.8058 211.733 17.6899 211.935 17.6223L212.063 17.516L212.26 17.4025L212.913 17.2178C212.913 17.2178 212.936 17.2154 213.026 17.1828L213.291 17.062L213.516 16.992L213.713 16.8785L214.002 16.7554L214.181 16.6902L214.699 16.5429L215.355 16.3811L215.606 16.5635L215.658 16.8365L215.473 17.0648L215.338 17.1022L215.2 17.1167C215.042 17.1565 214.888 17.2423 214.753 17.2797L214.597 17.3425L214.347 17.392L213.609 17.6552L213.392 17.7941L213.121 17.8689L212.919 17.9365C212.761 17.9763 212.608 18.0621 212.472 18.0995L212.383 18.1321L211.774 18.521L211.245 18.7854L210.897 19.0076L210.519 19.1634C210.187 19.3143 209.864 19.557 209.281 19.9664L208.999 20.1584L208.741 20.348L208.628 20.383L208.152 20.7115L207.957 21.0569L207.766 21.4483L207.568 21.7708L207.534 21.8903L207.176 22.4616L206.063 24.4581C205.924 24.6815 205.795 24.9968 205.656 25.2202L205.198 25.9413L205.044 26.236C204.859 26.4642 204.864 26.5101 204.804 26.6092L204.611 26.9776L204.199 27.6938C203.921 28.1407 203.6 28.6153 203.324 29.0851L202.83 29.9028L202.771 30.0018L202.523 30.5152L201.469 32.1807L200.995 32.973L199.699 34.9888C199.423 35.4586 199.125 35.9309 198.824 36.3802L198.423 36.9792C198.425 37.0022 198.409 37.0734 198.409 37.0734L197.471 38.5179C197.248 39.0518 196.955 39.5699 196.647 39.9504L196.284 40.4758C196.145 40.6992 195.94 40.9528 195.755 41.1811C195.591 41.384 195.408 41.6352 195.272 41.8816L194.919 42.4988L194.803 42.7198L194.569 43.1389C194.43 43.3623 194.306 43.5145 194.201 43.6184C194.096 43.7222 193.986 43.7802 193.877 44.0701L193.729 44.2017L193.302 44.7802L192.771 45.4626L192.581 45.645C192.199 45.9868 191.864 46.3237 191.35 46.5169L190.88 46.6823L190.168 46.5252L189.942 46.3633C189.718 46.2243 189.6 45.9815 189.424 45.6288C189.424 45.6288 189.421 45.6058 189.389 45.5164C189.321 45.3147 189.285 44.9705 189.286 44.7615C189.272 44.6238 189.293 44.3895 189.279 44.2518ZM204.503 25.5039L205.131 24.4169L205.427 23.9217C205.443 23.8504 205.486 23.8227 205.502 23.7514L205.909 22.9893L206.023 22.7453L206.679 21.7018L206.249 22.0254L205.972 22.2633L205.498 22.6148L204.559 23.3865L204.238 23.6521L203.575 24.1859L203.276 24.4263L202.238 25.3707L202.028 25.5784C201.102 26.4878 200.179 27.4202 199.305 28.3706L199.261 28.3984L199.084 28.6955L198.825 28.8851C198.14 29.6532 197.411 30.4491 196.777 31.2583L196.6 31.5554L196.408 31.7149L196.182 31.9939L196.125 32.1158L195.847 32.5627L195.436 33.07L195.331 33.1738L195.06 33.6896L194.415 34.6159L193.681 35.5749L193.307 36.2174C192.984 36.6691 192.721 37.0448 192.605 37.2658L192.255 37.9059C192.155 38.0557 192.098 38.1777 192 38.3504C191.982 38.3987 191.966 38.47 191.925 38.5207C191.889 38.6173 191.685 39.1029 191.578 39.4157L191.343 40.0438C190.962 41.0583 190.584 42.0959 190.313 43.0525C190.323 43.1443 190.291 43.2868 190.301 43.3786L190.286 43.6818L190.143 44.3002C190.133 44.6493 190.153 45.0648 190.231 45.3583C190.376 45.4127 191.018 44.9043 191.123 44.8004L191.586 44.5662L191.812 44.2872L192.349 43.8826C192.875 43.3633 193.503 42.7172 193.961 41.9961C194.041 41.8717 194.287 41.5674 194.554 41.2377C195.068 40.6036 195.789 39.7389 196.843 37.8414L197.601 36.6711C197.702 36.5213 197.845 36.3438 197.943 36.1711L198.756 34.8558C199.007 34.3654 199.367 33.8171 199.634 33.4874C199.893 33.0888 200.215 32.6141 200.449 32.195L200.526 32.0477L200.886 31.4994L201.573 30.5223L201.807 30.1032L201.866 30.0041L202.18 29.4606L202.431 28.9702L202.551 28.7951L202.549 28.7722L202.736 28.5669L203.105 27.8784L203.166 27.8023C203.38 27.4086 203.594 27.0148 203.81 26.644L203.888 26.4967L204.045 26.2249L204.117 26.0317L204.341 25.7297L204.503 25.5039ZM207.337 16.0404L207.36 16.038L207.424 15.9849L207.389 15.8725L207.39 15.6636L207.46 15.4474L207.517 15.3254L207.607 15.0838L207.808 14.7843L207.903 14.5886L208.001 14.4159C207.774 14.463 207.488 14.6091 207.181 14.7806L207.03 14.8893L206.859 15.0233L206.602 15.2359L206.433 15.3929L206.236 15.5064L205.948 15.6295L205.774 15.7406C205.641 15.801 205.536 15.9049 205.431 16.0087C205.088 16.2768 204.721 16.5473 204.36 16.8638L204.152 17.0944L203.937 17.2563L203.791 17.4108L203.407 17.7297L202.964 18.1475L202.546 18.5859L202.156 19.0678L202.037 19.2659L201.916 19.441L201.582 20.0099C201.545 20.1065 201.502 20.1343 201.466 20.2309C201.447 20.2792 201.434 20.3735 201.437 20.3964L201.377 20.4954C201.377 20.4954 201.4 20.493 201.421 20.4677C201.533 20.4327 201.691 20.3928 201.755 20.3397L201.799 20.3119L202.083 20.1429L202.426 19.8748L202.579 19.789L202.733 19.7033L203.032 19.463L203.353 19.1973L203.504 19.0886L203.677 18.9775L204.021 18.7094L204.231 18.5016L204.487 18.2891L204.979 17.8894L205.619 17.358L206.103 16.8894L206.339 16.7022L206.467 16.5959L206.725 16.4063L207.163 16.1515L207.268 16.0477L207.337 16.0404Z" fill="#FFC700"/>
</svg>
