<svg width="30" height="40" viewBox="0 0 30 40" fill="none" xmlns="http://www.w3.org/2000/svg">
<path d="M27.0705 36.6C25.8438 35.72 24.6438 34.7467 23.4705 33.68C22.2971 32.6133 21.2305 31.5467 20.2705 30.48C22.6705 28.6133 24.3771 26.6 25.3905 24.44C26.4305 22.28 26.9505 19.8533 26.9505 17.16C26.9505 14.28 26.4438 11.7733 25.4305 9.64C24.4171 7.50667 22.9771 5.85333 21.1105 4.68C19.2705 3.48 17.0838 2.88 14.5505 2.88C12.0171 2.88 9.81714 3.46667 7.95047 4.64C6.0838 5.81333 4.63047 7.46667 3.59047 9.6C2.57714 11.7333 2.07047 14.2533 2.07047 17.16C2.07047 20.12 2.57714 22.68 3.59047 24.84C4.63047 27 6.0838 28.6667 7.95047 29.84C9.81714 31.0133 12.0171 31.6 14.5505 31.6H14.7905C15.0038 31.6 15.2838 31.5733 15.6305 31.52C16.0038 31.44 16.5105 31.2267 17.1505 30.88C18.2438 32.2133 19.3771 33.52 20.5505 34.8C21.7238 36.08 22.9771 37.1867 24.3105 38.12L22.5105 39.12C21.5238 38.4267 20.4971 37.5333 19.4305 36.44C18.3905 35.3467 17.4438 34.2933 16.5905 33.28C16.4838 33.3333 16.2038 33.3733 15.7505 33.4C15.3238 33.4533 14.9238 33.48 14.5505 33.48C11.6705 33.48 9.15047 32.8267 6.99047 31.52C4.83047 30.2133 3.15047 28.3467 1.95047 25.92C0.750469 23.4667 0.150469 20.5467 0.150469 17.16C0.150469 13.8533 0.750469 10.9867 1.95047 8.56C3.15047 6.13333 4.83047 4.26667 6.99047 2.96C9.15047 1.62666 11.6705 0.959998 14.5505 0.959998C17.4305 0.959998 19.9371 1.62666 22.0705 2.96C24.2305 4.29333 25.8971 6.17333 27.0705 8.6C28.2705 11.0267 28.8705 13.88 28.8705 17.16C28.8705 20.2267 28.3505 22.9067 27.3105 25.2C26.2971 27.4933 24.8838 29.3333 23.0705 30.72C24.5905 32.3467 26.5905 33.96 29.0705 35.56L27.0705 36.6ZM14.5505 29.48C12.9505 29.48 11.4571 29.0133 10.0705 28.08C8.71047 27.1467 7.61714 25.76 6.79047 23.92C5.9638 22.08 5.55047 19.8267 5.55047 17.16C5.55047 14.4667 5.97714 12.2267 6.83047 10.44C7.71047 8.62667 8.83047 7.26667 10.1905 6.36C11.5771 5.45333 13.0305 5 14.5505 5C16.1771 5 17.6571 5.45333 18.9905 6.36C20.3505 7.26667 21.4305 8.62667 22.2305 10.44C23.0305 12.2267 23.4305 14.4667 23.4305 17.16C23.4305 19.8267 23.0038 22.08 22.1505 23.92C21.3238 25.76 20.2305 27.1467 18.8705 28.08C17.5371 29.0133 16.0971 29.48 14.5505 29.48ZM14.5505 27.56C15.8305 27.56 16.9905 27.16 18.0305 26.36C19.0971 25.5333 19.9371 24.3467 20.5505 22.8C21.1905 21.2533 21.5105 19.3733 21.5105 17.16C21.5105 13.8267 20.8438 11.2933 19.5105 9.56C18.2038 7.8 16.5505 6.92 14.5505 6.92C13.2971 6.92 12.1238 7.32 11.0305 8.12C9.9638 8.89333 9.09714 10.04 8.43047 11.56C7.79047 13.08 7.47047 14.9467 7.47047 17.16C7.47047 19.3733 7.77714 21.2533 8.39047 22.8C9.03047 24.3467 9.8838 25.5333 10.9505 26.36C12.0171 27.16 13.2171 27.56 14.5505 27.56Z" fill="#66A7CA"/>
</svg>
