<svg width="31" height="32" viewBox="0 0 31 32" fill="none" xmlns="http://www.w3.org/2000/svg">
<path d="M18.7409 2.72H12.2609L2.46094 32H0.460938L10.8609 0.799999H20.1409L30.5409 32H28.4609L18.7409 2.72ZM14.2609 5.88H16.5809L21.3809 20.48H9.46094L14.2609 5.88ZM18.7409 18.56C18.6076 18.1333 18.3943 17.4933 18.1009 16.64C17.8076 15.7867 17.4876 14.84 17.1409 13.8C16.7943 12.7333 16.4743 11.68 16.1809 10.64C15.8876 9.57333 15.6743 8.62667 15.5409 7.8H15.3009C15.1676 8.6 14.9543 9.53333 14.6609 10.6C14.3943 11.64 14.0876 12.6933 13.7409 13.76C13.3943 14.8 13.0743 15.76 12.7809 16.64C12.4876 17.4933 12.2743 18.1333 12.1409 18.56H18.7409ZM20.7409 24.68H10.1809L7.70094 32H5.70094L8.82094 22.76H22.1409L25.1409 32H23.1409L20.7409 24.68Z" fill="#EBC0D0"/>
</svg>
