<svg width="138" height="49" viewBox="0 0 138 49" fill="none" xmlns="http://www.w3.org/2000/svg">
<path opacity="0.4" d="M34.9414 12.2052L35.6057 12.3442C35.7483 12.3756 35.8521 12.4807 35.9053 12.5447C35.9306 12.5653 36.0345 12.6704 36.0574 12.668L36.1915 12.8395L36.3376 13.1258L36.4088 13.5824L36.4462 13.7177L36.4703 13.9472L36.3906 14.0716L36.393 14.0945C36.2492 14.713 36.2311 14.7613 36.2335 14.7842L36.2371 15.0391L36.1102 15.3773L36.0799 15.7517C36.0618 15.8 36.0509 15.9172 36.0533 15.9402L36.0013 16.108L35.8491 16.4257L35.7657 16.7361L35.4564 17.3255L35.402 17.4705L35.2848 17.9005C35.2872 17.9234 35.2715 17.9947 35.2715 17.9947L35.1059 18.4065L35.0238 18.508L34.515 20.0697C34.5017 20.1639 34.4111 20.4055 34.3929 20.4538C34.3748 20.5021 34.3748 20.5021 34.3772 20.5251L34.2455 20.8174L34.1597 21.1048C34.1053 21.2498 34.028 21.3971 34.0147 21.4913L33.9374 21.6387C33.5543 22.6303 33.5567 22.6533 33.5567 22.6533L33.535 22.8876L33.4987 22.9842L33.4926 23.1473L33.4612 23.2898L33.3343 23.628L33.2389 23.8237L32.9719 24.1534L32.5502 25.2187C32.5574 25.2875 32.5441 25.3818 32.5513 25.4506L32.3484 25.7272L32.3556 25.796L32.2093 26.3915L32.1501 26.4905L32.039 26.7575L32.2226 26.7382L32.4014 26.673L32.5825 26.6307L32.8145 26.6296L33.0029 26.6562L33.2094 26.6345L33.3218 26.5994L33.5767 26.5959L33.9898 26.5524C34.0586 26.5452 34.1299 26.5609 34.1987 26.5537L34.4053 26.532C34.4741 26.5247 34.5913 26.5356 34.6601 26.5284C34.7773 26.5393 34.8945 26.5502 34.9174 26.5478L34.9839 26.5176L35.1192 26.4801L35.4682 26.4899L35.5347 26.4597L35.7183 26.4404L35.7847 26.4102L36.042 26.4296L36.1568 26.4175L36.3379 26.3752L36.4551 26.3861L36.5264 26.4018L36.6411 26.3898L36.7124 26.4055C36.7583 26.4007 36.896 26.3862 37.0132 26.3971C37.0591 26.3923 37.1303 26.408 37.1762 26.4032L37.268 26.3935L37.3345 26.3633L37.5181 26.344L37.8031 26.4069C37.8514 26.425 37.8744 26.4226 37.9203 26.4178L38.1293 26.419L38.2899 26.4021L38.3636 26.4408L38.639 26.4118C38.7586 26.4457 39.0364 26.4397 39.2937 26.4591L39.4869 26.5316L39.586 26.5908L39.6077 26.7973L39.5762 26.9398L39.4893 26.9954L39.2827 27.0171L39.1631 26.9833L39.0508 27.0183L38.7247 27.0061L38.2379 27.0109L38.0772 27.0278C37.6363 27.0277 37.2208 27.0482 36.8512 27.0638L36.4151 27.1097C36.1832 27.1108 35.9767 27.1325 35.7931 27.1518L35.0357 27.2314L34.5586 27.328L34.3725 27.3243L34.1201 27.3509L33.9618 27.3907L33.7807 27.433L33.6864 27.4197L33.2987 27.4836L33.138 27.5005L32.7503 27.5645L31.5822 27.7104C31.5412 27.7612 31.5001 27.8119 31.5025 27.8348L31.1146 28.7806L30.6905 29.8229C30.6687 30.0572 30.5575 30.3242 30.4693 30.5887L30.3811 30.8532C30.3472 30.9728 30.2494 31.1455 30.1672 31.2469L30.1262 31.2977L29.4736 33.0369C29.4168 33.1589 29.383 33.2785 29.3516 33.421L29.1401 33.8377C29.0132 34.1759 28.8863 34.5141 28.7872 34.8958L28.7256 34.9719L28.5649 35.4296L28.461 35.7654L28.3812 36.3307L28.2688 36.3657C28.2277 36.4164 28.2072 36.4418 28.212 36.4877L27.9341 37.3755L27.8592 37.5458C27.8893 37.6122 27.8664 37.6146 27.8664 37.6146L27.8833 37.7753L27.7806 37.9021L27.5727 38.5737L27.4712 38.9324L27.4313 39.215L27.4361 39.2609L27.3213 39.7139L27.2512 39.9301C27.215 40.0267 27.1424 40.22 27.1291 40.3142L27.111 40.3625C27.1158 40.4084 27.0977 40.4567 27.1001 40.4796L26.9696 41.0039C27.0143 41.208 26.9732 41.2587 26.9393 41.3783C26.9055 41.4979 26.8692 41.5945 26.8584 41.7117L26.7883 41.9279C26.7592 42.0933 26.7302 42.2588 26.7519 42.4654L26.6746 42.6127C26.6335 43.1043 26.5875 43.55 26.4908 43.9547C26.4775 44.0489 26.4207 44.1709 26.4098 44.288C26.4013 44.4282 26.3953 44.5912 26.4098 44.7289C26.4315 44.9355 26.4483 45.0961 26.4169 45.2387C26.3348 45.3401 26.2985 45.4367 26.2828 45.508C26.2671 45.5793 26.2514 45.6505 26.1487 45.7773L25.9409 46.008C25.8152 46.1372 25.7101 46.2411 25.3599 45.9995C25.1969 45.5525 25.2984 45.1938 25.4181 44.7868L25.4918 44.3845C25.5051 44.2903 25.5571 44.1224 25.6296 43.9292C25.6997 43.713 25.7855 43.4255 25.7638 43.219L25.9052 42.5776C26.0346 41.8215 26.1917 41.1088 26.3488 40.3962L26.4335 39.8768L26.6728 39.0627C26.7175 38.826 26.8057 38.5615 26.8528 38.3477C26.8661 38.2535 26.9253 38.1544 26.9387 38.0602L27.3278 36.9055C27.3592 36.763 27.4027 36.7352 27.4341 36.5927L27.642 35.9211L27.6988 35.7991C27.694 35.7532 27.7326 35.6796 27.7507 35.6312L28.0154 34.8377L28.0492 34.7181L28.0348 34.5804L28.187 34.2628L28.2075 34.2374C28.2027 34.1915 28.2027 34.1915 28.2438 34.1408C28.2269 33.9801 28.2789 33.8122 28.3562 33.6649L28.4226 33.6347L28.5338 33.3678C28.6402 33.0549 28.8033 32.6201 28.8867 32.3097L29.3084 31.2444C29.3217 31.1502 29.4329 30.8832 29.4715 30.8096C29.6456 30.2576 29.6661 30.2322 29.8341 29.8433L29.9876 29.3167L30.0758 29.0522L30.2208 28.6657L30.309 28.4012L30.5555 28.0968L30.6074 27.9289C30.518 27.9615 30.3803 27.976 30.3139 28.0062L29.8645 28.1462C29.6048 28.1039 29.327 28.1099 29.2123 28.122L27.276 28.4647L27.2989 28.4623C27.1866 28.4973 26.9136 28.5492 26.7759 28.5637C26.4461 28.7375 26.1659 28.7206 25.8192 28.7338C25.7527 28.764 25.638 28.7761 25.5691 28.7833C25.5232 28.7881 25.4798 28.8159 25.4339 28.8207L25.0461 28.8847L25.0691 28.8823L23.3948 29.2903L22.989 29.4026L22.4913 29.5245L22.1313 29.6319L21.7641 29.6705L21.5551 29.6693C20.2433 29.9928 18.8167 30.3284 17.5097 30.6978L16.948 30.8728L16.5856 30.9573L16.1061 31.0309L15.542 31.183L14.9331 32.0128C14.5416 32.7036 13.9097 33.5358 13.4168 34.1445L13.1957 34.4694C13.2163 34.444 13.116 34.5938 13.1003 34.665C13.0096 34.9066 12.791 35.2544 12.5445 35.5588L11.7652 36.7545C11.5695 37.0999 11.3895 37.3741 11.1321 37.7956L10.9702 38.0214L10.5739 38.6664L10.3987 38.9865L9.99279 39.5396L9.91064 39.6411C9.89734 39.7353 9.82483 39.9285 9.80912 39.9998L9.69919 40.0578L9.54694 40.3754L9.49739 40.5663L9.44542 40.7341L9.29924 40.8887C9.20861 41.1303 9.18566 41.1327 9.12646 41.2318L8.96457 41.4576C8.9259 41.5313 8.84857 41.6786 8.81473 41.7982C8.68544 42.1135 8.53802 42.477 8.16833 42.9335L7.61862 43.6642L7.47726 43.8647L7.41083 43.8949L7.21874 44.0543L7.06292 44.1171L6.87931 44.1364L6.65105 43.9516L6.58585 43.7728L6.55084 43.6604L6.55208 43.4515L6.56538 43.3573L6.56903 43.1712L6.6343 42.9091L6.62465 42.8173L6.69716 42.6241L6.69233 42.5782L6.78537 42.3596L6.90378 42.1615L6.95575 41.9936L7.05602 41.8438L7.18532 41.5286L7.39918 41.1348L7.78217 40.5841C7.84137 40.4851 7.93683 40.2894 7.95254 40.2181L8.16516 40.0334L8.5119 39.5793L8.83569 39.1275L9.05437 38.7797L9.53523 38.0562L9.61738 37.9548L9.6923 37.7845L9.95206 37.3859L10.1732 37.061L10.445 36.7772L10.7301 36.3992L10.9947 36.0465L11.1747 35.7724L11.3801 35.5187L11.5625 35.2675C11.6423 35.1431 11.8017 34.8943 11.9044 34.7675L12.0845 34.4933C12.0772 34.4245 12.1038 34.2361 12.2826 34.1709L12.3213 34.0972L12.5291 33.8665C12.5907 33.7904 12.6269 33.6938 12.6861 33.5948L12.848 33.3689L13.2697 32.7445L13.614 32.2674L13.8786 31.9148L14.0538 31.5947L13.8267 31.6418L13.178 31.8724L12.7057 32.0148L12.1851 32.1392C11.9145 32.214 11.6487 32.3348 11.3552 32.412L10.7391 32.732C10.5422 32.8455 10.2946 32.918 10.0905 32.9626C9.91168 33.0278 9.73048 33.0701 9.48527 33.1655C8.86801 33.2535 8.2906 33.4999 7.71318 33.7462C7.53441 33.8114 7.3834 33.9201 7.20462 33.9853C6.83859 34.2558 6.41941 34.4623 6.11017 34.6108L5.77797 34.7617C5.47114 34.9332 4.89131 35.1566 4.5567 35.2845C4.5108 35.2894 4.46731 35.3171 4.42382 35.3449C4.0868 35.45 3.66763 35.6564 3.34274 35.4353L3.15555 35.1998C3.14349 35.085 3.16286 34.8277 3.22206 34.7287C3.35859 34.4823 3.61229 34.2468 3.94207 34.0729L4.38419 33.864L4.74175 33.7336C5.29139 33.4438 5.626 33.3158 5.98115 33.1625C6.33629 33.0091 6.73975 32.8739 7.12026 32.7411C7.20965 32.7085 7.31717 32.6276 7.40656 32.595L8.2183 32.3705L8.28233 32.3173L8.32823 32.3125C8.82108 32.1447 9.43109 31.9877 9.94931 31.8405L10.2658 31.7608L10.6717 31.6485C10.7611 31.6159 10.8456 31.5374 10.935 31.5048L11.1162 31.4626L11.5245 31.3733L11.7745 31.3238C12.5633 31.1016 13.3799 30.923 14.0358 30.7612C14.3293 30.684 14.5129 30.6647 14.7606 30.5923L14.8729 30.5572L14.9937 30.3821L15.0711 30.2348L15.2487 29.9376L15.6618 29.4533L16.2091 28.6997L16.6912 28.2082L16.7733 28.1067L17.2324 27.6176L17.4148 27.3664L17.967 26.6586L18.3548 26.1538L18.5396 25.9255L18.9238 25.6067L19.1593 25.4195L19.4336 25.1586L19.918 24.6901L20.1645 24.3857L20.3976 24.1756L20.5982 23.876L20.7444 23.7215L20.9365 23.562L20.957 23.5367L21.1285 23.4026C21.3387 23.1949 21.5623 22.893 21.7725 22.6852L22.1264 22.3L22.2932 22.12C22.5674 21.8592 22.7341 21.6792 22.8779 21.5017L22.9395 21.4256C22.9371 21.4026 22.9757 21.329 22.9963 21.3036L23.128 21.0113L23.2609 20.9509L23.4578 20.8374L23.5399 20.736L23.7139 20.6249L24.2805 20.0548L24.365 19.9763L24.5064 19.7758L24.5728 19.7456L24.9111 19.4316C25.0597 19.3 25.2083 19.1684 25.311 19.0416L25.3931 18.9401L25.6287 18.7529L25.8317 18.4763L26.1083 18.2384L26.4695 17.922L26.5541 17.8435L26.7571 17.5669L26.78 17.5645L26.9649 17.3363L27.2644 17.0959L27.4432 17.0307L27.9071 16.5875C27.9071 16.5875 27.9482 16.5368 27.9458 16.5138L28.1125 16.3339L28.3046 16.1745L28.5402 15.9873L28.5607 15.9619L28.6477 15.9064L28.7274 15.782L29.0983 15.5574C29.2263 15.4511 29.4208 15.3146 29.5465 15.1854L29.7361 15.003L29.8002 14.9499C29.9053 14.846 30.0998 14.7096 30.2302 14.6263L30.3329 14.4994L30.4586 14.3702L30.7171 14.1806L30.8935 14.0925L31.0215 13.9862L31.152 13.9029L31.3054 13.8171C31.5204 13.6553 31.8478 13.4585 32.0652 13.3196L32.1957 13.2363C32.5895 13.0092 32.5436 13.0141 32.5871 12.9863L33.0244 12.7315L33.2648 12.5902C33.3312 12.56 33.4412 12.5021 33.4617 12.4767L33.6405 12.4115L33.8857 12.3161L34.9414 12.2052ZM24.3926 21.3425C24.3032 21.3751 23.9263 21.7627 23.8212 21.8666L23.5288 22.1758L23.3186 22.3835L23.0081 22.741L22.8825 22.8702L22.6928 23.0526L22.3159 23.4403L21.939 23.8279L21.5572 24.1697C21.26 24.433 20.8058 24.968 20.6004 25.2216L20.4131 25.427L20.2694 25.6045L19.7922 26.1419C19.5614 26.375 19.3512 26.5827 19.1603 26.9741L18.2011 28.0031L17.539 28.7688L17.1077 29.3014C17.005 29.4282 16.9205 29.5067 16.8359 29.5852C16.5665 29.892 16.5726 29.7289 16.3816 30.1202L16.8769 29.9753L17.3214 29.7894L17.9157 29.7037L18.4726 29.4828L18.7227 29.4333L19.1056 29.3234L19.6081 29.2474L19.7252 29.2583C20.0647 29.1762 20.3812 29.0965 20.7411 28.9891L20.8281 28.9336L21.0963 28.8358L21.4381 28.7766L21.9745 28.581L22.2245 28.5315L22.5023 28.5255L22.6606 28.4857L22.8418 28.4435L22.936 28.4568L25.1562 27.945L25.4727 27.8653L25.8278 27.7119L26.0295 27.6443L26.2566 27.5973L26.532 27.5683L26.6903 27.5285L26.8715 27.4862L27.6747 27.4018L28.1748 27.3028L28.6036 27.1882L28.838 27.2099C29.0216 27.1906 29.2487 27.1436 29.4528 27.0989L29.6086 27.0361L29.7004 27.0265L29.7971 27.0627L30.343 26.9589L30.4324 26.9263L30.6849 26.8998L30.912 26.8527L30.9579 26.8479L31.0328 26.6776L31.1125 26.5532L31.2467 26.2839C31.26 26.1896 31.3325 25.9964 31.3482 25.9251L31.4098 25.849L31.4026 25.7802L31.4618 25.6811C31.4932 25.5386 31.5367 25.5108 31.5681 25.3683L31.7542 24.9311C31.7542 24.9311 31.7747 24.9057 31.7723 24.8828L31.7711 24.6509L31.8618 24.4093C31.857 24.3634 31.8956 24.2897 31.8908 24.2438L32.1276 23.8477L32.2412 23.6037L32.6762 22.4442L32.9711 21.7171L33.0206 21.5262L33.3021 20.8933L33.2853 20.7327L33.3263 20.6819L33.3191 20.6131L33.3916 20.4198L33.5076 20.1988L33.742 19.7797C33.8665 19.4186 33.968 19.0598 34.0792 18.7929C34.0767 18.77 34.1202 18.7422 34.1178 18.7192L34.3595 17.9281C34.4296 17.7119 34.5154 17.4244 34.5481 17.0729L34.7197 16.498C34.8381 16.2999 34.878 16.0173 34.8974 15.76C34.8901 15.6911 34.9288 15.6175 34.9216 15.5486C34.9192 15.5257 34.9349 15.4544 34.9325 15.4315C34.9784 14.9857 35.0087 14.6113 34.9882 14.1958C34.9858 14.1728 34.9556 14.1064 34.9532 14.0834L34.9846 13.9409L34.9653 13.7573L34.9944 13.5918C34.9231 13.5761 34.8772 13.5809 34.8325 13.3768C34.7589 13.3381 34.7105 13.32 34.6417 13.3272L34.1646 13.4238L33.4977 13.7027L33.0025 13.8476L32.6522 14.0468L32.3816 14.1217C32.3586 14.1241 32.2946 14.1772 32.2946 14.1772L31.7111 14.5866L31.6036 14.6675L31.089 15.0697C31.0684 15.095 31.0092 15.1941 31.0117 15.217L30.7483 15.3607L30.526 15.4537L30.0754 15.8027C30.0319 15.8305 29.9498 15.9319 29.9498 15.9319L29.8012 16.0636L29.6707 16.1469L28.5412 17.101L28.267 17.3618L27.7825 17.8304L27.6774 17.9343L27.4213 18.1468L27.4419 18.1215L27.2316 18.3292L26.5962 18.9065L26.4573 19.1299L26.3292 19.2362C26.2881 19.2869 26.2652 19.2893 26.2217 19.3171L26.2289 19.386L25.9934 19.5731L25.8677 19.7024C25.8677 19.7024 25.6962 19.8364 25.6116 19.9149L25.5065 20.0188L24.8903 20.7797L24.6777 20.9644C24.6367 21.0152 24.5521 21.0937 24.534 21.142L24.3926 21.3425ZM39.9666 28.5927L39.7358 28.8258L39.2176 29.414C39.1741 29.4417 39.0738 29.5915 39.0327 29.6422L38.6812 30.0504L38.4915 30.2328L38.0396 30.7908L37.8004 31.164L37.618 31.4152L37.1553 32.0903L36.9547 32.3899L36.8363 32.588C36.7952 32.6387 36.7614 32.7583 36.7203 32.809L36.7022 32.8573L36.7239 33.0638L36.7021 33.2982L36.6683 33.4178L36.4774 33.8091L35.9869 33.9999L35.6149 33.9925L35.3081 33.7231L35.2659 33.5419L35.2406 33.0805L35.2745 32.5201L35.3361 32.444L35.4715 31.9657C35.4691 31.9427 35.5053 31.8461 35.5029 31.8231L35.8642 31.0658L35.9391 30.8955L35.9983 30.7965C36.0503 30.6286 36.1505 30.4788 36.2025 30.311L36.5372 29.7421L36.6689 29.4498L37.3842 27.8664C37.493 27.5765 37.6295 27.3301 37.7383 27.0402L38.0319 26.5221L38.1684 26.2757L38.8051 25.0485L38.9417 24.8022C39.0601 24.6041 39.1326 24.4108 39.228 24.2152C39.3803 23.8975 39.576 23.5521 39.831 23.1076L39.8877 22.9856L40.2901 22.1776L40.4085 21.9795L40.5173 21.6896L40.7613 21.3623L40.8085 21.1486L41.0525 20.8213L41.2096 20.5495L41.6192 19.8103L41.6687 19.6195L41.9551 19.0325L41.9998 18.7958L42.4142 18.1025L42.5568 17.693L43.0546 16.6893L43.5247 15.6422L43.7857 15.0346L44.2013 14.1324L44.3029 13.7737L44.4382 13.2954L44.5011 13.0103L44.5905 12.5368L44.6413 12.137L44.6619 11.6708C44.6571 11.6249 44.6934 11.5282 44.6885 11.4823L44.8239 11.004C44.9121 10.7395 45.1356 10.4376 45.643 10.4075C45.9413 10.3761 46.108 10.637 46.1828 10.9076L46.1997 11.0683L46.1731 11.2567L46.1441 11.4222L45.9676 11.9512L45.8769 12.6337L45.7295 12.9972L45.605 13.3584C45.5917 13.4526 45.5325 13.5516 45.4806 13.7195L45.3633 14.1495C45.3658 14.1724 45.3271 14.2461 45.309 14.2944L45.1325 14.8235L44.9875 15.21L44.8534 15.4793L44.7193 15.7487L44.4281 16.2897L44.2577 16.6557L44.2372 16.6811L44.126 16.948C44.1103 17.0193 44.097 17.1135 44.0994 17.1364L43.8396 17.535L43.8445 17.5809L43.4917 18.1981L43.1715 18.9047L42.9781 19.273L42.8597 19.4711C42.6229 19.8673 42.4864 20.1137 42.4139 20.3069L42.4163 20.3299L42.3003 20.5509L42.2182 20.6523L41.8907 21.2901L41.6019 21.8541L41.3966 22.1077L41.2419 22.4024L41.2443 22.4254L41.0377 22.888L40.7719 23.4496L40.4492 24.1332L40.0445 24.9183L39.0852 26.3882L39.0489 26.4848L38.9293 26.8918L38.2575 28.0066L38.162 28.2023L37.6316 29.5575L37.4225 29.9971L37.3343 30.2616L37.437 30.1348L37.4962 30.0358L38.0713 29.3256L38.302 29.0925L38.6765 28.6819L38.772 28.4862L39.1695 28.0732L39.2588 28.0406L39.6877 27.485L39.8158 27.3787L40.0538 27.2145L40.351 26.9512L40.5636 26.7665L40.6457 26.665L40.8378 26.5056C40.8354 26.4826 40.8535 26.4343 40.8535 26.4343L41.1761 26.1916L41.2836 26.1107L41.8417 25.6808L42.0567 25.5189L42.0773 25.4936L42.2488 25.3595L42.395 25.2049L42.6511 24.9924L42.697 24.9876L42.9737 24.7496L43.1754 24.682L43.5788 24.5468L44.4353 24.0855L44.637 24.0179C44.9076 23.9431 45.1021 23.8066 45.4947 23.7886L45.5841 23.756L46.2086 23.7367C46.4912 23.7766 46.7811 23.8854 47.1217 24.0352C47.269 24.1126 47.327 24.2225 47.3439 24.3831L47.3366 24.7552L47.374 24.8905L47.2773 25.2951C47.2664 25.4123 47.2121 25.5572 47.2012 25.6744L47.0513 26.015L46.9051 26.1695L46.6502 26.614L46.5934 26.736L46.388 26.9896L45.6849 27.8061L45.3309 28.1913L45.1872 28.3689L44.4333 29.1442L44.118 29.4558L43.8389 29.6708L43.7109 29.777L43.6493 29.8531L43.3545 30.1394L43.1552 30.2299L42.9196 30.4171L42.8351 30.4956L42.6611 30.6067L42.3796 30.7987L42.2697 30.8567L42.1646 30.9605C41.8215 31.2286 41.4301 31.4786 40.8986 31.7201L40.6328 31.8409L40.5024 31.9242L40.3441 31.964L40.2523 31.9737L39.989 32.1174L39.6773 32.2429L39.4551 32.3359L39.1845 32.4108L38.9163 32.5086L38.4597 32.5798L38.2966 32.5737L38.1312 32.5447L37.9911 32.5362L37.7495 32.4456L37.5744 32.3247C37.4681 32.1967 37.4307 32.0614 37.4464 31.9901L37.6192 31.6471L37.8825 31.5034L38.1325 31.4539L38.2244 31.4443L38.3415 31.4552L38.5118 31.5301L38.7232 31.5543C38.8379 31.5422 38.9551 31.5531 39.0469 31.5435C39.0928 31.5386 39.1387 31.5338 39.2281 31.5012L39.797 31.395L40.1957 31.2139L40.9241 30.8589L41.2261 30.6415L41.336 30.5835L41.7274 30.3336C41.7685 30.2828 41.7842 30.2116 41.8048 30.1862L42.1599 30.0329L42.2397 29.9085L42.5392 29.6681L42.6444 29.5643L42.8847 29.423L42.9488 29.3699L43.2641 29.0583L43.699 28.7805L44.0191 28.5148C44.355 28.1779 44.6038 27.8965 44.7476 27.7189L45.0146 27.3892C45.1608 27.2346 45.1837 27.2322 45.4096 26.9532C45.4072 26.9303 45.4435 26.8337 45.464 26.8083L45.6283 26.6054L45.7697 26.4049L45.9183 26.2733C46.0802 26.0474 46.2626 25.7962 46.3375 25.6259L46.3581 25.6005C46.3532 25.5546 46.3919 25.481 46.3871 25.4351L46.4415 25.2901C46.462 25.2648 46.4825 25.2394 46.4801 25.2164L46.4656 25.0787L46.4355 25.0123L46.2942 24.7719L46.0405 24.5665L45.8775 24.5605L45.7168 24.5773C45.4438 24.6292 45.1346 24.7778 44.8024 24.9287L44.7359 24.9589L44.1404 25.2535L43.9459 25.39L43.8106 25.4274L43.3733 25.6822L43.2658 25.7631L43.1994 25.7933C43.1788 25.8187 43.1559 25.8211 43.1559 25.8211L42.7874 26.0686L42.0143 26.6604L41.6277 26.9563L41.5045 27.1084L41.3679 27.3548L41.1046 27.4985L40.892 27.6833L40.5078 28.0021C40.3798 28.1084 40.2541 28.2376 40.172 28.3391L39.9666 28.5927ZM54.741 26.2277L54.7458 26.2736C54.7325 26.3678 54.7397 26.4367 54.602 26.892C54.5863 26.9633 54.5572 27.1288 54.521 27.2254L54.3253 27.5708L54.0921 27.781L53.9073 28.0092L53.7248 28.2605L53.5146 28.4682C53.1631 28.8764 52.6919 29.2508 52.1978 29.6276L52.1543 29.6553L51.8777 29.8932L51.7448 29.9536L51.6808 30.0068L51.4887 30.1662L51.3449 30.3437L51.2096 30.3811C51.1915 30.4294 51.1299 30.5055 51.1299 30.5055L50.933 30.619L50.8666 30.6492L50.6213 30.7446L50.4655 30.8074L50.3761 30.84C50.3556 30.8654 50.3145 30.9161 50.2916 30.9185L50.2251 30.9487C49.8289 31.1528 49.5885 31.2941 49.3638 31.3641L49.3022 31.4402L49.1669 31.4776L48.8504 31.5573L48.6898 31.5741L48.2513 31.597C48.0447 31.6187 47.8587 31.6151 47.7186 31.6066C47.6015 31.5957 47.4613 31.5872 47.1968 31.499L47.1485 31.4809C46.9069 31.3903 46.5821 31.1692 46.5193 31.0133L46.4311 30.837L46.3865 30.6328L46.43 30.1642L46.5617 29.8719L46.7369 29.5518L47.4763 28.6388L47.7252 28.3574L47.9354 28.1496L48.0175 28.0482L48.4838 27.6279L48.5044 27.6025C48.5249 27.5772 48.5865 27.5011 48.63 27.4733L48.8608 27.2402L48.9659 27.1364L49.4733 26.6654L49.617 26.4878L49.6859 26.4806L49.8985 26.2958L50.1341 26.1086L50.4131 25.8937L50.8384 25.5241L50.9459 25.4432L51.0534 25.3623L50.7091 25.3985C50.6632 25.4033 50.6198 25.4311 50.5509 25.4383C50.3927 25.4781 50.1885 25.5228 49.982 25.5445L49.4106 25.6278L49.128 25.5879L48.9323 25.4924L48.7246 25.2822L48.7186 25.0044L48.9071 24.5901L49.1934 24.444L49.464 24.3691L49.7599 24.3148L49.9278 24.3668L50.3252 24.3946C50.6465 24.3609 50.9243 24.3549 51.2504 24.367L51.5947 24.3308L51.9414 24.3176L52.3702 24.2029L52.4644 24.2162L52.7809 24.1365C52.8244 24.1088 52.9138 24.0762 52.9343 24.0508L53.1904 23.8383L53.3644 23.7272L53.3873 23.7247L53.5613 23.6136L53.7654 23.569L53.9466 23.5267C54.0819 23.4893 54.309 23.4422 54.4721 23.4483L54.6098 23.4338L54.7293 23.4677C54.8236 23.481 54.9455 23.5378 55.0192 23.5764L55.5604 23.4267L55.8285 23.3289L56.1704 23.2698L56.5255 23.1165L56.7067 23.0742L56.9338 23.0271L57.3928 22.9789L57.574 22.9366L57.8748 22.9282C57.9436 22.921 58.0354 22.9113 58.1248 22.8787L58.3543 22.8546C58.4232 22.8474 58.4896 22.8172 58.5585 22.81L58.6914 22.7496L58.7856 22.7629L58.9233 22.7484L59.0586 22.711L59.2192 22.6941L59.4741 22.6905L59.7012 22.6435L59.8667 22.6725L59.9355 22.6652L60.1215 22.6689L60.2387 22.6798C60.4247 22.6834 60.6615 22.7282 60.9695 22.7886L61.0178 22.8067L61.1096 22.7971L61.3282 22.8901L61.3052 22.8925C61.5166 22.9167 61.5214 22.9626 61.5722 23.0037C61.6205 23.0218 61.6434 23.0194 61.6664 23.017L61.9961 23.284L62.1072 23.458L62.1591 23.731L62.1373 23.9653L62.0467 24.2068L61.8739 24.5499C61.799 24.7202 61.7579 24.7709 61.6963 24.847L61.5731 24.9992L61.3049 25.097L61.1648 25.0885L61.1129 24.8155L61.1238 24.6983L61.1528 24.5328L61.2253 24.3396L61.357 24.0473L61.4174 23.7393L61.4102 23.6704L61.2169 23.5979L61.0442 23.5001L60.6903 23.4445C60.1734 23.3828 59.5537 23.4479 59.2094 23.4841L58.8652 23.5203L58.5922 23.5722C58.4774 23.5842 58.388 23.6168 58.2987 23.6494C58.2322 23.6796 58.1404 23.6893 58.0257 23.7013C57.0231 23.8763 56.3213 24.0429 55.6219 24.2324L55.4431 24.2976L55.3585 24.3761L54.92 24.399L54.4683 24.5161L53.8353 24.6754L53.6819 24.7612L53.8063 24.8409L53.8546 24.859L54.0503 24.9545L54.4585 25.3061L54.572 25.503L54.7157 25.7663L54.741 26.2277ZM53.3336 27.1878L53.3977 27.1346C53.5571 26.8858 53.6296 26.6926 53.7021 26.4993L53.6877 26.3616L53.7529 26.0995C53.7457 26.0307 53.7638 25.9824 53.7542 25.8906C53.7264 25.8471 53.6177 25.6961 53.6153 25.6731L53.5899 25.6526L53.4172 25.5547L53.2216 25.4593L53.079 25.4278L52.9365 25.3964L52.6442 25.2647C52.6442 25.2647 52.5983 25.2695 52.573 25.249L52.4244 25.3806C52.1888 25.5678 51.8711 25.8564 51.1777 26.3238L50.5761 26.7815L50.3199 26.994L50.2124 27.075C50.0614 27.1836 49.9152 27.3382 49.7642 27.4469L49.6386 27.5761L49.362 27.8141L49.1336 28.0701L48.8981 28.2573L48.7519 28.4119L48.4776 28.6727C48.4366 28.7235 48.3133 28.8756 48.2952 28.9239L48.1176 29.2211L47.9557 29.4469C47.8578 29.6196 47.7624 29.8153 47.7104 29.9832C47.6899 30.0085 47.6947 30.0544 47.6947 30.0544L47.6609 30.174L47.6572 30.36L47.6415 30.4313L47.656 30.569L47.8081 30.6922L47.9301 30.749L47.976 30.7442C48.6923 30.7153 48.8457 30.6296 49.5536 30.2999C49.9088 30.1466 50.2386 29.9727 50.5248 29.8266L50.5683 29.7988L50.9597 29.5489L51.3596 29.1588L51.5203 29.1419L52.117 28.6383L52.2222 28.5344C52.3913 28.3774 52.5556 28.1745 52.7223 27.9946L52.7815 27.8955L52.9893 27.6648L53.1741 27.4366C53.1717 27.4136 53.1899 27.3653 53.1899 27.3653L53.3336 27.1878ZM67.6721 28.2332L67.735 27.9481C67.7736 27.8745 67.8026 27.709 67.8908 27.4445L67.886 27.3986L67.9609 27.2283C67.9561 27.1824 67.9767 27.157 67.9948 27.1087L68.1809 26.6715C68.2171 26.5748 68.3126 26.3792 68.3694 26.2572C68.3875 26.2089 68.3851 26.1859 68.3827 26.163L68.4419 26.0639C68.4576 25.9927 68.5192 25.9166 68.5506 25.774L68.6437 25.5554C68.6413 25.5325 68.6594 25.4842 68.6546 25.4383L68.7295 25.268L67.9986 25.6L67.8887 25.658L67.7329 25.7208L67.5843 25.8524L67.0624 26.1857L66.6759 26.4816L66.5454 26.5649L65.2963 27.4851L65.2117 27.5636L65.0655 27.7182L64.4386 28.1554L64.1547 28.3244L63.3127 28.9234L63.2692 28.9512L63.1278 29.1517L63.0638 29.2048L62.8669 29.3183L62.5649 29.5357L62.455 29.5937L62.4091 29.5985L62.2472 29.8244L62.0889 29.8642L62.0225 29.8944L61.8944 30.0006L61.8328 30.0767L61.6154 30.2156L61.0996 30.3858L60.9667 30.4462L60.765 30.5138L60.6067 30.5537L59.911 30.5572L59.6259 30.4943C59.2696 30.4158 59.2418 30.3723 59.1404 30.2901C58.9556 30.0775 58.9411 29.9398 58.9242 29.7791L58.9049 29.5955L58.9654 29.2875L59.0234 28.9566L59.1237 28.8068L59.1733 28.616L59.1708 28.593L59.305 28.3237L59.4669 28.0978L59.6916 27.5869L59.7412 27.3961L59.8596 27.198L59.9574 27.0253L60.1278 26.6593L60.2692 26.4588L60.4262 26.1871L60.5217 25.9914L60.6171 25.7957L60.831 25.402L60.9083 25.2547L60.9446 25.158L61.0098 24.8959C61.0074 24.873 61.0461 24.7993 61.0389 24.7304L61.0401 24.5215L61.0776 24.2159L61.161 23.9055L61.3954 23.4864L61.6587 23.3427L61.8399 23.3004L61.98 23.3089L62.2059 23.4708C62.2868 23.5783 62.3725 23.7317 62.4172 23.9359L62.4654 24.3949L62.4255 24.6775L62.312 24.9215L62.1645 25.2851L61.9869 25.5822L61.848 25.8056L61.6426 26.0592L61.5218 26.2344L61.4191 26.3612L61.2983 26.5363L61.1726 26.6655L61.1316 26.7162L60.7377 27.3842L60.5601 27.6813C60.4622 27.854 60.3643 28.0267 60.2894 28.197L60.0937 28.5424L60.0188 28.7127L59.9402 29.0691L59.8882 29.2369L59.8024 29.5244C59.7819 29.5498 59.7819 29.5498 59.7867 29.5957C59.7939 29.6645 59.7662 29.621 59.7939 29.6645L59.8857 29.6549C59.9776 29.6452 60.1358 29.6054 60.3351 29.5148C60.5368 29.4472 60.7362 29.3567 60.7796 29.3289L61.1553 29.1502L61.5286 28.9485L61.6844 28.8857L61.8149 28.8024L62.71 28.2674C62.7535 28.2397 62.7922 28.166 62.8357 28.1382L63.0761 27.9969L63.186 27.939L63.3165 27.8556L63.6318 27.5441L64.1766 27.2083L64.2889 27.1733L64.3119 27.1709L64.783 26.7965C64.8241 26.7458 64.87 26.741 64.9111 26.6903L65.0778 26.5103L65.4487 26.2857L66.0962 25.8232L66.3293 25.613L66.5878 25.4234L66.8343 25.1191L67.0723 24.9549L67.2003 24.8486L67.4866 24.7025L67.5507 24.6493L67.6582 24.5684L68.3407 24.2182L68.4277 24.1627L68.5328 24.0588L69.0317 23.7279L69.2056 23.6168L69.4074 23.5492L69.5197 23.5142C69.6115 23.5046 69.7746 23.5106 69.9195 23.565L70.0971 23.7088L70.2082 23.8827L70.2226 24.0204L70.1936 24.1859L70.1417 24.3538L69.8456 24.849L69.7163 25.1642C69.6982 25.2126 69.6873 25.3297 69.6873 25.3297L69.494 25.6981L69.4263 25.9373L69.3562 26.1535L69.2149 26.3539L69.2197 26.3998L69.065 26.6945C69.0699 26.7404 69.0517 26.7888 69.0542 26.8117L68.9841 27.0279C68.9889 27.0738 68.9732 27.1451 68.9756 27.168L68.8825 27.3866L68.7799 27.5135C68.7484 27.656 68.7375 27.7732 68.7448 27.842L68.7496 27.8879C68.8257 27.9495 68.9223 27.9858 69.1083 27.9894C69.1772 27.9822 69.2484 27.9979 69.3173 27.9907L69.5009 27.9714L69.641 27.9798L69.8017 27.963C69.9853 27.9437 70.1894 27.899 70.437 27.8266C70.4829 27.8217 70.5494 27.7916 70.5953 27.7867L70.7076 27.7517L71.0193 27.6261L71.1594 27.6346L71.7006 27.4849L71.8564 27.4221L72.1523 27.3678L72.3565 27.3232C72.4 27.2954 72.4229 27.293 72.4688 27.2882L72.6271 27.2483L72.9532 27.2605L73.0389 27.4139L73.0353 27.5999L72.8275 27.8306L72.6692 27.8704L72.6028 27.9006L72.261 27.9597L72.0387 28.0527L71.7476 28.1529L70.9938 28.4874L70.7437 28.5369L70.6543 28.5695L70.3656 28.6926L70.1156 28.7421L69.9574 28.7819C69.9139 28.8097 69.845 28.817 69.7991 28.8218L69.5285 28.8966L69.2374 28.9968L69.0079 29.021C68.9161 29.0306 68.8497 29.0608 68.7808 29.068C68.6226 29.1079 68.4184 29.1525 68.3013 29.1416L68.2554 29.1465C68.2324 29.1489 68.1382 29.1356 68.0923 29.1404L67.7855 28.871L67.7529 28.7816C67.6696 28.6511 67.6298 28.4929 67.6612 28.3504C67.6588 28.3274 67.6745 28.2561 67.6721 28.2332ZM79.98 13.9453L80.3219 13.8862L80.625 13.9007L80.6408 13.8295L81.1712 12.9152L81.2304 12.8161L81.4672 12.42L81.6907 12.1181L81.7704 11.9937L81.9867 11.6229L82.0483 11.5468C82.0459 11.5238 82.064 11.4755 82.064 11.4755L82.2078 11.298L82.2875 11.1736L82.3492 11.0975L82.447 10.9248L82.4446 10.9018L82.5401 10.7062L82.7684 10.4501L82.9303 10.2243L83.0354 10.1204L83.1176 10.0189L83.3181 9.71942L83.544 9.44043L83.7917 9.368L84.0006 9.36924L84.2796 9.59516L84.3702 9.79447L84.4293 10.1363L84.3109 10.3344L84.1007 10.5421L83.9618 10.7656L83.7793 11.0168L83.6609 11.2149L83.3662 11.5011L83.1656 11.8006L82.7138 12.3586L81.9659 13.4118L81.7859 13.6859L82.013 13.6388L82.3778 13.5773L83.059 13.4361L83.9106 13.3698L84.5689 13.231L85.2116 13.1634L85.4254 13.2106L85.586 13.1937L85.8916 13.2312C85.9399 13.2493 86.103 13.2554 86.1489 13.2506L86.3965 13.1781L86.7251 13.2132C86.8398 13.2011 86.9497 13.1432 87.0645 13.1311L87.2251 13.1142L87.48 13.1107L87.7626 13.1506C87.7856 13.1481 87.8569 13.1639 87.8798 13.1614L88.1117 13.1603L88.7483 13.2558C88.7736 13.2763 88.8679 13.2896 88.8908 13.2872L89.258 13.2486L89.4537 13.3441L89.9175 13.3417C89.9634 13.3369 90.0117 13.355 90.0347 13.3526L90.1844 13.4529C90.1844 13.4529 90.182 13.43 90.2762 13.4433L91.0903 13.6826C91.1157 13.7031 91.164 13.7212 91.187 13.7188L91.6653 13.8542C91.7136 13.8723 91.7136 13.8723 91.7365 13.8699C91.7619 13.8904 91.7873 13.911 91.7643 13.9134L91.9274 13.9194L92.2656 14.0463L92.3742 14.1973L92.5216 14.2747L92.6823 14.2578L92.89 14.468L93.1158 14.6299L93.1919 14.6915C93.2378 14.6867 93.2632 14.7072 93.2861 14.7048L93.6025 15.066L93.6279 15.0865L93.8175 15.3451L93.931 15.542L94.0916 15.966L94.1822 16.1653L94.2111 16.4407L94.0915 16.8477L93.9936 17.0204L93.8281 16.9914L93.6989 16.8658L93.589 16.4829C93.5842 16.437 93.554 16.3705 93.5492 16.3246C93.4912 16.2147 93.3777 16.0178 93.3246 15.9538L93.1507 15.624L92.9611 15.3655L92.7534 15.1552L92.5275 14.9934L92.5046 14.9958L92.1338 14.7795C92.0625 14.7638 91.9405 14.707 91.9405 14.707C91.9176 14.7094 91.8922 14.6889 91.8922 14.6889L91.6482 14.5753L91.5057 14.5439C91.4598 14.5487 91.2714 14.5221 91.1651 14.394L90.8064 14.2925C90.6916 14.3046 90.5032 14.278 90.3884 14.29L90.1771 14.2658L89.8872 14.1571L89.5333 14.1015C89.2736 14.0591 89.0417 14.0603 88.7614 14.0434C88.6237 14.0578 88.4353 14.0312 88.3206 14.0433L87.9232 14.0154C87.8773 14.0203 87.806 14.0045 87.783 14.007L87.5535 14.0311L87.3724 14.0733L86.952 14.0479C86.8832 14.0551 86.8119 14.0394 86.766 14.0442L86.5594 14.066L86.2563 14.0514C86.0702 14.0478 85.8866 14.0671 85.726 14.0839L85.6366 14.1165L85.5653 14.1008C85.4965 14.1081 85.4252 14.0923 85.3564 14.0996L85.1957 14.1165C84.4613 14.1937 83.7269 14.2709 82.9949 14.371L82.9055 14.4036L82.7291 14.4917L82.066 14.5846L81.793 14.6365L80.9836 14.884L80.8036 15.1582L80.5463 15.5797L80.4943 15.7476L80.3663 15.8539C80.2454 16.029 80.1633 16.1305 80.0654 16.3032C80.0678 16.3261 80.0521 16.3974 80.0521 16.3974L79.7283 16.8491L79.4371 17.3902L79.2595 17.6873L78.8741 18.2151L78.241 19.2562L78.1021 19.4796L77.7239 20.0763L77.6695 20.2212L77.5463 20.3734C77.5052 20.4241 77.469 20.5207 77.4303 20.5944L77.3191 20.8614L77.1983 21.0365L77.057 21.237L76.9132 21.4145L76.7743 21.6379L76.7356 21.7116L76.6655 21.9278L76.2281 22.6235L75.966 22.9991L75.4464 23.7963L75.0985 24.4593L74.7457 25.0765C74.7118 25.1961 74.684 25.1526 74.6272 25.2746L74.3107 25.7951L74.2334 25.9425L74.0292 26.428C73.9977 26.5706 73.9385 26.6696 73.9071 26.8121L73.7114 27.1576L73.5096 27.6661L73.3827 28.0043L73.3947 28.119L73.3887 28.2821L73.2364 28.5997C73.2461 28.6915 73.1688 28.8389 73.1784 28.9307L73.1772 29.1396L73.2001 29.1372L73.6036 29.002L73.7594 28.9392L73.9382 28.874L74.1097 28.74L74.2861 28.6518L74.4625 28.5637L74.634 28.4296L74.7922 28.3898L74.9916 28.2992L75.0991 28.2183L75.2368 28.2038L75.8021 27.8428L76.2165 27.5904L76.4315 27.4286L76.6332 27.361L76.7202 27.3054L77.3544 26.9371L77.6129 26.7475L77.7023 26.7149L78.6845 26.1244L78.943 25.9348L79.0964 25.849L79.3392 25.7307L79.646 25.5592L79.7258 25.4348L80.0689 25.1667L80.3346 25.046L80.6439 24.8975L81.2068 24.5134L81.2732 24.4833L81.3989 24.354L81.7444 24.1089L81.8543 24.0509L81.9207 24.0207L81.9642 23.993L82.1152 23.8843L82.3882 23.8324L82.538 23.9327L82.5827 24.1368L82.579 24.3228L82.364 24.4846L82.2335 24.568L82.1924 24.6187L81.6162 25.0969L81.5956 25.1223L81.4217 25.2334L81.1861 25.4206L80.8406 25.6657L80.6002 25.807L80.3985 25.8746L80.0941 26.069L79.9431 26.1777L79.902 26.2285L79.6 26.4458L79.4514 26.5775L78.9018 26.8673L78.6299 27.1511L78.4741 27.2139L78.2083 27.3346L78.1854 27.337C78.1419 27.3648 78.0803 27.4409 78.0598 27.4663C78.0187 27.517 77.9522 27.5472 77.9317 27.5725L77.7964 27.61L77.62 27.6981L77.5101 27.7561L77.3289 27.7983C77.306 27.8007 77.2419 27.8539 77.2419 27.8539L77.1115 27.9372L76.679 28.2379L76.4616 28.3768L76.2308 28.6099L76.162 28.6171L75.9469 28.7789L75.5942 28.9552L75.21 29.274L74.9854 29.3441L74.6374 29.5663L74.0624 29.8355L73.2398 30.1772L72.9439 30.2315L72.8267 30.2207L72.6612 30.1916L72.5211 30.1832L72.2336 30.0974L72.0924 29.857L72.0247 29.6552L71.9958 29.3798C71.991 29.3339 72.0043 29.2397 72.0019 29.2168C72.0079 29.0537 72.0551 28.8399 72.1336 28.4836C72.1288 28.4377 72.1602 28.2952 72.1554 28.2493L72.2533 28.0765L72.246 28.0077L72.2799 27.8881L72.4188 27.6647L72.4865 27.4255L72.6907 26.94L72.7886 26.7673C72.7838 26.7214 72.82 26.6247 72.8176 26.6018L72.9384 26.4267L73.0387 26.2769C73.0798 26.2262 73.0931 26.132 73.1342 26.0812L73.232 25.9085L73.3867 25.6138L73.5462 25.365L73.644 25.1923L73.8059 24.9664L73.8833 24.8191L74.0427 24.5703L74.2046 24.3444C74.1998 24.2985 74.2179 24.2502 74.2155 24.2273L74.3387 24.0751L74.4185 23.9507L74.578 23.7019L74.694 23.4809L74.8281 23.2115L74.9441 22.9905L75.1036 22.7417C75.1011 22.7188 75.1241 22.7163 75.1217 22.6934L75.3996 22.2465L75.5132 22.0025L75.8007 21.6475L75.9988 21.325C76.1172 21.1269 76.2332 20.9059 76.4133 20.6317L76.47 20.5097L76.6573 20.3044C76.8917 19.8853 77.1418 19.3949 77.3786 18.9988L77.4813 18.872L77.8389 18.3007C77.9827 18.1231 78.0214 18.0495 78.0987 17.9021L78.2147 17.6811L78.4406 17.4021L78.5288 17.1376L78.8019 16.6448L78.8707 16.6376L78.907 16.5409L79.1233 16.1702L79.3625 15.7969L79.5244 15.5711L79.5993 15.4008L79.8252 15.1218L79.8385 15.0276L79.7238 15.0397L79.4532 15.1145L78.7695 15.2328L78.0906 15.3969L77.8865 15.4416L77.7283 15.4814L77.146 15.6818L76.9672 15.747L75.8281 16.1684L75.6518 16.2566L75.4959 16.3194L75.2966 16.4099L74.5911 16.7625L74.3942 16.876L73.9219 17.0185L73.504 17.016L73.2648 16.9483L73.1127 16.8251L72.9327 16.6584L72.8784 16.3624L72.9026 16.1511C72.9388 16.0544 72.9727 15.9349 73.2131 15.7936L73.3665 15.7078C73.7168 15.5086 73.9161 15.418 74.2761 15.3106L74.5696 15.2333L74.92 15.0341L75.3077 14.9701L75.4502 15.0015L76.3562 14.7903L76.4226 14.7601L77.0556 14.6008L77.5327 14.5042L77.604 14.5199L77.7622 14.4801L77.8311 14.4728L78.4363 14.27L78.5921 14.2072L78.7298 14.1928L79.1151 14.1059L79.1816 14.0757L79.2987 14.0866L79.6817 13.9767L79.98 13.9453ZM100.744 29.282L100.41 29.41C100.32 29.4426 100.098 29.5355 99.2584 29.7166C99.1895 29.7238 99.0724 29.7129 98.9552 29.702C98.9093 29.7069 98.7897 29.673 98.7438 29.6778L98.5759 29.6259L97.9636 29.319L97.6085 29.0314L97.3247 28.7596L97.0747 28.3682C97.024 28.3271 96.9986 28.3066 96.9914 28.2378L96.8477 27.9744L96.7269 27.7087L96.6521 27.4381L96.6207 27.1397L96.5616 26.7979L96.5604 26.566L96.5255 26.0127L96.5449 25.7554L96.5799 25.4269L96.7347 24.6913L96.8386 24.3555L97.0839 23.8193L97.2651 23.3361L97.4995 22.917L97.8802 21.9025L98.0385 21.4217L98.3128 20.72L98.5098 20.1656L98.9798 19.1184L99.1429 18.6836L99.3496 18.221L99.642 17.4709L99.7942 17.1533L99.9827 16.739L100.078 16.5434L100.278 16.0119L100.337 15.9129L100.409 15.7196L100.711 15.0614L100.946 14.6423L101.003 14.5203L101.137 14.2509L101.446 13.6615L101.464 13.6132C101.48 13.5419 101.523 13.5142 101.539 13.4429L101.871 12.8511L102.335 11.967L102.392 11.845L102.608 11.4742L102.747 11.2508L102.886 11.0273L102.987 10.8776L102.966 10.9029C103.141 10.5828 103.362 10.258 103.537 9.93789L103.638 9.78813L103.74 9.66132L103.82 9.53691L103.818 9.51396L103.936 9.31589L104.098 9.09003L104.28 8.83882L104.648 8.35934L104.876 8.1033L105.383 7.6323C105.578 7.49584 106.049 7.56235 106.194 8.05761L106.218 8.28711C106.235 8.44777 106.073 8.67362 105.934 8.89706L105.544 9.37895L105.439 9.48281L105.087 9.89103L104.877 10.0988L104.687 10.2811C104.646 10.3318 104.628 10.3802 104.61 10.4285L104.171 10.8922L103.923 11.1736L103.701 11.4985L103.583 11.6966L103.544 11.7703L103.344 12.0698L103.148 12.4152L102.891 12.8368L102.706 13.065L102.585 13.2401L102.296 13.8042L102.121 14.1242L101.783 14.8791L101.68 15.0059C101.685 15.0518 101.669 15.1231 101.669 15.1231L101.469 15.4226L101.345 15.5748C101.271 15.7451 101.134 15.9915 101.08 16.1364L101.025 16.2814C101.007 16.3297 101.012 16.3756 101.012 16.3756L100.919 16.5942L100.8 16.7923C100.728 16.9855 100.571 17.2573 100.501 17.4735L100.346 17.7682L100.121 18.2791L99.9172 18.7647L99.7045 19.3903L99.5752 19.7056L99.3698 20.4001L99.1837 20.8373L98.8948 21.8422L98.78 22.2952L98.5407 23.1093L98.357 23.5694L98.3353 23.8038L98.1903 24.1903L97.9871 25.3486L97.9219 25.6107C97.8723 25.8016 97.859 25.8958 97.8687 25.9876C97.8928 26.2171 97.8758 26.4973 97.9 26.7268L97.8733 27.3561L97.9976 27.8767L98.0676 28.1014L98.2693 28.4747L98.5507 28.7236L98.6727 28.7804C98.6981 28.8009 98.7923 28.8142 98.8152 28.8118C98.9143 28.871 99.0797 28.9 99.174 28.9133C99.3829 28.9146 99.6813 28.8832 99.9084 28.8361L100.044 28.7987L100.202 28.7589L100.424 28.6659L100.537 28.6309L100.851 28.5283L101.385 28.3097L101.54 28.2469L101.939 28.0658L102.161 27.9728L102.78 27.6758L102.977 27.5623L103.488 27.3461L103.685 27.2326L103.794 27.1747L104.662 26.5962L104.851 26.4139L105.025 26.3028C105.135 26.2448 105.33 26.1083 105.437 26.0274L105.739 25.81L105.906 25.6301L106.61 25.0456L106.715 24.9417L106.782 24.9115C106.848 24.8813 106.976 24.7751 107.04 24.7219L107.125 24.6434L107.45 24.4236L107.64 24.2413L108.118 23.9358L108.605 23.4901L108.735 23.4068L109.229 23.03L109.575 22.7849L110.08 22.2909C110.142 22.2148 110.208 22.1846 110.254 22.1798C110.32 22.1496 110.471 22.0409 110.828 21.6786L111.13 21.4612L111.868 20.7572L112.26 20.2982L112.714 19.9722L112.883 19.8152L113.049 19.6352L113.913 18.8019L114.054 18.6014L114.657 17.9347L114.822 17.7318L115.365 17.1642C115.658 16.855 116.037 16.4903 116.306 16.1835L116.601 15.8973L116.784 15.6461L117.624 14.8152L117.688 14.7621L118.166 14.2246L118.771 13.5809L119.13 13.2415L119.785 12.407L120.17 11.8792L120.437 11.5495L120.688 11.291C120.77 11.1896 120.809 11.1159 120.889 10.9915L121.117 10.7355L121.22 10.6086L121.551 10.2258L121.733 9.97458L121.838 9.87071C121.856 9.8224 121.921 9.76926 121.939 9.72095L122.552 8.93712L122.699 8.78253L123.022 8.33083L123.104 8.22938L123.328 7.92744L123.739 7.42019L124.305 6.85015L124.429 6.69797L124.577 6.56633L124.844 6.23662L125.396 5.52888L125.835 5.06511L126.143 4.68467L126.423 4.26074L126.991 3.48174C127.112 3.30661 127.276 3.10371 127.395 2.90563L127.796 2.30658L128.17 1.89595L128.399 1.63991L128.506 1.559L128.632 1.42977L129.121 1.00708C129.54 0.800601 129.841 0.792192 129.952 0.966148C130.169 1.26816 130.224 1.5641 129.925 2.03634L129.44 2.7139L128.341 3.96632L128.18 4.19217L127.861 4.68977L127.235 5.79974L126.784 6.58963L126.383 7.18868L126.283 7.33845L125.451 8.70204L125.062 9.41584L124.545 10.2359L124.465 10.3603L124.365 10.5101L124.313 10.678L124.22 10.8966L124.009 11.3133C123.725 11.9232 123.461 12.5078 122.615 14.6155L122.496 15.0225L122.261 15.4416L122.184 15.589L121.298 17.9793C121.223 18.1496 121.099 18.5107 121.047 18.6786L120.601 19.9553C120.583 20.0036 120.585 20.0265 120.588 20.0495L120.554 20.1691L120.452 20.5278L120.199 21.6451L120.131 21.8842L120.089 22.1439C120.091 22.1669 120.075 22.2381 120.075 22.2381L120.003 22.4314L119.759 23.1996L119.766 23.2684C119.719 23.4822 119.61 23.7721 119.563 23.9859L119.255 25.2481L119.189 25.5102L118.971 26.2989L118.953 26.3472L118.812 27.2205L118.639 28.0044C118.579 28.3124 118.473 28.6252 118.381 29.0758C118.336 29.3125 118.282 29.4575 118.108 29.5686C117.911 29.6821 117.663 29.7545 117.411 29.781C116.917 29.7169 116.934 28.9958 117.063 28.6806C117.248 28.0114 117.383 27.5331 117.49 27.2203L117.65 26.7625C117.72 26.5463 117.749 26.3809 117.861 26.1139L118.06 25.5825L118.43 24.2442L119.124 22.0133L119.15 21.8249L119.469 20.8864C119.555 20.5989 119.687 20.3066 119.838 19.7571L119.914 19.3778L120.295 18.3632L120.437 17.9538L120.592 17.6591L120.63 17.5854L120.786 17.0817L120.815 16.9162L121.006 16.5249L121.21 16.0394L121.242 15.8968C121.24 15.8739 121.276 15.7773 121.273 15.7543L121.382 15.4644C121.377 15.4185 121.398 15.3932 121.496 15.2205L121.55 15.0755L121.586 14.9789L121.768 14.4958L121.917 14.1551C121.917 14.1551 121.933 14.0839 121.972 14.0102L122.176 13.5247L122.809 12.0427L123.18 10.9363L123.257 10.7889L123.309 10.6211L123.377 10.3819L123.432 10.237L123.525 10.0183L123.743 9.6705L123.918 9.35044L124.057 9.127L124.264 8.66441L123.928 9.00136L123.746 9.25257L123.502 9.57987L123.317 9.80814L123.111 10.0618L122.788 10.5135L122.159 11.1596L121.865 11.4458L121.282 12.0871L121.029 12.3226L120.654 12.7333L120.469 12.9615L120.033 13.4482L119.823 13.656L119.577 13.9603L119.497 14.0847L119.148 14.5159L118.878 14.8226L118.583 15.1089C118.524 15.2079 118.401 15.3601 118.339 15.4362L118.147 15.5956L117.894 15.8311L117.371 16.3733L116.996 16.784L116.265 17.5569L115.85 18.0183L115.737 18.0533L115.696 18.104L115.25 18.4989L114.817 19.0086L114.655 19.2344L114.488 19.4144L113.944 19.982L113.67 20.2429L113.168 20.7598L112.53 21.3141L111.886 22.0315L111.657 22.2875L110.919 22.9916C110.878 23.0423 110.86 23.0907 110.842 23.139L110.568 23.3998L110.284 23.5689L110.037 23.8732L109.822 24.0351L109.502 24.3008C109.42 24.4022 109.358 24.4783 109.102 24.6908L108.301 25.2391L108.16 25.4396L107.902 25.6292C107.712 25.8116 107.474 25.9758 107.307 26.1557L106.517 26.5868L106.3 26.7257L105.86 26.9576L105.121 27.4297L104.747 27.6314L104.612 27.6688L104.548 27.722L103.339 28.3595L103.025 28.4622C102.422 28.6879 101.84 28.8884 101.232 29.0682L100.744 29.282ZM135.573 15.3652L135.597 15.5947C135.579 15.643 135.583 15.6889 135.586 15.7119C135.603 15.8725 135.617 16.0102 135.435 16.2614C135.337 16.4342 135.088 16.7156 134.775 16.6092L134.511 16.521L134.181 16.254L134.118 16.0982L134.06 15.9882L134.041 15.8046L134.072 15.6621L134.028 15.458L133.97 15.348L133.896 15.3094L133.772 15.2296L133.629 15.1982C133.537 15.2079 133.466 15.1921 133.374 15.2018L132.846 15.2573C132.729 15.2464 132.64 15.279 132.17 15.4444L131.838 15.5953L130.703 16.0626L130.374 16.2365L130.072 16.4539L129.895 16.542L129.627 16.6398L129.21 16.8692L129.1 16.9272L128.601 17.2581L128.304 17.5214L128.222 17.6228L127.918 17.8172L127.792 17.9465L127.707 18.025L127.579 18.1312L127.518 18.2073L127.361 18.4791L127.169 18.6385L127.086 18.7399L126.851 18.9271C126.792 19.0262 126.735 19.1482 126.742 19.217L126.798 19.304L126.876 19.3886L127.231 19.6761L127.353 19.7329L127.597 19.8465C127.691 19.8598 127.813 19.9166 127.908 19.9299L128.149 20.0205L128.32 20.0954C128.368 20.1135 128.485 20.1244 128.531 20.1196L128.752 20.2356L129.279 20.3891C129.347 20.3818 129.467 20.4157 129.536 20.4084L129.793 20.4278L130.009 20.4979L130.055 20.4931L130.154 20.5523L130.605 20.6441C130.674 20.6369 130.745 20.6526 130.814 20.6454L130.936 20.7022C131.099 20.7082 131.29 20.7578 131.476 20.7614C131.567 20.7518 131.733 20.7808 131.825 20.7712L132.342 20.8329L132.873 21.0322L133.139 21.3524L133.193 21.6483L133.187 21.8114L133.046 22.0119L132.859 22.2172L132.508 22.4164L132.393 22.4285L132.265 22.5348L131.954 22.6603L131.905 22.6422L131.683 22.7352L131.091 22.8438L130.066 23.0212L129.767 23.0526L128.854 23.195L128.579 23.2239L128.283 23.2782L127.936 23.2914L127.668 23.3892L127.278 23.4302L126.676 23.4471L126.309 23.4857L126.082 23.5327L126.105 23.5303L125.699 23.6426L125.584 23.6547L125.27 23.7573L125.087 23.7766C124.951 23.814 124.821 23.8973 124.686 23.9347L124.394 24.035L124.121 24.0868L123.871 24.1363L123.312 24.3343L123.2 24.3694L122.883 24.449L122.792 24.4587L122.705 24.5142L122.546 24.5541L122.316 24.3463L122.253 24.1904L122.328 24.0201L122.527 23.9296L122.747 23.8136L123.306 23.6156L123.6 23.5384L123.914 23.4358L124.184 23.3609L124.8 23.0409L125.099 23.0096L125.278 22.9444L125.624 22.9311L125.874 22.8816L126.053 22.8164L126.53 22.7199L126.916 22.633L127.257 22.5738L127.735 22.4773L128.056 22.4435L128.235 22.3783L128.306 22.394L128.467 22.3771C128.535 22.3699 128.533 22.347 128.602 22.3397C128.622 22.3144 128.755 22.254 128.799 22.2262L129.391 22.1176L129.725 21.9896L130.529 21.9052L130.661 21.8448L130.891 21.8207L130.7 21.7711L130.436 21.6829L130.222 21.6358C130.153 21.643 130.056 21.6068 130.01 21.6116L129.893 21.6007L129.265 21.3651C129.219 21.3699 129.191 21.3264 129.169 21.3288L128.952 21.2587L128.591 21.1342L128.352 21.0666C128.281 21.0508 128.299 21.0025 128.205 20.9892C128.062 20.9578 128.011 20.9167 127.635 20.8635C127.469 20.8345 127.372 20.7982 127.223 20.698L127.174 20.6798C127.128 20.6847 127.057 20.669 127.034 20.6714L126.82 20.6242C126.775 20.629 126.703 20.6133 126.68 20.6157L126.505 20.4949L126.406 20.4357L126.432 20.4563L126.185 20.3197L125.855 20.0527L125.758 19.7846L125.743 19.6469L125.747 19.4608C125.758 19.3437 125.815 19.2217 125.91 19.026L125.949 18.9524C125.946 18.9294 125.985 18.8557 125.982 18.8328L126.222 18.4596L126.466 18.1323L126.628 17.9064L126.712 17.8279C126.733 17.8026 126.79 17.6806 126.787 17.6576L126.982 17.5212L127.043 17.4451L127.297 17.2096L127.599 16.9922L127.944 16.747L128.052 16.6661L128.377 16.4463L128.397 16.421L128.551 16.3352L128.635 16.2567L129.004 16.0092L129.139 15.9718L129.625 15.7351L129.822 15.6216L130 15.5564L130.601 15.3076L130.979 15.1519L131.465 14.9152L131.62 14.8524L131.733 14.8174C131.733 14.8174 131.756 14.815 131.822 14.7848L132.047 14.7148C132.18 14.6544 132.315 14.617 132.45 14.5796L133.063 14.4456L133.935 14.3539L134.403 14.3975L134.544 14.406L134.852 14.4664L135.172 14.6416L135.352 14.8083L135.407 14.8953L135.502 15.1405L135.573 15.3652Z" fill="#FFC700"/>
</svg>
