<svg width="275" height="98" viewBox="0 0 275 98" fill="none" xmlns="http://www.w3.org/2000/svg">
<path d="M68.9161 24.5154L70.2448 24.7934C70.5298 24.8563 70.7375 25.0665 70.8438 25.1945C70.8946 25.2356 71.1023 25.4458 71.1482 25.441L71.4163 25.7841L71.7085 26.3567L71.8509 27.2699L71.9257 27.5404L71.974 27.9995L71.8145 28.2483L71.8193 28.2942C71.5317 29.531 71.4954 29.6276 71.5002 29.6735L71.5074 30.1833L71.2536 30.8597L71.1931 31.6085C71.1569 31.7052 71.1351 31.9395 71.1399 31.9854L71.036 32.3212L70.7315 32.9565L70.5647 33.5773L69.9461 34.7561L69.8373 35.046L69.6028 35.906C69.6077 35.9519 69.5762 36.0944 69.5762 36.0944L69.2451 36.9182L69.0808 37.1211L68.0633 40.2445C68.0367 40.433 67.8554 40.9161 67.8192 41.0127C67.7829 41.1094 67.7829 41.1094 67.7877 41.1553L67.5243 41.7398L67.3527 42.3148C67.244 42.6047 67.0893 42.8994 67.0627 43.0878L66.908 43.3825C66.1419 45.3657 66.1467 45.4116 66.1467 45.4116L66.1032 45.8803L66.0307 46.0736L66.0186 46.3997L65.9557 46.6847L65.7019 47.3611L65.511 47.7525L64.977 48.4119L64.1336 50.5425C64.148 50.6802 64.1214 50.8686 64.1359 51.0063L63.73 51.5595L63.7444 51.6972L63.4519 52.8881L63.3335 53.0862L63.1112 53.6201L63.4784 53.5815L63.836 53.4511L64.1984 53.3666L64.6622 53.3642L65.039 53.4174L65.4522 53.374L65.6768 53.304L66.1866 53.2968L67.0128 53.21C67.1505 53.1955 67.293 53.2269 67.4307 53.2125L67.8438 53.1691C67.9815 53.1546 68.2159 53.1764 68.3536 53.1619C68.5879 53.1837 68.8222 53.2054 68.8681 53.2006L69.001 53.1402L69.2716 53.0654L69.9698 53.0848L70.1026 53.0245L70.4698 52.9859L70.6027 52.9255L71.1173 52.9642L71.3468 52.9401L71.7092 52.8556L71.9435 52.8774L72.086 52.9088L72.3155 52.8847L72.4581 52.9161C72.5499 52.9065 72.8253 52.8775 73.0596 52.8993C73.1514 52.8897 73.2939 52.9211 73.3857 52.9114L73.5693 52.8921L73.7022 52.8318L74.0694 52.7932L74.6395 52.9189C74.7362 52.9551 74.7821 52.9503 74.8739 52.9407L75.2918 52.9431L75.6131 52.9094L75.7604 52.9867L76.3113 52.9288C76.5504 52.9965 77.1061 52.9845 77.6206 53.0232L78.0071 53.1682L78.2052 53.2866L78.2486 53.6998L78.1858 53.9848L78.0118 54.0959L77.5987 54.1393L77.3595 54.0716L77.1349 54.1417L76.4826 54.1174L75.509 54.1269L75.1877 54.1607C74.306 54.1606 73.4749 54.2015 72.7357 54.2328L71.8636 54.3244C71.3997 54.3268 70.9866 54.3702 70.6194 54.4088L69.1047 54.568L68.1504 54.7611L67.7784 54.7538L67.2734 54.8069L66.957 54.8866L66.5946 54.971L66.4061 54.9444L65.6307 55.0724L65.3094 55.1061L64.5339 55.234L62.1977 55.526C62.1156 55.6274 62.0334 55.7289 62.0383 55.7748L61.2625 57.6662L60.4142 59.751C60.3706 60.2196 60.1483 60.7535 59.9719 61.2825L59.7954 61.8115C59.7278 62.0507 59.532 62.3961 59.3677 62.599L59.2856 62.7005L57.9805 66.179C57.8669 66.423 57.7992 66.6622 57.7364 66.9472L57.3135 67.7806C57.0597 68.457 56.8059 69.1334 56.6077 69.8967L56.4845 70.0489L56.163 70.9644L55.9552 71.636L55.7956 72.7666L55.5709 72.8366C55.4887 72.938 55.4476 72.9888 55.4573 73.0806L54.9014 74.8561L54.7516 75.1967C54.8119 75.3296 54.766 75.3344 54.766 75.3344L54.7998 75.6557L54.5944 75.9093L54.1787 77.2525L53.9756 77.9699L53.8958 78.5352L53.9055 78.627L53.6758 79.5329L53.5357 79.9653C53.4631 80.1586 53.3181 80.5451 53.2915 80.7335L53.2553 80.8301C53.2649 80.9219 53.2287 81.0186 53.2335 81.0645L52.9724 82.1129C53.0618 82.5212 52.9796 82.6226 52.9119 82.8618C52.8442 83.1009 52.7717 83.2942 52.75 83.5285L52.6098 83.9609C52.5517 84.2919 52.4937 84.6228 52.5371 85.0359L52.3825 85.3306C52.3002 86.3138 52.2082 87.2053 52.0148 88.0145C51.9882 88.203 51.8747 88.4469 51.8529 88.6813C51.8359 88.9615 51.8238 89.2876 51.8527 89.563C51.8962 89.9761 51.9299 90.2974 51.8671 90.5825C51.7028 90.7854 51.6303 90.9787 51.5988 91.1212C51.5674 91.2637 51.536 91.4062 51.3306 91.6599L50.915 92.1212C50.6637 92.3797 50.4535 92.5874 49.753 92.1041C49.427 91.2102 49.6301 90.4928 49.8694 89.6787L50.0168 88.8742C50.0434 88.6858 50.1474 88.35 50.2924 87.9635C50.4326 87.5311 50.6042 86.9562 50.5608 86.5431L50.8436 85.2603C51.1023 83.7481 51.4166 82.3228 51.7309 80.8975L51.9002 79.8588L52.3788 78.2306C52.4682 77.7571 52.6447 77.2281 52.7389 76.8005C52.7655 76.6121 52.8839 76.414 52.9105 76.2255L53.6888 73.9162C53.7517 73.6311 53.8386 73.5756 53.9015 73.2905L54.3172 71.9474L54.4308 71.7034C54.4212 71.6116 54.4985 71.4642 54.5347 71.3676L55.064 69.7805L55.1317 69.5414L55.1028 69.266L55.4073 68.6307L55.4483 68.5799C55.4387 68.4881 55.4387 68.4881 55.5208 68.3867C55.4871 68.0654 55.591 67.7296 55.7457 67.4349L55.8785 67.3745L56.1009 66.8407C56.3136 66.215 56.6398 65.3454 56.8066 64.7245L57.6501 62.5939C57.6767 62.4055 57.899 61.8716 57.9763 61.7243C58.3244 60.6203 58.3655 60.5696 58.7014 59.7918L59.0084 58.7385L59.1848 58.2095L59.4748 57.4365L59.6513 56.9074L60.1442 56.2987L60.2481 55.9629C60.0693 56.0281 59.7939 56.0571 59.661 56.1175L58.7623 56.3976C58.2429 56.3129 57.6873 56.3249 57.4578 56.349L53.5852 57.0345L53.6311 57.0297C53.4064 57.0997 52.8604 57.2035 52.585 57.2325C51.9254 57.5802 51.365 57.5463 50.6716 57.5728C50.5387 57.6332 50.3092 57.6573 50.1715 57.6718C50.0797 57.6814 49.9928 57.737 49.9009 57.7466L49.1255 57.8745L49.1714 57.8697L45.8229 58.6857L45.0112 58.9102L44.0158 59.1541L43.2959 59.369L42.5615 59.4462L42.1435 59.4437C39.5199 60.0907 36.6667 60.7619 34.0527 61.5007L32.9293 61.8508L32.2045 62.0198L31.2454 62.167L30.1172 62.4712L28.8994 64.1307C28.1164 65.5124 26.8527 67.1767 25.8669 68.3941L25.4247 69.0439C25.4657 68.9932 25.2652 69.2927 25.2338 69.4352C25.0525 69.9183 24.6151 70.614 24.1222 71.2227L22.5636 73.6141C22.1722 74.305 21.8121 74.8533 21.2974 75.6963L20.9736 76.1481L20.1811 77.438L19.8307 78.0781L19.0188 79.1844L18.8545 79.3873C18.8279 79.5757 18.6829 79.9622 18.6514 80.1048L18.4316 80.2207L18.1271 80.856L18.028 81.2377L17.9241 81.5735L17.6317 81.8826C17.4504 82.3658 17.4045 82.3706 17.2861 82.5687L16.9623 83.0204C16.885 83.1677 16.7303 83.4624 16.6627 83.7016C16.4041 84.3321 16.1092 85.0592 15.3699 85.9722L14.2704 87.4336L13.9877 87.8346L13.8548 87.895L13.4707 88.2138L13.159 88.3394L12.7918 88.378L12.3353 88.0083L12.2049 87.6507L12.1349 87.426L12.1374 87.0081L12.164 86.8197L12.1713 86.4477L12.3018 85.9234L12.2825 85.7398L12.4275 85.3533L12.4179 85.2615L12.6039 84.8243L12.8408 84.4281L12.9447 84.0924L13.1452 83.7928L13.4038 83.1624L13.8316 82.3749L14.5975 81.2734C14.7159 81.0753 14.9069 80.684 14.9383 80.5415L15.3635 80.1719L16.057 79.2637L16.7046 78.3603L17.1419 77.6646L18.1037 76.2177L18.268 76.0148L18.4178 75.6742L18.9373 74.877L19.3795 74.2272L19.9232 73.6596L20.4934 72.9036L21.0226 72.1982L21.3826 71.6499L21.7934 71.1426L22.1583 70.6402C22.3177 70.3914 22.6367 69.8938 22.8421 69.6402L23.2021 69.0918C23.1877 68.9541 23.2409 68.5773 23.5984 68.4469L23.6757 68.2995L24.0913 67.8382C24.2146 67.686 24.2871 67.4928 24.4055 67.2947L24.7293 66.843L25.5726 65.5941L26.2612 64.64L26.7904 63.9347L27.1408 63.2945L26.6866 63.3887L25.3893 63.8499L24.4446 64.1348L23.4034 64.3835C22.8622 64.5332 22.3307 64.7747 21.7436 64.9292L20.5115 65.5692C20.1177 65.7962 19.6224 65.9411 19.2141 66.0304C18.8566 66.1608 18.4942 66.2453 18.0037 66.4361C16.7692 66.6122 15.6144 67.1049 14.4596 67.5975C14.102 67.7279 13.8 67.9453 13.4424 68.0757C12.7104 68.6167 11.872 69.0297 11.2535 69.3267L10.5891 69.6286C9.97547 69.9715 8.81581 70.4183 8.1466 70.6742C8.05479 70.6839 7.96782 70.7394 7.88084 70.795C7.2068 71.0051 6.36845 71.418 5.71867 70.9758L5.34429 70.5047C5.32017 70.2752 5.3589 69.7606 5.47731 69.5626C5.75037 69.0698 6.25776 68.5988 6.91733 68.251L7.80158 67.8332L8.5167 67.5724C9.61598 66.9928 10.2852 66.7368 10.9955 66.4301C11.7058 66.1234 12.5127 65.853 13.2737 65.5874C13.4525 65.5222 13.6675 65.3603 13.8463 65.2951L15.4698 64.8461L15.5979 64.7398L15.6897 64.7301C16.6754 64.3945 17.8954 64.0806 18.9318 63.7861L19.5648 63.6267L20.3765 63.4022C20.5553 63.337 20.7244 63.18 20.9032 63.1148L21.2656 63.0303L22.0822 62.8516L22.5823 62.7527C24.1599 62.3084 25.793 61.9511 27.1048 61.6276C27.6919 61.4731 28.0591 61.4345 28.5544 61.2896L28.779 61.2196L29.0207 60.8694L29.1753 60.5747L29.5305 59.9804L30.3569 59.0118L31.4515 57.5045L32.4156 56.5215L32.5799 56.3186L33.498 55.3403L33.8629 54.8379L34.9671 53.4224L35.7428 52.4127L36.1125 51.9562L36.8808 51.3185L37.3519 50.9441L37.9004 50.4224L38.8693 49.4852L39.3622 48.8765L39.8285 48.4563L40.2296 47.8572L40.522 47.548L40.9062 47.2292L40.9472 47.1785L41.2903 46.9104C41.7107 46.4949 42.1577 45.891 42.5782 45.4756L43.2861 44.7051L43.6196 44.3452C44.168 43.8234 44.5015 43.4635 44.789 43.1084L44.9122 42.9563C44.9074 42.9104 44.9847 42.763 45.0258 42.7123L45.2892 42.1277L45.555 42.007L45.9488 41.7799L46.1131 41.577L46.461 41.3548L47.5942 40.2148L47.7633 40.0578L48.046 39.6568L48.1789 39.5964L48.8554 38.9684C49.1526 38.7051 49.4498 38.4418 49.6552 38.1882L49.8195 37.9853L50.2906 37.6109L50.6966 37.0578L51.2499 36.582L51.9723 35.9491L52.1414 35.7921L52.5474 35.239L52.5933 35.2342L52.963 34.7776L53.5622 34.297L53.9197 34.1666L54.8475 33.2801C54.8475 33.2801 54.9297 33.1787 54.9249 33.1328L55.2583 32.7729L55.6425 32.454L56.1136 32.0797L56.1547 32.0289L56.3286 31.9178L56.4881 31.669L57.2298 31.2198C57.4859 31.0073 57.8749 30.7343 58.1262 30.4759L58.5055 30.1112L58.6336 30.0049C58.8438 29.7972 59.2328 29.5242 59.4937 29.3576L59.6991 29.104L59.9504 28.8455L60.4674 28.4663L60.8202 28.29L61.0763 28.0775L61.3372 27.9108L61.6441 27.7393C62.0741 27.4157 62.7289 27.022 63.1637 26.7443L63.4247 26.5776C64.2123 26.1236 64.1205 26.1332 64.2075 26.0777L65.0821 25.5681L65.5629 25.2855C65.6957 25.2251 65.9156 25.1092 65.9567 25.0585L66.3142 24.9281L66.8047 24.7373L68.9161 24.5154ZM47.8185 42.79C47.6397 42.8552 46.8858 43.6306 46.6756 43.8383L46.0909 44.4567L45.6705 44.8721L45.0495 45.5871L44.7982 45.8456L44.4189 46.2103L43.665 46.9856L42.9112 47.761L42.1477 48.4445C41.5533 48.9711 40.6448 50.0411 40.234 50.5484L39.8595 50.959L39.572 51.3141L38.6176 52.389C38.1561 52.8552 37.7357 53.2706 37.3538 54.0533L35.4354 56.1112L34.1113 57.6427L33.2487 58.7079C33.0433 58.9615 32.8742 59.1185 32.705 59.2755C32.1662 59.889 32.1783 59.5629 31.7965 60.3456L32.787 60.0558L33.6761 59.6839L34.8647 59.5126L35.9785 59.0707L36.4786 58.9717L37.2444 58.752L38.2494 58.6L38.4837 58.6217C39.1626 58.4576 39.7956 58.2982 40.5155 58.0833L40.6895 57.9722L41.2258 57.7766L41.9095 57.6584L42.9822 57.2672L43.4822 57.1682L44.0379 57.1562L44.3544 57.0766L44.7168 56.9921L44.9052 57.0187L49.3456 55.9951L49.9786 55.8357L50.6888 55.529L51.0923 55.3938L51.5465 55.2996L52.0973 55.2418L52.4138 55.1621L52.7762 55.0776L54.3827 54.9087L55.3829 54.7108L56.2405 54.4814L56.7092 54.525C57.0764 54.4864 57.5306 54.3922 57.9389 54.3029L58.2505 54.1774L58.4341 54.1581L58.6274 54.2306L59.7194 54.023L59.8981 53.9578L60.403 53.9047L60.8572 53.8106L60.949 53.8009L61.0989 53.4603L61.2583 53.2115L61.5266 52.6728C61.5532 52.4844 61.6982 52.0979 61.7296 51.9554L61.8529 51.8032L61.8384 51.6655L61.9568 51.4674C62.0196 51.1824 62.1066 51.1268 62.1695 50.8417L62.5416 49.9673C62.5416 49.9673 62.5827 49.9166 62.5779 49.8707L62.5756 49.4068L62.7568 48.9237C62.7472 48.8319 62.8245 48.6845 62.8149 48.5927L63.2885 47.8004L63.5156 47.3125L64.3857 44.9934L64.9754 43.5392L65.0745 43.1575L65.6376 41.8917L65.6038 41.5704L65.6859 41.469L65.6715 41.3313L65.8165 40.9448L66.0485 40.5027L66.5173 39.6645C66.7662 38.9422 66.9692 38.2248 67.1916 37.6909C67.1868 37.645 67.2737 37.5895 67.2689 37.5436L67.7523 35.9613C67.8925 35.5289 68.0641 34.9539 68.1295 34.251L68.4727 33.1011C68.7095 32.7049 68.7893 32.1396 68.828 31.6251C68.8136 31.4874 68.8909 31.34 68.8764 31.2023C68.8716 31.1564 68.903 31.0139 68.8982 30.968C68.9901 30.0766 69.0507 29.3277 69.0097 28.4966C69.0049 28.4507 68.9445 28.3179 68.9397 28.272L69.0025 27.9869L68.9639 27.6197L69.022 27.2887C68.8795 27.2573 68.7877 27.267 68.6983 26.8587C68.551 26.7814 68.4544 26.7451 68.3167 26.7596L67.3624 26.9527L66.0288 27.5105L65.0382 27.8003L64.3376 28.1988L63.7964 28.3485C63.7505 28.3533 63.6225 28.4596 63.6225 28.4596L62.4555 29.2783L62.2405 29.4402L61.2112 30.2445C61.1702 30.2952 61.0517 30.4933 61.0566 30.5392L60.5299 30.8266L60.0853 31.0125L59.1841 31.7105C59.0972 31.7661 58.9329 31.969 58.9329 31.969L58.6357 32.2323L58.3747 32.3989L56.1157 34.307L55.5672 34.8288L54.5983 35.7659L54.3881 35.9737L53.8759 36.3988L53.917 36.348L53.4965 36.7635L52.2257 37.9181L51.9478 38.3649L51.6917 38.5775C51.6095 38.6789 51.5636 38.6838 51.4766 38.7393L51.4911 38.877L51.02 39.2514L50.7687 39.5098C50.7687 39.5098 50.4256 39.7779 50.2565 39.9349L50.0462 40.1427L48.8139 41.6644L48.3887 42.034C48.3066 42.1354 48.1374 42.2924 48.1012 42.3891L47.8185 42.79ZM78.9665 57.2905L78.505 57.7567L77.4684 58.9331C77.3814 58.9886 77.1809 59.2881 77.0987 59.3896L76.3956 60.206L76.0163 60.5707L75.1126 61.6867L74.6341 62.4331L74.2693 62.9355L73.3438 64.2858L72.9427 64.8849L72.7059 65.281C72.6237 65.3825 72.556 65.6216 72.4739 65.7231L72.4376 65.8197L72.481 66.2328L72.4375 66.7015L72.3698 66.9406L71.988 67.7233L71.0071 68.1048L70.263 68.0902L69.6495 67.5514L69.565 67.189L69.5144 66.2662L69.5823 65.1453L69.7055 64.9931L69.9762 64.0365C69.9714 63.9906 70.0439 63.7973 70.0391 63.7514L70.7616 62.2368L70.9115 61.8962L71.0299 61.6981C71.1338 61.3624 71.3344 61.0628 71.4383 60.727L72.1076 59.5893L72.3711 59.0047L73.8017 55.8378C74.0192 55.2581 74.2923 54.7653 74.5098 54.1855L75.097 53.1492L75.3701 52.6565L76.6436 50.2022L76.9166 49.7094C77.1535 49.3133 77.2985 48.9268 77.4894 48.5354C77.7939 47.9001 78.1853 47.2093 78.6952 46.3203L78.8088 46.0764L79.6135 44.4603L79.8503 44.0642L80.0678 43.4844L80.5559 42.8298L80.6502 42.4022L81.1383 41.7476L81.4524 41.2041L82.2716 39.7258L82.3707 39.3441L82.9435 38.1701L83.0329 37.6966L83.8618 36.3101L84.147 35.4912L85.1426 33.4838L86.0827 31.3894L86.6047 30.1744L87.436 28.3699L87.639 27.6524L87.9097 26.6958L88.0355 26.1257L88.2144 25.1787L88.316 24.3791L88.3572 23.4466C88.3475 23.3548 88.42 23.1616 88.4104 23.0698L88.6811 22.1131C88.8575 21.5841 89.3046 20.9802 90.3192 20.92C90.9159 20.8573 91.2492 21.3791 91.3989 21.9203L91.4327 22.2416L91.3795 22.6185L91.3214 22.9494L90.9686 24.0075L90.7872 25.3724L90.4923 26.0995L90.2434 26.8218C90.2168 27.0102 90.0984 27.2083 89.9945 27.5441L89.76 28.4041C89.7648 28.45 89.6875 28.5973 89.6512 28.6939L89.2984 29.752L89.0083 30.525L88.7401 31.0637L88.4719 31.6024L87.8895 32.6846L87.5487 33.4165L87.5077 33.4672L87.2853 34.0011C87.2539 34.1436 87.2273 34.3321 87.2321 34.378L86.7126 35.1751L86.7222 35.2669L86.0166 36.5013L85.3762 37.9144L84.9896 38.6512L84.7528 39.0473C84.2791 39.8396 84.0061 40.3324 83.8611 40.7189L83.8659 40.7648L83.6339 41.2069L83.4696 41.4098L82.8147 42.6852L82.2372 43.8133L81.8264 44.3205L81.5171 44.91L81.5219 44.9559L81.1087 45.881L80.577 47.0043L79.9318 48.3715L79.1222 49.9417L77.2036 52.8814L77.1311 53.0747L76.8918 53.8888L75.5483 56.1183L75.3574 56.5097L74.2964 59.22L73.8783 60.0993L73.7019 60.6284L73.9073 60.3747L74.0257 60.1766L75.1758 58.7563L75.6373 58.2902L76.3864 57.4689L76.5773 57.0776L77.3722 56.2515L77.551 56.1863L78.4088 55.0752L78.6649 54.8626L79.1408 54.5341L79.7352 54.0076L80.1604 53.638L80.3248 53.4351L80.7089 53.1163C80.7041 53.0704 80.7403 52.9738 80.7403 52.9738L81.3854 52.4883L81.6005 52.3265L82.7167 51.4666L83.1468 51.143L83.1878 51.0923L83.5309 50.8242L83.8233 50.515L84.3355 50.0899L84.4273 50.0802L84.9806 49.6044L85.3841 49.4692L86.191 49.1987L87.9039 48.2762L88.3074 48.1409C88.8486 47.9913 89.2375 47.7183 90.0227 47.6822L90.2015 47.617L91.4504 47.5786C92.0157 47.6584 92.5955 47.8759 93.2767 48.1756C93.5714 48.3302 93.6873 48.5501 93.7211 48.8714L93.7065 49.6154L93.7813 49.886L93.5879 50.6953C93.5662 50.9296 93.4574 51.2195 93.4356 51.4538L93.136 52.135L92.8436 52.4442L92.3337 53.3331L92.2201 53.5771L91.8094 54.0844L90.4031 55.7172L89.6952 56.4878L89.4076 56.8428L87.8999 58.3936L87.2693 59.0167L86.7112 59.4467L86.4551 59.6592L86.3319 59.8114L85.7423 60.3838L85.3437 60.565L84.8725 60.9393L84.7034 61.0963L84.3555 61.3185L83.7925 61.7026L83.5727 61.8185L83.3625 62.0262C82.6763 62.5624 81.8935 63.0624 80.8305 63.5453L80.299 63.7868L80.038 63.9535L79.7216 64.0332L79.5379 64.0525L79.0113 64.3399L78.3879 64.591L77.9434 64.777L77.4022 64.9266L76.8659 65.1222L75.9527 65.2646L75.6266 65.2525L75.2956 65.1945L75.0154 65.1775L74.5323 64.9963L74.182 64.7546C73.9695 64.4985 73.8946 64.2279 73.926 64.0854L74.2716 63.3994L74.7983 63.112L75.2984 63.013L75.482 62.9937L75.7163 63.0155L76.0569 63.1653L76.4797 63.2137C76.7092 63.1896 76.9435 63.2114 77.1271 63.1921C77.2189 63.1824 77.3107 63.1728 77.4895 63.1076L78.6274 62.8952L79.4246 62.5329L80.8815 61.8229L81.4855 61.3881L81.7054 61.2722L82.4882 60.7723C82.5703 60.6708 82.6017 60.5283 82.6428 60.4776L83.3531 60.1709L83.5126 59.9221L84.1118 59.4414L84.322 59.2337L84.8028 58.9511L84.9308 58.8448L85.5615 58.2217L86.4312 57.6662L87.0715 57.1348C87.7432 56.4609 88.241 55.8981 88.5285 55.543L89.0625 54.8836C89.3548 54.5744 89.4007 54.5696 89.8526 54.0116C89.8478 53.9657 89.9203 53.7724 89.9613 53.7217L90.29 53.3159L90.5727 52.9149L90.8699 52.6517C91.1936 52.2 91.5585 51.6975 91.7083 51.3569L91.7494 51.3062C91.7398 51.2144 91.8171 51.067 91.8075 50.9752L91.9162 50.6854C91.9573 50.6346 91.9984 50.5839 91.9935 50.538L91.9646 50.2626L91.9042 50.1297L91.6216 49.6489L91.1144 49.2382L90.7883 49.226L90.467 49.2598C89.921 49.3636 89.3025 49.6606 88.6381 49.9625L88.5052 50.0229L87.3141 50.6122L86.9251 50.8851L86.6545 50.9599L85.7799 51.4695L85.5649 51.6314L85.432 51.6917C85.391 51.7425 85.3451 51.7473 85.3451 51.7473L84.6082 52.2424L83.0619 53.4259L82.2887 54.0177L82.0423 54.322L81.7692 54.8148L81.2425 55.1022L80.8173 55.4717L80.0489 56.1094C79.7928 56.3219 79.5415 56.5804 79.3772 56.7833L78.9665 57.2905ZM108.515 52.5606L108.525 52.6524C108.498 52.8408 108.513 52.9785 108.237 53.8892C108.206 54.0317 108.148 54.3627 108.075 54.5559L107.684 55.2468L107.218 55.6671L106.848 56.1236L106.483 56.626L106.063 57.0415C105.359 57.8579 104.417 58.6067 103.429 59.3602L103.342 59.4158L102.789 59.8916L102.523 60.0124L102.395 60.1186L102.011 60.4375L101.723 60.7925L101.453 60.8674C101.416 60.964 101.293 61.1162 101.293 61.1162L100.899 61.3432L100.766 61.4036L100.276 61.5944L99.9643 61.7199L99.7855 61.7851C99.7445 61.8359 99.6623 61.9373 99.6164 61.9421L99.4835 62.0025C98.6911 62.4107 98.2103 62.6932 97.7609 62.8333L97.6377 62.9854L97.3671 63.0603L96.7342 63.2196L96.4129 63.2534L95.5359 63.2992C95.1228 63.3426 94.7508 63.3353 94.4705 63.3183C94.2362 63.2966 93.956 63.2796 93.4269 63.1032L93.3303 63.0669C92.8472 62.8856 92.1974 62.4435 92.0718 62.1318L91.8955 61.7791L91.8062 61.3708L91.8933 60.4335L92.1567 59.8489L92.5071 59.2087L93.9859 57.3826L94.4836 56.8198L94.9041 56.4044L95.0684 56.2015L96.001 55.3609L96.0421 55.3102C96.0831 55.2595 96.2064 55.1073 96.2934 55.0517L96.7548 54.5856L96.9651 54.3778L97.9798 53.4358L98.2674 53.0808L98.4051 53.0663L98.8303 52.6967L99.3015 52.3224L99.8596 51.8924L100.71 51.1533L100.925 50.9915L101.14 50.8297L100.452 50.902C100.36 50.9117 100.273 50.9672 100.135 50.9817C99.8186 51.0614 99.4104 51.1507 98.9972 51.1941L97.8545 51.3606L97.2893 51.2808L96.8979 51.0899L96.4825 50.6695L96.4705 50.1139L96.8475 49.2853L97.4201 48.9931L97.9612 48.8434L98.5531 48.7348L98.8889 48.8387L99.6837 48.8944C100.326 48.8269 100.882 48.8149 101.534 48.8391L102.223 48.7668L102.916 48.7403L103.774 48.5109L103.962 48.5375L104.595 48.3782C104.682 48.3226 104.861 48.2574 104.902 48.2067L105.414 47.7816L105.762 47.5594L105.808 47.5546L106.156 47.3324L106.564 47.2431L106.927 47.1586C107.197 47.0837 107.651 46.9896 107.977 47.0017L108.253 46.9728L108.492 47.0404C108.68 47.067 108.924 47.1806 109.072 47.258L110.154 46.9586L110.69 46.763L111.374 46.6447L112.084 46.338L112.447 46.2535L112.901 46.1594L113.819 46.0629L114.181 45.9784L114.783 45.9616C114.921 45.9471 115.104 45.9278 115.283 45.8626L115.742 45.8144C115.88 45.7999 116.013 45.7395 116.15 45.725L116.416 45.6043L116.604 45.6309L116.88 45.6019L117.15 45.5271L117.472 45.4933L117.982 45.4862L118.436 45.392L118.767 45.45L118.904 45.4356L119.276 45.4429L119.511 45.4647C119.883 45.472 120.356 45.5614 120.972 45.6823L121.069 45.7186L121.252 45.6993L121.69 45.8853L121.644 45.8902C122.067 45.9386 122.076 46.0304 122.178 46.1125C122.274 46.1488 122.32 46.1439 122.366 46.1391L123.026 46.6731L123.248 47.021L123.352 47.567L123.308 48.0357L123.127 48.5188L122.781 49.2048C122.631 49.5454 122.549 49.6469 122.426 49.7991L122.179 50.1034L121.643 50.299L121.363 50.2821L121.259 49.7361L121.281 49.5017L121.339 49.1708L121.484 48.7843L121.747 48.1997L121.868 47.5837L121.854 47.446L121.467 47.301L121.122 47.1052L120.414 46.994C119.38 46.8706 118.141 47.0009 117.452 47.0733L116.764 47.1456L116.218 47.2494C115.988 47.2735 115.809 47.3387 115.631 47.4039C115.498 47.4643 115.314 47.4836 115.085 47.5077C113.079 47.8577 111.676 48.1909 110.277 48.5699L109.919 48.7003L109.75 48.8573L108.873 48.9031L107.97 49.1373L106.704 49.456L106.397 49.6274L106.646 49.7869L106.743 49.8232L107.134 50.0141L107.95 50.7172L108.177 51.111L108.465 51.6377L108.515 52.5606ZM105.701 54.4807L105.829 54.3744C106.148 53.8768 106.293 53.4903 106.438 53.1038L106.409 52.8284L106.539 52.3042C106.525 52.1665 106.561 52.0698 106.542 51.8862C106.486 51.7993 106.269 51.4972 106.264 51.4513L106.213 51.4103L105.868 51.2145L105.476 51.0236L105.191 50.9608L104.906 50.8979L104.322 50.6345C104.322 50.6345 104.23 50.6441 104.179 50.6031L103.882 50.8663C103.411 51.2407 102.775 51.818 101.389 52.7527L100.185 53.6681L99.6732 54.0932L99.4582 54.255C99.1562 54.4724 98.8638 54.7816 98.5618 54.9989L98.3105 55.2574L97.7572 55.7332L97.3006 56.2453L96.8294 56.6197L96.5371 56.9289L95.9886 57.4506C95.9064 57.552 95.66 57.8564 95.6237 57.953L95.2685 58.5472L94.9447 58.999C94.749 59.3444 94.5581 59.7357 94.4541 60.0715C94.4131 60.1222 94.4227 60.214 94.4227 60.214L94.355 60.4532L94.3477 60.8252L94.3163 60.9677L94.3452 61.2431L94.6496 61.4896L94.8936 61.6032L94.9854 61.5935C96.418 61.5358 96.7248 61.3643 98.1406 60.705C98.8508 60.3983 99.5104 60.0505 100.083 59.7583L100.17 59.7028L100.953 59.2028L101.753 58.4226L102.074 58.3889L103.267 57.3817L103.478 57.1739C103.816 56.8599 104.144 56.4541 104.478 56.0942L104.596 55.8962L105.012 55.4348L105.382 54.9783C105.377 54.9324 105.413 54.8358 105.413 54.8358L105.701 54.4807ZM134.378 56.5715L134.503 56.0014C134.581 55.854 134.639 55.5231 134.815 54.994L134.805 54.9022L134.955 54.5616C134.946 54.4698 134.987 54.4191 135.023 54.3225L135.395 53.448C135.468 53.2548 135.659 52.8634 135.772 52.6195C135.808 52.5228 135.804 52.4769 135.799 52.431L135.917 52.233C135.949 52.0904 136.072 51.9382 136.135 51.6532L136.321 51.216C136.316 51.1701 136.352 51.0734 136.342 50.9816L136.492 50.641L135.031 51.3051L134.811 51.4211L134.499 51.5466L134.202 51.8099L133.158 52.4765L132.385 53.0683L132.124 53.2349L129.626 55.0754L129.457 55.2324L129.164 55.5415L127.91 56.4159L127.343 56.754L125.659 57.952L125.572 58.0075L125.289 58.4085L125.161 58.5148L124.767 58.7418L124.163 59.1765L123.943 59.2925L123.851 59.3021L123.528 59.7538L123.211 59.8335L123.078 59.8939L122.822 60.1064L122.699 60.2586L122.264 60.5363L121.232 60.8768L120.967 60.9975L120.563 61.1328L120.247 61.2124L118.855 61.2195L118.285 61.0938C117.573 60.9366 117.517 60.8496 117.314 60.6853C116.945 60.2601 116.916 59.9847 116.882 59.6634L116.843 59.2962L116.964 58.6802L117.08 58.0183L117.281 57.7187L117.38 57.337L117.375 57.2911L117.643 56.7525L117.967 56.3008L118.417 55.2789L118.516 54.8973L118.752 54.5011L118.948 54.1557L119.289 53.4237L119.572 53.0228L119.886 52.4793L120.077 52.0879L120.268 51.6966L120.695 50.9091L120.85 50.6144L120.922 50.4212L121.053 49.8969C121.048 49.851 121.126 49.7037 121.111 49.566L121.114 49.1481L121.189 48.5369L121.355 47.916L121.824 47.0778L122.351 46.7904L122.713 46.7059L122.993 46.7229L123.445 47.0467C123.607 47.2617 123.778 47.5685 123.868 47.9768L123.964 48.8948L123.884 49.4601L123.657 49.9481L123.362 50.6752L123.007 51.2694L122.729 51.7163L122.319 52.2236L122.077 52.5738L121.872 52.8274L121.63 53.1777L121.379 53.4362L121.296 53.5376L120.509 54.8734L120.153 55.4676C119.958 55.8131 119.762 56.1585 119.612 56.4991L119.221 57.19L119.071 57.5306L118.914 58.2432L118.81 58.579L118.638 59.1539C118.597 59.2047 118.597 59.2047 118.607 59.2965C118.621 59.4342 118.566 59.3472 118.621 59.4342L118.805 59.4149C118.988 59.3956 119.305 59.3159 119.704 59.1348C120.107 58.9995 120.506 58.8184 120.593 58.7629L121.344 58.4055L122.091 58.0021L122.402 57.8766L122.663 57.7099L124.453 56.64C124.54 56.5844 124.618 56.4371 124.705 56.3815L125.185 56.099L125.405 55.983L125.666 55.8164L126.297 55.1932L127.387 54.5218L127.611 54.4518L127.657 54.4469L128.599 53.6982C128.682 53.5967 128.773 53.5871 128.856 53.4856L129.189 53.1257L129.931 52.6765L131.226 51.7515L131.692 51.3312L132.209 50.952L132.702 50.3433L133.178 50.0148L133.434 49.8023L134.007 49.51L134.135 49.4038L134.35 49.2419L135.715 48.5416L135.889 48.4305L136.099 48.2227L137.097 47.561L137.445 47.3388L137.848 47.2036L138.073 47.1335C138.256 47.1142 138.583 47.1264 138.872 47.2351L139.227 47.5227L139.45 47.8706L139.479 48.146L139.421 48.4769L139.317 48.8127L138.725 49.8031L138.466 50.4336C138.43 50.5302 138.408 50.7645 138.408 50.7645L138.021 51.5013L137.886 51.9796L137.746 52.412L137.463 52.813L137.473 52.9048L137.163 53.4942C137.173 53.586 137.137 53.6826 137.142 53.7285L137.001 54.1609C137.011 54.2527 136.98 54.3953 136.985 54.4412L136.798 54.8784L136.593 55.132C136.53 55.4171 136.508 55.6514 136.523 55.7891L136.533 55.8809C136.685 56.0041 136.878 56.0766 137.25 56.084C137.388 56.0695 137.53 56.1009 137.668 56.0864L138.035 56.0478L138.315 56.0648L138.637 56.031C139.004 55.9924 139.412 55.9031 139.907 55.7582C139.999 55.7486 140.132 55.6882 140.224 55.6786L140.449 55.6085L141.072 55.3574L141.352 55.3743L142.434 55.075L142.746 54.9494L143.338 54.8408L143.746 54.7514C143.833 54.6959 143.879 54.6911 143.971 54.6814L144.287 54.6018L144.94 54.626L145.111 54.9328L145.104 55.3049L144.688 55.7662L144.372 55.8459L144.239 55.9063L143.555 56.0245L143.111 56.2105L142.528 56.4109L141.021 57.0799L140.521 57.1788L140.342 57.244L139.765 57.4903L139.265 57.5893L138.948 57.669C138.861 57.7245 138.723 57.739 138.632 57.7487L138.09 57.8984L137.508 58.0988L137.049 58.147C136.866 58.1663 136.733 58.2267 136.595 58.2412C136.279 58.3208 135.87 58.4102 135.636 58.3884L135.544 58.398C135.498 58.4028 135.31 58.3762 135.218 58.3859L134.604 57.8471L134.539 57.6683C134.373 57.4074 134.293 57.0909 134.356 56.8058C134.351 56.7599 134.382 56.6174 134.378 56.5715ZM158.993 27.9957L159.677 27.8775L160.283 27.9066L160.315 27.764L161.376 25.9354L161.494 25.7374L161.968 24.945L162.415 24.3412L162.574 24.0924L163.007 23.3508L163.13 23.1986C163.125 23.1527 163.161 23.0561 163.161 23.0561L163.449 22.701L163.608 22.4522L163.732 22.3L163.927 21.9546L163.923 21.9087L164.114 21.5174L164.57 21.0053L164.894 20.5536L165.104 20.3458L165.269 20.1429L165.67 19.5439L166.121 18.9859L166.617 18.841L167.035 18.8435L167.593 19.2954L167.774 19.694L167.892 20.3777L167.655 20.7738L167.235 21.1893L166.957 21.6362L166.592 22.1386L166.355 22.5348L165.766 23.1072L165.365 23.7063L164.461 24.8222L162.965 26.9286L162.605 27.4769L163.059 27.3828L163.789 27.2597L165.151 26.9772L166.855 26.8446L168.171 26.567L169.457 26.4319L169.884 26.5262L170.205 26.4925L170.817 26.5674C170.913 26.6037 171.239 26.6158 171.331 26.6062L171.826 26.4613L172.484 26.5315C172.713 26.5073 172.933 26.3914 173.162 26.3673L173.484 26.3335L173.993 26.3264L174.559 26.4062C174.605 26.4013 174.747 26.4328 174.793 26.4279L175.257 26.4256L176.53 26.6167C176.581 26.6577 176.769 26.6843 176.815 26.6795L177.549 26.6023L177.941 26.7932L178.868 26.7885C178.96 26.7789 179.057 26.8151 179.103 26.8103L179.402 27.0109C179.402 27.0109 179.397 26.965 179.586 26.9916L181.214 27.4702C181.265 27.5112 181.361 27.5475 181.407 27.5427L182.364 27.8134C182.461 27.8496 182.461 27.8496 182.506 27.8448C182.557 27.8859 182.608 27.927 182.562 27.9318L182.888 27.9439L183.565 28.1977L183.782 28.4997L184.077 28.6544L184.398 28.6206L184.813 29.041L185.265 29.3648L185.417 29.488C185.509 29.4784 185.56 29.5194 185.606 29.5146L186.239 30.237L186.289 30.2781L186.668 30.7952L186.895 31.189L187.217 32.037L187.398 32.4356L187.456 32.9864L187.216 33.8005L187.021 34.1459L186.69 34.0879L186.431 33.8366L186.211 33.0708C186.202 32.979 186.141 32.8461 186.132 32.7543C186.016 32.5344 185.789 32.1406 185.683 32.0126L185.335 31.353L184.956 30.836L184.54 30.4156L184.088 30.0918L184.043 30.0966L183.301 29.664C183.158 29.6326 182.914 29.519 182.914 29.519C182.869 29.5239 182.818 29.4828 182.818 29.4828L182.33 29.2556L182.045 29.1928C181.953 29.2024 181.576 29.1492 181.364 28.8931L180.646 28.6901C180.417 28.7142 180.04 28.661 179.81 28.6851L179.388 28.6367L178.808 28.4192L178.1 28.308C177.581 28.2233 177.117 28.2257 176.556 28.1918C176.281 28.2207 175.904 28.1675 175.675 28.1916L174.88 28.1359C174.788 28.1456 174.645 28.1142 174.6 28.119L174.141 28.1672L173.778 28.2517L172.937 28.2009C172.8 28.2153 172.657 28.1839 172.565 28.1935L172.152 28.237L171.546 28.2079C171.174 28.2006 170.807 28.2392 170.485 28.2729L170.307 28.3381L170.164 28.3067C170.026 28.3212 169.884 28.2898 169.746 28.3042L169.425 28.338C167.956 28.4924 166.487 28.6468 165.023 28.847L164.844 28.9122L164.492 29.0885L163.165 29.2743L162.619 29.3781L161.001 29.8731L160.641 30.4215L160.126 31.2645L160.022 31.6003L159.766 31.8128C159.524 32.1631 159.36 32.366 159.164 32.7114C159.169 32.7573 159.138 32.8998 159.138 32.8998L158.49 33.8032L157.908 34.8854L157.552 35.4797L156.782 36.5352L155.515 38.6175L155.238 39.0644L154.481 40.2576L154.372 40.5475L154.126 40.8519C154.044 40.9533 153.971 41.1466 153.894 41.2939L153.672 41.8278L153.43 42.178L153.147 42.579L152.86 42.9341L152.582 43.381L152.505 43.5283L152.364 43.9607L151.49 45.3521L150.965 46.1033L149.926 47.6976L149.23 49.0238L148.525 50.2581C148.457 50.4973 148.401 50.4103 148.288 50.6543L147.655 51.6954L147.5 51.9901L147.092 52.9612C147.029 53.2462 146.91 53.4443 146.848 53.7294L146.456 54.4202L146.053 55.4372L145.799 56.1136L145.823 56.3431L145.811 56.6692L145.506 57.3045C145.526 57.4882 145.371 57.7829 145.39 57.9665L145.388 58.3844L145.434 58.3796L146.241 58.1091L146.552 57.9836L146.91 57.8532L147.253 57.5851L147.606 57.4088L147.958 57.2325L148.301 56.9644L148.618 56.8847L149.016 56.7036L149.232 56.5417L149.507 56.5128L150.638 55.7906L151.466 55.2859L151.896 54.9622L152.3 54.827L152.474 54.7159L153.742 53.9793L154.259 53.6001L154.438 53.5349L156.402 52.3539L156.919 51.9747L157.226 51.8032L157.712 51.5665L158.325 51.2236L158.485 50.9748L159.171 50.4386L159.703 50.1971L160.321 49.9L161.447 49.132L161.58 49.0716L161.831 48.8132L162.522 48.3229L162.742 48.2069L162.875 48.1466L162.962 48.091L163.264 47.8736L163.81 47.7698L164.109 47.9704L164.199 48.3787L164.191 48.7507L163.761 49.0744L163.5 49.241L163.418 49.3425L162.266 50.2989L162.225 50.3497L161.877 50.5719L161.406 50.9462L160.715 51.4365L160.234 51.7191L159.83 51.8543L159.222 52.2432L158.92 52.4606L158.837 52.562L158.233 52.9968L157.936 53.26L156.837 53.8397L156.293 54.4073L155.982 54.5329L155.45 54.7744L155.404 54.7792C155.317 54.8347 155.194 54.9869 155.153 55.0376C155.071 55.1391 154.938 55.1995 154.897 55.2502L154.626 55.325L154.273 55.5013L154.054 55.6172L153.691 55.7017C153.645 55.7066 153.517 55.8128 153.517 55.8128L153.256 55.9795L152.391 56.5809L151.957 56.8586L151.495 57.3248L151.357 57.3393L150.927 57.6629L150.222 58.0155L149.453 58.6532L149.004 58.7932L148.308 59.2376L147.158 59.7762L145.513 60.4596L144.921 60.5682L144.687 60.5464L144.356 60.4884L144.076 60.4714L143.501 60.2998L143.218 59.819L143.083 59.4156L143.025 58.8648C143.015 58.773 143.042 58.5845 143.037 58.5386C143.049 58.2125 143.144 57.7849 143.301 57.0723C143.291 56.9805 143.354 56.6954 143.344 56.6036L143.54 56.2582L143.525 56.1205L143.593 55.8813L143.871 55.4345L144.006 54.9562L144.415 53.9851L144.611 53.6396C144.601 53.5478 144.673 53.3546 144.669 53.3087L144.91 52.9584L145.111 52.6589C145.193 52.5574 145.22 52.369 145.302 52.2676L145.497 51.9221L145.807 51.3327L146.126 50.8351L146.321 50.4897L146.645 50.038L146.8 49.7433L147.119 49.2457L147.443 48.794C147.433 48.7022 147.469 48.6056 147.464 48.5597L147.711 48.2553L147.87 48.0065L148.189 47.5089L148.421 47.0668L148.69 46.5282L148.922 46.0861L149.24 45.5885C149.236 45.5426 149.282 45.5378 149.277 45.4919L149.833 44.5981L150.06 44.1101L150.635 43.4L151.031 42.755C151.268 42.3589 151.5 41.9168 151.86 41.3685L151.973 41.1245L152.348 40.7139C152.817 39.8757 153.317 38.8949 153.791 38.1026L153.996 37.849L154.711 36.7064C154.999 36.3514 155.076 36.204 155.231 35.9093L155.463 35.4673L155.915 34.9093L156.091 34.3802L156.637 33.3947L156.775 33.3802L156.847 33.187L157.28 32.4454L157.758 31.699L158.082 31.2473L158.232 30.9067L158.684 30.3487L158.71 30.1602L158.481 30.1844L157.94 30.3341L156.572 30.5706L155.215 30.8989L154.806 30.9883L154.49 31.0679L153.325 31.4688L152.968 31.5992L150.69 32.4419L150.337 32.6182L150.025 32.7438L149.627 32.9249L148.216 33.6301L147.822 33.8571L146.877 34.142L146.041 34.1371L145.563 34.0017L145.259 33.7553L144.899 33.4218L144.79 32.8299L144.839 32.4072C144.911 32.2139 144.979 31.9748 145.46 31.6922L145.766 31.5207C146.467 31.1222 146.866 30.9411 147.586 30.7262L148.173 30.5717L148.873 30.1732L149.649 30.0453L149.934 30.1081L151.746 29.6857L151.879 29.6253L153.145 29.3066L154.099 29.1135L154.241 29.1449L154.558 29.0652L154.696 29.0508L155.906 28.6451L156.218 28.5195L156.493 28.4906L157.264 28.3168L157.397 28.2564L157.631 28.2782L158.397 28.0585L158.993 27.9957ZM200.522 58.669L199.853 58.925C199.674 58.9902 199.229 59.1761 197.55 59.5383C197.412 59.5527 197.178 59.5309 196.944 59.5092C196.852 59.5188 196.613 59.4511 196.521 59.4608L196.185 59.3569L194.961 58.743L194.25 58.168L193.683 57.6243L193.183 56.8415C193.081 56.7594 193.031 56.7183 193.016 56.5806L192.729 56.0539L192.487 55.5224L192.338 54.9812L192.275 54.3845L192.157 53.7008L192.154 53.237L192.084 52.1305L192.123 51.616L192.193 50.9589L192.503 49.4877L192.711 48.8162L193.201 47.7436L193.564 46.7774L194.033 45.9391L194.794 43.91L195.11 42.9485L195.659 41.5451L196.053 40.4363L196.993 38.3419L197.319 37.4723L197.733 36.5471L198.317 35.047L198.622 34.4117L198.999 33.5831L199.19 33.1918L199.589 32.1289L199.707 31.9308L199.852 31.5443L200.456 30.2278L200.925 29.3896L201.039 29.1456L201.307 28.6069L201.925 27.4281L201.962 27.3315C201.993 27.1889 202.08 27.1334 202.112 26.9909L202.776 25.8072L203.704 24.039L203.818 23.795L204.25 23.0534L204.528 22.6066L204.806 22.1597L205.006 21.8601L204.965 21.9109C205.316 21.2707 205.758 20.621 206.108 19.9808L206.309 19.6813L206.514 19.4277L206.674 19.1789L206.669 19.133L206.906 18.7368L207.23 18.2851L207.594 17.7827L208.329 16.8237L208.786 16.3116L209.8 15.3696C210.189 15.0967 211.132 15.2297 211.421 16.2203L211.47 16.6793C211.503 17.0006 211.18 17.4523 210.902 17.8992L210.121 18.8629L209.911 19.0707L209.208 19.8871L208.787 20.3025L208.408 20.6673C208.326 20.7687 208.29 20.8654 208.253 20.962L207.376 21.8895L206.879 22.4523L206.436 23.1021L206.2 23.4982L206.122 23.6456L205.721 24.2447L205.33 24.9355L204.815 25.7785L204.445 26.2351L204.204 26.5853L203.626 27.7134L203.276 28.3536L202.599 29.8633L202.394 30.117C202.403 30.2088 202.372 30.3513 202.372 30.3513L201.971 30.9503L201.724 31.2547C201.574 31.5953 201.301 32.0881 201.193 32.378L201.084 32.6678C201.048 32.7645 201.057 32.8563 201.057 32.8563L200.871 33.2935L200.634 33.6896C200.489 34.0762 200.175 34.6197 200.035 35.0521L199.726 35.6415L199.276 36.6633L198.868 37.6344L198.442 38.8857L198.184 39.5162L197.773 40.9052L197.401 41.7797L196.823 43.7895L196.593 44.6954L196.115 46.3236L195.748 47.2439L195.704 47.7126L195.414 48.4856L195.008 50.8023L194.877 51.3265C194.778 51.7082 194.751 51.8966 194.771 52.0802C194.819 52.5392 194.785 53.0997 194.833 53.5587L194.78 54.8173L195.029 55.8586L195.169 56.3079L195.572 57.0545L196.135 57.5522L196.379 57.6658C196.43 57.7069 196.618 57.7335 196.664 57.7287C196.862 57.8471 197.193 57.9051 197.381 57.9317C197.799 57.9342 198.396 57.8715 198.85 57.7773L199.121 57.7025L199.437 57.6228L199.882 57.4369L200.106 57.3668L200.735 57.1616L201.802 56.7245L202.114 56.5989L202.911 56.2367L203.356 56.0507L204.593 55.4567L204.987 55.2296L206.009 54.7974L206.402 54.5703L206.622 54.4544L208.357 53.2975L208.736 52.9328L209.084 52.7106C209.304 52.5947 209.693 52.3217 209.908 52.1599L210.512 51.7252L210.846 51.3653L212.254 50.1962L212.464 49.9885L212.597 49.9281C212.73 49.8678 212.986 49.6552 213.114 49.5489L213.283 49.3919L213.933 48.9524L214.313 48.5876L215.27 47.9766L216.243 47.0853L216.504 46.9187L217.492 46.1651L218.183 45.6748L219.193 44.6869C219.317 44.5347 219.449 44.4743 219.541 44.4647C219.674 44.4043 219.976 44.1869 220.689 43.4623L221.293 43.0276L222.769 41.6194L223.554 40.7015L224.46 40.0494L224.799 39.7354L225.132 39.3755L226.86 37.7088L227.142 37.3079L228.348 35.9745L228.677 35.5687L229.764 34.4335C230.349 33.8151 231.107 33.0857 231.646 32.4721L232.236 31.8997L232.601 31.3972L234.282 29.7354L234.41 29.6292L235.365 28.5543L236.575 27.2668L237.293 26.5881L238.603 24.919L239.373 23.8634L239.907 23.204L240.41 22.6871C240.574 22.4842 240.652 22.3368 240.811 22.088L241.268 21.5759L241.473 21.3223L242.135 20.5566L242.5 20.0542L242.71 19.8465C242.746 19.7498 242.875 19.6436 242.911 19.5469L244.138 17.9793L244.431 17.6701L245.078 16.7667L245.242 16.5638L245.689 15.9599L246.511 14.9454L247.644 13.8053L247.891 13.501L248.188 13.2377L248.722 12.5783L249.826 11.1628L250.703 10.2352L251.319 9.47436L251.88 8.6265L253.016 7.06848C253.257 6.71823 253.586 6.31243 253.823 5.91627L254.625 4.71816L255.374 3.8969L255.831 3.38483L256.046 3.223L256.297 2.96455L257.275 2.11917C258.114 1.70621 258.715 1.68939 258.938 2.0373C259.372 2.64132 259.481 3.2332 258.884 4.17769L257.913 5.5328L255.716 8.03765L255.393 8.48935L254.755 9.48456L253.503 11.7045L252.602 13.2843L251.799 14.4824L251.599 14.7819L249.936 17.5091L249.158 18.9367L248.124 20.5769L247.964 20.8257L247.764 21.1252L247.66 21.461L247.474 21.8982L247.051 22.7316C246.483 23.9515 245.956 25.1207 244.264 29.336L244.025 30.1501L243.556 30.9883L243.402 31.283L241.63 36.0636C241.48 36.4042 241.231 37.1265 241.127 37.4622L240.236 40.0156C240.199 40.1122 240.204 40.1581 240.209 40.204L240.141 40.4432L239.938 41.1607L239.431 43.3952L239.295 43.8735L239.211 44.3929C239.216 44.4388 239.184 44.5813 239.184 44.5813L239.039 44.9678L238.551 46.5042L238.565 46.6419C238.471 47.0695 238.254 47.6492 238.159 48.0768L237.543 50.6012L237.412 51.1254L236.975 52.7029L236.938 52.7995L236.658 54.5461L236.312 56.1139C236.191 56.7299 235.979 57.3556 235.795 58.2566C235.706 58.7301 235.597 59.02 235.249 59.2422C234.855 59.4692 234.36 59.6141 233.855 59.6672C232.867 59.539 232.901 58.0967 233.159 57.4663C233.529 56.128 233.8 55.1713 234.013 54.5457L234.334 53.6301C234.474 53.1977 234.532 52.8668 234.755 52.3329L235.153 51.27L235.893 48.5934L237.28 44.1317L237.334 43.7548L237.972 41.8778C238.143 41.3029 238.407 40.7183 238.709 39.6192L238.861 38.8606L239.623 36.8315L239.908 36.0126L240.217 35.4232L240.294 35.2758L240.606 34.2685L240.664 33.9375L241.046 33.1549L241.454 32.1838L241.517 31.8987C241.512 31.8528 241.585 31.6596 241.58 31.6137L241.798 31.0339C241.788 30.9421 241.829 30.8914 242.025 30.5459L242.134 30.2561L242.206 30.0628L242.569 29.0965L242.868 28.4153C242.868 28.4153 242.9 28.2728 242.977 28.1255L243.385 27.1544L244.652 24.1904L245.394 21.9776L245.548 21.6829L245.652 21.3471L245.788 20.8688L245.897 20.579L246.083 20.1417L246.52 19.446L246.87 18.8059L247.148 18.359L247.562 17.4338L246.89 18.1077L246.525 18.6102L246.037 19.2648L245.667 19.7213L245.256 20.2286L244.609 21.132L243.352 22.4242L242.763 22.9967L241.598 24.2793L241.091 24.7503L240.342 25.5715L239.972 26.0281L239.1 27.0015L238.679 27.417L238.187 28.0257L238.027 28.2745L237.329 29.1368L236.79 29.7503L236.2 30.3228C236.082 30.5209 235.836 30.8252 235.712 30.9774L235.328 31.2962L234.821 31.7672L233.775 32.8517L233.025 33.673L231.564 35.2189L230.733 36.1416L230.508 36.2116L230.426 36.3131L229.534 37.1029L228.667 38.1222L228.343 38.5739L228.009 38.9338L226.922 40.0691L226.374 40.5908L225.369 41.6246L224.093 42.7333L222.805 44.1681L222.348 44.6801L220.872 46.0883C220.79 46.1898 220.754 46.2864 220.717 46.383L220.169 46.9047L219.601 47.2429L219.108 47.8516L218.678 48.1752L218.038 48.7066C217.874 48.9095 217.75 49.0617 217.238 49.4868L215.636 50.5833L215.354 50.9843L214.837 51.3635C214.457 51.7282 213.981 52.0567 213.648 52.4166L212.068 53.2788L211.633 53.5565L210.753 54.0202L209.275 54.9646L208.528 55.3679L208.258 55.4427L208.13 55.549L205.711 56.8242L205.083 57.0294C203.878 57.481 202.713 57.8818 201.498 58.2416L200.522 58.669ZM270.179 30.8354L270.227 31.2944C270.191 31.3911 270.2 31.4829 270.205 31.5288C270.239 31.8501 270.268 32.1255 269.903 32.6279C269.707 32.9733 269.209 33.5361 268.584 33.3235L268.055 33.147L267.395 32.613L267.27 32.3014L267.154 32.0815L267.115 31.7143L267.178 31.4293L267.089 31.021L266.973 30.8011L266.825 30.7238L266.577 30.5643L266.292 30.5014C266.108 30.5207 265.965 30.4893 265.782 30.5086L264.726 30.6196C264.492 30.5978 264.313 30.663 263.373 30.9938L262.709 31.2957L260.44 32.2302L259.781 32.578L259.177 33.0128L258.824 33.1891L258.288 33.3847L257.454 33.8435L257.234 33.9594L256.236 34.6212L255.642 35.1478L255.478 35.3507L254.869 35.7395L254.618 35.998L254.448 36.155L254.192 36.3675L254.069 36.5197L253.755 37.0632L253.371 37.382L253.206 37.5849L252.735 37.9593C252.617 38.1574 252.503 38.4014 252.518 38.5391L252.629 38.713L252.786 38.8822L253.496 39.4572L253.74 39.5708L254.228 39.798C254.416 39.8246 254.66 39.9382 254.849 39.9648L255.332 40.146L255.673 40.2959C255.769 40.3321 256.004 40.3539 256.095 40.3442L256.537 40.5762L257.591 40.8832C257.728 40.8687 257.968 40.9364 258.105 40.9219L258.62 40.9607L259.052 41.1008L259.144 41.0912L259.342 41.2096L260.243 41.3933C260.381 41.3789 260.523 41.4103 260.661 41.3958L260.905 41.5094C261.231 41.5215 261.613 41.6206 261.985 41.628C262.168 41.6087 262.499 41.6667 262.683 41.6474L263.717 41.7708L264.78 42.1695L265.311 42.8098L265.42 43.4017L265.408 43.7278L265.125 44.1288L264.751 44.5394L264.05 44.9379L263.82 44.962L263.564 45.1746L262.941 45.4257L262.844 45.3895L262.4 45.5754L261.216 45.7927L259.165 46.1475L258.568 46.2102L256.742 46.495L256.191 46.5529L255.599 46.6615L254.906 46.6879L254.369 46.8835L253.589 46.9656L252.386 46.9992L251.652 47.0764L251.197 47.1705L251.243 47.1657L250.432 47.3902L250.202 47.4144L249.574 47.6196L249.207 47.6582C248.936 47.7331 248.675 47.8997 248.405 47.9745L247.822 48.175L247.276 48.2788L246.776 48.3777L245.658 48.7737L245.433 48.8438L244.8 49.0031L244.617 49.0224L244.443 49.1335L244.126 49.2132L243.665 48.7976L243.539 48.4859L243.689 48.1453L244.088 47.9642L244.527 47.7324L245.646 47.3363L246.233 47.1818L246.861 46.9766L247.402 46.8269L248.634 46.1869L249.231 46.1242L249.589 45.9938L250.282 45.9673L250.782 45.8683L251.14 45.7379L252.094 45.5448L252.865 45.371L253.548 45.2527L254.503 45.0596L255.145 44.9921L255.503 44.8617L255.645 44.8931L255.967 44.8594C256.104 44.8449 256.099 44.799 256.237 44.7845C256.278 44.7338 256.544 44.613 256.631 44.5575L257.815 44.3402L258.484 44.0843L260.091 43.9154L260.356 43.7947L260.815 43.7464L260.434 43.6473L259.905 43.4709L259.477 43.3766C259.339 43.3911 259.146 43.3186 259.054 43.3282L258.82 43.3064L257.564 42.8352C257.472 42.8448 257.416 42.7578 257.371 42.7627L256.938 42.6225L256.216 42.3735L255.738 42.2382C255.595 42.2067 255.631 42.1101 255.443 42.0835C255.158 42.0207 255.056 41.9385 254.303 41.8321C253.972 41.7741 253.778 41.7016 253.479 41.501L253.382 41.4647C253.29 41.4744 253.148 41.443 253.102 41.4478L252.674 41.3535C252.583 41.3632 252.44 41.3317 252.394 41.3365L252.044 41.0949L251.846 40.9765L251.897 41.0176L251.404 40.7445L250.744 40.2105L250.549 39.6742L250.52 39.3988L250.527 39.0267C250.549 38.7924 250.662 38.5484 250.853 38.1571L250.931 38.0098C250.926 37.9639 251.003 37.8165 250.998 37.7706L251.477 37.0242L251.965 36.3696L252.289 35.9179L252.458 35.7609C252.499 35.7102 252.613 35.4662 252.608 35.4203L252.997 35.1474L253.12 34.9952L253.627 34.5242L254.231 34.0894L254.922 33.5991L255.137 33.4373L255.787 32.9977L255.828 32.947L256.135 32.7755L256.304 32.6185L257.041 32.1234L257.312 32.0486L258.283 31.5752L258.677 31.3482L259.034 31.2178L260.235 30.7203L260.991 30.4088L261.963 29.9355L262.274 29.8099L262.499 29.7399C262.499 29.7399 262.545 29.735 262.678 29.6747L263.127 29.5346C263.393 29.4139 263.663 29.339 263.934 29.2642L265.159 28.9962L266.903 28.8129L267.84 28.9L268.121 28.917L268.737 29.0379L269.377 29.3882L269.737 29.7217L269.848 29.8956L270.039 30.3861L270.179 30.8354Z" fill="#FFC700"/>
</svg>
