<svg width="45" height="33" viewBox="0 0 45 33" fill="none" xmlns="http://www.w3.org/2000/svg">
<g clip-path="url(#clip0_199_343)">
<path d="M44.616 5.41759C44.4171 4.49538 43.9695 3.6576 43.3443 2.96269C43.2164 2.81332 43.0743 2.67694 42.9251 2.54055C41.8239 1.52742 40.2751 0.897461 38.5771 0.897461H6.57808C4.88719 0.897461 3.3455 1.52742 2.23718 2.54055C2.08798 2.67694 1.953 2.81332 1.81801 2.96269C1.19281 3.6576 0.745219 4.50187 0.553395 5.41759C0.475245 5.77478 0.432617 6.13847 0.432617 6.50866V27.0571C0.432617 27.8429 0.617336 28.6027 0.944147 29.2847C1.24964 29.9406 1.69013 30.5316 2.23718 31.0252C2.37217 31.1486 2.51426 31.2655 2.66346 31.3824C3.72914 32.1877 5.10033 32.6748 6.58518 32.6748H38.5984C40.0833 32.6748 41.4616 32.1877 42.5202 31.3759C42.6694 31.2655 42.8043 31.1486 42.9464 31.0252C43.4864 30.5316 43.934 29.9406 44.2466 29.2847C44.5734 28.5962 44.751 27.8429 44.751 27.0571V6.50866C44.751 6.13847 44.7084 5.76829 44.6373 5.41759H44.616ZM4.45381 4.56682C5.00086 4.06675 5.73974 3.76151 6.57808 3.76151H38.5913C39.4226 3.76151 40.1685 4.06675 40.7156 4.56682C40.8151 4.65774 40.9074 4.75516 40.9856 4.85257L24.2045 18.2181C23.7427 18.5883 23.1673 18.7702 22.5847 18.7702C22.0021 18.7702 21.4338 18.5883 20.9649 18.2181L4.19094 4.85257C4.26199 4.75516 4.35435 4.65774 4.45381 4.57331V4.56682ZM3.57284 27.0571V7.82703L15.7146 17.5102L3.57995 27.1805C3.57995 27.1415 3.57995 27.1025 3.57995 27.0636L3.57284 27.0571ZM38.5842 29.7977H6.57808C6.03813 29.7977 5.5266 29.6678 5.09322 29.4405L17.8957 19.2378L19.0892 20.1859C20.091 20.9783 21.3414 21.3809 22.5847 21.3809C23.828 21.3809 25.0855 20.9783 26.0802 20.1859L27.2737 19.2378L40.0691 29.4405C39.6357 29.6678 39.1242 29.7977 38.5842 29.7977ZM41.5823 27.0571C41.5823 27.096 41.5823 27.1415 41.5823 27.174L29.4477 17.5102L41.5895 7.82703V27.0571H41.5823Z" fill="#FFC700"/>
</g>
<defs>
<clipPath id="clip0_199_343">
<rect width="44.3042" height="31.7838" fill="white" transform="translate(0.432617 0.891602)"/>
</clipPath>
</defs>
</svg>
