<svg width="41" height="42" viewBox="0 0 41 42" fill="none" xmlns="http://www.w3.org/2000/svg">
<g clip-path="url(#clip0_199_349)">
<path d="M40.1753 32.16C39.9854 31.6794 39.6688 31.2054 39.2255 30.8038C38.7471 30.3825 38.114 29.9282 37.3753 29.441C36.2707 28.7103 34.9551 27.9334 33.7802 27.2883C33.1893 26.9657 32.6405 26.676 32.1551 26.4456C31.6697 26.2086 31.2827 26.0374 30.9028 25.9189C30.5862 25.8202 30.2626 25.7807 29.946 25.7807C28.9962 25.7807 28.145 26.1427 27.4344 26.6563C26.7309 27.1763 26.147 27.8742 25.8022 28.7103C25.76 28.8156 25.7178 28.9012 25.6826 28.967C24.6625 28.3482 22.1439 26.6036 18.4363 22.489C15.8895 19.6647 14.4262 17.5382 13.6031 16.1492C13.2302 15.5171 12.991 15.0366 12.8432 14.714C12.9206 14.6876 13.0191 14.6679 13.1387 14.6481C14.1659 14.4638 15.0664 13.9766 15.7559 13.3315C16.1006 13.0023 16.3961 12.6336 16.6142 12.2189C16.8323 11.8041 16.9659 11.3301 16.9659 10.8298C16.9659 10.6981 16.9589 10.5598 16.9378 10.4216C16.8956 10.1714 16.8323 9.92784 16.7478 9.63818C16.4453 8.6375 15.8543 7.14965 15.193 5.67497C14.8624 4.93763 14.5176 4.22004 14.1799 3.57487C13.8423 2.92969 13.5186 2.37011 13.202 1.91585C12.7448 1.27068 12.0975 0.829591 11.4573 0.586006C10.8101 0.335837 10.1628 0.256836 9.57184 0.256836C9.02309 0.256836 8.52359 0.32267 8.09443 0.421421C7.87634 0.467505 7.68639 0.526755 7.50347 0.586006C7.32055 0.65184 7.15874 0.717674 6.98286 0.816425L6.94065 0.750591L6.95472 0.836175C6.8914 0.869092 6.7507 0.948093 6.57481 1.04684C5.80797 1.48135 4.30242 2.40302 2.95165 3.93037C1.60087 5.44455 0.418945 7.62366 0.418945 10.4084C0.418945 11.0075 0.475228 11.6264 0.587792 12.2715C1.84007 19.3092 5.37882 25.1289 9.41707 29.6056C13.4553 34.0889 18.978 38.3418 26.1821 40.6855C27.5048 41.12 28.7782 41.3043 29.9601 41.3043C32.8023 41.3043 35.0677 40.2312 36.6436 39.145C37.4315 38.5985 38.0577 38.0455 38.515 37.5979C38.7401 37.374 38.9301 37.1765 39.0708 37.0185C39.2115 36.8671 39.317 36.742 39.3381 36.7223C39.507 36.5379 39.6195 36.3602 39.7391 36.1495C40.0838 35.5307 40.4356 34.6353 40.4426 33.5688C40.4426 33.1211 40.3723 32.634 40.1823 32.1534L40.1753 32.16ZM2.98682 10.4084C2.98682 9.18392 3.27527 8.14374 3.71849 7.24182C4.37981 5.89222 5.41399 4.85205 6.34265 4.12787C6.80698 3.76579 7.24317 3.4827 7.58086 3.27861C7.74971 3.17328 7.89745 3.09428 8.01705 3.02845C8.13665 2.96261 8.21403 2.92311 8.29846 2.87703C8.31253 2.86386 8.50952 2.79144 8.74872 2.74536C8.98792 2.69269 9.2834 2.65978 9.57184 2.65978C9.90954 2.65978 10.2261 2.70586 10.4794 2.80461C10.7327 2.90336 10.9085 3.02845 11.0774 3.25228C11.3096 3.57487 11.6613 4.18054 12.0131 4.88496C12.5478 5.94489 13.1317 7.2484 13.589 8.38075C13.8141 8.94692 14.0111 9.47359 14.1588 9.90151C14.3066 10.3228 14.391 10.6718 14.4051 10.7639V10.8232C14.4051 10.9022 14.384 11.0207 14.3136 11.1655C14.2011 11.3828 13.9759 11.6461 13.6734 11.8568C13.3709 12.0674 13.0121 12.2254 12.6674 12.2847C12.2101 12.3637 11.8231 12.4888 11.4784 12.6468C10.9719 12.8838 10.5849 13.2327 10.3739 13.6014C10.1558 13.9635 10.1136 14.2992 10.1136 14.4967V14.635L10.1628 14.8325C10.2191 15.03 11.204 18.1768 16.4805 24.0361C21.7569 29.8953 24.9088 31.337 25.1057 31.4226L25.3238 31.495C25.4083 31.5148 25.556 31.5411 25.76 31.5411C26.1118 31.5411 26.6394 31.4292 27.1038 31.0869C27.5681 30.7445 27.941 30.2376 28.2153 29.5398C28.3631 29.1645 28.6656 28.7893 29.0174 28.5391C29.3691 28.2824 29.742 28.1639 29.946 28.1704L30.1078 28.1902C30.1711 28.2099 30.3541 28.2758 30.5862 28.3811C31.4164 28.7498 32.8586 29.5266 34.2235 30.343C34.9059 30.7511 35.5742 31.1725 36.1441 31.5543C36.7139 31.9361 37.1923 32.2916 37.4527 32.5286C37.6074 32.6669 37.6989 32.8117 37.7692 32.9763C37.8326 33.1409 37.8677 33.3384 37.8677 33.5557C37.8677 33.898 37.7763 34.293 37.6496 34.609C37.5863 34.767 37.523 34.9052 37.4667 35.004L37.3964 35.1225L37.3823 35.1423C37.3049 35.2278 37.2346 35.3134 37.115 35.4451C36.7069 35.8993 35.8416 36.7749 34.6104 37.5254C33.3792 38.2759 31.8244 38.8882 29.953 38.8882C29.0596 38.8882 28.0887 38.75 27.0193 38.401C20.3499 36.2285 15.186 32.2719 11.3729 28.0388C7.55975 23.8056 4.27428 18.3743 3.11346 11.8568C3.022 11.3367 2.97979 10.8495 2.97979 10.3887L2.98682 10.4084Z" fill="#FFC700"/>
</g>
<defs>
<clipPath id="clip0_199_349">
<rect width="40.0167" height="41.0541" fill="white" transform="translate(0.418945 0.256836)"/>
</clipPath>
</defs>
</svg>
