<svg width="66" height="23" viewBox="0 0 66 23" fill="none" xmlns="http://www.w3.org/2000/svg">
<path d="M2.86275 22H0.00674808L1.67275 11.444H4.27675C6.76875 11.444 8.56075 12.256 8.12675 15.028C7.69275 17.772 5.87275 18.612 3.40875 18.542L2.86275 22ZM5.24275 14.986C5.35475 14.314 5.08875 13.712 4.38875 13.712L4.17875 13.726L3.78675 16.162C4.57075 16.204 5.11675 15.77 5.24275 14.986ZM12.3965 14.454C14.7625 14.454 15.5605 16.232 15.2385 18.304C14.9025 20.376 13.5445 22.154 11.1785 22.154C8.81253 22.154 8.01453 20.376 8.35053 18.304C8.67253 16.232 10.0305 14.454 12.3965 14.454ZM12.0745 16.512C11.4165 16.512 11.1505 17.548 11.0385 18.304C10.9125 19.06 10.8565 20.096 11.5145 20.096C12.1725 20.096 12.4245 19.06 12.5505 18.304C12.6625 17.548 12.7325 16.512 12.0745 16.512ZM18.5531 22H15.8091L16.9851 14.608H19.7291L18.5531 22ZM18.4831 13.894C17.6011 13.894 16.9851 13.18 17.1251 12.284C17.2651 11.416 18.0911 10.688 18.9591 10.688C19.8411 10.688 20.4711 11.374 20.3311 12.27C20.1911 13.152 19.3791 13.894 18.4831 13.894ZM23.9537 14.608L23.6597 15.98L23.6877 16.008C24.0797 15.21 24.9057 14.454 25.8157 14.454C27.3977 14.454 27.5797 15.798 27.3697 17.128L26.5997 22H23.8557L24.4437 18.262C24.5417 17.632 24.5697 17.184 24.1077 17.184C23.5757 17.184 23.4637 17.688 23.3377 18.444L22.7777 22H20.0337L21.2097 14.608H23.9537ZM31.4605 22H28.7165L29.5425 16.806H28.7585L29.1085 14.608H29.8925L30.2285 12.438H32.9725L32.6365 14.608H33.5465L33.1965 16.806H32.2865L31.4605 22ZM44.6846 0.523999C50.5646 0.523999 51.1806 6.768 50.4526 11.444C49.6966 16.12 47.1206 22.364 41.2406 22.364C35.3606 22.364 34.7446 16.12 35.5006 11.444C36.2286 6.768 38.8046 0.523999 44.6846 0.523999ZM43.9286 5.396C42.1926 5.396 41.4926 9.064 41.1286 11.444C40.7366 13.824 40.2886 17.492 42.0246 17.492C43.7606 17.492 44.4326 13.824 44.8246 11.444C45.1886 9.064 45.6646 5.396 43.9286 5.396ZM61.835 22H56.123L58.699 5.76H56.431L57.187 0.888H65.167L61.835 22Z" fill="#FFC700"/>
</svg>
