<svg width="123" height="44" viewBox="0 0 123 44" fill="none" xmlns="http://www.w3.org/2000/svg">
<path opacity="0.4" d="M26.338 36.3345L25.2026 36.129C25.0855 36.1181 24.9176 36.0662 24.8234 36.0529C24.6603 36.0468 24.4465 35.9996 24.2834 35.9936L23.9525 35.9356L23.688 35.8473L22.4584 35.6285L22.3919 35.6587L22.2433 35.7903L22.1044 36.0138L21.9147 36.1961L21.7106 36.2408L21.6441 36.271L21.562 36.3724L21.4267 36.4099L21.3373 36.4425C21.2503 36.498 21.1404 36.556 21.0993 36.6067L20.7877 36.7323L19.878 37.1295L19.6123 37.2503L18.7329 37.714C18.7329 37.714 18.7099 37.7164 18.536 37.8275C18.513 37.8299 18.513 37.8299 18.4925 37.8553C17.938 38.0992 17.3376 38.3479 16.7578 38.5713C16.6914 38.6015 16.6298 38.6775 16.5633 38.7077L16.3664 38.8212L16.2058 38.8381L16.0705 38.8756L15.8482 38.9685L15.3988 39.1086C15.1742 39.1786 15.2297 39.2656 14.633 39.3283L14.1075 39.4067L13.7222 39.4936L13.3985 39.5045L13.0422 39.4259L12.6979 39.4621L12.53 39.4101C12.4612 39.4173 12.2957 39.3883 12.2727 39.3907L12.1024 39.3158C11.6543 39.2469 11.1023 39.0729 10.6881 38.8844L10.4284 38.8421L9.99961 38.5159C9.94647 38.4518 9.78099 38.4228 9.69284 38.2464L9.56121 38.0979L9.27498 37.8031L9.12404 37.4709C9.09627 37.4274 9.09627 37.4274 9.09144 37.3815L8.97311 37.1387C8.85718 36.9188 8.77751 36.6023 8.7232 36.3064L8.63988 36.1759L8.59887 35.7858L8.61459 35.7145L8.59046 35.485L8.54339 35.2579L8.5265 35.0973L8.54346 34.817L8.47468 34.3834L8.48922 34.0802L8.48198 34.0114L7.8708 33.9364C7.66183 33.9351 7.47099 33.8856 7.26202 33.8843C7.12432 33.8988 6.98179 33.8674 6.86704 33.8794L6.38508 33.9301L6.24255 33.8987L5.99492 33.9711L5.74488 34.0206L5.46223 33.9807C5.37043 33.9903 5.25809 34.0253 5.18924 34.0326L4.25309 34.1774L4.09244 34.1943L3.42446 34.2413C3.3073 34.2304 3.19013 34.2195 3.12128 34.2267C2.65504 34.2061 2.47143 34.2254 2.27577 34.13C2.16225 33.9331 2.35441 33.3328 2.50782 33.247L3.17704 32.991L3.40413 32.944L4.78116 32.7992L5.05898 32.7932L5.60979 32.7354L5.89244 32.7753L7.33467 32.8093C7.38057 32.8045 7.42888 32.8226 7.47478 32.8178L7.59195 32.8287C7.72965 32.8142 7.84681 32.8251 8.03283 32.8287C8.12463 32.8191 8.24421 32.8529 8.33601 32.8433L8.78172 32.8893C8.79985 32.8409 8.77448 32.8204 8.79261 32.7721L8.92314 32.2479C8.95216 32.0824 9.00171 31.8916 9.1153 31.6476C9.2144 31.2659 9.33164 30.8359 9.47665 30.4494L9.49601 30.1921L9.62048 29.831L9.73889 29.6329L9.95881 29.0761L10.1703 28.6594C10.2246 28.5145 10.3249 28.3647 10.3817 28.2427C10.4156 28.1231 10.5134 27.9504 10.5473 27.8308L10.9859 26.9262L11.0656 26.8018L11.2638 26.4793L11.5574 25.9612L11.735 25.6641L12.2025 25.0348L12.6133 24.5276L12.6725 24.4285L13.1123 23.7558L13.2693 23.484L13.3213 23.3161L13.4216 23.1664L13.7248 22.74L13.7659 22.6893C13.807 22.6386 13.8408 22.519 13.8819 22.4683L14.1235 22.118L14.3289 21.8644L14.4087 21.74L14.4679 21.641L14.7143 21.3366L14.9632 21.0552L15.2689 20.6518L15.5794 20.2943L15.7847 20.0407L16.0288 19.7134L16.5797 19.2146L16.6848 19.1108L16.9542 18.804L17.2103 18.5914L17.2949 18.5129L17.7721 17.9755L18.0463 17.7146L18.1925 17.56L18.126 17.5902L17.8784 17.6627C17.7431 17.7001 17.6356 17.781 17.5233 17.816L17.3082 17.9778L17.2188 18.0104L16.999 18.1264L16.7719 18.1734L16.4784 18.2507L16.1196 18.1492L16.0859 17.8279L16.3601 17.567L16.6416 17.375L17.7275 16.8896L18.2409 16.6964L18.3714 16.6131L18.6831 16.4875L18.8183 16.4501L18.9766 16.4103L19.066 16.3777L19.2266 16.3608L19.3595 16.3004L19.49 16.2171L20.1001 15.6193L20.3671 15.2895L20.657 14.9574L21.1414 14.4888C21.2465 14.385 21.4205 14.2739 21.5027 14.1724L22.1296 13.7352L22.1502 13.7099L22.4981 13.4877L22.7409 13.3693L23.212 12.995L24.0818 12.4395L24.565 12.1798C24.9975 11.8792 25.4626 11.6678 25.9578 11.523L26.5376 11.2996L26.5147 11.302C27.2044 11.0207 28.3412 10.5763 29.3304 10.4956C29.4681 10.4811 29.6336 10.5101 29.7713 10.4956C29.932 10.4788 30.0032 10.4945 30.0516 10.5126L30.6422 10.6129L30.9949 10.8775L31.17 10.9984L31.4707 11.4308L31.6433 11.9696L31.5104 12.4708L31.3461 12.6737L31.096 12.7232L30.8774 12.6302L30.6721 12.4429L30.4922 12.2762C30.2857 11.857 30.0272 11.6057 29.7373 11.497C29.4451 11.3653 29.1491 11.4196 28.7408 11.5089C28.672 11.5161 28.5826 11.5487 28.5137 11.556L28.1284 11.6429L27.8554 11.6948C27.4471 11.7841 27.0207 11.9217 26.6354 12.0087L26.3696 12.1294C26.3261 12.1572 26.2138 12.1922 26.1679 12.197L25.6847 12.4566L25.3186 12.7271L25.2727 12.732L24.4899 13.2319L24.3365 13.3177L23.9475 13.5906C23.9065 13.6413 23.84 13.6715 23.8195 13.6969L23.5018 13.9855L23.1285 14.1872L22.3783 14.7765L22.0171 15.0929C21.976 15.1436 21.9373 15.2173 21.8733 15.2704C22.7213 14.9493 23.5488 14.6535 24.404 14.4012L24.6287 14.3311L24.7893 14.3142C24.9705 14.272 25.1928 14.179 25.3969 14.1344L25.5298 14.074L25.7521 13.981L26.1398 13.9171L26.3947 13.9135C26.9177 13.8121 27.7391 13.6794 28.4965 13.5998L28.9096 13.5563L29.3203 13.49C29.3662 13.4851 29.4604 13.4984 29.7105 13.449L30.0571 13.4357L30.4388 13.5348L30.6913 13.5083L30.9026 13.5325L31.1394 13.5772L31.567 13.6715L31.7349 13.7235C31.7578 13.7211 31.8291 13.7368 31.852 13.7344L31.9716 13.7682L32.2518 13.7852L32.4958 13.8987L32.5949 13.9579L32.6432 13.9761L33.0273 14.0981C33.0732 14.0933 33.1698 14.1295 33.1927 14.1271L33.7399 14.2553L33.7846 14.4594L33.8582 14.4981C33.9343 14.5597 34.0563 14.6165 34.13 14.6551C34.3281 14.7735 34.4984 14.8485 34.653 14.9946L34.8909 15.2713C34.967 15.3329 35.1143 15.4102 35.188 15.4489L35.3063 15.6917C35.8123 16.3114 36.2108 17.0121 36.2784 17.6547C36.3049 17.9071 36.2855 18.1644 36.2179 18.4036C36.1236 18.8312 35.9858 19.2865 35.8891 19.6912L35.7996 20.1646L35.6304 20.7625L35.4516 21.2686C35.2655 21.7058 35.0589 22.1684 34.8426 22.5392C34.7447 22.7119 34.6336 22.9789 34.5176 23.1999L34.2469 23.7156L34.1467 23.8654L34.0669 23.9898L33.9123 24.2845C33.8736 24.3582 33.8398 24.4777 33.7987 24.5285L33.5909 24.7591L33.441 25.0998L33.2973 25.2773L33.1354 25.5031L32.9663 25.6601C32.7041 26.0358 32.3549 26.4669 32.042 26.8015L31.9599 26.9029L30.4365 28.5249L30.2033 28.735L30.1236 28.8594L29.6669 29.3715L29.4156 29.63L29.2718 29.8075L29 30.0913L28.8261 30.2024L28.7802 30.2072L28.0034 30.985L27.6542 31.4162L27.3981 31.6287L27.1807 31.7676L26.9958 31.9959L26.8061 32.1782L26.2118 32.7048L26.0402 32.8388L25.8711 32.9958L25.8252 33.0006L25.7636 33.0767L25.1668 33.5803L24.744 33.9728L24.483 34.1395L24.3344 34.2711L23.8633 34.6455L23.6736 34.8279L23.4997 34.939L23.5226 34.9366L23.7871 35.0248L24.3343 35.1529L24.9684 35.2255L25.5748 35.2546L25.8828 35.315L25.913 35.3814L26.1981 35.4443C26.2464 35.4624 26.4094 35.4685 26.4553 35.4637C27.0025 35.5918 27.0532 35.6329 27.0762 35.6304L27.2924 35.7005C27.4832 35.7501 27.6306 35.8274 27.8214 35.877L28.005 35.8577L28.4398 36.0208C28.534 36.0341 28.6053 36.0498 28.6742 36.0426L29.3337 36.1357C29.3796 36.1309 29.4738 36.1442 29.5197 36.1394L30.0439 36.2699L31.1406 36.5491C31.1406 36.5491 31.2348 36.5624 31.3979 36.5685L31.6117 36.6156L31.7035 36.6059L32.3702 36.7679L33.0394 36.9528L33.2532 37L33.421 37.0519L33.6832 37.1172L33.8994 37.1873C33.9223 37.1849 33.973 37.226 34.0189 37.2211L34.2509 37.22L34.513 37.2852L34.7569 37.3988L35.8054 37.6599L36.0288 37.7988L36.1991 37.8737L36.4153 37.9438C36.4636 37.962 36.5578 37.9753 36.5808 37.9729L37.1146 38.1952C37.7149 38.3873 38.5109 38.6749 39.1184 38.9359L39.5991 39.0943L39.976 39.1475L40.1451 39.4313L40.1329 39.7575L39.7863 39.7707L39.3768 39.6281C39.3055 39.6124 39.186 39.5786 39.1401 39.5834L39.0664 39.5447C39.0205 39.5495 38.9516 39.5568 38.878 39.5181L38.3441 39.2958L38.2982 39.3006L38.1279 39.2257L37.8634 39.1375L37.7209 39.106L37.2884 38.9659L37.0952 38.8934C37.0239 38.8776 36.9527 38.8619 36.9068 38.8667L36.6954 38.8426L36.4562 38.7749L36.3342 38.7181L36.0879 38.5816C35.9936 38.5683 35.9176 38.5066 35.8233 38.4933C35.4392 38.3713 35.3426 38.335 34.7701 38.1864L34.0067 37.9881L33.8872 37.9543L33.4064 37.796C33.3605 37.8008 33.2639 37.7646 33.241 37.767L32.0874 37.6098C31.9703 37.5989 31.7541 37.5288 31.6369 37.5179L30.876 37.3426L30.8482 37.2991C30.8252 37.3016 30.754 37.2858 30.754 37.2858L30.4363 37.1336C30.3904 37.1384 30.2249 37.1094 30.202 37.1118L30.0136 37.0852L29.8203 37.0127L29.2272 36.8894C28.7284 36.7794 28.4204 36.719 28.0435 36.6658L27.407 36.5702L26.7427 36.4312C26.6255 36.4203 26.4552 36.3454 26.338 36.3345ZM26.7363 31.0718L27.838 30.0742L27.9866 29.9426L28.3225 29.6056C28.7658 29.1878 28.912 29.0332 29.0352 28.881L29.4895 28.346L30.2518 27.4305L30.8088 26.7687L31.2195 26.2614L31.3246 26.1575L31.6943 25.701L31.7692 25.5307L32.0338 25.178L32.1269 24.9594L32.4301 24.5331L32.5872 24.2613L33.0777 23.6297L33.4462 22.9412L33.5284 22.8398L33.6166 22.5753L34.0841 21.946L34.2207 21.6996L34.5203 21.0184L34.6062 20.731C34.6219 20.6597 34.6835 20.5836 34.6992 20.5123L34.7016 20.5353L34.7391 20.2297C34.9457 19.7671 34.9663 19.7417 34.9638 19.7188C35.0424 19.3625 35.1597 18.9325 35.1597 18.4916C35.1694 18.1425 35.1466 17.704 35.0693 17.4105L35.0017 17.2088L34.8641 16.7824L34.829 16.67L34.7663 16.5142L34.7083 16.4043L34.6044 16.2992L34.5139 16.0998L34.4281 15.9464C34.1624 15.6263 33.7844 15.3412 33.4136 15.1249L33.0501 14.9775L32.5621 14.7503L32.2034 14.6488L31.7782 14.5775C30.7346 14.3623 29.5497 14.3476 28.4686 14.438L28.3768 14.4477C27.0662 14.5622 25.7495 14.8398 24.7107 15.1114L24.6008 15.1694L24.1103 15.3602L23.5873 15.4616L23.2273 15.569L22.0858 15.9674L21.7125 16.1691L21.3296 16.279L21.082 16.3514C20.9696 16.3864 20.8392 16.4697 20.7268 16.5047L20.5009 16.7837L20.2629 16.948L20.1578 17.0518L19.6794 17.3574C19.5949 17.4359 19.4716 17.588 19.41 17.6641L18.2491 18.7607L17.7368 19.1858L17.3538 19.7366L17.1871 19.9165L16.7945 20.3754L16.5275 20.7052L16.0865 21.146C16.066 21.1713 16.0044 21.2474 16.0068 21.2704L15.822 21.4986L15.6299 21.6581L15.4861 21.8356C15.3653 22.0107 15.1756 22.1931 15.0548 22.3682L14.9956 22.4673L14.7902 22.7209L14.6078 22.9721L14.3661 23.3223C14.145 23.6472 14.0629 23.7487 13.9856 23.896L13.7645 24.2209L13.6666 24.3936L13.5349 24.6859L13.2498 25.064L13.129 25.2391L12.7689 25.7874L12.1153 26.8539L12.0476 27.0931L11.8796 27.482L11.5679 28.0484L11.4543 28.2924L11.2018 28.7598L11.0012 29.0593L10.8925 29.3492C10.6653 29.8372 10.5566 30.1271 10.4454 30.394L10.391 30.5389L10.2714 30.946L10.1397 31.2383L9.99341 31.8337C9.99341 31.8337 9.91608 31.9811 9.94262 32.2335L9.9136 32.399L9.76377 32.7396L9.69126 32.9329C9.90264 32.9571 10.114 32.9813 10.323 32.9825L10.6745 33.0152C10.7204 33.0104 10.7228 33.0333 10.7687 33.0285L10.9112 33.0599L11.0743 33.066L11.6347 33.0999L12.6023 33.2534C12.6482 33.2486 12.7653 33.2595 12.8112 33.2547L13.5142 33.32C13.5625 33.3381 13.6567 33.3514 13.6797 33.349L14.3368 33.4192C14.4056 33.412 14.5023 33.4482 14.5482 33.4434L14.7619 33.4905L15.4396 33.5353L15.6328 33.6078L15.9408 33.6683C16.0556 33.6562 16.2899 33.678 16.3817 33.6683L16.6945 33.7747C16.7634 33.7674 16.8347 33.7832 16.9059 33.7989L17.5606 33.8461L17.7768 33.9162C17.8686 33.9065 17.9882 33.9404 18.057 33.9331L18.3397 33.973C18.388 33.9912 18.574 33.9948 18.6199 33.99L19.9739 34.2886L20.3532 34.3647L21.2518 34.5255L21.4379 34.5292L21.6951 34.5485L22.0357 34.6984L22.0587 34.6959L22.6857 34.2588L23.3332 33.7963L23.6352 33.5789L23.8707 33.3917L23.9807 33.3337L24.2344 33.0982L24.2779 33.0705L24.3395 32.9944L24.6367 32.7311L24.7695 32.6707L25.9861 31.6611L26.5901 31.2264L26.7363 31.0718ZM18.5654 35.0167L17.9337 34.9671L17.5955 34.8402C17.4529 34.8088 17.244 34.8075 17.1014 34.7761L15.2256 34.3699L14.7546 34.3034C14.7063 34.2853 14.6833 34.2877 14.6604 34.2901L13.723 34.203C13.6518 34.1873 13.5117 34.1788 13.4658 34.1837L12.8546 34.1087C12.6202 34.0869 12.3581 34.0216 12.1238 33.9998L11.7953 33.9648C11.7035 33.9744 11.6092 33.9611 11.5174 33.9708L11.1454 33.9635L10.4956 33.9621L10.3579 33.9766L10.1489 33.9754L9.59567 34.0103C9.57024 34.4307 9.61483 35.0757 9.65342 35.4429L9.78258 36.0094L9.87073 36.1858C9.96611 36.431 10.0567 36.6303 10.1122 36.7173L10.3985 37.0121L10.4588 37.145C10.5651 37.273 10.768 37.4373 10.9939 37.5992C10.9987 37.6451 11.047 37.6632 11.0699 37.6608C11.1158 37.656 11.1412 37.6765 11.1642 37.6741L11.3924 37.859C11.4685 37.9206 11.5422 37.9593 11.6618 37.9931C11.6847 37.9907 11.7101 38.0112 11.733 38.0088L12.0181 38.0717L12.1836 38.1007L12.6896 38.2795L12.8551 38.3085L12.9517 38.3448L13.1378 38.3484C13.4687 38.4065 13.8383 38.3908 14.185 38.3776L14.4302 38.2822L14.8868 38.211L15.4123 38.1326C15.7288 38.0529 16.0634 37.9249 16.4028 37.8429L16.648 37.7475L16.7145 37.7173L16.8679 37.6315L17.223 37.4782L17.6217 37.2971L17.9128 37.1969L18.7511 36.7839L18.8127 36.7078L18.9819 36.5508L19.3189 36.4458L19.7562 36.191L19.9507 36.0545L20.0171 36.0243C20.0836 35.9941 20.1452 35.918 20.3445 35.8275L20.9533 35.4386C20.9968 35.4109 21.1043 35.3299 21.0609 35.3577L20.0475 35.209L18.5654 35.0167ZM43.8114 27.9545L43.8742 27.6694C43.9129 27.5957 43.9419 27.4303 44.0301 27.1657L44.0253 27.1198L44.1002 26.9495C44.0954 26.9036 44.1159 26.8783 44.1341 26.83L44.3201 26.3927C44.3564 26.2961 44.4519 26.1004 44.5086 25.9785C44.5268 25.9301 44.5244 25.9072 44.5219 25.8842L44.5811 25.7852C44.5969 25.7139 44.6585 25.6379 44.6899 25.4953L44.7829 25.2767C44.7805 25.2538 44.7987 25.2054 44.7938 25.1595L44.8688 24.9892L44.1379 25.3213L44.028 25.3793L43.8722 25.442L43.7236 25.5737L43.2017 25.907L42.8151 26.2029L42.6847 26.2862L41.4355 27.2064L41.351 27.2849L41.2048 27.4395L40.5778 27.8767L40.2939 28.0457L39.4519 28.6447L39.4085 28.6725L39.2671 28.873L39.2031 28.9261L39.0062 29.0396L38.7042 29.257L38.5942 29.315L38.5483 29.3198L38.3864 29.5456L38.2282 29.5855L38.1618 29.6157L38.0337 29.7219L37.9721 29.798L37.7546 29.9369L37.2388 30.1071L37.106 30.1675L36.9042 30.2351L36.746 30.2749L36.0502 30.2785L35.7652 30.2156C35.4089 30.137 35.3811 30.0935 35.2796 30.0114C35.0949 29.7988 35.0804 29.6611 35.0635 29.5004L35.0442 29.3168L35.1047 29.0088L35.1627 28.6779L35.263 28.5281L35.3125 28.3373L35.3101 28.3143L35.4442 28.045L35.6061 27.8191L35.8309 27.3082L35.8804 27.1174L35.9988 26.9193L36.0967 26.7466L36.2671 26.3806L36.4084 26.1801L36.5655 25.9084L36.6609 25.7127L36.7564 25.517L36.9703 25.1233L37.0476 24.9759L37.0838 24.8793L37.1491 24.6172C37.1467 24.5943 37.1854 24.5206 37.1781 24.4517L37.1794 24.2428L37.2169 23.9372L37.3003 23.6267L37.5347 23.2076L37.798 23.0639L37.9792 23.0217L38.1193 23.0302L38.3452 23.1921C38.4261 23.2996 38.5118 23.453 38.5565 23.6571L38.6047 24.1162L38.5648 24.3988L38.4512 24.6428L38.3038 25.0063L38.1262 25.3034L37.9873 25.5269L37.7819 25.7805L37.6611 25.9556L37.5584 26.0825L37.4375 26.2576L37.3119 26.3868L37.2708 26.4375L36.8769 27.1054L36.6993 27.4026C36.6015 27.5753 36.5036 27.748 36.4287 27.9183L36.2329 28.2637L36.158 28.434L36.0795 28.7903L36.0275 28.9582L35.9417 29.2457C35.9212 29.2711 35.9212 29.2711 35.926 29.317C35.9332 29.3858 35.9054 29.3423 35.9332 29.3858L36.025 29.3762C36.1168 29.3665 36.2751 29.3267 36.4744 29.2361C36.6761 29.1685 36.8754 29.0779 36.9189 29.0502L37.2946 28.8715L37.6679 28.6698L37.8237 28.607L37.9542 28.5237L38.8493 27.9887C38.8928 27.9609 38.9315 27.8873 38.9749 27.8595L39.2153 27.7182L39.3253 27.6602L39.4557 27.5769L39.771 27.2653L40.3159 26.9296L40.4282 26.8946L40.4512 26.8922L40.9223 26.5178C40.9634 26.4671 41.0093 26.4623 41.0504 26.4115L41.2171 26.2316L41.5879 26.007L42.2354 25.5445L42.4686 25.3343L42.7271 25.1447L42.9736 24.8404L43.2116 24.6761L43.3396 24.5699L43.6259 24.4237L43.6899 24.3706L43.7975 24.2897L44.48 23.9395L44.5669 23.884L44.6721 23.7801L45.171 23.4492L45.3449 23.3381L45.5467 23.2705L45.659 23.2355C45.7508 23.2258 45.9139 23.2319 46.0588 23.2863L46.2363 23.4301L46.3474 23.604L46.3619 23.7417L46.3329 23.9072L46.2809 24.0751L45.9849 24.5703L45.8556 24.8855C45.8375 24.9338 45.8266 25.051 45.8266 25.051L45.6333 25.4194L45.5656 25.6585L45.4955 25.8747L45.3542 26.0752L45.359 26.1211L45.2043 26.4158C45.2091 26.4617 45.191 26.51 45.1934 26.533L45.1233 26.7492C45.1282 26.7951 45.1125 26.8664 45.1149 26.8893L45.0218 27.1079L44.9191 27.2347C44.8877 27.3773 44.8768 27.4944 44.884 27.5633L44.8889 27.6092C44.965 27.6708 45.0616 27.707 45.2476 27.7107C45.3165 27.7035 45.3877 27.7192 45.4566 27.7119L45.6402 27.6926L45.7803 27.7011L45.9409 27.6842C46.1245 27.6649 46.3287 27.6203 46.5763 27.5478C46.6222 27.543 46.6887 27.5128 46.7346 27.508L46.8469 27.473L47.1586 27.3474L47.2987 27.3559L47.8398 27.2062L47.9957 27.1434L48.2916 27.0891L48.4958 27.0445C48.5392 27.0167 48.5622 27.0143 48.6081 27.0094L48.7663 26.9696L49.0925 26.9817L49.1782 27.1352L49.1746 27.3212L48.9668 27.5518L48.8085 27.5917L48.7421 27.6219L48.4002 27.681L48.178 27.774L47.8868 27.8742L47.1331 28.2087L46.883 28.2581L46.7936 28.2907L46.5049 28.4139L46.2549 28.4634L46.0966 28.5032C46.0531 28.531 45.9843 28.5382 45.9384 28.5431L45.6678 28.6179L45.3767 28.7181L45.1472 28.7422C45.0554 28.7519 44.9889 28.7821 44.9201 28.7893C44.7619 28.8291 44.5577 28.8738 44.4405 28.8629L44.3946 28.8677C44.3717 28.8702 44.2775 28.8568 44.2316 28.8617L43.9248 28.5923L43.8922 28.5029C43.8089 28.3724 43.7691 28.2142 43.8005 28.0716C43.7981 28.0487 43.8138 27.9774 43.8114 27.9545ZM50.0937 25.6931L49.9414 26.0108C49.9185 26.0132 49.9185 26.0132 49.9209 26.0361L49.7396 26.5192C49.7565 26.6799 49.7673 27.0036 49.7818 27.1413C49.7661 27.2126 49.783 27.3732 49.8663 27.5037C49.9194 27.5677 50.0366 27.5786 50.3881 27.6113L50.719 27.6693L51.0174 27.638L51.3568 27.5559L52.9248 27.0198L53.2981 26.8182L54.0953 26.4559L54.2898 26.3195L54.4251 26.282L55.7189 25.5659L55.9593 25.4247L56.2069 25.3522L56.9583 24.9948L57.0247 24.9646C57.4185 24.7376 57.7435 24.5178 58.0503 24.3463L58.9225 23.8138L59.2269 23.6194L59.3163 23.5868L59.5338 23.4479L59.866 23.2969L60.5207 22.9033L60.6464 22.7741L61.6345 22.0205L62.067 21.7198C62.2156 21.5881 62.2386 21.5857 62.3255 21.5302C62.4101 21.4517 62.4765 21.4215 62.6348 21.3817C62.7725 21.3672 62.9561 21.3479 63.0418 21.5013C63.1251 21.6318 62.991 21.9011 62.84 22.0098L62.6661 22.1209L62.538 22.2272L62.0874 22.5762L61.8108 22.8141L61.7673 22.8419L61.3143 23.1679L61.1427 23.302L60.9917 23.4107L60.8866 23.5145L60.7537 23.5749L60.7078 23.5797L60.1425 23.9408C60.099 23.9686 60.0144 24.0471 60.0144 24.0471L59.797 24.186C59.7535 24.2137 59.6001 24.2995 59.5155 24.378L58.6844 24.8598L58.4235 25.0264C58.2495 25.1375 58.078 25.2716 57.9016 25.3597L57.84 25.4358L56.8373 26.0517L56.2877 26.3415L56.086 26.4091L55.889 26.5226C55.6257 26.6663 55.3165 26.8149 55.0302 26.961C54.9202 27.0189 54.8151 27.1228 54.7052 27.1807L54.0094 27.6251L53.56 27.7652L53.2049 27.9185L52.8292 28.0973L52.4463 28.2071L52.3134 28.2675C52.2264 28.323 52.0682 28.3629 51.8664 28.4305L51.4883 28.5862L51.353 28.6237L50.9266 28.7613L50.4954 28.853L49.912 28.8215L49.3093 28.6064L48.9397 28.1812L48.7936 27.8949L48.691 27.5808L48.6319 27.239L48.6355 27.053L48.6138 26.8464L48.7142 26.2558L48.8434 25.9405C48.8749 25.798 48.9365 25.7219 48.9679 25.5794L49.177 25.1397L49.4391 24.7641L49.8016 24.2387L50.0988 23.9755L50.3476 23.6941L50.5349 23.4887L50.8248 23.1566L50.8659 23.1059C50.884 23.0576 50.9481 23.0044 50.9662 22.9561L51.1329 22.7762L51.3045 22.6421L51.6294 22.4223L51.6729 22.3946L51.7575 22.3161C52.2033 21.9212 52.6672 21.4779 53.1842 21.0987L53.4379 20.8632L54.0033 20.5022L54.1977 20.3657L54.3101 20.3307L54.6036 20.2534C54.9588 20.1001 55.1098 19.9914 55.2656 19.9286L55.7584 19.7608L55.988 19.7367C56.0568 19.7294 56.1232 19.6992 56.1921 19.692L56.5364 19.6558C56.6282 19.6462 56.7683 19.6546 56.8601 19.645C57.0026 19.6764 57.0763 19.7151 57.1246 19.7332L57.3915 19.8444C57.5413 19.9447 57.6657 20.0244 57.7309 20.2032L57.8033 20.4508L57.8359 20.5402L57.8395 20.7951L57.7948 21.0318L57.7343 21.3398L57.4722 21.7154L57.2185 21.9509L57.0107 22.1816L56.7546 22.3942L56.0889 22.905L55.9633 23.0342L55.828 23.0716C55.3158 23.4967 54.8422 23.8482 54.3433 24.1791L54.2358 24.26L53.604 24.6512L53.3273 24.8891L52.7366 25.2297L52.3404 25.4338L51.6639 25.6209L51.2762 25.6848L51.0696 25.7065L50.7568 25.6002L50.7097 25.3731L50.7134 25.1871C51.0348 24.7124 51.2317 24.5989 51.5844 24.4226C51.6074 24.4202 51.6484 24.3695 51.6714 24.3671C51.8985 24.32 52.1896 24.2198 52.4167 24.1727L52.6619 24.0773L52.8842 23.9844L53.104 23.8684L53.5921 23.6547L54.068 23.3262L54.5283 23.069C54.7457 22.9302 55.0453 22.6898 55.2628 22.551L55.4138 22.4423L55.624 22.2345L56.4878 21.4012C56.5083 21.3759 56.5905 21.2744 56.6086 21.2261C56.6267 21.1778 56.6267 21.1778 56.6219 21.1319L56.6557 21.0123L56.7367 20.6789C56.7113 20.6584 56.6884 20.6608 56.686 20.6379L56.4903 20.5424C56.442 20.5243 56.4166 20.5037 56.3937 20.5062L56.1412 20.5327L55.983 20.5725L55.8477 20.6099C55.3548 20.7778 54.8511 21.0628 54.5261 21.2825L54.3727 21.3683L54.1118 21.5349L54.0707 21.5856L53.5899 21.8682L53.503 21.9238L53.1164 22.2196L52.8446 22.5035L52.4991 22.7486L52.4326 22.7788L52.0944 23.0928C52.0533 23.1435 52.0074 23.1484 51.9663 23.1991C51.9482 23.2474 51.8866 23.3235 51.866 23.3488L51.5555 23.7063L51.4118 23.8839L51.1834 24.1399L50.9189 24.4926L50.7159 24.7692L50.5721 24.9467C50.531 24.9974 50.4972 25.117 50.4561 25.1677L50.3196 25.4141L50.0937 25.6931ZM70.4548 19.4227L70.4789 19.6522C70.4608 19.7006 70.4656 19.7465 70.468 19.7694C70.4849 19.9301 70.4994 20.0678 70.3169 20.319C70.2191 20.4917 69.9702 20.7731 69.6574 20.6668L69.3928 20.5785L69.0631 20.3115L69.0003 20.1557L68.9424 20.0458L68.9231 19.8622L68.9545 19.7196L68.9098 19.5155L68.8519 19.4056L68.7782 19.3669L68.6538 19.2872L68.5113 19.2557C68.4195 19.2654 68.3482 19.2497 68.2564 19.2593L67.7285 19.3148C67.6114 19.3039 67.522 19.3365 67.0521 19.5019L66.7199 19.6529L65.5856 20.1201L65.2558 20.294L64.9538 20.5114L64.7774 20.5996L64.5093 20.6974L64.0925 20.9268L63.9826 20.9847L63.4837 21.3156L63.1865 21.5789L63.1043 21.6804L62.7999 21.8748L62.6743 22.004L62.5897 22.0825L62.4616 22.1888L62.4 22.2649L62.243 22.5366L62.0509 22.696L61.9687 22.7975L61.7332 22.9847C61.674 23.0837 61.6172 23.2057 61.6244 23.2746L61.6799 23.3615L61.7584 23.4461L62.1135 23.7336L62.2355 23.7904L62.4795 23.904C62.5737 23.9173 62.6957 23.9741 62.7899 23.9874L63.0315 24.078L63.2018 24.153C63.2501 24.1711 63.3673 24.182 63.4132 24.1771L63.6342 24.2931L64.1608 24.4466C64.2297 24.4394 64.3492 24.4732 64.4181 24.466L64.6754 24.4854L64.8916 24.5554L64.9375 24.5506L65.0365 24.6098L65.487 24.7017C65.5559 24.6945 65.6272 24.7102 65.696 24.7029L65.818 24.7597C65.9811 24.7658 66.1719 24.8153 66.3579 24.819C66.4497 24.8094 66.6152 24.8384 66.707 24.8287L67.224 24.8904L67.7554 25.0898L68.0211 25.4099L68.0754 25.7059L68.0694 25.8689L67.928 26.0694L67.7407 26.2747L67.3904 26.474L67.2757 26.486L67.1476 26.5923L66.836 26.7179L66.7876 26.6998L66.5654 26.7927L65.9735 26.9014L64.9479 27.0788L64.6496 27.1101L63.7364 27.2525L63.461 27.2815L63.165 27.3358L62.8184 27.349L62.5502 27.4468L62.16 27.4878L61.5585 27.5046L61.1913 27.5432L60.9642 27.5903L60.9872 27.5879L60.5813 27.7001L60.4665 27.7122L60.1525 27.8148L59.9689 27.8341C59.8336 27.8716 59.7031 27.9549 59.5678 27.9923L59.2767 28.0925L59.0037 28.1444L58.7537 28.1939L58.1944 28.3919L58.082 28.4269L57.7655 28.5066L57.6737 28.5162L57.5868 28.5718L57.4285 28.6116L57.1978 28.4038L57.1351 28.248L57.21 28.0777L57.4093 27.9871L57.6291 27.8712L58.1884 27.6732L58.482 27.5959L58.796 27.4933L59.0666 27.4185L59.6827 27.0985L59.9811 27.0671L60.1598 27.0019L60.5065 26.9887L60.7565 26.9392L60.9353 26.874L61.4125 26.7774L61.7978 26.6905L62.1396 26.6314L62.6168 26.5348L62.9381 26.5011L63.1169 26.4359L63.1881 26.4516L63.3488 26.4347C63.4176 26.4275 63.4152 26.4045 63.4841 26.3973C63.5046 26.3719 63.6375 26.3115 63.681 26.2838L64.2729 26.1751L64.6075 26.0472L65.4107 25.9627L65.5436 25.9024L65.7731 25.8782L65.5823 25.8287L65.3178 25.7405L65.104 25.6933C65.0351 25.7006 64.9385 25.6643 64.8926 25.6691L64.7754 25.6582L64.1474 25.4226C64.1015 25.4274 64.0737 25.3839 64.0507 25.3864L63.8345 25.3163L63.4734 25.1918L63.2342 25.1241C63.163 25.1084 63.1811 25.0601 63.0869 25.0468C62.9444 25.0154 62.8936 24.9743 62.5168 24.9211C62.3513 24.8921 62.2547 24.8558 62.1049 24.7555L62.0566 24.7374C62.0107 24.7422 61.9394 24.7265 61.9165 24.7289L61.7027 24.6818C61.6568 24.6866 61.5855 24.6709 61.5626 24.6733L61.3874 24.5525L61.2884 24.4933L61.3138 24.5138L61.0674 24.3773L60.7377 24.1103L60.6399 23.8421L60.6254 23.7044L60.629 23.5184C60.6399 23.4012 60.6967 23.2792 60.7922 23.0836L60.8308 23.0099C60.8284 22.987 60.8671 22.9133 60.8647 22.8903L61.1039 22.5171L61.348 22.1898L61.5099 21.964L61.5944 21.8855C61.615 21.8601 61.6717 21.7381 61.6693 21.7152L61.8638 21.5787L61.9254 21.5026L62.1791 21.2671L62.4812 21.0497L62.8266 20.8046L62.9342 20.7237L63.2591 20.5039L63.2797 20.4785L63.4331 20.3928L63.5176 20.3143L63.8861 20.0667L64.0214 20.0293L64.507 19.7926L64.7039 19.6791L64.8827 19.6139L65.4831 19.3652L65.8611 19.2094L66.3468 18.9728L66.5026 18.91L66.6149 18.875C66.6149 18.875 66.6379 18.8725 66.7043 18.8424L66.929 18.7723C67.0619 18.712 67.1972 18.6745 67.3325 18.6371L67.9449 18.5031L68.817 18.4115L69.2857 18.455L69.4258 18.4635L69.7338 18.5239L70.0539 18.6991L70.2338 18.8659L70.2894 18.9528L70.3847 19.1981L70.4548 19.4227ZM77.4472 11.4249L77.789 11.3658L78.0922 11.3804L78.1079 11.3091L78.6383 10.3948L78.6975 10.2958L78.9343 9.8996L79.1578 9.59766L79.2376 9.47326L79.4538 9.10247L79.5155 9.02638C79.513 9.00343 79.5312 8.95512 79.5312 8.95512L79.6749 8.77758L79.7547 8.65317L79.8163 8.57709L79.9142 8.40437L79.9118 8.38142L80.0072 8.18576L80.2355 7.92972L80.3974 7.70386L80.5025 7.6L80.5847 7.49855L80.7853 7.19902L81.0112 6.92003L81.2588 6.8476L81.4678 6.84884L81.7468 7.07476L81.8373 7.27408L81.8965 7.61592L81.7781 7.814L81.5678 8.02173L81.4289 8.24517L81.2465 8.49638L81.1281 8.69446L80.8333 8.98068L80.6327 9.28021L80.1809 9.83819L79.433 10.8914L79.253 11.1655L79.4801 11.1185L79.8449 11.0569L80.5262 10.9157L81.3778 10.8494L82.0361 10.7106L82.6787 10.643L82.8925 10.6902L83.0531 10.6733L83.3587 10.7108C83.4071 10.7289 83.5701 10.735 83.616 10.7302L83.8637 10.6577L84.1922 10.6928C84.3069 10.6807 84.4169 10.6228 84.5316 10.6107L84.6923 10.5938L84.9471 10.5903L85.2298 10.6302C85.2527 10.6277 85.324 10.6435 85.347 10.6411L85.5789 10.6399L86.2154 10.7354C86.2408 10.7559 86.335 10.7692 86.358 10.7668L86.7252 10.7282L86.9208 10.8237L87.3847 10.8213C87.4306 10.8165 87.4789 10.8347 87.5018 10.8322L87.6516 10.9325C87.6516 10.9325 87.6492 10.9096 87.7434 10.9229L88.5575 11.1622C88.5828 11.1827 88.6312 11.2008 88.6541 11.1984L89.1324 11.3338C89.1807 11.3519 89.1807 11.3519 89.2037 11.3495C89.229 11.37 89.2544 11.3906 89.2314 11.393L89.3945 11.399L89.7327 11.5259L89.8414 11.6769L89.9887 11.7543L90.1494 11.7374L90.3571 11.9476L90.583 12.1095L90.6591 12.1711C90.705 12.1663 90.7303 12.1868 90.7533 12.1844L91.0697 12.5456L91.0951 12.5661L91.2847 12.8247L91.3982 13.0216L91.5588 13.4456L91.6493 13.6449L91.6783 13.9203L91.5586 14.3273L91.4607 14.5L91.2953 14.471L91.166 14.3454L91.0562 13.9625C91.0514 13.9166 91.0212 13.8501 91.0163 13.8042C90.9584 13.6943 90.8449 13.4974 90.7917 13.4334L90.6179 13.1036L90.4283 12.8451L90.2205 12.6349L89.9947 12.473L89.9717 12.4754L89.6009 12.2591C89.5297 12.2434 89.4077 12.1866 89.4077 12.1866C89.3847 12.189 89.3594 12.1685 89.3594 12.1685L89.1154 12.0549L88.9729 12.0235C88.927 12.0283 88.7385 12.0017 88.6323 11.8736L88.2735 11.7721C88.1588 11.7842 87.9703 11.7576 87.8556 11.7696L87.6442 11.7454L87.3543 11.6367L87.0004 11.5811C86.7407 11.5387 86.5088 11.5399 86.2286 11.523C86.0909 11.5374 85.9025 11.5108 85.7877 11.5229L85.3903 11.495C85.3444 11.4999 85.2731 11.4842 85.2502 11.4866L85.0207 11.5107L84.8395 11.5529L84.4191 11.5275C84.3503 11.5347 84.279 11.519 84.2331 11.5239L84.0266 11.5456L83.7234 11.531C83.5374 11.5274 83.3538 11.5467 83.1931 11.5635L83.1037 11.5961L83.0325 11.5804C82.9636 11.5877 82.8924 11.572 82.8235 11.5792L82.6628 11.5961C81.9284 11.6733 81.194 11.7505 80.462 11.8506L80.3726 11.8832L80.1963 11.9713L79.5331 12.0643L79.2601 12.1162L78.4508 12.3636L78.2708 12.6378L78.0134 13.0593L77.9614 13.2272L77.8334 13.3335C77.7126 13.5086 77.6304 13.6101 77.5325 13.7828C77.535 13.8057 77.5192 13.877 77.5192 13.877L77.1955 14.3287L76.9043 14.8698L76.7267 15.1669L76.3413 15.6947L75.7082 16.7358L75.5692 16.9593L75.191 17.5559L75.1367 17.7008L75.0134 17.853C74.9724 17.9037 74.9361 18.0004 74.8974 18.074L74.7863 18.341L74.6655 18.5161L74.5241 18.7166L74.3803 18.8941L74.2414 19.1176L74.2027 19.1912L74.1326 19.4074L73.6953 20.1031L73.4331 20.4787L72.9136 21.2759L72.5656 21.939L72.2128 22.5561C72.1789 22.6757 72.1512 22.6322 72.0944 22.7542L71.7778 23.2748L71.7005 23.4221L71.4963 23.9077C71.4649 24.0502 71.4056 24.1492 71.3742 24.2918L71.1785 24.6372L70.9767 25.1457L70.8498 25.4839L70.8619 25.5986L70.8558 25.7617L70.7036 26.0794C70.7132 26.1712 70.6359 26.3185 70.6455 26.4103L70.6443 26.6193L70.6672 26.6169L71.0707 26.4816L71.2265 26.4189L71.4053 26.3537L71.5768 26.2196L71.7532 26.1315L71.9296 26.0433L72.1011 25.9093L72.2594 25.8694L72.4587 25.7789L72.5662 25.698L72.7039 25.6835L73.2693 25.3224L73.6836 25.07L73.8986 24.9082L74.1004 24.8406L74.1873 24.785L74.8216 24.4167L75.0801 24.2271L75.1695 24.1945L76.1516 23.604L76.4101 23.4144L76.5635 23.3287L76.8063 23.2103L77.1132 23.0389L77.1929 22.9145L77.536 22.6464L77.8017 22.5256L78.111 22.3771L78.6739 21.9931L78.7404 21.9629L78.866 21.8337L79.2115 21.5885L79.3214 21.5305L79.3879 21.5004L79.4314 21.4726L79.5824 21.3639L79.8554 21.312L80.0051 21.4123L80.0498 21.6164L80.0461 21.8024L79.8311 21.9643L79.7006 22.0476L79.6596 22.0983L79.0833 22.5765L79.0628 22.6019L78.8888 22.713L78.6533 22.9002L78.3078 23.1453L78.0674 23.2866L77.8656 23.3542L77.5612 23.5487L77.4102 23.6574L77.3691 23.7081L77.0671 23.9255L76.9185 24.0571L76.3689 24.3469L76.0971 24.6307L75.9412 24.6935L75.6755 24.8143L75.6525 24.8167C75.609 24.8444 75.5474 24.9205 75.5269 24.9459C75.4858 24.9966 75.4194 25.0268 75.3988 25.0522L75.2635 25.0896L75.0872 25.1777L74.9772 25.2357L74.7961 25.278C74.7731 25.2804 74.7091 25.3335 74.7091 25.3335L74.5786 25.4168L74.1461 25.7175L73.9287 25.8564L73.6979 26.0895L73.6291 26.0967L73.4141 26.2586L73.0613 26.4348L72.6772 26.7537L72.4525 26.8237L72.1046 27.0459L71.5296 27.3152L70.7069 27.6569L70.411 27.7112L70.2938 27.7003L70.1283 27.6713L69.9882 27.6628L69.7008 27.577L69.5595 27.3366L69.4919 27.1349L69.4629 26.8595C69.4581 26.8136 69.4714 26.7193 69.469 26.6964C69.475 26.5333 69.5222 26.3195 69.6008 25.9632C69.5959 25.9173 69.6274 25.7748 69.6225 25.7289L69.7204 25.5562L69.7132 25.4873L69.747 25.3678L69.886 25.1443L69.9536 24.9052L70.1578 24.4196L70.2557 24.2469C70.2509 24.201 70.2871 24.1044 70.2847 24.0814L70.4055 23.9063L70.5058 23.7565C70.5469 23.7058 70.5602 23.6116 70.6013 23.5609L70.6991 23.3882L70.8538 23.0934L71.0133 22.8446L71.1112 22.6719L71.273 22.4461L71.3504 22.2987L71.5099 22.0499L71.6718 21.8241C71.6669 21.7782 71.6851 21.7299 71.6826 21.7069L71.8059 21.5547L71.8856 21.4303L72.0451 21.1815L72.1611 20.9605L72.2952 20.6912L72.4112 20.4701L72.5707 20.2213C72.5683 20.1984 72.5912 20.196 72.5888 20.173L72.8667 19.7261L72.9803 19.4822L73.2678 19.1271L73.466 18.8046C73.5844 18.6065 73.7004 18.3855 73.8804 18.1113L73.9372 17.9893L74.1244 17.784C74.3588 17.3649 74.6089 16.8746 74.8458 16.4784L74.9484 16.3516L75.3061 15.7803C75.4498 15.6028 75.4885 15.5291 75.5658 15.3817L75.6818 15.1607L75.9077 14.8817L75.996 14.6172L76.269 14.1244L76.3379 14.1172L76.3741 14.0206L76.5904 13.6498L76.8296 13.2766L76.9915 13.0507L77.0664 12.8804L77.2924 12.6014L77.3057 12.5072L77.1909 12.5193L76.9203 12.5941L76.2366 12.7124L75.5578 12.8765L75.3536 12.9212L75.1954 12.961L74.6131 13.1615L74.4344 13.2267L73.2953 13.648L73.1189 13.7362L72.9631 13.799L72.7637 13.8895L72.0583 14.2421L71.8614 14.3556L71.389 14.4981L70.9711 14.4956L70.732 14.4279L70.5798 14.3047L70.3998 14.138L70.3455 13.842L70.3697 13.6307C70.406 13.534 70.4398 13.4145 70.6802 13.2732L70.8336 13.1874C71.1839 12.9882 71.3833 12.8976 71.7432 12.7902L72.0368 12.7129L72.3871 12.5137L72.7748 12.4497L72.9174 12.4811L73.8233 12.2699L73.8898 12.2397L74.5227 12.0804L74.9999 11.9838L75.0711 11.9995L75.2294 11.9597L75.2982 11.9525L75.9034 11.7496L76.0592 11.6868L76.1969 11.6724L76.5823 11.5855L76.6487 11.5553L76.7659 11.5662L77.1488 11.4563L77.4472 11.4249ZM84.2806 23.4457L84.1066 23.5568L83.8529 23.7923L83.5461 23.9638L83.3673 24.029L83.2187 24.1607L83.1547 24.2138C83.0653 24.2464 82.9578 24.3273 82.8684 24.3599L82.6533 24.5217L82.5434 24.5797L82.1291 24.8321L82.0445 24.9106L81.7014 25.1787L81.525 25.2668C81.5045 25.2922 81.4175 25.3477 81.3946 25.3502L81.0926 25.5675L80.9392 25.6533L80.7833 25.716L80.4234 25.8235L80.1189 26.0179L79.8025 26.0976L79.4787 26.1084L79.2106 26.2062L78.5788 26.1566C78.3421 26.1119 78.144 25.9935 77.9592 25.7808L77.83 25.6552L77.8337 25.4692C77.7938 25.3109 77.7854 25.0102 77.8326 24.7964L77.8181 24.6587L77.9305 24.1828L78.0659 23.7045C78.0635 23.6815 78.1021 23.6078 78.0973 23.5619L78.2471 23.2213L78.3885 23.0208C78.3861 22.9979 78.4042 22.9496 78.4042 22.9496L78.5915 22.7443L78.6869 22.5486C78.7232 22.452 78.8053 22.3505 78.8416 22.2539L78.8935 22.086L78.9684 21.9157L79.0301 21.8396C79.0893 21.7406 79.1436 21.5956 79.2053 21.5196L79.3805 21.1995L79.4372 21.0775L79.6789 20.7272L79.993 20.1837L80.0788 19.8963L80.3386 19.4977L80.4365 19.325L80.509 19.1317L80.6141 19.0279L80.8642 18.5375L81.0599 18.1921L81.2882 17.936C81.4115 17.7839 81.7364 17.5641 82.0807 17.5279C82.2462 17.5569 82.4322 17.5606 82.6399 17.7708L82.6568 17.9314L82.6447 18.2576L82.4622 18.5088L82.2182 18.8361L81.9234 19.1223L81.6105 19.4568L81.5586 19.6247L81.1683 20.1066L80.9726 20.452L80.8361 20.6984L80.6923 20.876C80.6766 20.9472 80.6814 20.9931 80.6838 21.0161L80.4688 21.1779C80.4712 21.2009 80.4325 21.2745 80.4144 21.3229L80.1111 21.7492L79.8284 22.1502L79.6919 22.3966L79.5965 22.5922L79.3898 23.0548L79.2871 23.1816C79.205 23.2831 79.2074 23.306 79.1893 23.3544L79.0926 23.759L79.0587 23.8786L78.9004 24.3593L78.8339 24.8304L78.8436 24.9222L78.8266 25.2024L78.8338 25.2712L78.9945 25.2544L79.1576 25.2604L79.247 25.2278L79.3822 25.1904L79.5224 25.1989L79.6371 25.1868C79.7954 25.147 79.9258 25.0636 80.107 25.0214L80.3063 24.9308L80.5081 24.8632C80.5286 24.8379 80.5721 24.8101 80.5721 24.8101L80.9176 24.5649L81.0022 24.4864L81.5385 24.2908L81.8912 24.1145L82.07 24.0493L82.7888 23.6025L82.9627 23.4914L83.3082 23.2463L83.5873 23.0313L83.7588 22.8973L83.8941 22.8599L84.0222 22.7536L84.3012 22.5386L84.4522 22.4299L84.6443 22.2705L84.7265 22.1691L85.0744 21.9469L85.1795 21.843L85.7014 21.5097L85.8958 21.3732L85.9393 21.3455L86.0879 21.2138L86.1338 21.209L86.2365 21.0822L86.3899 20.9965L86.4721 20.895L86.7101 20.7308L86.8611 20.6221L86.9481 20.5665L87.0785 20.4832C87.2295 20.3745 87.3552 20.2453 87.5497 20.1088L87.6753 19.9796L87.9302 19.976L88.1307 20.1174L88.1753 20.3215L87.9518 20.6235L87.8189 20.6838L87.6933 20.8131L87.3454 21.0353L86.6798 21.5461L86.4877 21.7055L86.2158 21.9893L86.06 22.0521L85.9501 22.1101C85.5659 22.4289 85.1842 22.7707 84.8181 23.0412L84.6949 23.1934L84.6079 23.2489L84.3651 23.3672L84.2806 23.4457ZM85.1134 11.9418L85.1412 11.9853C85.1786 12.1206 85.216 12.2559 85.1942 12.4902C85.106 12.7547 84.926 13.0289 84.45 13.3574L84.1963 13.5929L84.1118 13.6714C84.0067 13.7752 83.8351 13.9093 83.753 14.0107L83.3785 14.4214L83.0426 14.7583L82.894 14.89C82.7865 14.9709 82.6259 14.9878 82.4652 15.0046L82.3879 14.7111L82.4012 14.6169L82.6429 13.8258L82.7179 13.6555L82.9885 13.1397L83.1456 12.868L83.2253 12.7436L83.4078 12.4924L83.5564 12.3607L83.682 12.2315L83.9901 11.8511L84.251 11.6844L84.4298 11.6192C84.8248 11.6241 85.0023 11.7679 85.1134 11.9418ZM92.9407 19.4262L92.9456 19.4721C92.9323 19.5663 92.9395 19.6351 92.8017 20.0905C92.786 20.1618 92.757 20.3272 92.7208 20.4239L92.525 20.7693L92.2919 20.9794L92.107 21.2077L91.9246 21.4589L91.7144 21.6666C91.3628 22.0749 90.8917 22.4492 90.3976 22.826L90.3541 22.8538L90.0774 23.0917L89.9446 23.1521L89.8805 23.2052L89.6885 23.3646L89.5447 23.5422L89.4094 23.5796C89.3913 23.6279 89.3297 23.704 89.3297 23.704L89.1327 23.8175L89.0663 23.8477L88.8211 23.9431L88.6653 24.0059L88.5759 24.0385C88.5553 24.0638 88.5143 24.1146 88.4913 24.117L88.4249 24.1472C88.0286 24.3512 87.7882 24.4925 87.5636 24.5625L87.502 24.6386L87.3667 24.6761L87.0502 24.7557L86.8895 24.7726L86.4511 24.7955C86.2445 24.8172 86.0585 24.8135 85.9184 24.8051C85.8012 24.7942 85.6611 24.7857 85.3966 24.6975L85.3483 24.6794C85.1067 24.5887 84.7818 24.3676 84.719 24.2118L84.6309 24.0354L84.5862 23.8313L84.6298 23.3626L84.7615 23.0703L84.9367 22.7503L85.676 21.8372L85.9249 21.5558L86.1351 21.3481L86.2173 21.2466L86.6836 20.8264L86.7041 20.801C86.7247 20.7756 86.7863 20.6995 86.8298 20.6718L87.0605 20.4387L87.1656 20.3348L87.673 19.8638L87.8168 19.6863L87.8856 19.679L88.0983 19.4943L88.3338 19.3071L88.6129 19.0921L89.0381 18.7226L89.1456 18.6417L89.2532 18.5607L88.9089 18.5969C88.863 18.6018 88.8195 18.6295 88.7507 18.6368C88.5924 18.6766 88.3883 18.7213 88.1817 18.743L87.6104 18.8262L87.3277 18.7863L87.1321 18.6909L86.9243 18.4807L86.9183 18.2028L87.1068 17.7886L87.3931 17.6424L87.6637 17.5676L87.9597 17.5133L88.1275 17.5653L88.5249 17.5931C88.8463 17.5593 89.1241 17.5533 89.4502 17.5655L89.7945 17.5293L90.1411 17.516L90.57 17.4014L90.6642 17.4147L90.9806 17.335C91.0241 17.3072 91.1135 17.2746 91.1341 17.2493L91.3902 17.0367L91.5641 16.9256L91.5871 16.9232L91.761 16.8121L91.9652 16.7674L92.1464 16.7252C92.2817 16.6878 92.5088 16.6407 92.6718 16.6468L92.8095 16.6323L92.9291 16.6661C93.0233 16.6794 93.1453 16.7362 93.219 16.7749L93.7601 16.6252L94.0283 16.5274L94.3702 16.4683L94.7253 16.3149L94.9065 16.2727L95.1336 16.2256L95.5926 16.1773L95.7738 16.1351L96.0746 16.1267C96.1434 16.1194 96.2352 16.1098 96.3246 16.0772L96.5541 16.0531C96.623 16.0458 96.6894 16.0157 96.7583 16.0084L96.8911 15.948L96.9853 15.9613L97.123 15.9469L97.2583 15.9094L97.419 15.8926L97.6739 15.889L97.901 15.8419L98.0664 15.8709L98.1353 15.8637L98.3213 15.8673L98.4385 15.8782C98.6245 15.8819 98.8612 15.9266 99.1692 15.9871L99.2175 16.0052L99.3093 15.9955L99.528 16.0886L99.505 16.091C99.7164 16.1152 99.7212 16.1611 99.7719 16.2022C99.8202 16.2203 99.8432 16.2179 99.8661 16.2155L100.196 16.4825L100.307 16.6564L100.359 16.9294L100.337 17.1637L100.246 17.4053L100.074 17.7483C99.9988 17.9186 99.9577 17.9693 99.8961 18.0454L99.7728 18.1976L99.5047 18.2954L99.3645 18.2869L99.3126 18.0139L99.3235 17.8968L99.3526 17.7313L99.4251 17.538L99.5568 17.2457L99.6172 16.9377L99.61 16.8689L99.4167 16.7964L99.244 16.6985L98.8901 16.6429C98.3731 16.5812 97.7535 16.6463 97.4092 16.6825L97.0649 16.7187L96.792 16.7706C96.6772 16.7827 96.5878 16.8153 96.4984 16.8479C96.432 16.8781 96.3402 16.8877 96.2254 16.8998C95.2228 17.0748 94.521 17.2413 93.8216 17.4309L93.6428 17.4961L93.5583 17.5746L93.1198 17.5974L92.668 17.7145L92.0351 17.8739L91.8816 17.9596L92.006 18.0394L92.0544 18.0575L92.25 18.1529L92.6582 18.5045L92.7718 18.7014L92.9155 18.9648L92.9407 19.4262ZM91.5334 20.3862L91.5974 20.3331C91.7569 20.0843 91.8294 19.891 91.9019 19.6978L91.8874 19.5601L91.9527 19.298C91.9455 19.2291 91.9636 19.1808 91.9539 19.089C91.9262 19.0455 91.8175 18.8945 91.8151 18.8716L91.7897 18.851L91.617 18.7532L91.4213 18.6577L91.2788 18.6263L91.1363 18.5949L90.844 18.4632C90.844 18.4632 90.7981 18.468 90.7727 18.4474L90.6241 18.5791C90.3886 18.7663 90.0708 19.0549 89.3774 19.5223L88.7758 19.98L88.5197 20.1925L88.4122 20.2734C88.2612 20.3821 88.115 20.5367 87.964 20.6454L87.8384 20.7746L87.5617 21.0125L87.3334 21.2686L87.0978 21.4557L86.9516 21.6103L86.6774 21.8712C86.6363 21.9219 86.5131 22.0741 86.495 22.1224L86.3174 22.4195L86.1555 22.6454C86.0576 22.8181 85.9621 23.0138 85.9102 23.1816C85.8896 23.207 85.8945 23.2529 85.8945 23.2529L85.8606 23.3725L85.857 23.5585L85.8412 23.6298L85.8557 23.7675L86.0079 23.8907L86.1299 23.9475L86.1758 23.9427C86.8921 23.9138 87.0455 23.8281 87.7534 23.4984C88.1085 23.3451 88.4383 23.1712 88.7246 23.0251L88.7681 22.9973L89.1595 22.7473L89.5594 22.3572L89.72 22.3403L90.3168 21.8367L90.4219 21.7329C90.591 21.5759 90.7553 21.373 90.9221 21.193L90.9813 21.094L91.1891 20.8633L91.3739 20.635C91.3715 20.6121 91.3896 20.5638 91.3896 20.5638L91.5334 20.3862ZM98.1101 20.4375L98.1922 20.3361C98.1922 20.3361 98.2128 20.3107 98.2103 20.2878L98.342 19.9955L98.4738 19.7032L98.6876 19.3094L99.1238 18.3818L99.2193 18.1862L99.2785 18.0871L99.5322 17.4108L99.8815 16.5387C99.9153 16.4191 99.9757 16.1111 100.016 15.8285C100.04 15.6171 100 15.4589 99.9879 15.3441C99.9686 15.1605 99.9566 15.0458 99.988 14.9032C100.035 14.6894 100.312 14.4515 100.564 14.425C101.161 14.3623 101.429 14.7054 101.329 15.296C101.271 15.627 101.16 15.8939 101.051 16.1838L100.714 17.1706L100.52 17.5389L100.432 17.8035L100.341 18.045L100.064 18.4919L100.035 18.6574L99.9113 18.8096C99.7929 19.0076 99.6406 19.3253 99.5452 19.521L99.2335 20.0874C99.1996 20.207 99.1549 20.4437 99.1162 20.5174L98.9616 20.8121L99.0051 20.7843L99.2745 20.4776L99.8133 19.864L99.8725 19.765L99.9087 19.6684L100.249 19.3773L100.332 19.2759L100.649 18.9872L100.713 18.9341L101.269 18.4812L101.358 18.4486L101.704 18.2035C101.77 18.1733 101.832 18.0972 101.898 18.067C102.075 17.9789 102.448 17.7772 102.611 17.7833L102.703 17.7736L103.21 17.7435L103.556 17.9392L103.794 18.2159L103.903 18.5988L103.925 18.8054L103.926 19.0373L103.909 19.3175L103.903 19.4806L103.927 19.7101L103.85 20.2983C103.857 20.3672 103.839 20.4155 103.846 20.4843L103.912 20.6631L103.947 20.7755C103.977 20.8419 104.037 20.9748 104.063 20.9953L104.098 21.1077L104.206 21.2587C104.232 21.2792 104.209 21.2816 104.232 21.2792L104.448 21.3493C104.726 21.3433 105.022 21.289 105.404 21.1791L105.798 20.9521L105.957 20.9123C106.046 20.8797 106.176 20.7963 106.243 20.7662L106.424 20.7239L106.754 20.55L107.413 20.2022L107.482 20.195L107.858 20.0163L108.6 19.5671L108.876 19.3292L108.989 19.2942L109.467 18.9886L109.616 18.857L109.782 18.677L109.977 18.5406L110.588 18.1747L111.32 17.6337L111.448 17.5274L111.727 17.3124L111.837 17.2545L112.114 17.0165L112.366 16.99L112.516 17.0903L112.597 17.1978L112.578 17.4551L112.365 17.6399L111.981 17.9587C111.727 18.1942 111.512 18.356 111.295 18.4949L110.977 18.7835L110.757 18.8994L110.437 19.1651L110.176 19.3318C110.004 19.4658 109.764 19.6071 109.46 19.8015L109.114 20.0467L108.157 20.6577L108.111 20.6626C108.027 20.7411 107.896 20.8244 107.835 20.9005L107.533 21.1179L107.221 21.2434C107.132 21.276 107.027 21.3799 106.94 21.4354L106.743 21.549L106.495 21.6214L106.225 21.6962L106.066 21.7361L105.979 21.7916L105.89 21.8242L105.823 21.8544C105.78 21.8822 105.691 21.9148 105.553 21.9293L105.351 21.9969L105.129 22.0898L104.879 22.1393L104.601 22.1453L104.468 22.2057L104.236 22.2069C103.984 22.2334 103.745 22.1657 103.528 22.0956L103.505 22.098L103.409 22.0618C103.167 21.9712 102.957 21.738 102.859 21.4698C102.824 21.3575 102.81 21.2198 102.793 21.0591L102.764 20.7837L102.827 20.4987L102.914 20.0022L103.059 19.1748C103.054 19.1289 103.068 19.0347 103.063 18.9888C103.062 18.7569 102.996 18.5781 102.854 18.5467C102.785 18.5539 102.673 18.589 102.606 18.6191C102.606 18.6191 102.588 18.6675 102.522 18.6976L102.371 18.8063L102.153 18.9452L101.956 19.0587L101.659 19.322L101.549 19.38L101.344 19.6336L101.136 19.8643L100.88 20.0768C100.798 20.1783 100.636 20.4041 100.551 20.4826L100.359 20.642L100.188 20.7761L100.126 20.8522L99.836 21.1843L99.7925 21.2121L99.621 21.3461L99.5159 21.45L99.4543 21.5261L99.1921 21.9017L98.9384 22.1372L98.5711 22.6167L97.9574 23.4005L97.8342 23.5527L97.4295 23.8969L97.2253 23.9415C96.9427 23.9016 96.8292 23.7047 96.7386 23.5054C96.6964 23.3242 96.688 23.0234 96.9477 22.6249L97.0818 22.3555L97.4963 21.6622L97.6074 21.3953L97.785 21.0982L97.8213 21.0016L98.1101 20.4375ZM121.006 14.1095L121.031 14.3391C121.012 14.3874 121.017 14.4333 121.02 14.4562C121.037 14.6169 121.051 14.7546 120.869 15.0058C120.771 15.1785 120.522 15.4599 120.209 15.3536L119.944 15.2653L119.615 14.9983L119.552 14.8425L119.494 14.7326L119.475 14.549L119.506 14.4065L119.461 14.2023L119.404 14.0924L119.33 14.0537L119.205 13.974L119.063 13.9426C118.971 13.9522 118.9 13.9365 118.808 13.9461L118.28 14.0016C118.163 13.9907 118.074 14.0233 117.604 14.1887L117.272 14.3397L116.137 14.807L115.807 14.9808L115.505 15.1982L115.329 15.2864L115.061 15.3842L114.644 15.6136L114.534 15.6716L114.035 16.0024L113.738 16.2657L113.656 16.3672L113.352 16.5616L113.226 16.6908L113.141 16.7693L113.013 16.8756L112.952 16.9517L112.795 17.2234L112.603 17.3828L112.52 17.4843L112.285 17.6715C112.226 17.7705 112.169 17.8925 112.176 17.9614L112.232 18.0483L112.31 18.1329L112.665 18.4204L112.787 18.4772L113.031 18.5908C113.125 18.6041 113.247 18.6609 113.342 18.6742L113.583 18.7648L113.753 18.8398C113.802 18.8579 113.919 18.8688 113.965 18.864L114.186 18.9799L114.712 19.1334C114.781 19.1262 114.901 19.16 114.97 19.1528L115.227 19.1722L115.443 19.2423L115.489 19.2374L115.588 19.2966L116.039 19.3885C116.108 19.3813 116.179 19.397 116.248 19.3897L116.37 19.4465C116.533 19.4526 116.724 19.5022 116.91 19.5058C117.001 19.4962 117.167 19.5252 117.259 19.5155L117.776 19.5772L118.307 19.7766L118.573 20.0967L118.627 20.3927L118.621 20.5557L118.48 20.7562L118.292 20.9615L117.942 21.1608L117.827 21.1729L117.699 21.2791L117.388 21.4047L117.339 21.3866L117.117 21.4796L116.525 21.5882L115.5 21.7656L115.201 21.7969L114.288 21.9393L114.013 21.9683L113.717 22.0226L113.37 22.0358L113.102 22.1336L112.712 22.1746L112.11 22.1914L111.743 22.23L111.516 22.2771L111.539 22.2747L111.133 22.387L111.018 22.399L110.704 22.5016L110.52 22.5209C110.385 22.5584 110.255 22.6417 110.119 22.6791L109.828 22.7793L109.555 22.8312L109.305 22.8807L108.746 23.0787L108.634 23.1137L108.317 23.1934L108.225 23.203L108.138 23.2586L107.98 23.2984L107.749 23.0906L107.687 22.9348L107.762 22.7645L107.961 22.6739L108.181 22.558L108.74 22.36L109.034 22.2827L109.348 22.1801L109.618 22.1053L110.234 21.7853L110.533 21.7539L110.711 21.6887L111.058 21.6755L111.308 21.626L111.487 21.5608L111.964 21.4642L112.349 21.3773L112.691 21.3182L113.168 21.2216L113.49 21.1879L113.669 21.1227L113.74 21.1384L113.9 21.1215C113.969 21.1143 113.967 21.0913 114.036 21.0841C114.056 21.0587 114.189 20.9983 114.233 20.9706L114.825 20.862L115.159 20.734L115.962 20.6495L116.095 20.5892L116.325 20.565L116.134 20.5155L115.869 20.4273L115.656 20.3801C115.587 20.3874 115.49 20.3511 115.444 20.3559L115.327 20.3451L114.699 20.1094C114.653 20.1142 114.625 20.0707 114.602 20.0732L114.386 20.0031L114.025 19.8786L113.786 19.8109C113.715 19.7952 113.733 19.7469 113.639 19.7336C113.496 19.7022 113.445 19.6611 113.068 19.6079C112.903 19.5789 112.806 19.5426 112.657 19.4423L112.608 19.4242C112.562 19.429 112.491 19.4133 112.468 19.4157L112.254 19.3686C112.208 19.3734 112.137 19.3577 112.114 19.3601L111.939 19.2393L111.84 19.1801L111.865 19.2006L111.619 19.0641L111.289 18.7971L111.192 18.5289L111.177 18.3912L111.181 18.2052C111.192 18.088 111.248 17.9661 111.344 17.7704L111.382 17.6967C111.38 17.6738 111.419 17.6001 111.416 17.5771L111.656 17.2039L111.9 16.8766L112.061 16.6508L112.146 16.5723C112.167 16.5469 112.223 16.4249 112.221 16.402L112.415 16.2655L112.477 16.1894L112.731 15.9539L113.033 15.7365L113.378 15.4914L113.486 15.4105L113.811 15.1907L113.831 15.1653L113.985 15.0796L114.069 15.0011L114.438 14.7535L114.573 14.7161L115.059 14.4794L115.256 14.3659L115.434 14.3007L116.035 14.052L116.413 13.8962L116.898 13.6596L117.054 13.5968L117.167 13.5618C117.167 13.5618 117.19 13.5594 117.256 13.5292L117.481 13.4591C117.614 13.3988 117.749 13.3613 117.884 13.3239L118.497 13.1899L119.369 13.0983L119.837 13.1418L119.977 13.1503L120.285 13.2108L120.605 13.386L120.785 13.5527L120.841 13.6396L120.936 13.8849L121.006 14.1095Z" fill="#FFC700"/>
</svg>
