<svg width="187" height="60" viewBox="0 0 187 60" fill="none" xmlns="http://www.w3.org/2000/svg">
<path opacity="0.4" d="M33.7417 30.1293L33.5485 30.0568L33.4796 30.0641L33.1571 29.8659L32.9893 29.814L32.5798 29.6714C32.5339 29.6762 32.5291 29.6303 32.5061 29.6327L32.366 29.6242L32.1317 29.6024L31.9336 29.484L31.8599 29.4454L31.5676 29.3137L30.919 29.1034L30.5603 29.0019L30.0337 28.8484L29.9854 28.8303L29.5324 28.7154L29.0613 28.6489L28.8451 28.5788L28.6978 28.5015L28.4309 28.3903L27.9731 28.2296L27.9018 28.2139L27.3197 27.9734C27.2254 27.9601 27.0322 27.8876 26.9356 27.8514L26.3606 27.6798L25.6963 27.5408L25.0731 27.351L24.8339 27.2833L24.509 27.0622L24.3085 26.9209L23.9401 26.7276L23.7469 26.6551L23.236 26.4303L23.0427 26.3578C22.9944 26.3397 22.9691 26.3191 22.9461 26.3215L22.7806 26.2925L22.562 26.1995L22.3108 26.0171L22.2878 26.0195L22.0342 25.8141L21.8748 25.622L21.7734 25.5398L21.5729 25.3985L21.4944 25.3139L21.3905 25.2088L21.2818 25.0578L21.1804 24.9757L21.1405 24.8174L21.0391 24.7353L20.9872 24.4623L20.9244 24.3064L20.881 23.8933L20.8967 23.8221L20.9112 23.5189L20.997 23.2314L21.1191 22.8473L21.2145 22.6517L21.2919 22.5043L21.5746 22.1033L21.7159 21.9028L21.9962 21.4789L22.3647 21.2314L22.4903 21.1021L23.0026 20.677L23.1995 20.5635L23.2405 20.5128L23.8566 20.1928L24.0052 20.0612L24.5935 19.6977L24.9233 19.5238L25.4633 19.1422L25.8752 18.8668L25.9187 18.8391L26.7522 18.3802L26.8416 18.3476L26.9975 18.2848L27.0868 18.2522L27.1509 18.1991L27.4396 18.0759L27.6389 17.9853L27.8153 17.8972L28.3999 17.7197L28.6729 17.6678C28.8082 17.6304 28.9387 17.5471 29.074 17.5097C29.1634 17.4771 29.2938 17.3937 29.3603 17.3636L29.6538 17.2863L30.1056 17.1692L30.5114 17.0569L30.6008 17.0243L30.8944 16.9471L31.2978 16.8118L31.5938 16.7575L31.8003 16.7358L31.9658 16.7648L32.1953 16.7407L32.432 16.7854C32.5722 16.7939 32.8065 16.8157 32.9744 16.8677L33.1169 16.8991C33.315 17.0175 33.5408 17.1794 33.6845 17.4427L33.7171 17.5321L33.8077 17.7315L33.8246 17.8921L33.8076 18.1723L33.8342 18.4248L33.8172 18.705L33.8413 18.9345L33.514 19.1314L33.2337 19.1144L32.9342 18.9138L32.648 18.6191L32.5731 18.3485L32.4415 18.1999L32.3123 18.0743C32.2664 18.0791 32.1951 18.0634 32.1721 18.0658L31.9559 17.9957L31.5996 17.9171C31.5078 17.9268 31.3882 17.8929 31.2964 17.9026L30.858 17.9255L30.5463 18.051L30.1634 18.1609L29.8215 18.22L29.3082 18.4132C29.0811 18.4603 28.7899 18.5605 28.5628 18.6076L28.3382 18.6776C28.1799 18.7174 28.0495 18.8007 27.9142 18.8382L27.4696 19.0241C27.0251 19.2101 26.6675 19.3405 26.1638 19.6254L25.8823 19.8175L25.7386 19.995L25.5622 20.0831L25.1817 20.216L23.8335 21.077L23.6004 21.2871L22.9722 21.9332C22.7486 22.2352 22.4889 22.6338 22.3983 22.8753L22.2943 23.2111L22.1373 23.4829L22.0829 23.6278C22.0877 23.6737 22.1179 23.7401 22.1227 23.786L22.2012 23.8706L22.3087 24.2306L22.3944 24.384L22.5562 24.599C22.584 24.6425 22.6347 24.6836 22.683 24.7017L22.863 24.8684L22.8956 24.9578C22.9511 25.0448 23.0526 25.1269 23.1081 25.2139L23.334 25.3758L23.5043 25.4507L23.677 25.5486L23.8473 25.6235L24.2205 25.8627L24.6094 26.0307L25.0334 26.311L25.1783 26.3654C25.2496 26.3811 25.3208 26.3968 25.3897 26.3896L25.7581 26.5829L26.1699 26.7484C26.2158 26.7436 26.2641 26.7617 26.2871 26.7593L26.6482 26.8838L27.0806 27.024L28.123 27.4481L28.1459 27.4457L28.7003 27.6427L28.8199 27.6765L29.0893 27.8106L29.9311 28.0934L30.2138 28.1333L30.5194 28.1708L30.8733 28.2264L31.2875 28.4149L31.697 28.5575L32.3915 28.763L32.6995 28.8234L32.8952 28.9189L33.1392 29.0325L33.4085 29.1666L33.9146 29.3454L34.3216 29.4651L34.8507 29.6415C34.899 29.6596 35.0161 29.6705 35.0391 29.6681L35.2142 29.7889L35.3942 29.9557L35.4932 30.0149L35.5922 30.0741L35.8362 30.1876C35.9123 30.2493 36.0065 30.2626 36.0548 30.2807C36.2227 30.3327 36.2964 30.3713 36.4691 30.4692L36.5428 30.5079L36.8604 30.6601L37.1769 31.0213C37.2046 31.0648 37.2602 31.1518 37.2831 31.1494L37.4244 31.3898L37.6973 31.7787L37.7951 32.0469C38.0016 32.4661 38.0366 32.5784 38.0523 32.9481C38.0547 32.971 38.0825 33.0145 38.0849 33.0374L38.1187 33.3587L38.0787 33.6414L37.8878 34.0327C37.761 34.3709 37.5483 34.5557 37.2765 34.8395L37.0711 35.0931C36.7993 35.3769 36.5637 35.5641 36.2666 35.8274C36.182 35.9059 36.0382 36.0834 35.9971 36.1342L35.8002 36.2477L35.7314 36.2549L34.347 37.2126L34.3011 37.2174L33.5823 37.6642L33.354 37.9202L33.244 37.9782L32.6074 38.3236L32.0239 38.733L31.6893 38.8609L30.9585 39.193L29.9499 39.531L28.8433 40.0418L28.0207 40.3835L27.7755 40.4789L27.6172 40.5187L27.5532 40.5719L26.9734 40.7953L26.4008 41.0875L26.0891 41.213L25.4912 41.4847L25.0805 41.5511L24.4825 41.8228L23.0016 42.3033L21.0169 43.0688L19.8959 43.4419L18.9597 43.5867L17.7893 43.7097C17.5392 43.7592 17.294 43.8546 17.0669 43.9016L16.4291 44.0151C15.656 44.1659 14.7887 44.3035 14.0108 44.4085L13.9239 44.464L13.6968 44.5111L12.6893 44.6402L12.5975 44.6498L12.304 44.7271L11.2205 44.7946L10.6999 44.9189L10.4909 44.9176L9.951 44.8584C9.83625 44.8704 9.71667 44.8366 9.62487 44.8462L9.27338 44.8136L9.08495 44.787L8.74069 44.8232L8.43992 44.8316L8.36866 44.8158L8.01958 44.8061L7.48689 44.8157L7.18371 44.8012L6.11716 44.5884C6.09421 44.5908 6.0459 44.5727 6.0459 44.5727L5.50357 44.4905L5.40935 44.4772L5.11465 44.3225C4.5832 44.1231 4.367 44.053 4.05782 43.7607L3.7583 43.5601L3.49261 43.24L3.26558 42.8462L3.23298 42.7568L3.09893 42.5852L2.90451 42.2808L2.78376 42.0151L2.76929 41.8774L2.7065 41.7215L2.69203 41.5838L2.69809 41.4208L2.76095 41.1357C2.75854 41.1127 2.77666 41.0644 2.77425 41.0415L2.78514 40.9243L2.86006 40.754C2.87336 40.6598 2.91202 40.5861 3.01472 40.4593L3.13795 40.3071L3.26359 40.1779L3.48468 39.853C3.6055 39.6779 3.8725 39.3482 4.01868 39.1936L5.0214 38.1368L5.31859 37.8736L5.4829 37.6707L5.64961 37.4907L6.05432 37.1465L6.46867 36.8941L6.64262 36.783L6.80086 36.7432L7.12699 36.7553L7.15835 37.0537L7.12692 37.1962L6.96262 37.3991L6.61471 37.6213C6.52773 37.6769 6.53497 37.7457 6.38155 37.8315L6.18947 37.9909L6.14598 38.0186L6.02275 38.1708L5.83308 38.3532L5.54072 38.6624L5.33051 38.8701L5.17951 38.9788L5.14084 39.0524L5.05628 39.1309L4.87384 39.3822L4.66846 39.6358L4.27582 40.0947C4.09821 40.3918 3.93025 40.7808 3.85168 41.1371L3.78642 41.3992C3.7707 41.4704 3.76464 41.6335 3.76946 41.6794L3.78876 41.863L3.86602 42.1566L3.92881 42.3124L4.01695 42.4887L4.18119 42.7267L4.25728 42.7883L4.57976 42.9865L4.95537 43.2487L5.18364 43.4335L5.3008 43.4444C5.3467 43.4396 5.39502 43.4577 5.41797 43.4553L5.56291 43.5097L5.97236 43.6523L6.14749 43.7731L6.17044 43.7707L6.92416 43.8771L7.23216 43.9375L7.44836 44.0076L7.49426 44.0028C8.08009 44.0572 8.68645 44.0863 9.31094 44.0671C9.33389 44.0647 9.35925 44.0852 9.3822 44.0828L9.82067 44.0599L9.95838 44.0455C9.98133 44.043 9.98374 44.066 10.0755 44.0563L10.2797 44.0117L10.3739 44.025L10.4862 43.99L10.7846 43.9586L10.9042 43.9925L11.0165 43.9574L11.2484 43.9563L12.1894 43.8574L12.5312 43.7982L12.6255 43.8115L13.4698 43.6764L13.7404 43.6015L14.0291 43.4784L14.3299 43.47L14.5388 43.4712L15.1972 43.3324L15.3578 43.3155L15.7431 43.2286L15.9425 43.1381L16.5368 43.0524L16.8303 42.9751L17.6239 42.7989L18.4381 42.5973L18.6652 42.5502L18.9128 42.4778L19.4407 42.4223L20.9011 41.9672L21.4145 41.774L21.5727 41.7342L21.8614 41.611L22.2262 41.5494L22.8544 41.3442L23.1866 41.1933L24.4054 40.6475L25.3114 40.4362L25.7559 40.2503L26.5532 39.8881L26.6909 39.8736L27.5594 39.527L27.7974 39.3628L28.1912 39.1358L28.3241 39.0754L28.5741 39.0259L29.2639 38.7446L29.4608 38.6311L29.9259 38.4198L30.0745 38.2881L30.6108 38.0925L30.9176 37.9211L31.7149 37.5588L32.5871 37.0263L32.7429 36.9635L33.0039 36.7968L33.5873 36.3875L33.7202 36.3271L34.0041 36.158L34.5308 35.8706L34.7458 35.7088L34.8787 35.6484C35.0068 35.5421 35.2218 35.3803 35.3269 35.2765L35.5008 35.1654L35.734 34.9552L35.8548 34.7801L36.0373 34.5289L36.2934 34.3163L36.4444 34.2076C36.75 33.8042 36.8358 33.5168 36.8504 33.2136C36.848 33.1907 36.8818 33.0711 36.8794 33.0481L36.8021 32.7546L36.7406 32.3898C36.7152 32.3693 36.6875 32.3258 36.6875 32.3258L36.6573 32.2593L36.4471 32.0262L35.9641 31.404C35.7382 31.2421 35.3602 30.957 35.0908 30.8229L34.5497 30.5317L34.4024 30.4544L33.8408 30.1885L33.7417 30.1293ZM48.9316 33.1504L48.9944 32.8654C49.0331 32.7917 49.0621 32.6262 49.1503 32.3617L49.1455 32.3158L49.2204 32.1455C49.2156 32.0996 49.2362 32.0742 49.2543 32.0259L49.4404 31.5887C49.4766 31.4921 49.5721 31.2964 49.6289 31.1744C49.647 31.1261 49.6446 31.1031 49.6422 31.0802L49.7014 30.9812C49.7171 30.9099 49.7787 30.8338 49.8101 30.6913L49.9032 30.4727C49.9008 30.4497 49.9189 30.4014 49.9141 30.3555L49.989 30.1852L49.2581 30.5173L49.1482 30.5752L48.9924 30.638L48.8438 30.7696L48.3219 31.1029L47.9353 31.3988L47.8049 31.4821L46.5558 32.4024L46.4712 32.4809L46.325 32.6354L45.6981 33.0726L45.4142 33.2417L44.5722 33.8407L44.5287 33.8684L44.3873 34.0689L44.3233 34.1221L44.1264 34.2356L43.8244 34.4529L43.7145 34.5109L43.6686 34.5157L43.5067 34.7416L43.3484 34.7814L43.282 34.8116L43.1539 34.9179L43.0923 34.994L42.8749 35.1328L42.3591 35.3031L42.2262 35.3635L42.0245 35.4311L41.8662 35.4709L41.1705 35.4744L40.8854 35.4116C40.5291 35.333 40.5013 35.2895 40.3999 35.2073C40.2151 34.9947 40.2006 34.857 40.1837 34.6964L40.1644 34.5128L40.2249 34.2048L40.2829 33.8738L40.3832 33.724L40.4327 33.5332L40.4303 33.5103L40.5644 33.2409L40.7263 33.0151L40.9511 32.5042L41.0006 32.3133L41.119 32.1152L41.2169 31.9425L41.3873 31.5766L41.5286 31.3761L41.6857 31.1043L41.7812 30.9086L41.8766 30.713L42.0905 30.3192L42.1678 30.1719L42.2041 30.0753L42.2693 29.8132C42.2669 29.7902 42.3056 29.7165 42.2983 29.6477L42.2996 29.4387L42.3371 29.1331L42.4205 28.8227L42.6549 28.4036L42.9182 28.2599L43.0994 28.2176L43.2395 28.2261L43.4654 28.388C43.5463 28.4955 43.632 28.649 43.6767 28.8531L43.7249 29.3121L43.685 29.5947L43.5714 29.8387L43.424 30.2023L43.2464 30.4994L43.1075 30.7228L42.9021 30.9765L42.7813 31.1516L42.6786 31.2784L42.5578 31.4535L42.4321 31.5828L42.391 31.6335L41.9972 32.3014L41.8196 32.5985C41.7217 32.7712 41.6238 32.9439 41.5489 33.1142L41.3532 33.4597L41.2783 33.63L41.1997 33.9863L41.1477 34.1542L41.0619 34.4416C41.0414 34.467 41.0414 34.467 41.0462 34.5129C41.0534 34.5818 41.0257 34.5383 41.0534 34.5818L41.1452 34.5721C41.237 34.5625 41.3953 34.5226 41.5946 34.4321C41.7963 34.3645 41.9956 34.2739 42.0391 34.2461L42.4148 34.0674L42.7881 33.8657L42.9439 33.803L43.0744 33.7196L43.9695 33.1847C44.013 33.1569 44.0517 33.0832 44.0952 33.0554L44.3356 32.9142L44.4455 32.8562L44.576 32.7729L44.8913 32.4613L45.4361 32.1256L45.5484 32.0906L45.5714 32.0882L46.0425 31.7138C46.0836 31.6631 46.1295 31.6582 46.1706 31.6075L46.3373 31.4275L46.7082 31.2029L47.3557 30.7404L47.5888 30.5303L47.8473 30.3407L48.0938 30.0363L48.3318 29.8721L48.4598 29.7658L48.7461 29.6197L48.8102 29.5666L48.9177 29.4856L49.6002 29.1355L49.6872 29.0799L49.7923 28.9761L50.2912 28.6452L50.4651 28.5341L50.6669 28.4665L50.7792 28.4314C50.871 28.4218 51.0341 28.4279 51.179 28.4822L51.3566 28.626L51.4677 28.8L51.4821 28.9377L51.4531 29.1031L51.4012 29.271L51.1051 29.7662L50.9758 30.0815C50.9577 30.1298 50.9468 30.2469 50.9468 30.2469L50.7535 30.6153L50.6858 30.8545L50.6157 31.0707L50.4744 31.2712L50.4792 31.3171L50.3245 31.6118C50.3294 31.6577 50.3112 31.706 50.3137 31.7289L50.2436 31.9451C50.2484 31.991 50.2327 32.0623 50.2351 32.0853L50.142 32.3039L50.0394 32.4307C50.0079 32.5732 49.997 32.6904 50.0043 32.7592L50.0091 32.8051C50.0852 32.8667 50.1818 32.903 50.3678 32.9067C50.4367 32.8994 50.5079 32.9151 50.5768 32.9079L50.7604 32.8886L50.9005 32.8971L51.0612 32.8802C51.2448 32.8609 51.4489 32.8162 51.6965 32.7438C51.7424 32.739 51.8089 32.7088 51.8548 32.704L51.9671 32.6689L52.2788 32.5434L52.4189 32.5519L52.9601 32.4022L53.1159 32.3394L53.4118 32.2851L53.616 32.2404C53.6595 32.2126 53.6824 32.2102 53.7283 32.2054L53.8866 32.1656L54.2127 32.1777L54.2984 32.3311L54.2948 32.5171L54.087 32.7478L53.9287 32.7876L53.8623 32.8178L53.5205 32.877L53.2982 32.9699L53.0071 33.0701L52.2533 33.4046L52.0032 33.4541L51.9138 33.4867L51.6251 33.6099L51.3751 33.6593L51.2169 33.6992C51.1734 33.7269 51.1045 33.7342 51.0586 33.739L50.788 33.8139L50.4969 33.9141L50.2674 33.9382C50.1756 33.9478 50.1092 33.978 50.0403 33.9853C49.8821 34.0251 49.6779 34.0698 49.5608 34.0589L49.5149 34.0637C49.4919 34.0661 49.3977 34.0528 49.3518 34.0576L49.045 33.7882L49.0124 33.6988C48.9291 33.5684 48.8893 33.4101 48.9207 33.2676C48.9183 33.2446 48.934 33.1734 48.9316 33.1504ZM60.177 31.7132L60.003 31.8243L59.7493 32.0598L59.4425 32.2313L59.2637 32.2965L59.1151 32.4282L59.0511 32.4813C58.9617 32.5139 58.8542 32.5948 58.7648 32.6274L58.5498 32.7892L58.4398 32.8472L58.0255 33.0996L57.9409 33.1781L57.5978 33.4462L57.4215 33.5343C57.4009 33.5597 57.314 33.6152 57.291 33.6176L56.989 33.835L56.8356 33.9208L56.6798 33.9835L56.3198 34.091L56.0154 34.2854L55.6989 34.3651L55.3752 34.3759L55.107 34.4737L54.4753 34.4241C54.2385 34.3794 54.0404 34.2609 53.8557 34.0483L53.7264 33.9227L53.7301 33.7367C53.6903 33.5784 53.6819 33.2777 53.729 33.0639L53.7145 32.9262L53.8269 32.4503L53.9623 31.972C53.9599 31.949 53.9985 31.8753 53.9937 31.8294L54.1436 31.4888L54.2849 31.2883C54.2825 31.2654 54.3006 31.2171 54.3006 31.2171L54.4879 31.0118L54.5833 30.8161C54.6196 30.7195 54.7017 30.618 54.738 30.5214L54.79 30.3535L54.8649 30.1832L54.9265 30.1071C54.9857 30.0081 55.0401 29.8631 55.1017 29.787L55.2769 29.467L55.3337 29.345L55.5753 28.9947L55.8894 28.4512L55.9753 28.1638L56.235 27.7652L56.3329 27.5925L56.4054 27.3992L56.5105 27.2954L56.7606 26.805L56.9563 26.4596L57.1847 26.2035C57.3079 26.0514 57.6329 25.8316 57.9771 25.7954C58.1426 25.8244 58.3286 25.8281 58.5363 26.0383L58.5532 26.1989L58.5411 26.525L58.3587 26.7763L58.1146 27.1036L57.8198 27.3898L57.5069 27.7243L57.455 27.8922L57.0647 28.3741L56.869 28.7195L56.7325 28.9659L56.5887 29.1435C56.573 29.2147 56.5778 29.2606 56.5802 29.2836L56.3652 29.4454C56.3676 29.4684 56.329 29.542 56.3108 29.5904L56.0076 30.0167L55.7249 30.4177L55.5883 30.6641L55.4929 30.8597L55.2863 31.3223L55.1836 31.4491C55.1014 31.5506 55.1038 31.5735 55.0857 31.6218L54.989 32.0265L54.9552 32.1461L54.7968 32.6268L54.7303 33.0978L54.74 33.1897L54.723 33.4699L54.7303 33.5387L54.8909 33.5218L55.054 33.5279L55.1434 33.4953L55.2787 33.4579L55.4188 33.4664L55.5335 33.4543C55.6918 33.4145 55.8222 33.3311 56.0034 33.2889L56.2028 33.1983L56.4045 33.1307C56.425 33.1054 56.4685 33.0776 56.4685 33.0776L56.814 32.8324L56.8986 32.7539L57.4349 32.5583L57.7877 32.382L57.9664 32.3168L58.6852 31.87L58.8592 31.7589L59.2047 31.5138L59.4837 31.2988L59.6553 31.1648L59.7905 31.1273L59.9186 31.0211L60.1977 30.8061L60.3487 30.6974L60.5407 30.538L60.6229 30.4366L60.9708 30.2144L61.0759 30.1105L61.5978 29.7772L61.7923 29.6407L61.8358 29.613L61.9844 29.4813L62.0303 29.4765L62.1329 29.3497L62.2864 29.2639L62.3685 29.1625L62.6065 28.9983L62.7575 28.8896L62.8445 28.834L62.975 28.7507C63.126 28.642 63.2516 28.5128 63.4461 28.3763L63.5717 28.2471L63.8266 28.2435L64.0271 28.3849L64.0718 28.589L63.8482 28.891L63.7154 28.9513L63.5897 29.0806L63.2418 29.3028L62.5762 29.8136L62.3841 29.973L62.1123 30.2568L61.9564 30.3196L61.8465 30.3776C61.4624 30.6964 61.0806 31.0382 60.7146 31.3087L60.5913 31.4609L60.5044 31.5164L60.2616 31.6347L60.177 31.7132ZM61.0098 20.2093L61.0376 20.2528C61.075 20.3881 61.1125 20.5234 61.0907 20.7577C61.0025 21.0222 60.8224 21.2964 60.3465 21.6249L60.0928 21.8604L60.0082 21.9389C59.9031 22.0427 59.7316 22.1768 59.6494 22.2782L59.2749 22.6889L58.939 23.0258L58.7905 23.1575C58.6829 23.2384 58.5223 23.2553 58.3616 23.2721L58.2844 22.9786L58.2977 22.8844L58.5394 22.0933L58.6143 21.923L58.8849 21.4072L59.042 21.1355L59.1218 21.0111L59.3042 20.7599L59.4528 20.6282L59.5784 20.499L59.8865 20.1186L60.1474 19.9519L60.3262 19.8867C60.7212 19.8916 60.8987 20.0354 61.0098 20.2093ZM68.9607 18.051L69.3025 17.9919L69.6057 18.0064L69.6214 17.9352L70.1518 17.0209L70.211 16.9218L70.4479 16.5257L70.6714 16.2237L70.7511 16.0993L70.9674 15.7285L71.029 15.6525C71.0266 15.6295 71.0447 15.5812 71.0447 15.5812L71.1885 15.4037L71.2682 15.2793L71.3298 15.2032L71.4277 15.0304L71.4253 15.0075L71.5207 14.8118L71.7491 14.5558L71.911 14.3299L72.0161 14.2261L72.0982 14.1246L72.2988 13.8251L72.5247 13.5461L72.7723 13.4737L72.9813 13.4749L73.2603 13.7008L73.3509 13.9002L73.41 14.242L73.2916 14.4401L73.0814 14.6478L72.9424 14.8712L72.76 15.1225L72.6416 15.3205L72.3468 15.6068L72.1463 15.9063L71.6944 16.4643L70.9466 17.5174L70.7665 17.7916L70.9936 17.7445L71.3584 17.683L72.0397 17.5418L72.8913 17.4755L73.5496 17.3367L74.1922 17.2691L74.406 17.3163L74.5667 17.2994L74.8723 17.3369C74.9206 17.355 75.0836 17.3611 75.1295 17.3562L75.3772 17.2838L75.7057 17.3189C75.8205 17.3068 75.9304 17.2489 76.0452 17.2368L76.2058 17.2199L76.4607 17.2163L76.7433 17.2562C76.7663 17.2538 76.8375 17.2695 76.8605 17.2671L77.0924 17.266L77.7289 17.3615C77.7543 17.382 77.8485 17.3953 77.8715 17.3929L78.2387 17.3543L78.4343 17.4498L78.8982 17.4474C78.9441 17.4426 78.9924 17.4607 79.0153 17.4583L79.1651 17.5586C79.1651 17.5586 79.1627 17.5356 79.2569 17.5489L80.071 17.7882C80.0964 17.8088 80.1447 17.8269 80.1676 17.8245L80.6459 17.9598C80.6943 17.978 80.6943 17.978 80.7172 17.9756C80.7426 17.9961 80.7679 18.0166 80.745 18.0191L80.908 18.0251L81.2462 18.152L81.3549 18.303L81.5023 18.3803L81.6629 18.3634L81.8707 18.5737L82.0965 18.7356L82.1726 18.7972C82.2185 18.7923 82.2439 18.8129 82.2668 18.8105L82.5832 19.1717L82.6086 19.1922L82.7982 19.4507L82.9117 19.6476L83.0723 20.0716L83.1628 20.271L83.1918 20.5464L83.0721 20.9534L82.9743 21.1261L82.8088 21.0971L82.6796 20.9715L82.5697 20.5885C82.5649 20.5426 82.5347 20.4762 82.5299 20.4303C82.4719 20.3204 82.3584 20.1235 82.3053 20.0594L82.1314 19.7297L81.9418 19.4711L81.7341 19.2609L81.5082 19.099L81.4852 19.1014L81.1145 18.8852C81.0432 18.8695 80.9212 18.8127 80.9212 18.8127C80.8983 18.8151 80.8729 18.7945 80.8729 18.7945L80.6289 18.681L80.4864 18.6495C80.4405 18.6544 80.2521 18.6278 80.1458 18.4997L79.787 18.3982C79.6723 18.4102 79.4839 18.3836 79.3691 18.3957L79.1577 18.3715L78.8679 18.2628L78.514 18.2071C78.2543 18.1648 78.0223 18.166 77.7421 18.149C77.6044 18.1635 77.416 18.1369 77.3012 18.149L76.9038 18.1211C76.8579 18.1259 76.7867 18.1102 76.7637 18.1126L76.5342 18.1368L76.353 18.179L75.9327 18.1536C75.8638 18.1608 75.7926 18.1451 75.7467 18.1499L75.5401 18.1716L75.2369 18.1571C75.0509 18.1534 74.8673 18.1727 74.7066 18.1896L74.6173 18.2222L74.546 18.2065C74.4771 18.2137 74.4059 18.198 74.337 18.2053L74.1764 18.2222C73.442 18.2993 72.7075 18.3765 71.9755 18.4767L71.8861 18.5093L71.7098 18.5974L71.0466 18.6903L70.7736 18.7422L69.9643 18.9897L69.7843 19.2639L69.5269 19.6854L69.475 19.8533L69.3469 19.9596C69.2261 20.1347 69.1439 20.2361 69.0461 20.4089C69.0485 20.4318 69.0328 20.5031 69.0328 20.5031L68.709 20.9548L68.4178 21.4959L68.2402 21.793L67.8548 22.3208L67.2217 23.3619L67.0827 23.5853L66.7046 24.182L66.6502 24.3269L66.527 24.4791C66.4859 24.5298 66.4496 24.6264 66.411 24.7001L66.2998 24.967L66.179 25.1422L66.0376 25.3427L65.8939 25.5202L65.7549 25.7436L65.7162 25.8173L65.6462 26.0335L65.2088 26.7292L64.9466 27.1048L64.4271 27.902L64.0791 28.565L63.7263 29.1822C63.6925 29.3018 63.6647 29.2583 63.6079 29.3803L63.2913 29.9009L63.214 30.0482L63.0098 30.5337C62.9784 30.6763 62.9192 30.7753 62.8877 30.9178L62.692 31.2633L62.4902 31.7718L62.3633 32.11L62.3754 32.2247L62.3693 32.3878L62.2171 32.7054C62.2267 32.7972 62.1494 32.9446 62.1591 33.0364L62.1578 33.2454L62.1808 33.2429L62.5842 33.1077L62.7401 33.0449L62.9188 32.9797L63.0904 32.8457L63.2667 32.7575L63.4431 32.6694L63.6147 32.5353L63.7729 32.4955L63.9722 32.4049L64.0797 32.324L64.2174 32.3096L64.7828 31.9485L65.1971 31.6961L65.4122 31.5343L65.6139 31.4667L65.7009 31.4111L66.3351 31.0428L66.5936 30.8532L66.683 30.8206L67.6651 30.2301L67.9236 30.0405L68.077 29.9548L68.3199 29.8364L68.6267 29.6649L68.7064 29.5405L69.0495 29.2724L69.3153 29.1517L69.6245 29.0032L70.1875 28.6191L70.2539 28.589L70.3795 28.4597L70.725 28.2146L70.835 28.1566L70.9014 28.1264L70.9449 28.0987L71.0959 27.99L71.3689 27.9381L71.5187 28.0384L71.5633 28.2425L71.5597 28.4285L71.3446 28.5903L71.2142 28.6737L71.1731 28.7244L70.5968 29.2026L70.5763 29.228L70.4024 29.3391L70.1668 29.5263L69.8213 29.7714L69.5809 29.9127L69.3792 29.9803L69.0747 30.1747L68.9237 30.2834L68.8827 30.3342L68.5806 30.5515L68.4321 30.6832L67.8824 30.973L67.6106 31.2568L67.4548 31.3196L67.189 31.4403L67.1661 31.4427C67.1226 31.4705 67.0609 31.5466 67.0404 31.572C66.9993 31.6227 66.9329 31.6529 66.9124 31.6782L66.7771 31.7157L66.6007 31.8038L66.4908 31.8618L66.3096 31.904C66.2866 31.9064 66.2226 31.9596 66.2226 31.9596L66.0921 32.0429L65.6597 32.3436L65.4422 32.4825L65.2115 32.7156L65.1426 32.7228L64.9276 32.8846L64.5749 33.0609L64.1907 33.3797L63.966 33.4498L63.6181 33.672L63.0431 33.9412L62.2205 34.2829L61.9245 34.3373L61.8073 34.3264L61.6419 34.2974L61.5018 34.2889L61.2143 34.2031L61.073 33.9627L61.0054 33.7609L60.9764 33.4855C60.9716 33.4396 60.9849 33.3454 60.9825 33.3225C60.9886 33.1594 61.0357 32.9456 61.1143 32.5893C61.1095 32.5434 61.1409 32.4009 61.1361 32.355L61.2339 32.1823L61.2267 32.1134L61.2605 31.9938L61.3995 31.7704L61.4672 31.5312L61.6714 31.0457L61.7692 30.873C61.7644 30.8271 61.8007 30.7304 61.7983 30.7075L61.9191 30.5324L62.0194 30.3826C62.0604 30.3319 62.0737 30.2377 62.1148 30.1869L62.2127 30.0142L62.3673 29.7195L62.5268 29.4707L62.6247 29.298L62.7866 29.0722L62.8639 28.9248L63.0234 28.676L63.1853 28.4501C63.1805 28.4042 63.1986 28.3559 63.1962 28.333L63.3194 28.1808L63.3991 28.0564L63.5586 27.8076L63.6746 27.5866L63.8087 27.3172L63.9247 27.0962L64.0842 26.8474C64.0818 26.8245 64.1047 26.822 64.1023 26.7991L64.3802 26.3522L64.4938 26.1082L64.7813 25.7532L64.9795 25.4307C65.0979 25.2326 65.2139 25.0116 65.3939 24.7374L65.4507 24.6154L65.638 24.4101C65.8724 23.991 66.1225 23.5006 66.3593 23.1045L66.462 22.9777L66.8196 22.4064C66.9634 22.2288 67.002 22.1552 67.0794 22.0078L67.1954 21.7868L67.4213 21.5078L67.5095 21.2433L67.7826 20.7505L67.8514 20.7433L67.8877 20.6466L68.1039 20.2758L68.3432 19.9026L68.505 19.6768L68.58 19.5065L68.8059 19.2275L68.8192 19.1333L68.7044 19.1453L68.4339 19.2202L67.7502 19.3385L67.0713 19.5026L66.8672 19.5473L66.7089 19.5871L66.1267 19.7875L65.9479 19.8527L64.8088 20.2741L64.6324 20.3623L64.4766 20.4251L64.2773 20.5156L63.5718 20.8682L63.3749 20.9817L62.9026 21.1242L62.4846 21.1217L62.2455 21.054L62.0933 20.9308L61.9134 20.7641L61.8591 20.4681L61.8832 20.2567C61.9195 20.1601 61.9533 20.0405 62.1937 19.8993L62.3471 19.8135C62.6975 19.6143 62.8968 19.5237 63.2568 19.4163L63.5503 19.339L63.9006 19.1398L64.2884 19.0758L64.4309 19.1072L65.3368 18.896L65.4033 18.8658L66.0363 18.7065L66.5134 18.6099L66.5847 18.6256L66.7429 18.5858L66.8117 18.5785L67.4169 18.3757L67.5728 18.3129L67.7105 18.2984L68.0958 18.2115L68.1622 18.1813L68.2794 18.1922L68.6623 18.0824L68.9607 18.051ZM71.0641 29.2231L70.9118 29.5408C70.8889 29.5432 70.8889 29.5432 70.8913 29.5661L70.71 30.0493C70.7269 30.2099 70.7377 30.5337 70.7522 30.6714C70.7365 30.7426 70.7534 30.9033 70.8367 31.0337C70.8898 31.0978 71.007 31.1087 71.3585 31.1413L71.6895 31.1994L71.9878 31.168L72.3273 31.0859L73.8952 30.5498L74.2685 30.3482L75.0657 29.9859L75.2602 29.8495L75.3955 29.8121L76.6893 29.096L76.9297 28.9547L77.1773 28.8823L77.9287 28.5248L77.9951 28.4946C78.3889 28.2676 78.7139 28.0478 79.0207 27.8764L79.8929 27.3438L80.1973 27.1494L80.2867 27.1168L80.5042 26.9779L80.8364 26.827L81.4911 26.4333L81.6168 26.3041L82.6049 25.5505L83.0374 25.2498C83.186 25.1182 83.209 25.1158 83.2959 25.0602C83.3805 24.9817 83.4469 24.9515 83.6052 24.9117C83.7429 24.8972 83.9265 24.8779 84.0122 25.0313C84.0956 25.1618 83.9614 25.4311 83.8104 25.5398L83.6365 25.6509L83.5084 25.7572L83.0578 26.1062L82.7812 26.3441L82.7377 26.3719L82.2847 26.698L82.1131 26.832L81.9621 26.9407L81.857 27.0446L81.7241 27.1049L81.6782 27.1098L81.1129 27.4708C81.0694 27.4986 80.9848 27.5771 80.9848 27.5771L80.7674 27.716C80.7239 27.7438 80.5705 27.8295 80.4859 27.908L79.6548 28.3898L79.3939 28.5565C79.2199 28.6676 79.0484 28.8016 78.872 28.8898L78.8104 28.9659L77.8077 29.5817L77.2581 29.8715L77.0564 29.9391L76.8595 30.0527C76.5961 30.1964 76.2869 30.3449 76.0006 30.491C75.8906 30.549 75.7855 30.6528 75.6756 30.7108L74.9798 31.1552L74.5304 31.2952L74.1753 31.4486L73.7996 31.6273L73.4167 31.7371L73.2838 31.7975C73.1968 31.8531 73.0386 31.8929 72.8368 31.9605L72.4588 32.1163L72.3235 32.1537L71.897 32.2913L71.4658 32.3831L70.8824 32.3516L70.2797 32.1365L69.9101 31.7112L69.764 31.4249L69.6614 31.1109L69.6023 30.769L69.6059 30.583L69.5842 30.3764L69.6846 29.7858L69.8139 29.4706C69.8453 29.328 69.9069 29.2519 69.9383 29.1094L70.1474 28.6698L70.4095 28.2941L70.772 27.7688L71.0692 27.5055L71.3181 27.2241L71.5053 27.0188L71.7953 26.6867L71.8363 26.6359C71.8545 26.5876 71.9185 26.5345 71.9366 26.4862L72.1033 26.3062L72.2749 26.1722L72.5998 25.9524L72.6433 25.9246L72.7279 25.8461C73.1737 25.4512 73.6376 25.008 74.1546 24.6288L74.4083 24.3933L74.9737 24.0322L75.1682 23.8957L75.2805 23.8607L75.574 23.7834C75.9292 23.6301 76.0802 23.5214 76.236 23.4586L76.7289 23.2908L76.9584 23.2667C77.0272 23.2594 77.0937 23.2293 77.1625 23.222L77.5068 23.1858C77.5986 23.1762 77.7387 23.1847 77.8305 23.175C77.973 23.2064 78.0467 23.2451 78.095 23.2632L78.3619 23.3744C78.5117 23.4747 78.6361 23.5544 78.7013 23.7332L78.7737 23.9808L78.8063 24.0702L78.8099 24.3251L78.7652 24.5618L78.7047 24.8698L78.4426 25.2455L78.1889 25.481L77.9811 25.7116L77.725 25.9242L77.0593 26.435L76.9337 26.5643L76.7984 26.6017C76.2862 27.0268 75.8126 27.3782 75.3137 27.7091L75.2062 27.79L74.5744 28.1813L74.2978 28.4192L73.707 28.7597L73.3108 28.9638L72.6344 29.1509L72.2466 29.2149L72.0401 29.2366L71.7272 29.1302L71.6802 28.9031L71.6838 28.7171C72.0052 28.2425 72.2021 28.1289 72.5548 27.9527C72.5778 27.9502 72.6189 27.8995 72.6418 27.8971C72.8689 27.85 73.16 27.7498 73.3871 27.7027L73.6323 27.6074L73.8546 27.5144L74.0745 27.3985L74.5625 27.1847L75.0384 26.8563L75.4987 26.5991C75.7161 26.4602 76.0157 26.2199 76.2332 26.081L76.3842 25.9723L76.5944 25.7646L77.4582 24.9313C77.4787 24.9059 77.5609 24.8044 77.579 24.7561C77.5971 24.7078 77.5971 24.7078 77.5923 24.6619L77.6261 24.5423L77.7071 24.209C77.6818 24.1884 77.6588 24.1908 77.6564 24.1679L77.4607 24.0724C77.4124 24.0543 77.3871 24.0338 77.3641 24.0362L77.1116 24.0627L76.9534 24.1026L76.8181 24.14C76.3253 24.3078 75.8215 24.5928 75.4966 24.8126L75.3431 24.8983L75.0822 25.065L75.0411 25.1157L74.5603 25.3983L74.4734 25.4538L74.0868 25.7497L73.815 26.0335L73.4695 26.2786L73.403 26.3088L73.0648 26.6228C73.0237 26.6736 72.9778 26.6784 72.9367 26.7291C72.9186 26.7774 72.857 26.8535 72.8364 26.8789L72.526 27.2364L72.3822 27.4139L72.1538 27.6699L71.8893 28.0226L71.6863 28.2992L71.5425 28.4767C71.5014 28.5274 71.4676 28.647 71.4265 28.6977L71.29 28.9441L71.0641 29.2231ZM92.7648 29.9588L92.5111 30.1943L92.2345 30.4322L91.8661 30.6798L91.5387 30.8766L91.2137 31.0964L91.0555 31.1362L90.5747 31.4188L90.3246 31.4683C90.3017 31.4707 90.2812 31.4961 90.2123 31.5033L90.0541 31.5432L89.8451 31.5419L89.6132 31.5431L89.4151 31.4247L89.1868 31.2398L88.9997 31.0043L88.7497 30.6129L88.6845 30.4341L88.6121 29.7456C88.5675 29.5414 88.5783 29.4243 88.582 29.2382C88.5772 29.1923 88.5929 29.1211 88.5832 29.0293L88.5712 28.9145L88.5858 28.1705L88.6825 27.7658C88.6801 27.7429 88.6958 27.6716 88.691 27.6257L88.7732 27.0834C88.7684 27.0375 88.7889 27.0121 88.7865 26.9892L88.8638 26.8418L89.0354 26.2669L89.0487 26.1727L89.0777 26.0072L89.195 25.5772C89.195 25.5772 89.2336 25.5035 89.2312 25.4806L89.2784 25.2668C89.2735 25.2209 89.2917 25.1726 89.2893 25.1496L89.3388 24.9588L89.2458 24.7365L89.2157 24.6701L89.0997 24.4502L89.049 24.4091L88.805 24.7364L88.463 25.2364L88.0016 25.7026L87.6657 26.0396L86.7415 27.1809L86.698 27.2087L86.5566 27.4092L86.431 27.5384L86.2027 27.7944L86.0565 27.949L85.833 28.251L85.6759 28.5227L85.3763 28.763C85.3171 28.8621 85.189 28.9683 85.1504 29.042L84.8532 29.3053L84.6152 29.4695C84.5717 29.4973 84.4896 29.5988 84.4896 29.5988L84.254 29.786L84.1259 29.8922L83.5473 30.3475L83.3987 30.4792L83.2247 30.5903C82.6231 31.048 81.9201 31.4235 81.2775 31.491C81.1398 31.5055 80.8499 31.3968 80.7074 31.3653C80.6361 31.3496 80.5624 31.311 80.4863 31.2493C80.4356 31.2083 80.3643 31.1925 80.1554 30.7504L80.0891 30.3397L80.0964 29.9677L80.1641 29.7285C80.1798 29.6573 80.2366 29.5353 80.2499 29.4411L80.3973 29.0775L80.5834 28.6403L80.6402 28.5183L80.7151 28.348L80.9084 27.9796L81.0473 27.7562L81.2479 27.4566L81.2455 27.4337L81.4122 27.2537L82.2615 26.2827L82.5357 26.0219L83.0516 25.4107L83.1591 25.3298L83.4104 25.0714L83.4974 25.0158L83.774 24.7779L83.8973 24.6257L84.1123 24.4639L84.2404 24.3576L84.4119 24.2236L84.7526 23.9325L85.121 23.685L85.272 23.5763L85.4508 23.5111L85.7806 23.3372L86.0391 23.1476L86.3 22.981L86.3665 22.9508L86.6093 22.8324C86.6757 22.8022 86.7216 22.7974 86.8134 22.7878C86.8364 22.7854 86.8593 22.7829 86.9669 22.702C87.2097 22.5837 87.6759 22.6043 88.025 22.614C88.0709 22.6092 88.1422 22.6249 88.1881 22.6201L88.4043 22.6902L88.5975 22.7627C88.6712 22.8014 88.8185 22.8787 88.8741 22.9657L88.9019 23.0091L88.984 22.9077L89.4793 22.3219L89.7053 22.043L90.2006 21.4572L90.3577 21.1854L90.7866 20.6299L91.0306 20.3026L91.5598 19.5972L92.1047 18.8206L92.4671 18.2953C92.5469 18.1709 92.6218 18.0006 92.7063 17.9221L92.8634 17.6503L92.9685 17.5464L93.0181 17.3556L93.6403 16.4317L94.0619 15.8072L94.1852 15.6551L94.5609 15.0355L94.6177 14.9135L95.0321 14.2202L95.1505 14.0221L95.4852 13.4533L95.606 13.2781L95.6628 13.1561L96.0205 12.5849L96.1364 12.3638L96.4989 11.8385L96.9931 11.0208L97.1912 10.6983L97.2637 10.5051L97.4208 10.2333L97.6672 9.92895L98.0345 9.44947C98.316 9.25746 98.4996 9.23816 98.7061 9.21645C98.9127 9.19475 99.0782 9.22376 99.2497 9.53059C99.345 9.77581 99.2315 10.0198 99.1203 10.2867L98.8195 10.736L98.5367 11.137L97.9134 11.829C97.8952 11.8773 97.8131 11.9788 97.7925 12.0041L97.4796 12.3387L97.3383 12.5392L97.1196 12.887L96.6907 13.4426L96.4744 13.8134L96.4309 13.8412L96.3307 13.9909L96.1845 14.1455L95.6927 14.9861C95.6178 15.1564 95.4197 15.4789 95.3629 15.6009L95.1418 15.9258L94.94 16.4343L94.8373 16.5611L94.7624 16.7314L94.3673 17.6083L94.2646 17.7351L93.7523 18.6011L93.5928 18.8499L93.4587 19.1192L92.9077 20.0589L92.8256 20.1603L92.4317 20.8282C91.9605 21.6435 91.5968 22.3778 91.3853 22.7945C91.3648 22.8199 91.2802 22.8984 91.2283 23.0663L91.0966 23.3586C90.8283 23.8973 90.6145 24.291 90.3764 24.8961C90.3788 24.9191 90.3607 24.9674 90.3631 24.9903L90.3776 25.128L90.3558 25.3624L90.3727 25.523L90.3207 25.6909L90.2397 26.0243L90.131 26.3142L89.8447 26.4603L89.7988 26.4651L89.6888 26.9639L89.6259 27.249C89.6078 27.2973 89.6017 27.4604 89.6066 27.5063L89.505 27.865L89.482 28.3083L89.4361 28.754L89.4094 29.3833C89.4262 29.9849 89.5929 30.2458 89.8115 30.3388L90.0023 30.3884C90.0736 30.4041 90.1219 30.4222 90.1678 30.4174L90.3442 30.3293L90.6993 30.1759C90.7863 30.1204 90.8962 30.0624 90.9373 30.0117L91.1185 29.9694L91.4398 29.9357C91.7877 29.7135 92.2842 29.3596 92.6913 29.0384L93.0114 28.7727L93.1419 28.6894L93.2446 28.5626L93.4802 28.3754L93.6312 28.2667L93.8257 28.1302C93.9924 27.9503 94.2485 27.7377 94.3923 27.5602L94.6761 27.3911L94.9504 27.1302L95.1171 26.9503L95.4372 26.6846L95.5037 26.6544L95.5882 26.5759L95.7755 26.3706L95.947 26.2366L96.4544 25.7656L96.6695 25.6037L97.2337 25.0107L97.5332 24.7704L97.7 24.5905C97.8643 24.3876 98.089 24.3175 98.2387 24.4178C98.3655 24.5205 98.5757 24.7537 98.2737 24.971L98.1891 25.0495C98.0429 25.2041 97.8279 25.366 97.7047 25.5181L96.7382 26.4783L96.6174 26.6534L96.5509 26.6836L96.4458 26.7874L96.3794 26.8176C96.0206 27.157 95.6618 27.4964 95.3211 27.7874L94.9575 28.0809L94.8294 28.1871L94.6881 28.3876L94.5757 28.4226C94.194 28.7644 93.741 29.0905 93.3592 29.4323L93.2565 29.5591L92.9159 29.8501L92.87 29.8549L92.7648 29.9588ZM82.4558 27.4689L82.3761 27.5933L82.1683 27.824L81.9858 28.0752L81.7949 28.4665C81.7744 28.4919 81.7176 28.6139 81.7224 28.6598L81.5641 29.1405C81.5605 29.3265 81.4904 29.5427 81.4662 29.7541C81.448 29.8024 81.4396 29.9425 81.4444 29.9884L81.4552 30.3122L81.5506 30.5574L81.6883 30.5429L81.7982 30.4849L81.9082 30.427L82.1232 30.2652L82.3793 30.0526L82.4868 29.9717L82.7683 29.7797L83.0292 29.613L83.0908 29.5369C83.411 29.2713 83.6876 29.0333 83.9618 28.7725L84.2614 28.5322L84.41 28.4005L84.5357 28.2713L84.6311 28.0756L84.9646 27.7157L85.1108 27.5611L85.3596 27.2797L85.5904 27.0466L86.0905 26.5068C86.4904 26.1167 86.8444 25.7314 87.173 25.3256L87.6248 24.7677L87.951 24.3389L88.2204 24.0321L88.3799 23.7833L88.4367 23.6613L88.351 23.5079L88.171 23.3412L88.0285 23.3098C87.886 23.2783 87.7024 23.2976 87.5441 23.3375C87.1588 23.4244 86.7831 23.6031 86.4557 23.7999L86.0667 24.0729L85.8034 24.2166L85.5376 24.3373L85.2332 24.5317C84.8648 24.7793 84.4734 25.0293 83.699 25.83C83.635 25.8831 83.5117 26.0353 83.4525 26.1343C83.3933 26.2334 83.3389 26.3783 83.2773 26.4544L82.7228 27.1392L82.5609 27.3651L82.4558 27.4689ZM90.1484 22.9477L89.5419 23.8004L89.7617 24.1254L89.8028 24.0747C89.8209 24.0263 89.8958 23.856 89.9345 23.7824C89.9526 23.7341 89.9502 23.7111 89.9478 23.6882L90.0481 23.5384L90.2777 23.0734L90.3526 22.9031L90.6184 22.3414L90.616 22.3185C90.5387 22.4658 90.3949 22.6434 90.3176 22.7907L90.1484 22.9477ZM108.849 23.233L108.083 24.7754L108.029 24.9203C108.01 24.9686 108.015 25.0145 108.015 25.0145L107.871 25.1921L107.554 25.9216L107.433 26.0967L107.699 26.4169C107.747 26.435 107.721 26.4145 107.906 26.6271L108.008 26.7092L108.225 27.0112L108.293 27.213L108.335 27.3942L108.421 27.5476L108.458 27.6829C108.602 27.9462 108.651 28.1963 108.721 28.4209L108.791 28.6456L108.899 29.0056L109.032 29.3861L109.088 29.705L109.127 30.0722L109.117 30.4213L109.134 30.5819L109.117 30.8622L109.077 31.1448C109.08 31.1678 109.064 31.239 109.066 31.262L109.065 31.4709L108.968 31.8756C108.973 31.9215 108.958 31.9927 108.96 32.0157L108.899 32.3237L108.853 32.7694C108.858 32.8153 108.843 32.8866 108.847 32.9325L108.853 33.2103L108.788 33.4724L108.602 33.9096L108.45 34.2273L108.357 34.4459L108.198 34.9266L108.126 35.1199L108.131 35.1658L108.022 35.4557L107.983 35.5293L107.966 35.8096L107.889 35.9569L107.472 37.0681L107.31 37.294L107.146 37.4969L107.128 37.5452C107.092 37.6418 107.009 37.7433 106.973 37.8399L106.703 38.3556L106.684 38.4039L106.512 38.7469L106.475 38.8436L106.205 39.3593L105.835 39.8158C105.287 40.7784 104.63 41.822 104.008 42.7459L104.011 42.7689L103.787 43.0708L103.66 43.409L103.56 43.5588L103.398 43.7846L103.152 44.089C103.134 44.1373 103.072 44.2134 103.051 44.2387L102.864 44.444L102.36 45.1699L102.299 45.246L101.633 46.1977C101.612 46.2231 101.635 46.2207 101.594 46.2714C101.594 46.2714 101.574 46.2968 101.376 46.6192L101.203 46.9623L100.66 47.7618L100.46 48.0613L99.8014 48.641C99.6323 48.798 99.4269 49.0516 99.2578 49.2086L98.8108 49.3716L98.5813 49.3958L98.2444 49.0599L98.114 48.7024C98.1683 48.5574 98.1635 48.5115 98.0814 48.1721L98.1081 47.5428C98.1009 47.4739 98.1142 47.3797 98.1093 47.3338L98.1517 47.0741C98.171 46.8168 98.2387 46.5777 98.2581 46.3204L98.3282 46.1042L98.4043 45.7249C98.4333 45.5594 98.5349 45.2007 98.6255 44.9592C98.6799 44.8142 98.7113 44.6717 98.7331 44.4374L98.7899 44.3154C98.8032 44.2212 98.837 44.1016 98.8938 43.9796L98.9663 43.7863C99.0412 43.616 99.0908 43.4252 99.1222 43.2827C99.1512 43.1172 99.208 42.9952 99.2624 42.8503C99.3192 42.7283 99.3482 42.5628 99.405 42.4408C99.5004 42.2451 99.5705 42.0289 99.6406 41.8127L99.8412 41.0723L99.9113 40.8561C99.9319 40.8307 99.9452 40.7365 99.9428 40.7136L100.147 40.228C100.263 40.007 100.328 39.7449 100.378 39.5541C100.396 39.5058 100.396 39.5058 100.394 39.4828L100.489 39.2871L100.655 38.8753L100.693 38.8016L100.981 38.0056L101.058 37.8583L101.051 37.7894L101.128 37.6421L101.423 36.915L101.505 36.8135C101.521 36.7423 101.578 36.6203 101.596 36.5719L101.854 35.9415L101.883 35.776L102.077 35.4076L102.469 34.5078L102.529 34.4087L102.717 33.9945L102.774 33.8725L102.803 33.707L103.23 32.6876L103.413 32.2274L103.771 31.6561L104.284 30.5812C104.418 30.3118 104.609 29.9205 104.721 29.6536L104.899 29.1475L105.036 28.9011L105.224 28.4868L105.943 27.1582L106.034 26.9167L106.189 26.622L106.23 26.5713C106.323 26.3526 106.305 26.401 106.32 26.3297L106.133 26.0941L106.103 26.0277C106.078 26.0071 105.953 25.9274 105.925 25.8839C105.902 25.8863 105.877 25.8658 105.877 25.8658L105.616 25.5915L105.261 25.304C105.16 25.2219 104.902 25.2025 104.645 25.1831L104.622 25.1855C104.179 25.1625 103.751 25.0682 103.481 24.7022C103.433 24.6841 103.359 24.6454 103.356 24.6225L103.337 24.4389L103.366 24.2734L103.485 24.0753L103.587 23.9485L103.759 23.8144L103.974 23.6526L104.107 23.5922L104.469 23.5077C104.492 23.5053 104.515 23.5029 104.558 23.4751C104.962 23.3399 105.074 23.3049 105.327 23.2784L105.595 23.1806L106.491 22.8775L106.828 22.7725L107.346 22.6252L107.592 22.5298L107.793 22.4622L107.97 22.3741L108.284 22.2714L108.376 22.2618C108.399 22.2594 108.399 22.2594 108.419 22.234C108.528 21.9441 108.632 21.6084 108.743 21.3414L108.957 20.9477L109.238 20.3148L109.395 20.043L110.087 18.671C110.1 18.5768 110.195 18.3811 110.314 18.183L110.525 17.7663L110.682 17.4946L110.842 17.2458L110.944 17.119L111.127 16.8677L111.245 16.6697C111.329 16.3592 111.545 15.9885 111.741 15.643L111.952 15.2263C112.079 14.8881 112.261 14.6369 112.444 14.3857L112.508 14.3326L112.503 14.2867L112.77 13.957L112.783 13.8627C112.876 13.6441 113.033 13.3724 113.213 13.0982L113.396 12.847C113.391 12.8011 113.43 12.7274 113.427 12.7045L113.952 11.9532L114.143 11.5619L114.48 11.016L114.808 10.6102L114.868 10.5111L114.97 10.3843C114.988 10.336 114.986 10.3131 114.984 10.2901L115.287 9.86378L115.398 9.59685L115.954 8.70309L116.111 8.43134L116.339 8.1753L116.529 7.99293L116.611 7.89148L116.871 7.49292L117.234 7.19945C117.408 7.08835 117.587 7.02316 117.771 7.00386C118 6.97974 118.148 7.05706 118.279 7.20566C118.457 7.34942 118.471 7.48713 118.362 7.77701L118.287 7.94731L118.197 8.18888L117.859 8.50288L117.669 8.68524L117.5 8.84224L117.322 9.13936L116.975 9.59347L116.681 9.8797L116.087 10.6382C115.46 11.5162 114.601 12.8363 114.025 13.7554C113.839 14.1927 113.657 14.4439 113.451 14.6975C113.289 14.9234 113.13 15.1722 112.955 15.4922C112.574 16.0659 112.28 16.5841 112.053 17.072C111.703 17.7122 111.447 18.3656 110.933 18.9997C110.897 19.0963 110.815 19.1977 110.779 19.2944C110.649 19.6096 110.518 19.9019 110.353 20.1048L110.023 20.7196L109.61 21.6448L109.501 21.9346L109.545 21.9069C110.191 21.6533 110.794 21.4275 111.248 21.3334L111.524 21.3044L113.139 20.9955C113.207 20.9882 113.274 20.958 113.363 20.9254L113.749 20.8385C113.84 20.8289 113.93 20.7963 114.022 20.7866C114.09 20.7794 114.182 20.7697 114.272 20.7371C114.504 20.736 115.07 20.6068 115.501 20.5151L115.639 20.5006C115.869 20.4765 116.569 20.5189 116.675 20.6469L116.741 20.8257L116.686 20.9707L116.466 21.0866L115.709 21.1662L114.933 21.2941L114.755 21.3593C114.5 21.3629 114.252 21.4353 114.028 21.5053C113.959 21.5126 113.869 21.5452 113.823 21.55C113.732 21.5596 113.619 21.5947 113.53 21.6273L113.417 21.6623L113.188 21.6864L112.486 21.853C112.284 21.9206 111.991 21.9978 111.83 22.0147L111.516 22.1173L111.133 22.2272C110.748 22.3141 110.278 22.4795 109.833 22.6655L109.46 22.8671L108.993 23.0555L108.924 23.0627L108.849 23.233ZM107.677 33.9373L107.793 33.7162L107.905 33.2403L108.029 32.6473L108.068 32.3646L108.119 31.9648C108.114 31.9189 108.148 31.7994 108.143 31.7535L108.125 31.3609L108.186 31.0529C108.181 31.007 108.215 30.8874 108.21 30.8415L108.281 30.4163C108.255 30.1639 108.249 29.8861 108.225 29.6565C108.198 29.4041 108.149 29.154 108.12 28.8786L108.05 28.654L108 28.4039L107.882 28.1611L107.849 28.0717L107.645 27.6755L107.539 27.5474L107.488 27.5064L107.352 27.3119L107.096 27.0835L106.992 26.9784L106.937 27.1234C106.917 27.1487 106.919 27.1717 106.919 27.1717L106.821 27.3444L106.653 27.7333L106.556 27.906L106.424 28.1983L106.365 28.2974L105.867 29.3011L105.416 30.091C105.277 30.3144 105.118 30.5632 104.966 30.8808L104.772 31.2492C104.677 31.4449 104.577 31.5947 104.465 31.8616L104.413 32.0295L104.316 32.2022C104.295 32.2276 104.295 32.2276 104.297 32.2505L104.088 32.6901L103.939 33.0308L103.484 34.0067L103.315 34.6045L103.076 34.9778L103.081 35.0237L102.954 35.3618L102.879 35.5321L102.496 36.5238L102.33 36.9356L102.224 37.2485L102.172 37.4164L101.877 38.1435L101.587 38.9165L101.508 39.2728L101.292 39.6436C101.233 39.7426 101.179 39.8876 101.129 40.0784L101 40.3937L100.399 41.965C100.324 42.1353 100.2 42.4965 100.168 42.639L100.047 43.255C99.6644 44.2467 99.5797 45.2069 99.4696 46.1466C99.437 46.4981 99.4043 46.8496 99.3511 47.2265C99.3559 47.2724 99.3378 47.3207 99.3426 47.3666L99.3656 47.3642L99.5117 47.2096L100.687 45.8098L100.815 45.7036L100.982 45.5236L101.531 44.561L101.795 44.2083L101.952 43.9366L102.7 42.8834L103.368 41.9546L103.674 41.5512L104.065 40.8604L104.319 40.6249L104.7 40.0512L104.916 39.6804L105.394 38.934L105.922 37.9967L106.284 37.2394L106.359 37.0691L106.511 36.7515L106.645 36.4822C106.72 36.3118 106.792 36.1186 106.926 35.8493L107.09 35.4144C107.085 35.3685 107.128 35.3408 107.126 35.3178L107.255 35.0026L107.468 34.3769L107.502 34.2573L107.677 33.9373ZM106.507 25.0107L106.537 25.0771L106.825 25.3949L107.078 24.9274L107.164 24.64L107.38 24.2692L107.844 23.3851L107.397 23.5481L106.707 23.8294L106.483 23.8994L106.352 23.9827L106.061 24.083L105.864 24.1965L105.685 24.2617C105.741 24.3486 105.806 24.5274 105.877 24.5431L105.903 24.5637C106.2 24.7413 106.377 24.885 106.507 25.0107ZM120.321 22.2825L120.326 22.3284C120.313 22.4226 120.32 22.4915 120.182 22.9468C120.166 23.0181 120.137 23.1836 120.101 23.2802L119.905 23.6256L119.672 23.8358L119.487 24.064L119.305 24.3152L119.095 24.523C118.743 24.9312 118.272 25.3055 117.778 25.6823L117.735 25.7101L117.458 25.948L117.325 26.0084L117.261 26.0615L117.069 26.2209L116.925 26.3985L116.79 26.4359C116.772 26.4842 116.71 26.5603 116.71 26.5603L116.513 26.6738L116.447 26.704L116.202 26.7994L116.046 26.8622L115.956 26.8948C115.936 26.9201 115.895 26.9709 115.872 26.9733L115.805 27.0035C115.409 27.2075 115.169 27.3488 114.944 27.4189L114.882 27.4949L114.747 27.5324L114.431 27.612L114.27 27.6289L113.831 27.6518C113.625 27.6735 113.439 27.6699 113.299 27.6614C113.182 27.6505 113.042 27.642 112.777 27.5538L112.729 27.5357C112.487 27.445 112.162 27.2239 112.099 27.0681L112.011 26.8917L111.967 26.6876L112.01 26.2189L112.142 25.9267L112.317 25.6066L113.056 24.6935L113.305 24.4121L113.516 24.2044L113.598 24.103L114.064 23.6827L114.085 23.6573C114.105 23.632 114.167 23.5559 114.21 23.5281L114.441 23.295L114.546 23.1911L115.053 22.7201L115.197 22.5426L115.266 22.5354L115.479 22.3506L115.714 22.1634L115.993 21.9484L116.419 21.5789L116.526 21.498L116.634 21.4171L116.289 21.4532C116.243 21.4581 116.2 21.4858 116.131 21.4931C115.973 21.5329 115.769 21.5776 115.562 21.5993L114.991 21.6825L114.708 21.6426L114.512 21.5472L114.305 21.337L114.299 21.0592L114.487 20.6449L114.774 20.4988L115.044 20.4239L115.34 20.3696L115.508 20.4216L115.905 20.4494C116.227 20.4156 116.504 20.4096 116.831 20.4218L117.175 20.3856L117.522 20.3724L117.95 20.2577L118.045 20.271L118.361 20.1913C118.405 20.1635 118.494 20.1309 118.514 20.1056L118.771 19.893L118.945 19.7819L118.967 19.7795L119.141 19.6684L119.346 19.6237L119.527 19.5815C119.662 19.5441 119.889 19.497 120.052 19.5031L120.19 19.4886L120.31 19.5224C120.404 19.5357 120.526 19.5925 120.599 19.6312L121.141 19.4815L121.409 19.3837L121.751 19.3246L122.106 19.1712L122.287 19.129L122.514 19.0819L122.973 19.0337L123.154 18.9914L123.455 18.983C123.524 18.9758 123.616 18.9661 123.705 18.9335L123.935 18.9094C124.003 18.9022 124.07 18.872 124.139 18.8647L124.272 18.8044L124.366 18.8177L124.503 18.8032L124.639 18.7658L124.799 18.7489L125.054 18.7453L125.281 18.6982L125.447 18.7272L125.516 18.72L125.702 18.7237L125.819 18.7345C126.005 18.7382 126.242 18.7829 126.55 18.8434L126.598 18.8615L126.69 18.8518L126.908 18.9449L126.885 18.9473C127.097 18.9715 127.102 19.0174 127.152 19.0585C127.201 19.0766 127.224 19.0742 127.247 19.0718L127.576 19.3388L127.687 19.5127L127.739 19.7857L127.717 20.02L127.627 20.2616L127.454 20.6046C127.379 20.7749 127.338 20.8257 127.276 20.9017L127.153 21.0539L126.885 21.1517L126.745 21.1432L126.693 20.8703L126.704 20.7531L126.733 20.5876L126.805 20.3944L126.937 20.1021L126.998 19.7941L126.99 19.7252L126.797 19.6527L126.624 19.5548L126.271 19.4992C125.754 19.4375 125.134 19.5027 124.79 19.5388L124.445 19.575L124.172 19.6269C124.058 19.639 123.968 19.6716 123.879 19.7042C123.812 19.7344 123.721 19.744 123.606 19.7561C122.603 19.9311 121.901 20.0976 121.202 20.2872L121.023 20.3524L120.939 20.4309L120.5 20.4538L120.048 20.5709L119.415 20.7302L119.262 20.8159L119.386 20.8957L119.435 20.9138L119.63 21.0093L120.039 21.3608L120.152 21.5577L120.296 21.8211L120.321 22.2825ZM118.914 23.2426L118.978 23.1894C119.137 22.9406 119.21 22.7474 119.282 22.5541L119.268 22.4164L119.333 22.1543C119.326 22.0854 119.344 22.0371 119.334 21.9453C119.307 21.9018 119.198 21.7508 119.195 21.7279L119.17 21.7074L118.997 21.6095L118.802 21.514L118.659 21.4826L118.517 21.4512L118.224 21.3195C118.224 21.3195 118.178 21.3243 118.153 21.3038L118.005 21.4354C117.769 21.6226 117.451 21.9112 116.758 22.3786L116.156 22.8363L115.9 23.0488L115.793 23.1297C115.642 23.2384 115.495 23.393 115.344 23.5017L115.219 23.6309L114.942 23.8688L114.714 24.1249L114.478 24.3121L114.332 24.4666L114.058 24.7275C114.017 24.7782 113.894 24.9304 113.875 24.9787L113.698 25.2758L113.536 25.5017C113.438 25.6744 113.343 25.8701 113.291 26.038C113.27 26.0633 113.275 26.1092 113.275 26.1092L113.241 26.2288L113.237 26.4148L113.222 26.4861L113.236 26.6238L113.388 26.747L113.51 26.8038L113.556 26.799C114.272 26.7701 114.426 26.6844 115.134 26.3547C115.489 26.2014 115.819 26.0275 116.105 25.8814L116.149 25.8536L116.54 25.6036L116.94 25.2135L117.1 25.1967L117.697 24.6931L117.802 24.5892C117.971 24.4322 118.136 24.2293 118.302 24.0493L118.362 23.9503L118.569 23.7196L118.754 23.4914C118.752 23.4684 118.77 23.4201 118.77 23.4201L118.914 23.2426ZM126.776 22.5322L126.583 22.9006L126.667 22.8221L127.023 22.4598L127.208 22.2315L127.441 22.0214L127.805 21.7279L128.205 21.3379L128.671 20.9176L129.33 20.3379L129.414 20.2594L129.652 20.0951L129.796 19.9176L129.908 19.8826C129.972 19.8295 130.059 19.7739 130.1 19.7232L130.53 19.3995L130.715 19.1713L130.843 19.065L131.153 18.9165L131.381 18.6604L131.66 18.4455L132.253 18.1279L132.276 18.1255C132.276 18.1255 132.473 18.012 132.537 17.9588C132.624 17.9033 132.777 17.8175 133.143 17.547L133.563 17.3405L134.22 16.9698L134.463 16.8515L134.639 16.7633L134.912 16.7114C135.313 16.5533 135.696 16.4434 136.043 16.4302C136.114 16.4459 136.185 16.4616 136.254 16.4544C136.447 16.5269 136.592 16.5812 136.694 16.6634C136.744 16.7045 136.871 16.8072 136.901 16.8736L137.02 17.1164L137.034 17.695L136.971 17.9801L136.876 18.1757L136.711 18.3786L136.54 18.5127L136.361 18.5779L136.226 18.6153L136.04 18.6116L135.786 18.4063L135.749 18.271L135.714 18.1586L135.702 18.0439L135.639 17.888L135.599 17.7298L135.536 17.574L135.353 17.5933L135.046 17.7647L134.888 17.8046L134.77 17.7937L134.53 17.935L134.326 17.9796C134.055 18.0545 133.767 18.1776 133.519 18.2501C133.235 18.4191 132.908 18.616 132.621 18.7621C132.601 18.7875 132.514 18.843 132.491 18.8454L132.388 18.9722L131.521 19.5507L131.221 19.791L131.075 19.9456L130.663 20.2209L130.576 20.2765L130.389 20.4818L130.069 20.7475L129.946 20.8997L129.326 21.4057L128.785 21.9962L128.289 22.582L128.141 22.7136L127.897 23.0409L127.584 23.3755L127.412 23.5095C127.371 23.5603 127.287 23.6388 127.268 23.6871L127.081 23.8924L126.899 24.1436L126.796 24.2704L126.691 24.3743L126.483 24.605L126.426 24.7269L126.301 24.8562L126.221 24.9806L126.013 25.2112L125.555 25.9323L125.264 26.4734L125.084 26.7476L124.812 27.0314C124.725 27.0869 124.59 27.1243 124.475 27.1364C124.269 27.1581 124.098 27.0832 124.038 26.9503C123.96 26.8657 123.847 26.4599 123.954 26.147L124.094 25.7146L124.321 25.2267L124.501 24.9525L124.64 24.7291L124.877 24.3329L125.013 24.0865L125.129 23.8655L125.199 23.6493L125.397 23.3268L125.427 23.1613L125.668 22.8111L125.73 22.735C125.81 22.6106 125.88 22.3944 125.959 22.27L126.075 22.049L126.289 21.6552L126.457 21.2663L126.514 21.1443L126.584 20.9281L126.664 20.8037L126.661 20.7808L126.799 20.3254L126.926 19.9872L127.133 19.5246L127.302 18.9267L127.315 18.8325L127.392 18.6852L127.659 18.3555L128 18.0644L128.133 18.004L128.296 18.0101C128.632 18.114 128.764 18.2626 128.826 18.4185L128.841 18.5562C128.877 18.9004 128.702 19.2205 128.522 19.4946L128.095 20.0732L127.913 20.3244L127.874 20.3981L127.799 20.5684C127.82 20.543 127.683 20.7894 127.585 20.9621L127.312 21.4549L127.24 21.6481L127.088 21.9658L126.926 22.1916L126.928 22.2146L126.776 22.5322ZM151.089 18.4221L151.291 18.3545L151.767 18.026L151.87 17.8992L152.003 17.8388L152.115 17.8038L152.241 17.6746L152.353 17.6396L152.852 17.3087L153.174 17.066L153.369 16.9295L153.481 16.8945L154.031 16.6047L154.179 16.4731C154.202 16.4706 154.246 16.4429 154.246 16.4429L154.632 16.147L154.788 16.0842L154.855 16.054L155.116 15.8874C155.139 15.885 155.205 15.8548 155.269 15.8016L155.619 15.6024L155.906 15.4563L156.082 15.3681L156.345 15.2244L156.522 15.1363L156.634 15.1013L156.946 14.9757L157.129 14.9564C157.196 14.9262 157.334 14.9117 157.402 14.9045C157.841 14.8816 158.136 15.0363 158.241 15.3733L158.319 15.8987L158.325 16.1766L158.22 16.7213L158.146 17.1235L158.014 17.4158L157.837 17.7129L157.723 17.9569L157.591 18.2492L157.496 18.4449L157.426 18.6611L157.303 18.8132L157.155 19.1768L157.076 19.3012C156.944 19.5935 156.844 19.7433 156.712 20.0356L156.612 20.1853L156.496 20.4063L156.48 20.4776L156.328 20.7953L156.33 20.8182L156.239 21.0598L156.198 21.1105L156.206 21.1794L155.957 21.4608L155.779 21.7579L155.65 22.0731L155.572 22.2205L155.49 22.3219L154.885 23.4065L154.862 23.4089L154.671 23.8003L154.393 24.2471L154.352 24.2979L154.257 24.4935L154.189 24.7327L154.04 24.8643C154.043 24.8873 154.022 24.9126 154.025 24.9356L153.847 25.2327C153.829 25.281 153.765 25.3342 153.747 25.3825L153.667 25.5069C153.672 25.5528 153.659 25.647 153.661 25.6699L153.338 25.9127L153.081 26.3342C153.086 26.3801 153.045 26.4308 153.05 26.4767L152.874 26.7968L152.692 27.048L152.079 28.0637L151.751 28.4695L151.594 28.7413L151.365 28.9973L151.144 29.3222L150.859 29.7003C150.798 29.7763 150.695 29.9032 150.656 29.9768L150.661 30.0227L150.488 30.3658L150.329 30.6146L150.247 30.716L149.935 31.2825L149.847 31.547L149.618 31.803C149.384 32.2221 149.118 32.7838 148.814 33.4191C148.821 33.4879 148.808 33.5821 148.815 33.651L148.692 33.8032C148.699 33.872 148.667 34.0145 148.672 34.0604L148.542 34.1438L148.207 35.1535L147.982 35.6644L147.749 36.3154L147.573 36.8445L147.503 37.0607L147.388 37.5136L147.372 37.5849L147.356 37.6562L147.348 37.7963L147.332 37.8675L147.292 38.1502L147.267 38.5705C147.272 38.6164 147.256 38.6877 147.258 38.7106L147.193 38.9727L147.177 39.044L147.114 39.3291C147.117 39.352 147.099 39.4003 147.101 39.4233L147.1 39.6322L147.038 39.7083C147.043 39.7542 147.03 39.8484 147.032 39.8714L147.053 40.2869L147.114 40.6517L147.212 40.9199L147.297 41.2823L147.318 41.4888L147.289 41.6543L147.315 42.1157L146.95 42.6182L146.669 42.6012L146.473 42.2738L146.384 42.0975L146.285 41.5974L146.271 41.4597L146.236 41.3473L146.172 40.9596L146.148 40.7301L146.185 40.4245L146.178 40.3556L146.21 40.2131L146.2 40.1213L146.236 40.0247C146.24 39.8387 146.264 39.6273 146.295 39.4848C146.293 39.4618 146.314 39.4364 146.311 39.4135L146.369 39.0825L146.357 38.9678L146.392 38.6392C146.387 38.5933 146.403 38.5221 146.401 38.4991L146.494 38.2805C146.524 37.9061 146.68 37.4024 146.79 36.9035C146.819 36.7381 146.848 36.5726 146.902 36.4276L147.023 35.8116L147.137 35.5677L147.271 35.2983L147.432 34.8406L147.45 34.7922C147.672 34.2584 147.892 33.7016 148.14 33.1883L148.21 32.972L148.308 32.7993L148.519 32.3826L148.54 32.3573L148.694 32.0626L148.828 31.7932C148.844 31.722 148.906 31.6459 148.921 31.5746L149.104 31.3234L149.161 31.2014C149.161 31.2014 149.181 31.1761 149.179 31.1531L149.727 30.1905L149.941 29.7967L150.023 29.6953C150.042 29.647 150.039 29.624 150.037 29.6011L150.201 29.3982C150.242 29.3475 150.255 29.2532 150.296 29.2025L150.392 29.0069L150.495 28.88L150.554 28.781L150.626 28.5877L150.847 28.2629L150.95 28.136L151.966 26.5442C151.982 26.4729 151.977 26.427 151.975 26.4041L152.244 26.0973L152.306 26.0212L152.599 25.5031L152.666 25.4729L152.707 25.4222L152.764 25.3002L152.921 25.0284L153.18 24.6299L153.615 23.9112L153.652 23.8146L153.997 23.1286L154.386 22.4148L154.58 22.0464L155.128 21.0838L155.582 20.1078L155.721 19.8844L155.83 19.5945L156.319 18.731L156.603 18.121L156.84 17.7249C156.82 17.7502 156.91 17.5087 156.947 17.412L156.968 17.1777L156.994 16.7574C156.984 16.6656 156.949 16.5532 156.937 16.4385L156.897 16.2802L156.862 16.1679L156.791 16.1522L156.625 16.1231L156.444 16.1654L155.89 16.4093C155.537 16.5856 155.12 16.815 154.793 17.0119L154.489 17.2063L153.117 18.0697L153.097 18.0951C153.03 18.1253 152.969 18.2014 152.902 18.2316C152.879 18.234 152.879 18.234 152.859 18.2593L152.376 18.519L152.207 18.676L152.074 18.7363L151.973 18.8861L151.886 18.9416C151.754 19.002 151.626 19.1083 151.493 19.1687L151.449 19.1964C151.319 19.2798 151.15 19.4368 151.019 19.5201L150.907 19.5551L150.477 19.8788L150.3 19.9669L149.998 20.1843L149.886 20.2193C149.756 20.3026 149.673 20.4041 149.543 20.4874L149.481 20.5635L149.351 20.6468L149.179 20.7809L149.133 20.7857L148.982 20.8944L148.806 20.9825L148.634 21.1166C148.593 21.1673 148.527 21.1975 148.506 21.2228L148.335 21.3569L147.911 21.5175L147.602 21.666L147.519 21.7674L147.338 21.8097L147.315 21.8121L146.94 21.9908L146.477 22.2251L146.275 22.2927L145.933 22.3518L145.727 22.3735L145.561 22.3445L145.333 22.1597L145.192 21.9193C145.192 21.9193 145.037 21.7731 145.03 21.7042C144.927 21.3902 144.948 20.9239 145.158 20.2753L145.319 19.8175L145.391 19.6243C145.451 19.5253 145.466 19.454 145.48 19.3598C145.532 19.1919 145.584 19.024 145.684 18.8742L145.743 18.7752L145.929 18.338L146.079 17.9974L146.238 17.7486L146.576 17.2026L146.805 16.7376L147.093 16.3826L147.362 16.0758C147.531 15.9188 147.804 15.8669 147.919 15.8548C148.171 15.8283 148.321 15.9286 148.345 16.1581C148.357 16.2728 148.346 16.39 148.258 16.6545L148.063 16.9999L147.814 17.2813L147.675 17.5048L147.369 17.9082L147.161 18.1389L146.583 19.035L146.441 19.2355C146.382 19.3346 146.328 19.4795 146.266 19.5556C146.186 19.68 146.042 19.8575 146.047 19.9034L145.897 20.244L145.843 20.389C145.825 20.4373 145.809 20.5085 145.812 20.5315L145.778 20.6511L145.708 20.8673L145.71 20.8902C145.635 21.0605 145.611 21.2719 145.646 21.3842C145.709 21.5401 146.097 21.4761 146.631 21.2576L146.83 21.167C146.873 21.1392 147.052 21.074 147.073 21.0487L147.224 20.94L147.405 20.8977L147.448 20.87L148.075 20.4328L148.339 20.2891L148.494 20.2263L148.561 20.1961L148.902 19.9051L149.037 19.8677L149.234 19.7541L149.277 19.7264L150.618 18.7965L150.744 18.6673L150.941 18.5538L151.089 18.4221ZM166.415 17.4378L166.42 17.4837C166.406 17.578 166.414 17.6468 166.276 18.1022C166.26 18.1734 166.231 18.3389 166.195 18.4355L165.999 18.781L165.766 18.9911L165.581 19.2194L165.399 19.4706L165.189 19.6783C164.837 20.0865 164.366 20.4609 163.872 20.8377L163.828 20.8655L163.552 21.1034L163.419 21.1637L163.355 21.2169L163.163 21.3763L163.019 21.5538L162.884 21.5913C162.865 21.6396 162.804 21.7157 162.804 21.7157L162.607 21.8292L162.54 21.8594L162.295 21.9547L162.139 22.0175L162.05 22.0501C162.03 22.0755 161.988 22.1262 161.965 22.1286L161.899 22.1588C161.503 22.3629 161.262 22.5042 161.038 22.5742L160.976 22.6503L160.841 22.6877L160.524 22.7674L160.364 22.7843L159.925 22.8072C159.719 22.8289 159.533 22.8252 159.393 22.8167C159.275 22.8058 159.135 22.7974 158.871 22.7091L158.822 22.691C158.581 22.6004 158.256 22.3793 158.193 22.2235L158.105 22.0471L158.06 21.843L158.104 21.3743L158.236 21.082L158.411 20.7619L159.15 19.8489L159.399 19.5675L159.609 19.3598L159.691 19.2583L160.158 18.838L160.178 18.8127C160.199 18.7873 160.26 18.7112 160.304 18.6834L160.535 18.4503L160.64 18.3465L161.147 17.8755L161.291 17.6979L161.36 17.6907L161.572 17.5059L161.808 17.3187L162.087 17.1038L162.512 16.7342L162.62 16.6533L162.727 16.5724L162.383 16.6086C162.337 16.6134 162.294 16.6412 162.225 16.6484C162.067 16.6883 161.862 16.7329 161.656 16.7546L161.085 16.8379L160.802 16.798L160.606 16.7025L160.399 16.4923L160.393 16.2145L160.581 15.8002L160.867 15.6541L161.138 15.5793L161.434 15.525L161.602 15.5769L161.999 15.6048C162.32 15.571 162.598 15.565 162.924 15.5771L163.269 15.5409L163.615 15.5277L164.044 15.413L164.138 15.4263L164.455 15.3467C164.498 15.3189 164.588 15.2863 164.608 15.2609L164.864 15.0484L165.038 14.9373L165.061 14.9349L165.235 14.8238L165.439 14.7791L165.621 14.7369C165.756 14.6994 165.983 14.6524 166.146 14.6584L166.284 14.6439L166.403 14.6778C166.497 14.6911 166.619 14.7479 166.693 14.7865L167.234 14.6368L167.502 14.5391L167.844 14.4799L168.199 14.3266L168.381 14.2843L168.608 14.2373L169.067 14.189L169.248 14.1468L169.549 14.1384C169.618 14.1311 169.709 14.1215 169.799 14.0889L170.028 14.0647C170.097 14.0575 170.164 14.0273 170.232 14.0201L170.365 13.9597L170.46 13.973L170.597 13.9585L170.733 13.9211L170.893 13.9042L171.148 13.9006L171.375 13.8536L171.541 13.8826L171.609 13.8754L171.795 13.879L171.913 13.8899C172.099 13.8935 172.335 13.9383 172.643 13.9987L172.692 14.0168L172.784 14.0072L173.002 14.1002L172.979 14.1027C173.191 14.1268 173.195 14.1727 173.246 14.2138C173.294 14.2319 173.317 14.2295 173.34 14.2271L173.67 14.4941L173.781 14.6681L173.833 14.9411L173.811 15.1754L173.721 15.417L173.548 15.76C173.473 15.9303 173.432 15.981 173.37 16.0571L173.247 16.2093L172.979 16.3071L172.839 16.2986L172.787 16.0256L172.798 15.9084L172.827 15.743L172.899 15.5497L173.031 15.2574L173.091 14.9494L173.084 14.8806L172.891 14.8081L172.718 14.7102L172.364 14.6546C171.847 14.5929 171.228 14.658 170.883 14.6942L170.539 14.7304L170.266 14.7823C170.151 14.7943 170.062 14.8269 169.973 14.8595C169.906 14.8897 169.814 14.8994 169.7 14.9114C168.697 15.0864 167.995 15.253 167.296 15.4425L167.117 15.5077L167.032 15.5862L166.594 15.6091L166.142 15.7262L165.509 15.8855L165.356 15.9713L165.48 16.051L165.529 16.0692L165.724 16.1646L166.132 16.5162L166.246 16.7131L166.39 16.9764L166.415 17.4378ZM165.008 18.3979L165.072 18.3448C165.231 18.096 165.304 17.9027 165.376 17.7095L165.362 17.5718L165.427 17.3097C165.42 17.2408 165.438 17.1925 165.428 17.1007C165.4 17.0572 165.292 16.9062 165.289 16.8832L165.264 16.8627L165.091 16.7648L164.896 16.6694L164.753 16.638L164.61 16.6065L164.318 16.4748C164.318 16.4748 164.272 16.4796 164.247 16.4591L164.098 16.5907C163.863 16.7779 163.545 17.0666 162.852 17.5339L162.25 17.9916L161.994 18.2042L161.886 18.2851C161.735 18.3938 161.589 18.5484 161.438 18.657L161.313 18.7863L161.036 19.0242L160.808 19.2802L160.572 19.4674L160.426 19.622L160.152 19.8829C160.11 19.9336 159.987 20.0858 159.969 20.1341L159.792 20.4312L159.63 20.657C159.532 20.8298 159.436 21.0254 159.384 21.1933C159.364 21.2187 159.369 21.2646 159.369 21.2646L159.335 21.3842L159.331 21.5702L159.315 21.6414L159.33 21.7791L159.482 21.9024L159.604 21.9592L159.65 21.9543C160.366 21.9255 160.52 21.8397 161.228 21.5101C161.583 21.3567 161.912 21.1828 162.199 21.0367L162.242 21.009L162.634 20.759L163.034 20.3689L163.194 20.352L163.791 19.8484L163.896 19.7445C164.065 19.5875 164.23 19.3846 164.396 19.2047L164.455 19.1056L164.663 18.875L164.848 18.6467C164.846 18.6238 164.864 18.5754 164.864 18.5754L165.008 18.3979ZM179.346 19.4433L179.409 19.1583C179.448 19.0846 179.477 18.9191 179.565 18.6546L179.56 18.6087L179.635 18.4384C179.63 18.3925 179.651 18.3671 179.669 18.3188L179.855 17.8816C179.891 17.785 179.987 17.5893 180.043 17.4673C180.061 17.419 180.059 17.396 180.057 17.3731L180.116 17.274C180.132 17.2028 180.193 17.1267 180.225 16.9842L180.318 16.7655C180.315 16.7426 180.333 16.6943 180.329 16.6484L180.403 16.4781L179.673 16.8101L179.563 16.8681L179.407 16.9309L179.258 17.0625L178.736 17.3958L178.35 17.6917L178.219 17.775L176.97 18.6952L176.886 18.7737L176.739 18.9283L176.113 19.3655L175.829 19.5346L174.987 20.1335L174.943 20.1613L174.802 20.3618L174.738 20.4149L174.541 20.5285L174.239 20.7458L174.129 20.8038L174.083 20.8086L173.921 21.0345L173.763 21.0743L173.696 21.1045L173.568 21.2108L173.507 21.2869L173.289 21.4257L172.774 21.596L172.641 21.6563L172.439 21.724L172.281 21.7638L171.585 21.7673L171.3 21.7044C170.944 21.6259 170.916 21.5824 170.814 21.5002C170.63 21.2876 170.615 21.1499 170.598 20.9893L170.579 20.8057L170.639 20.4977L170.697 20.1667L170.798 20.0169L170.847 19.8261L170.845 19.8031L170.979 19.5338L171.141 19.3079L171.366 18.797L171.415 18.6062L171.534 18.4081L171.631 18.2354L171.802 17.8694L171.943 17.669L172.1 17.3972L172.196 17.2015L172.291 17.0059L172.505 16.6121L172.582 16.4648L172.619 16.3681L172.684 16.106C172.681 16.0831 172.72 16.0094 172.713 15.9406L172.714 15.7316L172.752 15.426L172.835 15.1156L173.069 14.6965L173.333 14.5528L173.514 14.5105L173.654 14.519L173.88 14.6809C173.961 14.7884 174.046 14.9418 174.091 15.146L174.139 15.605L174.099 15.8876L173.986 16.1316L173.838 16.4952L173.661 16.7923L173.522 17.0157L173.317 17.2694L173.196 17.4445L173.093 17.5713L172.972 17.7464L172.847 17.8756L172.806 17.9264L172.412 18.5943L172.234 18.8914C172.136 19.0641 172.038 19.2368 171.963 19.4071L171.768 19.7526L171.693 19.9229L171.614 20.2792L171.562 20.4471L171.476 20.7345C171.456 20.7599 171.456 20.7599 171.461 20.8058C171.468 20.8746 171.44 20.8312 171.468 20.8746L171.56 20.865C171.651 20.8553 171.81 20.8155 172.009 20.725C172.211 20.6573 172.41 20.5668 172.454 20.539L172.829 20.3603L173.203 20.1586L173.358 20.0958L173.489 20.0125L174.384 19.4776C174.427 19.4498 174.466 19.3761 174.51 19.3483L174.75 19.2071L174.86 19.1491L174.99 19.0658L175.306 18.7542L175.851 18.4185L175.963 18.3835L175.986 18.381L176.457 18.0067C176.498 17.9559 176.544 17.9511 176.585 17.9004L176.752 17.7204L177.123 17.4958L177.77 17.0333L178.003 16.8232L178.262 16.6336L178.508 16.3292L178.746 16.165L178.874 16.0587L179.161 15.9126L179.225 15.8595L179.332 15.7785L180.015 15.4284L180.102 15.3728L180.207 15.2689L180.706 14.9381L180.88 14.827L181.081 14.7593L181.194 14.7243C181.285 14.7147 181.449 14.7207 181.593 14.7751L181.771 14.9189L181.882 15.0929L181.897 15.2306L181.868 15.396L181.816 15.5639L181.52 16.0591L181.39 16.3744C181.372 16.4227 181.361 16.5398 181.361 16.5398L181.168 16.9082L181.1 17.1474L181.03 17.3636L180.889 17.5641L180.894 17.61L180.739 17.9047C180.744 17.9506 180.726 17.9989 180.728 18.0218L180.658 18.238C180.663 18.2839 180.647 18.3552 180.65 18.3781L180.557 18.5968L180.454 18.7236C180.422 18.8661 180.411 18.9833 180.419 19.0521L180.424 19.098C180.5 19.1596 180.596 19.1959 180.782 19.1995C180.851 19.1923 180.922 19.208 180.991 19.2008L181.175 19.1815L181.315 19.19L181.476 19.1731C181.659 19.1538 181.863 19.1091 182.111 19.0367C182.157 19.0319 182.223 19.0017 182.269 18.9968L182.382 18.9618L182.693 18.8363L182.833 18.8447L183.375 18.695L183.53 18.6323L183.826 18.578L184.03 18.5333C184.074 18.5055 184.097 18.5031 184.143 18.4983L184.301 18.4584L184.627 18.4706L184.713 18.624L184.709 18.81L184.501 19.0407L184.343 19.0805L184.277 19.1107L183.935 19.1698L183.713 19.2628L183.422 19.363L182.668 19.6975L182.418 19.747L182.328 19.7796L182.04 19.9027L181.79 19.9522L181.631 19.9921C181.588 20.0198 181.519 20.0271 181.473 20.0319L181.202 20.1067L180.911 20.207L180.682 20.2311C180.59 20.2407 180.524 20.2709 180.455 20.2781C180.297 20.318 180.092 20.3626 179.975 20.3518L179.929 20.3566C179.906 20.359 179.812 20.3457 179.766 20.3505L179.459 20.0811L179.427 19.9917C179.344 19.8612 179.304 19.703 179.335 19.5605C179.333 19.5375 179.348 19.4663 179.346 19.4433Z" fill="#F9B300"/>
</svg>
